<?xml version="1.0" encoding="utf-8" ?>
<svg xmlns="http://www.w3.org/2000/svg" xmlns:xlink="http://www.w3.org/1999/xlink" width="1000" height="800">
	<rect fill="white" width="1000" height="800"/>
	<path fill="#666" transform="translate(526.54 778.8)" d="M-9.1318665 4.1005859L-9.1318665 -1.4072266Q-9.1318665 -2.3212891 -9.0791321 -3.1650391Q-9.3662415 -2.1162109 -9.5947571 -1.5244141L-11.72757 4.1005859L-12.512726 4.1005859L-14.674835 -1.5244141L-15.00296 -2.5205078L-15.19632 -3.1650391L-15.178741 -2.5146484L-15.155304 -1.4072266L-15.155304 4.1005859L-16.151398 4.1005859L-16.151398 -4.1552734L-14.680695 -4.1552734L-12.483429 1.5693359Q-12.366241 1.9150391 -12.257843 2.3105469Q-12.149445 2.7060547 -12.114288 2.8818359Q-12.067413 2.6474609 -11.917999 2.1699219Q-11.768585 1.6923828 -11.715851 1.5693359L-9.5596008 -4.1552734L-8.124054 -4.1552734L-8.124054 4.1005859L-9.1318665 4.1005859ZM-0.96975708 0.92480469Q-0.96975708 2.5888672 -1.702179 3.4033203Q-2.4346008 4.2177734 -3.8291321 4.2177734Q-5.217804 4.2177734 -5.9267883 3.3710938Q-6.6357727 2.5244141 -6.6357727 0.92480469Q-6.6357727 -2.3564453 -3.7939758 -2.3564453Q-2.3408508 -2.3564453 -1.655304 -1.5566406Q-0.96975708 -0.75683594 -0.96975708 0.92480469ZM-2.077179 0.92480469Q-2.077179 -0.38769531 -2.4668274 -0.98242188Q-2.8564758 -1.5771484 -3.7763977 -1.5771484Q-4.702179 -1.5771484 -5.1152649 -0.97070312Q-5.5283508 -0.36425781 -5.5283508 0.92480469Q-5.5283508 2.1787109 -5.1211243 2.8085938Q-4.7138977 3.4384766 -3.8408508 3.4384766Q-2.8916321 3.4384766 -2.4844055 2.8291016Q-2.077179 2.2197266 -2.077179 0.92480469ZM4.3681335 4.1005859L4.3681335 0.081054688Q4.3681335 -0.54589844 4.2450867 -0.89160156Q4.1220398 -1.2373047 3.8525085 -1.3896484Q3.5829773 -1.5419922 3.0614929 -1.5419922Q2.2997742 -1.5419922 1.860321 -1.0205078Q1.4208679 -0.49902344 1.4208679 0.42675781L1.4208679 4.1005859L0.36618042 4.1005859L0.36618042 -0.88574219Q0.36618042 -1.9931641 0.33102417 -2.2392578L1.3271179 -2.2392578Q1.3329773 -2.2099609 1.3388367 -2.0810547Q1.344696 -1.9521484 1.3534851 -1.7851562Q1.3622742 -1.6181641 1.3739929 -1.1552734L1.391571 -1.1552734Q1.7548523 -1.8115234 2.2323914 -2.0839844Q2.7099304 -2.3564453 3.4189148 -2.3564453Q4.4618835 -2.3564453 4.945282 -1.8378906Q5.4286804 -1.3193359 5.4286804 -0.12402344L5.4286804 4.1005859L4.3681335 4.1005859ZM9.454071 4.0537109Q8.9325867 4.1943359 8.3876648 4.1943359Q7.1220398 4.1943359 7.1220398 2.7587891L7.1220398 -1.4716797L6.3896179 -1.4716797L6.3896179 -2.2392578L7.1630554 -2.2392578L7.4736023 -3.6572266L8.1767273 -3.6572266L8.1767273 -2.2392578L9.3486023 -2.2392578L9.3486023 -1.4716797L8.1767273 -1.4716797L8.1767273 2.5302734Q8.1767273 2.9873047 8.3261414 3.171875Q8.4755554 3.3564453 8.844696 3.3564453Q9.0556335 3.3564453 9.454071 3.2744141L9.454071 4.0537109ZM11.399384 -1.1552734Q11.739227 -1.7763672 12.216766 -2.0664062Q12.694305 -2.3564453 13.426727 -2.3564453Q14.457977 -2.3564453 14.947235 -1.84375Q15.436493 -1.3310547 15.436493 -0.12402344L15.436493 4.1005859L14.375946 4.1005859L14.375946 0.081054688Q14.375946 -0.58691406 14.252899 -0.91210938Q14.129852 -1.2373047 13.848602 -1.3896484Q13.567352 -1.5419922 13.069305 -1.5419922Q12.325165 -1.5419922 11.876923 -1.0263672Q11.42868 -0.51074219 11.42868 0.36230469L11.42868 4.1005859L10.373993 4.1005859L10.373993 -4.5947266L11.42868 -4.5947266L11.42868 -2.3330078Q11.42868 -1.9755859 11.408173 -1.5947266Q11.387665 -1.2138672 11.381805 -1.1552734L11.399384 -1.1552734Z"/>
	<path fill="none" stroke="black" stroke-width="1" stroke-miterlimit="10" stroke-opacity="0.10196079" d="M54 759.5L1000 759.5"/>
	<path fill="none" stroke="black" stroke-width="1" stroke-miterlimit="10" stroke-opacity="0.10196079" d="M45.080002 759.5L53 759.5"/>
	<path fill="none" stroke="black" stroke-width="1" stroke-miterlimit="10" stroke-opacity="0.10196079" d="M54 687.5L1000 687.5"/>
	<path fill="none" stroke="black" stroke-width="1" stroke-miterlimit="10" stroke-opacity="0.10196079" d="M45.080002 687.5L53 687.5"/>
	<path fill="none" stroke="black" stroke-width="1" stroke-miterlimit="10" stroke-opacity="0.10196079" d="M54 614.5L1000 614.5"/>
	<path fill="none" stroke="black" stroke-width="1" stroke-miterlimit="10" stroke-opacity="0.10196079" d="M45.080002 614.5L53 614.5"/>
	<path fill="none" stroke="black" stroke-width="1" stroke-miterlimit="10" stroke-opacity="0.10196079" d="M54 542.5L1000 542.5"/>
	<path fill="none" stroke="black" stroke-width="1" stroke-miterlimit="10" stroke-opacity="0.10196079" d="M45.080002 542.5L53 542.5"/>
	<path fill="none" stroke="black" stroke-width="1" stroke-miterlimit="10" stroke-opacity="0.10196079" d="M54 469.5L1000 469.5"/>
	<path fill="none" stroke="black" stroke-width="1" stroke-miterlimit="10" stroke-opacity="0.10196079" d="M45.080002 469.5L53 469.5"/>
	<path fill="none" stroke="black" stroke-width="1" stroke-miterlimit="10" stroke-opacity="0.10196079" d="M54 397.5L1000 397.5"/>
	<path fill="none" stroke="black" stroke-width="1" stroke-miterlimit="10" stroke-opacity="0.10196079" d="M45.080002 397.5L53 397.5"/>
	<path fill="none" stroke="black" stroke-width="1" stroke-miterlimit="10" stroke-opacity="0.10196079" d="M54 324.5L1000 324.5"/>
	<path fill="none" stroke="black" stroke-width="1" stroke-miterlimit="10" stroke-opacity="0.10196079" d="M45.080002 324.5L53 324.5"/>
	<path fill="none" stroke="black" stroke-width="1" stroke-miterlimit="10" stroke-opacity="0.10196079" d="M54 251.5L1000 251.5"/>
	<path fill="none" stroke="black" stroke-width="1" stroke-miterlimit="10" stroke-opacity="0.10196079" d="M45.080002 251.5L53 251.5"/>
	<path fill="none" stroke="black" stroke-width="1" stroke-miterlimit="10" stroke-opacity="0.10196079" d="M54 179.5L1000 179.5"/>
	<path fill="none" stroke="black" stroke-width="1" stroke-miterlimit="10" stroke-opacity="0.10196079" d="M45.080002 179.5L53 179.5"/>
	<path fill="none" stroke="black" stroke-width="1" stroke-miterlimit="10" stroke-opacity="0.10196079" d="M54 106.5L1000 106.5"/>
	<path fill="none" stroke="black" stroke-width="1" stroke-miterlimit="10" stroke-opacity="0.10196079" d="M45.080002 106.5L53 106.5"/>
	<path fill="none" stroke="black" stroke-width="1" stroke-miterlimit="10" stroke-opacity="0.10196079" d="M54 34.5L1000 34.5"/>
	<path fill="none" stroke="black" stroke-width="1" stroke-miterlimit="10" stroke-opacity="0.10196079" d="M45.080002 34.5L53 34.5"/>
	<path fill="#666" transform="matrix(0 -1 1 0 11.2 397)" d="M-21.591797 -0.11230469Q-21.591797 1.1650391 -22.089844 2.1230469Q-22.587891 3.0810547 -23.501953 3.5908203Q-24.416016 4.1005859 -25.611328 4.1005859L-28.699219 4.1005859L-28.699219 -4.1552734L-25.96875 -4.1552734Q-23.871094 -4.1552734 -22.731445 -3.1035156Q-21.591797 -2.0517578 -21.591797 -0.11230469ZM-22.716797 -0.11230469Q-22.716797 -1.6474609 -23.557617 -2.453125Q-24.398438 -3.2587891 -25.992188 -3.2587891L-27.580078 -3.2587891L-27.580078 3.2041016L-25.740234 3.2041016Q-24.832031 3.2041016 -24.143555 2.8056641Q-23.455078 2.4072266 -23.085938 1.6572266Q-22.716797 0.90722656 -22.716797 -0.11230469ZM-14.847656 0.92480469Q-14.847656 2.5888672 -15.580078 3.4033203Q-16.3125 4.2177734 -17.707031 4.2177734Q-19.095703 4.2177734 -19.804688 3.3710938Q-20.513672 2.5244141 -20.513672 0.92480469Q-20.513672 -2.3564453 -17.671875 -2.3564453Q-16.21875 -2.3564453 -15.533203 -1.5566406Q-14.847656 -0.75683594 -14.847656 0.92480469ZM-15.955078 0.92480469Q-15.955078 -0.38769531 -16.344727 -0.98242188Q-16.734375 -1.5771484 -17.654297 -1.5771484Q-18.580078 -1.5771484 -18.993164 -0.97070312Q-19.40625 -0.36425781 -19.40625 0.92480469Q-19.40625 2.1787109 -18.999023 2.8085938Q-18.591797 3.4384766 -17.71875 3.4384766Q-16.769531 3.4384766 -16.362305 2.8291016Q-15.955078 2.2197266 -15.955078 0.92480469ZM-7.4648438 4.1005859L-8.6894531 4.1005859L-9.796875 -0.38183594L-10.007812 -1.3720703Q-10.060547 -1.1083984 -10.171875 -0.61328125Q-10.283203 -0.11816406 -11.367188 4.1005859L-12.585938 4.1005859L-14.361328 -2.2392578L-13.318359 -2.2392578L-12.246094 2.0673828Q-12.205078 2.2080078 -11.994141 3.2275391L-11.894531 2.7939453L-10.570312 -2.2392578L-9.4394531 -2.2392578L-8.3320312 2.1142578L-8.0625 3.2275391L-7.8808594 2.4130859L-6.6796875 -2.2392578L-5.6484375 -2.2392578L-7.4648438 4.1005859ZM-0.84375 4.1005859L-0.84375 0.081054688Q-0.84375 -0.54589844 -0.96679688 -0.89160156Q-1.0898438 -1.2373047 -1.359375 -1.3896484Q-1.6289062 -1.5419922 -2.1503906 -1.5419922Q-2.9121094 -1.5419922 -3.3515625 -1.0205078Q-3.7910156 -0.49902344 -3.7910156 0.42675781L-3.7910156 4.1005859L-4.8457031 4.1005859L-4.8457031 -0.88574219Q-4.8457031 -1.9931641 -4.8808594 -2.2392578L-3.8847656 -2.2392578Q-3.8789062 -2.2099609 -3.8730469 -2.0810547Q-3.8671875 -1.9521484 -3.8583984 -1.7851562Q-3.8496094 -1.6181641 -3.8378906 -1.1552734L-3.8203125 -1.1552734Q-3.4570312 -1.8115234 -2.9794922 -2.0839844Q-2.5019531 -2.3564453 -1.7929688 -2.3564453Q-0.75 -2.3564453 -0.26660156 -1.8378906Q0.21679688 -1.3193359 0.21679688 -0.12402344L0.21679688 4.1005859L-0.84375 4.1005859ZM1.8046875 4.1005859L1.8046875 -4.5947266L2.859375 -4.5947266L2.859375 4.1005859L1.8046875 4.1005859ZM9.8320312 0.92480469Q9.8320312 2.5888672 9.0996094 3.4033203Q8.3671875 4.2177734 6.9726562 4.2177734Q5.5839844 4.2177734 4.875 3.3710938Q4.1660156 2.5244141 4.1660156 0.92480469Q4.1660156 -2.3564453 7.0078125 -2.3564453Q8.4609375 -2.3564453 9.1464844 -1.5566406Q9.8320312 -0.75683594 9.8320312 0.92480469ZM8.7246094 0.92480469Q8.7246094 -0.38769531 8.3349609 -0.98242188Q7.9453125 -1.5771484 7.0253906 -1.5771484Q6.0996094 -1.5771484 5.6865234 -0.97070312Q5.2734375 -0.36425781 5.2734375 0.92480469Q5.2734375 2.1787109 5.6806641 2.8085938Q6.0878906 3.4384766 6.9609375 3.4384766Q7.9101562 3.4384766 8.3173828 2.8291016Q8.7246094 2.2197266 8.7246094 0.92480469ZM12.761719 4.2177734Q11.806641 4.2177734 11.326172 3.7138672Q10.845703 3.2099609 10.845703 2.3310547Q10.845703 1.3466797 11.493164 0.81933594Q12.140625 0.29199219 13.582031 0.25683594L15.005859 0.23339844L15.005859 -0.11230469Q15.005859 -0.88574219 14.677734 -1.2197266Q14.349609 -1.5537109 13.646484 -1.5537109Q12.9375 -1.5537109 12.615234 -1.3134766Q12.292969 -1.0732422 12.228516 -0.54589844L11.126953 -0.64550781Q11.396484 -2.3564453 13.669922 -2.3564453Q14.865234 -2.3564453 15.46875 -1.8085938Q16.072266 -1.2607422 16.072266 -0.22363281L16.072266 2.5068359Q16.072266 2.9755859 16.195312 3.2128906Q16.318359 3.4501953 16.664062 3.4501953Q16.816406 3.4501953 17.009766 3.4091797L17.009766 4.0654297Q16.611328 4.1591797 16.195312 4.1591797Q15.609375 4.1591797 15.342773 3.8515625Q15.076172 3.5439453 15.041016 2.8876953L15.005859 2.8876953Q14.601562 3.6142578 14.06543 3.9160156Q13.529297 4.2177734 12.761719 4.2177734ZM13.001953 3.4267578Q13.582031 3.4267578 14.033203 3.1630859Q14.484375 2.8994141 14.745117 2.4394531Q15.005859 1.9794922 15.005859 1.4931641L15.005859 0.97167969L13.851562 0.99511719Q13.107422 1.0068359 12.723633 1.1474609Q12.339844 1.2880859 12.134766 1.5810547Q11.929688 1.8740234 11.929688 2.3486328Q11.929688 2.8642578 12.208008 3.1455078Q12.486328 3.4267578 13.001953 3.4267578ZM21.820312 3.0810547Q21.527344 3.6904297 21.043945 3.9541016Q20.560547 4.2177734 19.845703 4.2177734Q18.644531 4.2177734 18.079102 3.4091797Q17.513672 2.6005859 17.513672 0.95996094Q17.513672 -2.3564453 19.845703 -2.3564453Q20.566406 -2.3564453 21.046875 -2.0927734Q21.527344 -1.8291016 21.820312 -1.2548828L21.832031 -1.2548828L21.820312 -1.9638672L21.820312 -4.5947266L22.875 -4.5947266L22.875 2.7939453Q22.875 3.7841797 22.910156 4.1005859L21.902344 4.1005859Q21.884766 4.0068359 21.864258 3.6669922Q21.84375 3.3271484 21.84375 3.0810547L21.820312 3.0810547ZM18.621094 0.92480469Q18.621094 2.2548828 18.972656 2.8291016Q19.324219 3.4033203 20.115234 3.4033203Q21.011719 3.4033203 21.416016 2.7822266Q21.820312 2.1611328 21.820312 0.85449219Q21.820312 -0.40527344 21.416016 -0.99121094Q21.011719 -1.5771484 20.126953 -1.5771484Q19.330078 -1.5771484 18.975586 -0.98828125Q18.621094 -0.39941406 18.621094 0.92480469ZM29.25 2.3486328Q29.25 3.2451172 28.573242 3.7314453Q27.896484 4.2177734 26.677734 4.2177734Q25.494141 4.2177734 24.852539 3.828125Q24.210938 3.4384766 24.017578 2.6123047L24.949219 2.4306641Q25.083984 2.9404297 25.505859 3.1777344Q25.927734 3.4150391 26.677734 3.4150391Q27.480469 3.4150391 27.852539 3.1689453Q28.224609 2.9228516 28.224609 2.4306641Q28.224609 2.0556641 27.966797 1.8212891Q27.708984 1.5869141 27.134766 1.4345703L26.378906 1.2353516Q25.470703 1.0009766 25.086914 0.77539062Q24.703125 0.54980469 24.486328 0.22753906Q24.269531 -0.094726562 24.269531 -0.56347656Q24.269531 -1.4306641 24.887695 -1.8847656Q25.505859 -2.3388672 26.689453 -2.3388672Q27.738281 -2.3388672 28.356445 -1.9697266Q28.974609 -1.6005859 29.138672 -0.78613281L28.189453 -0.66894531Q28.101562 -1.0908203 27.717773 -1.3164062Q27.333984 -1.5419922 26.689453 -1.5419922Q25.974609 -1.5419922 25.634766 -1.3251953Q25.294922 -1.1083984 25.294922 -0.66894531Q25.294922 -0.39941406 25.435547 -0.22363281Q25.576172 -0.047851562 25.851562 0.075195312Q26.126953 0.19824219 27.011719 0.41503906Q27.849609 0.62597656 28.21875 0.8046875Q28.587891 0.98339844 28.801758 1.2001953Q29.015625 1.4169922 29.132812 1.7011719Q29.25 1.9853516 29.25 2.3486328Z"/>
	<path fill="#666" transform="translate(500 17.2)" d="M-84.832031 2.2490234Q-84.832031 3.1689453 -85.584961 3.6933594Q-86.337891 4.2177734 -87.667969 4.2177734Q-88.974609 4.2177734 -89.668945 3.8046875Q-90.363281 3.3916016 -90.591797 2.5185547L-89.144531 2.3017578Q-89.021484 2.7529297 -88.719727 2.9404297Q-88.417969 3.1279297 -87.667969 3.1279297Q-86.976562 3.1279297 -86.660156 2.9521484Q-86.34375 2.7763672 -86.34375 2.4013672Q-86.34375 2.0966797 -86.598633 1.9179688Q-86.853516 1.7392578 -87.462891 1.6162109Q-88.857422 1.3408203 -89.34375 1.1035156Q-89.830078 0.86621094 -90.084961 0.48828125Q-90.339844 0.11035156 -90.339844 -0.44042969Q-90.339844 -1.3486328 -89.639648 -1.8554688Q-88.939453 -2.3623047 -87.65625 -2.3623047Q-86.525391 -2.3623047 -85.836914 -1.9228516Q-85.148438 -1.4833984 -84.978516 -0.65136719L-86.4375 -0.49902344Q-86.507812 -0.88574219 -86.783203 -1.0761719Q-87.058594 -1.2666016 -87.65625 -1.2666016Q-88.242188 -1.2666016 -88.535156 -1.1171875Q-88.828125 -0.96777344 -88.828125 -0.61621094Q-88.828125 -0.34082031 -88.602539 -0.1796875Q-88.376953 -0.018554688 -87.84375 0.086914062Q-87.099609 0.23925781 -86.522461 0.40039062Q-85.945312 0.56152344 -85.59668 0.78417969Q-85.248047 1.0068359 -85.040039 1.3554688Q-84.832031 1.7041016 -84.832031 2.2490234ZM-82.037109 4.2177734Q-82.957031 4.2177734 -83.472656 3.7167969Q-83.988281 3.2158203 -83.988281 2.3076172Q-83.988281 1.3232422 -83.34668 0.80761719Q-82.705078 0.29199219 -81.486328 0.28027344L-80.121094 0.25683594L-80.121094 -0.065429688Q-80.121094 -0.68652344 -80.337891 -0.98828125Q-80.554688 -1.2900391 -81.046875 -1.2900391Q-81.503906 -1.2900391 -81.717773 -1.0820312Q-81.931641 -0.87402344 -81.984375 -0.39355469L-83.701172 -0.47558594Q-83.542969 -1.4013672 -82.854492 -1.8789062Q-82.166016 -2.3564453 -80.976562 -2.3564453Q-79.775391 -2.3564453 -79.125 -1.7646484Q-78.474609 -1.1728516 -78.474609 -0.083007812L-78.474609 2.2255859Q-78.474609 2.7587891 -78.354492 2.9609375Q-78.234375 3.1630859 -77.953125 3.1630859Q-77.765625 3.1630859 -77.589844 3.1279297L-77.589844 4.0185547Q-77.736328 4.0537109 -77.853516 4.0830078Q-77.970703 4.1123047 -78.087891 4.1298828Q-78.205078 4.1474609 -78.336914 4.1591797Q-78.46875 4.1708984 -78.644531 4.1708984Q-79.265625 4.1708984 -79.561523 3.8662109Q-79.857422 3.5615234 -79.916016 2.9697266L-79.951172 2.9697266Q-80.642578 4.2177734 -82.037109 4.2177734ZM-80.121094 1.1650391L-80.964844 1.1767578Q-81.539062 1.2001953 -81.779297 1.3027344Q-82.019531 1.4052734 -82.145508 1.6162109Q-82.271484 1.8271484 -82.271484 2.1787109Q-82.271484 2.6298828 -82.063477 2.8496094Q-81.855469 3.0693359 -81.509766 3.0693359Q-81.123047 3.0693359 -80.803711 2.8583984Q-80.484375 2.6474609 -80.302734 2.2753906Q-80.121094 1.9033203 -80.121094 1.4873047L-80.121094 1.1650391ZM-76.828125 -3.3818359L-76.828125 -4.5947266L-75.181641 -4.5947266L-75.181641 -3.3818359L-76.828125 -3.3818359ZM-76.828125 4.1005859L-76.828125 -2.2392578L-75.181641 -2.2392578L-75.181641 4.1005859L-76.828125 4.1005859ZM-73.494141 4.1005859L-73.494141 -4.5947266L-71.847656 -4.5947266L-71.847656 4.1005859L-73.494141 4.1005859ZM-64.160156 0.90136719Q-64.160156 2.4892578 -64.795898 3.3535156Q-65.431641 4.2177734 -66.591797 4.2177734Q-67.259766 4.2177734 -67.754883 3.9277344Q-68.25 3.6376953 -68.513672 3.0927734L-68.548828 3.0927734Q-68.513672 3.2685547 -68.513672 4.1591797L-68.513672 6.5908203L-70.160156 6.5908203L-70.160156 -0.78027344Q-70.160156 -1.6767578 -70.207031 -2.2392578L-68.607422 -2.2392578Q-68.578125 -2.1337891 -68.557617 -1.8232422Q-68.537109 -1.5126953 -68.537109 -1.2080078L-68.513672 -1.2080078Q-67.957031 -2.3740234 -66.486328 -2.3740234Q-65.378906 -2.3740234 -64.769531 -1.5214844Q-64.160156 -0.66894531 -64.160156 0.90136719ZM-65.876953 0.90136719Q-65.876953 -1.2314453 -67.183594 -1.2314453Q-67.839844 -1.2314453 -68.188477 -0.65722656Q-68.537109 -0.083007812 -68.537109 0.94824219Q-68.537109 1.9736328 -68.188477 2.5332031Q-67.839844 3.0927734 -67.195312 3.0927734Q-65.876953 3.0927734 -65.876953 0.90136719ZM-56.806641 0.92480469Q-56.806641 2.4658203 -57.662109 3.3417969Q-58.517578 4.2177734 -60.029297 4.2177734Q-61.511719 4.2177734 -62.355469 3.3388672Q-63.199219 2.4599609 -63.199219 0.92480469Q-63.199219 -0.60449219 -62.355469 -1.4804688Q-61.511719 -2.3564453 -59.994141 -2.3564453Q-58.441406 -2.3564453 -57.624023 -1.5097656Q-56.806641 -0.66308594 -56.806641 0.92480469ZM-58.529297 0.92480469Q-58.529297 -0.20605469 -58.898438 -0.71582031Q-59.267578 -1.2255859 -59.970703 -1.2255859Q-61.470703 -1.2255859 -61.470703 0.92480469Q-61.470703 1.9853516 -61.104492 2.5390625Q-60.738281 3.0927734 -60.046875 3.0927734Q-58.529297 3.0927734 -58.529297 0.92480469ZM-55.5 -3.3818359L-55.5 -4.5947266L-53.853516 -4.5947266L-53.853516 -3.3818359L-55.5 -3.3818359ZM-55.5 4.1005859L-55.5 -2.2392578L-53.853516 -2.2392578L-53.853516 4.1005859L-55.5 4.1005859ZM-48.058594 4.1005859L-48.058594 0.54394531Q-48.058594 -1.1259766 -49.189453 -1.1259766Q-49.787109 -1.1259766 -50.15332 -0.61328125Q-50.519531 -0.10058594 -50.519531 0.70214844L-50.519531 4.1005859L-52.166016 4.1005859L-52.166016 -0.82128906Q-52.166016 -1.3310547 -52.180664 -1.65625Q-52.195312 -1.9814453 -52.212891 -2.2392578L-50.642578 -2.2392578Q-50.625 -2.1279297 -50.595703 -1.6445312Q-50.566406 -1.1611328 -50.566406 -0.97949219L-50.542969 -0.97949219Q-50.208984 -1.7060547 -49.705078 -2.0341797Q-49.201172 -2.3623047 -48.503906 -2.3623047Q-47.496094 -2.3623047 -46.957031 -1.7412109Q-46.417969 -1.1201172 -46.417969 0.075195312L-46.417969 4.1005859L-48.058594 4.1005859ZM-43.212891 4.2060547Q-43.939453 4.2060547 -44.332031 3.8105469Q-44.724609 3.4150391 -44.724609 2.6123047L-44.724609 -1.1259766L-45.527344 -1.1259766L-45.527344 -2.2392578L-44.642578 -2.2392578L-44.126953 -3.7275391L-43.095703 -3.7275391L-43.095703 -2.2392578L-41.894531 -2.2392578L-41.894531 -1.1259766L-43.095703 -1.1259766L-43.095703 2.1669922Q-43.095703 2.6298828 -42.919922 2.8496094Q-42.744141 3.0693359 -42.375 3.0693359Q-42.181641 3.0693359 -41.824219 2.9873047L-41.824219 4.0068359Q-42.433594 4.2060547 -43.212891 4.2060547ZM-33.398438 4.1005859Q-33.421875 4.0126953 -33.454102 3.6582031Q-33.486328 3.3037109 -33.486328 3.0693359L-33.509766 3.0693359Q-34.042969 4.2177734 -35.537109 4.2177734Q-36.644531 4.2177734 -37.248047 3.3535156Q-37.851562 2.4892578 -37.851562 0.93652344Q-37.851562 -0.63964844 -37.21582 -1.4980469Q-36.580078 -2.3564453 -35.414062 -2.3564453Q-34.740234 -2.3564453 -34.250977 -2.0751953Q-33.761719 -1.7939453 -33.498047 -1.2373047L-33.486328 -1.2373047L-33.498047 -2.2802734L-33.498047 -4.5947266L-31.851562 -4.5947266L-31.851562 2.7177734Q-31.851562 3.3037109 -31.804688 4.1005859L-33.398438 4.1005859ZM-33.474609 0.89550781Q-33.474609 -0.12988281 -33.817383 -0.68359375Q-34.160156 -1.2373047 -34.828125 -1.2373047Q-35.490234 -1.2373047 -35.8125 -0.70117188Q-36.134766 -0.16503906 -36.134766 0.93652344Q-36.134766 3.0927734 -34.839844 3.0927734Q-34.189453 3.0927734 -33.832031 2.5214844Q-33.474609 1.9501953 -33.474609 0.89550781ZM-24.152344 0.92480469Q-24.152344 2.4658203 -25.007812 3.3417969Q-25.863281 4.2177734 -27.375 4.2177734Q-28.857422 4.2177734 -29.701172 3.3388672Q-30.544922 2.4599609 -30.544922 0.92480469Q-30.544922 -0.60449219 -29.701172 -1.4804688Q-28.857422 -2.3564453 -27.339844 -2.3564453Q-25.787109 -2.3564453 -24.969727 -1.5097656Q-24.152344 -0.66308594 -24.152344 0.92480469ZM-25.875 0.92480469Q-25.875 -0.20605469 -26.244141 -0.71582031Q-26.613281 -1.2255859 -27.316406 -1.2255859Q-28.816406 -1.2255859 -28.816406 0.92480469Q-28.816406 1.9853516 -28.450195 2.5390625Q-28.083984 3.0927734 -27.392578 3.0927734Q-25.875 3.0927734 -25.875 0.92480469ZM-15.990234 4.1005859L-17.730469 4.1005859L-18.738281 0.23339844Q-18.808594 -0.030273438 -19.013672 -1.0673828L-19.318359 0.24511719L-20.337891 4.1005859L-22.078125 4.1005859L-23.71875 -2.2392578L-22.171875 -2.2392578L-21.128906 2.6064453L-21.046875 2.1728516L-20.900391 1.4873047L-19.904297 -2.2392578L-18.140625 -2.2392578L-17.167969 1.4873047Q-17.085938 1.7919922 -16.927734 2.6064453L-16.763672 1.8330078L-15.849609 -2.2392578L-14.326172 -2.2392578L-15.990234 4.1005859ZM-9.4042969 4.1005859L-9.4042969 0.54394531Q-9.4042969 -1.1259766 -10.535156 -1.1259766Q-11.132812 -1.1259766 -11.499023 -0.61328125Q-11.865234 -0.10058594 -11.865234 0.70214844L-11.865234 4.1005859L-13.511719 4.1005859L-13.511719 -0.82128906Q-13.511719 -1.3310547 -13.526367 -1.65625Q-13.541016 -1.9814453 -13.558594 -2.2392578L-11.988281 -2.2392578Q-11.970703 -2.1279297 -11.941406 -1.6445312Q-11.912109 -1.1611328 -11.912109 -0.97949219L-11.888672 -0.97949219Q-11.554688 -1.7060547 -11.050781 -2.0341797Q-10.546875 -2.3623047 -9.8496094 -2.3623047Q-8.8417969 -2.3623047 -8.3027344 -1.7412109Q-7.7636719 -1.1201172 -7.7636719 0.075195312L-7.7636719 4.1005859L-9.4042969 4.1005859ZM-6.1816406 4.1005859L-6.1816406 -4.5947266L-4.5351562 -4.5947266L-4.5351562 4.1005859L-6.1816406 4.1005859ZM3.1757812 0.92480469Q3.1757812 2.4658203 2.3203125 3.3417969Q1.4648438 4.2177734 -0.046875 4.2177734Q-1.5292969 4.2177734 -2.3730469 3.3388672Q-3.2167969 2.4599609 -3.2167969 0.92480469Q-3.2167969 -0.60449219 -2.3730469 -1.4804688Q-1.5292969 -2.3564453 -0.01171875 -2.3564453Q1.5410156 -2.3564453 2.3583984 -1.5097656Q3.1757812 -0.66308594 3.1757812 0.92480469ZM1.453125 0.92480469Q1.453125 -0.20605469 1.0839844 -0.71582031Q0.71484375 -1.2255859 0.01171875 -1.2255859Q-1.4882812 -1.2255859 -1.4882812 0.92480469Q-1.4882812 1.9853516 -1.1220703 2.5390625Q-0.75585938 3.0927734 -0.064453125 3.0927734Q1.453125 3.0927734 1.453125 0.92480469ZM5.9472656 4.2177734Q5.0273438 4.2177734 4.5117188 3.7167969Q3.9960938 3.2158203 3.9960938 2.3076172Q3.9960938 1.3232422 4.6376953 0.80761719Q5.2792969 0.29199219 6.4980469 0.28027344L7.8632812 0.25683594L7.8632812 -0.065429688Q7.8632812 -0.68652344 7.6464844 -0.98828125Q7.4296875 -1.2900391 6.9375 -1.2900391Q6.4804688 -1.2900391 6.2666016 -1.0820312Q6.0527344 -0.87402344 6 -0.39355469L4.2832031 -0.47558594Q4.4414062 -1.4013672 5.1298828 -1.8789062Q5.8183594 -2.3564453 7.0078125 -2.3564453Q8.2089844 -2.3564453 8.859375 -1.7646484Q9.5097656 -1.1728516 9.5097656 -0.083007812L9.5097656 2.2255859Q9.5097656 2.7587891 9.6298828 2.9609375Q9.75 3.1630859 10.03125 3.1630859Q10.21875 3.1630859 10.394531 3.1279297L10.394531 4.0185547Q10.248047 4.0537109 10.130859 4.0830078Q10.013672 4.1123047 9.8964844 4.1298828Q9.7792969 4.1474609 9.6474609 4.1591797Q9.515625 4.1708984 9.3398438 4.1708984Q8.71875 4.1708984 8.4228516 3.8662109Q8.1269531 3.5615234 8.0683594 2.9697266L8.0332031 2.9697266Q7.3417969 4.2177734 5.9472656 4.2177734ZM7.8632812 1.1650391L7.0195312 1.1767578Q6.4453125 1.2001953 6.2050781 1.3027344Q5.9648438 1.4052734 5.8388672 1.6162109Q5.7128906 1.8271484 5.7128906 2.1787109Q5.7128906 2.6298828 5.9208984 2.8496094Q6.1289062 3.0693359 6.4746094 3.0693359Q6.8613281 3.0693359 7.1806641 2.8583984Q7.5 2.6474609 7.6816406 2.2753906Q7.8632812 1.9033203 7.8632812 1.4873047L7.8632812 1.1650391ZM15.263672 4.1005859Q15.240234 4.0126953 15.208008 3.6582031Q15.175781 3.3037109 15.175781 3.0693359L15.152344 3.0693359Q14.619141 4.2177734 13.125 4.2177734Q12.017578 4.2177734 11.414062 3.3535156Q10.810547 2.4892578 10.810547 0.93652344Q10.810547 -0.63964844 11.446289 -1.4980469Q12.082031 -2.3564453 13.248047 -2.3564453Q13.921875 -2.3564453 14.411133 -2.0751953Q14.900391 -1.7939453 15.164062 -1.2373047L15.175781 -1.2373047L15.164062 -2.2802734L15.164062 -4.5947266L16.810547 -4.5947266L16.810547 2.7177734Q16.810547 3.3037109 16.857422 4.1005859L15.263672 4.1005859ZM15.1875 0.89550781Q15.1875 -0.12988281 14.844727 -0.68359375Q14.501953 -1.2373047 13.833984 -1.2373047Q13.171875 -1.2373047 12.849609 -0.70117188Q12.527344 -0.16503906 12.527344 0.93652344Q12.527344 3.0927734 13.822266 3.0927734Q14.472656 3.0927734 14.830078 2.5214844Q15.1875 1.9501953 15.1875 0.89550781ZM23.830078 2.2490234Q23.830078 3.1689453 23.077148 3.6933594Q22.324219 4.2177734 20.994141 4.2177734Q19.6875 4.2177734 18.993164 3.8046875Q18.298828 3.3916016 18.070312 2.5185547L19.517578 2.3017578Q19.640625 2.7529297 19.942383 2.9404297Q20.244141 3.1279297 20.994141 3.1279297Q21.685547 3.1279297 22.001953 2.9521484Q22.318359 2.7763672 22.318359 2.4013672Q22.318359 2.0966797 22.063477 1.9179688Q21.808594 1.7392578 21.199219 1.6162109Q19.804688 1.3408203 19.318359 1.1035156Q18.832031 0.86621094 18.577148 0.48828125Q18.322266 0.11035156 18.322266 -0.44042969Q18.322266 -1.3486328 19.022461 -1.8554688Q19.722656 -2.3623047 21.005859 -2.3623047Q22.136719 -2.3623047 22.825195 -1.9228516Q23.513672 -1.4833984 23.683594 -0.65136719L22.224609 -0.49902344Q22.154297 -0.88574219 21.878906 -1.0761719Q21.603516 -1.2666016 21.005859 -1.2666016Q20.419922 -1.2666016 20.126953 -1.1171875Q19.833984 -0.96777344 19.833984 -0.61621094Q19.833984 -0.34082031 20.05957 -0.1796875Q20.285156 -0.018554688 20.818359 0.086914062Q21.5625 0.23925781 22.139648 0.40039062Q22.716797 0.56152344 23.06543 0.78417969Q23.414062 1.0068359 23.62207 1.3554688Q23.830078 1.7041016 23.830078 2.2490234ZM34.494141 0.90722656Q34.494141 2.4775391 33.864258 3.3476562Q33.234375 4.2177734 32.0625 4.2177734Q31.388672 4.2177734 30.896484 3.9248047Q30.404297 3.6318359 30.140625 3.0810547L30.128906 3.0810547Q30.128906 3.2861328 30.102539 3.6435547Q30.076172 4.0009766 30.046875 4.1005859L28.447266 4.1005859Q28.494141 3.5556641 28.494141 2.6533203L28.494141 -4.5947266L30.140625 -4.5947266L30.140625 -2.1689453L30.117188 -1.1376953L30.140625 -1.1376953Q30.697266 -2.3564453 32.167969 -2.3564453Q33.292969 -2.3564453 33.893555 -1.5039062Q34.494141 -0.65136719 34.494141 0.90722656ZM32.777344 0.90722656Q32.777344 -0.17089844 32.460938 -0.69238281Q32.144531 -1.2138672 31.482422 -1.2138672Q30.814453 -1.2138672 30.46582 -0.65429688Q30.117188 -0.094726562 30.117188 0.95996094Q30.117188 1.9677734 30.459961 2.5302734Q30.802734 3.0927734 31.470703 3.0927734Q32.777344 3.0927734 32.777344 0.90722656ZM36.644531 6.5908203Q36.052734 6.5908203 35.607422 6.5146484L35.607422 5.3427734Q35.917969 5.3896484 36.175781 5.3896484Q36.527344 5.3896484 36.758789 5.2783203Q36.990234 5.1669922 37.174805 4.9091797Q37.359375 4.6513672 37.587891 4.0361328L35.080078 -2.2392578L36.820312 -2.2392578L37.816406 0.73144531Q38.050781 1.3701172 38.408203 2.6884766L38.554688 2.1318359L38.935547 0.75488281L39.873047 -2.2392578L41.595703 -2.2392578L39.087891 4.4345703Q38.583984 5.6533203 38.041992 6.1220703Q37.5 6.5908203 36.644531 6.5908203ZM45.832031 -3.3818359L45.832031 -4.5947266L47.478516 -4.5947266L47.478516 -3.3818359L45.832031 -3.3818359ZM45.832031 4.1005859L45.832031 -2.2392578L47.478516 -2.2392578L47.478516 4.1005859L45.832031 4.1005859ZM53.273438 4.1005859L53.273438 0.54394531Q53.273438 -1.1259766 52.142578 -1.1259766Q51.544922 -1.1259766 51.178711 -0.61328125Q50.8125 -0.10058594 50.8125 0.70214844L50.8125 4.1005859L49.166016 4.1005859L49.166016 -0.82128906Q49.166016 -1.3310547 49.151367 -1.65625Q49.136719 -1.9814453 49.119141 -2.2392578L50.689453 -2.2392578Q50.707031 -2.1279297 50.736328 -1.6445312Q50.765625 -1.1611328 50.765625 -0.97949219L50.789062 -0.97949219Q51.123047 -1.7060547 51.626953 -2.0341797Q52.130859 -2.3623047 52.828125 -2.3623047Q53.835938 -2.3623047 54.375 -1.7412109Q54.914062 -1.1201172 54.914062 0.075195312L54.914062 4.1005859L53.273438 4.1005859ZM61.839844 2.2490234Q61.839844 3.1689453 61.086914 3.6933594Q60.333984 4.2177734 59.003906 4.2177734Q57.697266 4.2177734 57.00293 3.8046875Q56.308594 3.3916016 56.080078 2.5185547L57.527344 2.3017578Q57.650391 2.7529297 57.952148 2.9404297Q58.253906 3.1279297 59.003906 3.1279297Q59.695312 3.1279297 60.011719 2.9521484Q60.328125 2.7763672 60.328125 2.4013672Q60.328125 2.0966797 60.073242 1.9179688Q59.818359 1.7392578 59.208984 1.6162109Q57.814453 1.3408203 57.328125 1.1035156Q56.841797 0.86621094 56.586914 0.48828125Q56.332031 0.11035156 56.332031 -0.44042969Q56.332031 -1.3486328 57.032227 -1.8554688Q57.732422 -2.3623047 59.015625 -2.3623047Q60.146484 -2.3623047 60.834961 -1.9228516Q61.523438 -1.4833984 61.693359 -0.65136719L60.234375 -0.49902344Q60.164062 -0.88574219 59.888672 -1.0761719Q59.613281 -1.2666016 59.015625 -1.2666016Q58.429688 -1.2666016 58.136719 -1.1171875Q57.84375 -0.96777344 57.84375 -0.61621094Q57.84375 -0.34082031 58.069336 -0.1796875Q58.294922 -0.018554688 58.828125 0.086914062Q59.572266 0.23925781 60.149414 0.40039062Q60.726562 0.56152344 61.075195 0.78417969Q61.423828 1.0068359 61.631836 1.3554688Q61.839844 1.7041016 61.839844 2.2490234ZM64.792969 4.2060547Q64.066406 4.2060547 63.673828 3.8105469Q63.28125 3.4150391 63.28125 2.6123047L63.28125 -1.1259766L62.478516 -1.1259766L62.478516 -2.2392578L63.363281 -2.2392578L63.878906 -3.7275391L64.910156 -3.7275391L64.910156 -2.2392578L66.111328 -2.2392578L66.111328 -1.1259766L64.910156 -1.1259766L64.910156 2.1669922Q64.910156 2.6298828 65.085938 2.8496094Q65.261719 3.0693359 65.630859 3.0693359Q65.824219 3.0693359 66.181641 2.9873047L66.181641 4.0068359Q65.572266 4.2060547 64.792969 4.2060547ZM68.630859 4.2177734Q67.710938 4.2177734 67.195312 3.7167969Q66.679688 3.2158203 66.679688 2.3076172Q66.679688 1.3232422 67.321289 0.80761719Q67.962891 0.29199219 69.181641 0.28027344L70.546875 0.25683594L70.546875 -0.065429688Q70.546875 -0.68652344 70.330078 -0.98828125Q70.113281 -1.2900391 69.621094 -1.2900391Q69.164062 -1.2900391 68.950195 -1.0820312Q68.736328 -0.87402344 68.683594 -0.39355469L66.966797 -0.47558594Q67.125 -1.4013672 67.813477 -1.8789062Q68.501953 -2.3564453 69.691406 -2.3564453Q70.892578 -2.3564453 71.542969 -1.7646484Q72.193359 -1.1728516 72.193359 -0.083007812L72.193359 2.2255859Q72.193359 2.7587891 72.313477 2.9609375Q72.433594 3.1630859 72.714844 3.1630859Q72.902344 3.1630859 73.078125 3.1279297L73.078125 4.0185547Q72.931641 4.0537109 72.814453 4.0830078Q72.697266 4.1123047 72.580078 4.1298828Q72.462891 4.1474609 72.331055 4.1591797Q72.199219 4.1708984 72.023438 4.1708984Q71.402344 4.1708984 71.106445 3.8662109Q70.810547 3.5615234 70.751953 2.9697266L70.716797 2.9697266Q70.025391 4.2177734 68.630859 4.2177734ZM70.546875 1.1650391L69.703125 1.1767578Q69.128906 1.2001953 68.888672 1.3027344Q68.648438 1.4052734 68.522461 1.6162109Q68.396484 1.8271484 68.396484 2.1787109Q68.396484 2.6298828 68.604492 2.8496094Q68.8125 3.0693359 69.158203 3.0693359Q69.544922 3.0693359 69.864258 2.8583984Q70.183594 2.6474609 70.365234 2.2753906Q70.546875 1.9033203 70.546875 1.4873047L70.546875 1.1650391ZM73.839844 4.1005859L73.839844 -4.5947266L75.486328 -4.5947266L75.486328 4.1005859L73.839844 4.1005859ZM77.173828 4.1005859L77.173828 -4.5947266L78.820312 -4.5947266L78.820312 4.1005859L77.173828 4.1005859ZM83.103516 4.2177734Q81.673828 4.2177734 80.90625 3.3710938Q80.138672 2.5244141 80.138672 0.90136719Q80.138672 -0.66894531 80.917969 -1.5126953Q81.697266 -2.3564453 83.126953 -2.3564453Q84.492188 -2.3564453 85.212891 -1.4511719Q85.933594 -0.54589844 85.933594 1.2001953L85.933594 1.2470703L81.867188 1.2470703Q81.867188 2.1728516 82.209961 2.6445312Q82.552734 3.1162109 83.185547 3.1162109Q84.058594 3.1162109 84.287109 2.3603516L85.839844 2.4951172Q85.166016 4.2177734 83.103516 4.2177734ZM83.103516 -1.3193359Q82.523438 -1.3193359 82.209961 -0.91503906Q81.896484 -0.51074219 81.878906 0.21582031L84.339844 0.21582031Q84.292969 -0.55175781 83.970703 -0.93554688Q83.648438 -1.3193359 83.103516 -1.3193359ZM87.181641 4.1005859L87.181641 -0.75097656Q87.181641 -1.2724609 87.166992 -1.6210938Q87.152344 -1.9697266 87.134766 -2.2392578L88.705078 -2.2392578Q88.722656 -2.1337891 88.751953 -1.5976562Q88.78125 -1.0615234 88.78125 -0.88574219L88.804688 -0.88574219Q89.044922 -1.5537109 89.232422 -1.8261719Q89.419922 -2.0986328 89.677734 -2.2304688Q89.935547 -2.3623047 90.322266 -2.3623047Q90.638672 -2.3623047 90.832031 -2.2744141L90.832031 -0.89746094Q90.433594 -0.98535156 90.128906 -0.98535156Q89.513672 -0.98535156 89.170898 -0.48730469Q88.828125 0.010742188 88.828125 0.98925781L88.828125 4.1005859L87.181641 4.1005859Z"/>
	<path fill="none" stroke="black" stroke-width="1" stroke-miterlimit="10" stroke-opacity="0.10196079" d="M53 759.5L1001 759.5"/>
	<path fill="none" stroke="black" stroke-width="1" stroke-miterlimit="10" stroke-opacity="0.10196079" d="M53.5 34L53.5 760"/>
	<clipPath id="cl_1f0">
		<rect width="53.080002" height="800"/>
	</clipPath>
	<g clip-path="url(#cl_1f0)">
		<path fill="#666" transform="translate(42.08 759.6)" d="M-0.46679688 -0.030273438Q-0.46679688 2.0380859 -1.1962891 3.1279297Q-1.9257812 4.2177734 -3.3496094 4.2177734Q-4.7734375 4.2177734 -5.4882812 3.1337891Q-6.203125 2.0498047 -6.203125 -0.030273438Q-6.203125 -2.1572266 -5.5087891 -3.2177734Q-4.8144531 -4.2783203 -3.3144531 -4.2783203Q-1.8554688 -4.2783203 -1.1611328 -3.2060547Q-0.46679688 -2.1337891 -0.46679688 -0.030273438ZM-1.5390625 -0.030273438Q-1.5390625 -1.8173828 -1.9521484 -2.6201172Q-2.3652344 -3.4228516 -3.3144531 -3.4228516Q-4.2871094 -3.4228516 -4.7119141 -2.6318359Q-5.1367188 -1.8408203 -5.1367188 -0.030273438Q-5.1367188 1.7275391 -4.7060547 2.5419922Q-4.2753906 3.3564453 -3.3378906 3.3564453Q-2.40625 3.3564453 -1.9726562 2.5244141Q-1.5390625 1.6923828 -1.5390625 -0.030273438Z"/>
	</g>
	<clipPath id="cl_1f1">
		<rect width="53.080002" height="800"/>
	</clipPath>
	<g clip-path="url(#cl_1f1)">
		<path fill="#666" transform="translate(42.08 687.08)" d="M-10.474609 -0.030273438Q-10.474609 2.0380859 -11.204102 3.1279297Q-11.933594 4.2177734 -13.357422 4.2177734Q-14.78125 4.2177734 -15.496094 3.1337891Q-16.210938 2.0498047 -16.210938 -0.030273438Q-16.210938 -2.1572266 -15.516602 -3.2177734Q-14.822266 -4.2783203 -13.322266 -4.2783203Q-11.863281 -4.2783203 -11.168945 -3.2060547Q-10.474609 -2.1337891 -10.474609 -0.030273438ZM-11.546875 -0.030273438Q-11.546875 -1.8173828 -11.959961 -2.6201172Q-12.373047 -3.4228516 -13.322266 -3.4228516Q-14.294922 -3.4228516 -14.719727 -2.6318359Q-15.144531 -1.8408203 -15.144531 -0.030273438Q-15.144531 1.7275391 -14.713867 2.5419922Q-14.283203 3.3564453 -13.345703 3.3564453Q-12.414062 3.3564453 -11.980469 2.5244141Q-11.546875 1.6923828 -11.546875 -0.030273438ZM-8.9101562 4.1005859L-8.9101562 2.8173828L-7.7675781 2.8173828L-7.7675781 4.1005859L-8.9101562 4.1005859ZM-5.7578125 4.1005859L-5.7578125 3.2041016L-3.6542969 3.2041016L-3.6542969 -3.1474609L-5.5175781 -1.8173828L-5.5175781 -2.8134766L-3.5664062 -4.1552734L-2.59375 -4.1552734L-2.59375 3.2041016L-0.58398438 3.2041016L-0.58398438 4.1005859L-5.7578125 4.1005859Z"/>
	</g>
	<clipPath id="cl_1f2">
		<rect width="53.080002" height="800"/>
	</clipPath>
	<g clip-path="url(#cl_1f2)">
		<path fill="#666" transform="translate(42.08 614.56)" d="M-10.474609 -0.030273438Q-10.474609 2.0380859 -11.204102 3.1279297Q-11.933594 4.2177734 -13.357422 4.2177734Q-14.78125 4.2177734 -15.496094 3.1337891Q-16.210938 2.0498047 -16.210938 -0.030273438Q-16.210938 -2.1572266 -15.516602 -3.2177734Q-14.822266 -4.2783203 -13.322266 -4.2783203Q-11.863281 -4.2783203 -11.168945 -3.2060547Q-10.474609 -2.1337891 -10.474609 -0.030273438ZM-11.546875 -0.030273438Q-11.546875 -1.8173828 -11.959961 -2.6201172Q-12.373047 -3.4228516 -13.322266 -3.4228516Q-14.294922 -3.4228516 -14.719727 -2.6318359Q-15.144531 -1.8408203 -15.144531 -0.030273438Q-15.144531 1.7275391 -14.713867 2.5419922Q-14.283203 3.3564453 -13.345703 3.3564453Q-12.414062 3.3564453 -11.980469 2.5244141Q-11.546875 1.6923828 -11.546875 -0.030273438ZM-8.9101562 4.1005859L-8.9101562 2.8173828L-7.7675781 2.8173828L-7.7675781 4.1005859L-8.9101562 4.1005859ZM-6.0683594 4.1005859L-6.0683594 3.3564453Q-5.7695312 2.6708984 -5.3388672 2.1464844Q-4.9082031 1.6220703 -4.4335938 1.1972656Q-3.9589844 0.77246094 -3.4931641 0.40917969Q-3.0273438 0.045898438 -2.6523438 -0.31738281Q-2.2773438 -0.68066406 -2.0458984 -1.0791016Q-1.8144531 -1.4775391 -1.8144531 -1.9814453Q-1.8144531 -2.6611328 -2.2128906 -3.0361328Q-2.6113281 -3.4111328 -3.3203125 -3.4111328Q-3.9941406 -3.4111328 -4.4306641 -3.0449219Q-4.8671875 -2.6787109 -4.9433594 -2.0166016L-6.0214844 -2.1162109Q-5.9042969 -3.1064453 -5.1806641 -3.6923828Q-4.4570312 -4.2783203 -3.3203125 -4.2783203Q-2.0722656 -4.2783203 -1.4013672 -3.6894531Q-0.73046875 -3.1005859 -0.73046875 -2.0166016Q-0.73046875 -1.5361328 -0.95019531 -1.0615234Q-1.1699219 -0.58691406 -1.6035156 -0.11230469Q-2.0371094 0.36230469 -3.2617188 1.3583984Q-3.9355469 1.9091797 -4.3339844 2.3515625Q-4.7324219 2.7939453 -4.9082031 3.2041016L-0.6015625 3.2041016L-0.6015625 4.1005859L-6.0683594 4.1005859Z"/>
	</g>
	<clipPath id="cl_1f3">
		<rect width="53.080002" height="800"/>
	</clipPath>
	<g clip-path="url(#cl_1f3)">
		<path fill="#666" transform="translate(42.08 542.04)" d="M-10.474609 -0.030273438Q-10.474609 2.0380859 -11.204102 3.1279297Q-11.933594 4.2177734 -13.357422 4.2177734Q-14.78125 4.2177734 -15.496094 3.1337891Q-16.210938 2.0498047 -16.210938 -0.030273438Q-16.210938 -2.1572266 -15.516602 -3.2177734Q-14.822266 -4.2783203 -13.322266 -4.2783203Q-11.863281 -4.2783203 -11.168945 -3.2060547Q-10.474609 -2.1337891 -10.474609 -0.030273438ZM-11.546875 -0.030273438Q-11.546875 -1.8173828 -11.959961 -2.6201172Q-12.373047 -3.4228516 -13.322266 -3.4228516Q-14.294922 -3.4228516 -14.719727 -2.6318359Q-15.144531 -1.8408203 -15.144531 -0.030273438Q-15.144531 1.7275391 -14.713867 2.5419922Q-14.283203 3.3564453 -13.345703 3.3564453Q-12.414062 3.3564453 -11.980469 2.5244141Q-11.546875 1.6923828 -11.546875 -0.030273438ZM-8.9101562 4.1005859L-8.9101562 2.8173828L-7.7675781 2.8173828L-7.7675781 4.1005859L-8.9101562 4.1005859ZM-0.52539062 1.8212891Q-0.52539062 2.9638672 -1.2519531 3.5908203Q-1.9785156 4.2177734 -3.3261719 4.2177734Q-4.5800781 4.2177734 -5.3271484 3.6523438Q-6.0742188 3.0869141 -6.2148438 1.9794922L-5.125 1.8798828Q-4.9140625 3.3447266 -3.3261719 3.3447266Q-2.5292969 3.3447266 -2.0751953 2.9521484Q-1.6210938 2.5595703 -1.6210938 1.7861328Q-1.6210938 1.1123047 -2.1396484 0.734375Q-2.6582031 0.35644531 -3.6367188 0.35644531L-4.234375 0.35644531L-4.234375 -0.55761719L-3.6601562 -0.55761719Q-2.7929688 -0.55761719 -2.3154297 -0.93554688Q-1.8378906 -1.3134766 -1.8378906 -1.9814453Q-1.8378906 -2.6435547 -2.2275391 -3.0273438Q-2.6171875 -3.4111328 -3.3847656 -3.4111328Q-4.0820312 -3.4111328 -4.5126953 -3.0537109Q-4.9433594 -2.6962891 -5.0136719 -2.0458984L-6.0742188 -2.1279297Q-5.9570312 -3.1416016 -5.2333984 -3.7099609Q-4.5097656 -4.2783203 -3.3730469 -4.2783203Q-2.1308594 -4.2783203 -1.4423828 -3.7011719Q-0.75390625 -3.1240234 -0.75390625 -2.0927734Q-0.75390625 -1.3017578 -1.1962891 -0.80664062Q-1.6386719 -0.31152344 -2.4824219 -0.13574219L-2.4824219 -0.11230469Q-1.5566406 -0.012695312 -1.0410156 0.50878906Q-0.52539062 1.0302734 -0.52539062 1.8212891Z"/>
	</g>
	<clipPath id="cl_1f4">
		<rect width="53.080002" height="800"/>
	</clipPath>
	<g clip-path="url(#cl_1f4)">
		<path fill="#666" transform="translate(42.08 469.52)" d="M-10.474609 -0.030273438Q-10.474609 2.0380859 -11.204102 3.1279297Q-11.933594 4.2177734 -13.357422 4.2177734Q-14.78125 4.2177734 -15.496094 3.1337891Q-16.210938 2.0498047 -16.210938 -0.030273438Q-16.210938 -2.1572266 -15.516602 -3.2177734Q-14.822266 -4.2783203 -13.322266 -4.2783203Q-11.863281 -4.2783203 -11.168945 -3.2060547Q-10.474609 -2.1337891 -10.474609 -0.030273438ZM-11.546875 -0.030273438Q-11.546875 -1.8173828 -11.959961 -2.6201172Q-12.373047 -3.4228516 -13.322266 -3.4228516Q-14.294922 -3.4228516 -14.719727 -2.6318359Q-15.144531 -1.8408203 -15.144531 -0.030273438Q-15.144531 1.7275391 -14.713867 2.5419922Q-14.283203 3.3564453 -13.345703 3.3564453Q-12.414062 3.3564453 -11.980469 2.5244141Q-11.546875 1.6923828 -11.546875 -0.030273438ZM-8.9101562 4.1005859L-8.9101562 2.8173828L-7.7675781 2.8173828L-7.7675781 4.1005859L-8.9101562 4.1005859ZM-1.5097656 2.2314453L-1.5097656 4.1005859L-2.5058594 4.1005859L-2.5058594 2.2314453L-6.3964844 2.2314453L-6.3964844 1.4111328L-2.6171875 -4.1552734L-1.5097656 -4.1552734L-1.5097656 1.3994141L-0.34960938 1.3994141L-0.34960938 2.2314453L-1.5097656 2.2314453ZM-2.5058594 -2.9658203Q-2.5175781 -2.9306641 -2.6699219 -2.6552734Q-2.8222656 -2.3798828 -2.8984375 -2.2685547L-5.0136719 0.84863281L-5.3300781 1.2822266L-5.4238281 1.3994141L-2.5058594 1.3994141L-2.5058594 -2.9658203Z"/>
	</g>
	<clipPath id="cl_1f5">
		<rect width="53.080002" height="800"/>
	</clipPath>
	<g clip-path="url(#cl_1f5)">
		<path fill="#666" transform="translate(42.08 397)" d="M-10.474609 -0.030273438Q-10.474609 2.0380859 -11.204102 3.1279297Q-11.933594 4.2177734 -13.357422 4.2177734Q-14.78125 4.2177734 -15.496094 3.1337891Q-16.210938 2.0498047 -16.210938 -0.030273438Q-16.210938 -2.1572266 -15.516602 -3.2177734Q-14.822266 -4.2783203 -13.322266 -4.2783203Q-11.863281 -4.2783203 -11.168945 -3.2060547Q-10.474609 -2.1337891 -10.474609 -0.030273438ZM-11.546875 -0.030273438Q-11.546875 -1.8173828 -11.959961 -2.6201172Q-12.373047 -3.4228516 -13.322266 -3.4228516Q-14.294922 -3.4228516 -14.719727 -2.6318359Q-15.144531 -1.8408203 -15.144531 -0.030273438Q-15.144531 1.7275391 -14.713867 2.5419922Q-14.283203 3.3564453 -13.345703 3.3564453Q-12.414062 3.3564453 -11.980469 2.5244141Q-11.546875 1.6923828 -11.546875 -0.030273438ZM-8.9101562 4.1005859L-8.9101562 2.8173828L-7.7675781 2.8173828L-7.7675781 4.1005859L-8.9101562 4.1005859ZM-0.50195312 1.4111328Q-0.50195312 2.7177734 -1.2783203 3.4677734Q-2.0546875 4.2177734 -3.4316406 4.2177734Q-4.5859375 4.2177734 -5.2949219 3.7138672Q-6.0039062 3.2099609 -6.1914062 2.2548828L-5.125 2.1318359Q-4.7910156 3.3564453 -3.4082031 3.3564453Q-2.5585938 3.3564453 -2.078125 2.84375Q-1.5976562 2.3310547 -1.5976562 1.4345703Q-1.5976562 0.65527344 -2.0810547 0.17480469Q-2.5644531 -0.30566406 -3.3847656 -0.30566406Q-3.8125 -0.30566406 -4.1816406 -0.17089844Q-4.5507812 -0.036132812 -4.9199219 0.28613281L-5.9511719 0.28613281L-5.6757812 -4.1552734L-0.98242188 -4.1552734L-0.98242188 -3.2587891L-4.7148438 -3.2587891L-4.8730469 -0.63964844Q-4.1875 -1.1669922 -3.1679688 -1.1669922Q-1.9492188 -1.1669922 -1.2255859 -0.45214844Q-0.50195312 0.26269531 -0.50195312 1.4111328Z"/>
	</g>
	<clipPath id="cl_1f6">
		<rect width="53.080002" height="800"/>
	</clipPath>
	<g clip-path="url(#cl_1f6)">
		<path fill="#666" transform="translate(42.08 324.48)" d="M-10.474609 -0.030273438Q-10.474609 2.0380859 -11.204102 3.1279297Q-11.933594 4.2177734 -13.357422 4.2177734Q-14.78125 4.2177734 -15.496094 3.1337891Q-16.210938 2.0498047 -16.210938 -0.030273438Q-16.210938 -2.1572266 -15.516602 -3.2177734Q-14.822266 -4.2783203 -13.322266 -4.2783203Q-11.863281 -4.2783203 -11.168945 -3.2060547Q-10.474609 -2.1337891 -10.474609 -0.030273438ZM-11.546875 -0.030273438Q-11.546875 -1.8173828 -11.959961 -2.6201172Q-12.373047 -3.4228516 -13.322266 -3.4228516Q-14.294922 -3.4228516 -14.719727 -2.6318359Q-15.144531 -1.8408203 -15.144531 -0.030273438Q-15.144531 1.7275391 -14.713867 2.5419922Q-14.283203 3.3564453 -13.345703 3.3564453Q-12.414062 3.3564453 -11.980469 2.5244141Q-11.546875 1.6923828 -11.546875 -0.030273438ZM-8.9101562 4.1005859L-8.9101562 2.8173828L-7.7675781 2.8173828L-7.7675781 4.1005859L-8.9101562 4.1005859ZM-0.52539062 1.3994141Q-0.52539062 2.7060547 -1.234375 3.4619141Q-1.9433594 4.2177734 -3.1914062 4.2177734Q-4.5859375 4.2177734 -5.3242188 3.1806641Q-6.0625 2.1435547 -6.0625 0.16308594Q-6.0625 -1.9814453 -5.2949219 -3.1298828Q-4.5273438 -4.2783203 -3.109375 -4.2783203Q-1.2402344 -4.2783203 -0.75390625 -2.5966797L-1.7617188 -2.4150391Q-2.0722656 -3.4228516 -3.1210938 -3.4228516Q-4.0234375 -3.4228516 -4.5185547 -2.5820312Q-5.0136719 -1.7412109 -5.0136719 -0.14746094Q-4.7265625 -0.68066406 -4.2050781 -0.95898438Q-3.6835938 -1.2373047 -3.0097656 -1.2373047Q-1.8671875 -1.2373047 -1.1962891 -0.52246094Q-0.52539062 0.19238281 -0.52539062 1.3994141ZM-1.5976562 1.4462891Q-1.5976562 0.54980469 -2.0371094 0.063476562Q-2.4765625 -0.42285156 -3.2617188 -0.42285156Q-4 -0.42285156 -4.4541016 0.0078125Q-4.9082031 0.43847656 -4.9082031 1.1943359Q-4.9082031 2.1494141 -4.4365234 2.7587891Q-3.9648438 3.3681641 -3.2265625 3.3681641Q-2.4648438 3.3681641 -2.03125 2.8554688Q-1.5976562 2.3427734 -1.5976562 1.4462891Z"/>
	</g>
	<clipPath id="cl_1f7">
		<rect width="53.080002" height="800"/>
	</clipPath>
	<g clip-path="url(#cl_1f7)">
		<path fill="#666" transform="translate(42.08 251.96)" d="M-10.474609 -0.030273438Q-10.474609 2.0380859 -11.204102 3.1279297Q-11.933594 4.2177734 -13.357422 4.2177734Q-14.78125 4.2177734 -15.496094 3.1337891Q-16.210938 2.0498047 -16.210938 -0.030273438Q-16.210938 -2.1572266 -15.516602 -3.2177734Q-14.822266 -4.2783203 -13.322266 -4.2783203Q-11.863281 -4.2783203 -11.168945 -3.2060547Q-10.474609 -2.1337891 -10.474609 -0.030273438ZM-11.546875 -0.030273438Q-11.546875 -1.8173828 -11.959961 -2.6201172Q-12.373047 -3.4228516 -13.322266 -3.4228516Q-14.294922 -3.4228516 -14.719727 -2.6318359Q-15.144531 -1.8408203 -15.144531 -0.030273438Q-15.144531 1.7275391 -14.713867 2.5419922Q-14.283203 3.3564453 -13.345703 3.3564453Q-12.414062 3.3564453 -11.980469 2.5244141Q-11.546875 1.6923828 -11.546875 -0.030273438ZM-8.9101562 4.1005859L-8.9101562 2.8173828L-7.7675781 2.8173828L-7.7675781 4.1005859L-8.9101562 4.1005859ZM-0.6015625 -3.2998047Q-1.8671875 -1.3662109 -2.3886719 -0.27050781Q-2.9101562 0.82519531 -3.1708984 1.8916016Q-3.4316406 2.9580078 -3.4316406 4.1005859L-4.5332031 4.1005859Q-4.5332031 2.5185547 -3.8623047 0.76953125Q-3.1914062 -0.97949219 -1.6210938 -3.2587891L-6.0566406 -3.2587891L-6.0566406 -4.1552734L-0.6015625 -4.1552734L-0.6015625 -3.2998047Z"/>
	</g>
	<clipPath id="cl_1f8">
		<rect width="53.080002" height="800"/>
	</clipPath>
	<g clip-path="url(#cl_1f8)">
		<path fill="#666" transform="translate(42.08 179.44)" d="M-10.474609 -0.030273438Q-10.474609 2.0380859 -11.204102 3.1279297Q-11.933594 4.2177734 -13.357422 4.2177734Q-14.78125 4.2177734 -15.496094 3.1337891Q-16.210938 2.0498047 -16.210938 -0.030273438Q-16.210938 -2.1572266 -15.516602 -3.2177734Q-14.822266 -4.2783203 -13.322266 -4.2783203Q-11.863281 -4.2783203 -11.168945 -3.2060547Q-10.474609 -2.1337891 -10.474609 -0.030273438ZM-11.546875 -0.030273438Q-11.546875 -1.8173828 -11.959961 -2.6201172Q-12.373047 -3.4228516 -13.322266 -3.4228516Q-14.294922 -3.4228516 -14.719727 -2.6318359Q-15.144531 -1.8408203 -15.144531 -0.030273438Q-15.144531 1.7275391 -14.713867 2.5419922Q-14.283203 3.3564453 -13.345703 3.3564453Q-12.414062 3.3564453 -11.980469 2.5244141Q-11.546875 1.6923828 -11.546875 -0.030273438ZM-8.9101562 4.1005859L-8.9101562 2.8173828L-7.7675781 2.8173828L-7.7675781 4.1005859L-8.9101562 4.1005859ZM-0.51953125 1.7978516Q-0.51953125 2.9404297 -1.2460938 3.5791016Q-1.9726562 4.2177734 -3.3320312 4.2177734Q-4.65625 4.2177734 -5.4033203 3.5908203Q-6.1503906 2.9638672 -6.1503906 1.8095703Q-6.1503906 1.0009766 -5.6875 0.45019531Q-5.2246094 -0.10058594 -4.5039062 -0.21777344L-4.5039062 -0.24121094Q-5.1777344 -0.39941406 -5.5673828 -0.92675781Q-5.9570312 -1.4541016 -5.9570312 -2.1630859Q-5.9570312 -3.1064453 -5.2509766 -3.6923828Q-4.5449219 -4.2783203 -3.3554688 -4.2783203Q-2.1367188 -4.2783203 -1.4306641 -3.7041016Q-0.72460938 -3.1298828 -0.72460938 -2.1513672Q-0.72460938 -1.4423828 -1.1171875 -0.91503906Q-1.5097656 -0.38769531 -2.1894531 -0.25292969L-2.1894531 -0.22949219Q-1.3984375 -0.10058594 -0.95898438 0.44140625Q-0.51953125 0.98339844 -0.51953125 1.7978516ZM-1.8203125 -2.0927734Q-1.8203125 -3.4931641 -3.3554688 -3.4931641Q-4.0996094 -3.4931641 -4.4892578 -3.1416016Q-4.8789062 -2.7900391 -4.8789062 -2.0927734Q-4.8789062 -1.3837891 -4.4775391 -1.0117188Q-4.0761719 -0.63964844 -3.34375 -0.63964844Q-2.5996094 -0.63964844 -2.2099609 -0.98242188Q-1.8203125 -1.3251953 -1.8203125 -2.0927734ZM-1.6152344 1.6982422Q-1.6152344 0.93066406 -2.0722656 0.54101562Q-2.5292969 0.15136719 -3.3554688 0.15136719Q-4.1582031 0.15136719 -4.609375 0.5703125Q-5.0605469 0.98925781 -5.0605469 1.7216797Q-5.0605469 3.4267578 -3.3203125 3.4267578Q-2.4589844 3.4267578 -2.0371094 3.0136719Q-1.6152344 2.6005859 -1.6152344 1.6982422Z"/>
	</g>
	<clipPath id="cl_1f9">
		<rect width="53.080002" height="800"/>
	</clipPath>
	<g clip-path="url(#cl_1f9)">
		<path fill="#666" transform="translate(42.08 106.92)" d="M-10.474609 -0.030273438Q-10.474609 2.0380859 -11.204102 3.1279297Q-11.933594 4.2177734 -13.357422 4.2177734Q-14.78125 4.2177734 -15.496094 3.1337891Q-16.210938 2.0498047 -16.210938 -0.030273438Q-16.210938 -2.1572266 -15.516602 -3.2177734Q-14.822266 -4.2783203 -13.322266 -4.2783203Q-11.863281 -4.2783203 -11.168945 -3.2060547Q-10.474609 -2.1337891 -10.474609 -0.030273438ZM-11.546875 -0.030273438Q-11.546875 -1.8173828 -11.959961 -2.6201172Q-12.373047 -3.4228516 -13.322266 -3.4228516Q-14.294922 -3.4228516 -14.719727 -2.6318359Q-15.144531 -1.8408203 -15.144531 -0.030273438Q-15.144531 1.7275391 -14.713867 2.5419922Q-14.283203 3.3564453 -13.345703 3.3564453Q-12.414062 3.3564453 -11.980469 2.5244141Q-11.546875 1.6923828 -11.546875 -0.030273438ZM-8.9101562 4.1005859L-8.9101562 2.8173828L-7.7675781 2.8173828L-7.7675781 4.1005859L-8.9101562 4.1005859ZM-0.56640625 -0.19433594Q-0.56640625 1.9326172 -1.3427734 3.0751953Q-2.1191406 4.2177734 -3.5546875 4.2177734Q-4.5214844 4.2177734 -5.1044922 3.8105469Q-5.6875 3.4033203 -5.9394531 2.4951172L-4.9316406 2.3369141Q-4.6152344 3.3681641 -3.5371094 3.3681641Q-2.6289062 3.3681641 -2.1308594 2.5244141Q-1.6328125 1.6806641 -1.609375 0.11621094Q-1.84375 0.64355469 -2.4121094 0.96289062Q-2.9804688 1.2822266 -3.6601562 1.2822266Q-4.7734375 1.2822266 -5.4414062 0.52050781Q-6.109375 -0.24121094 -6.109375 -1.5009766Q-6.109375 -2.7958984 -5.3828125 -3.5371094Q-4.65625 -4.2783203 -3.3613281 -4.2783203Q-1.984375 -4.2783203 -1.2753906 -3.2587891Q-0.56640625 -2.2392578 -0.56640625 -0.19433594ZM-1.7148438 -1.2138672Q-1.7148438 -2.2099609 -2.171875 -2.8164062Q-2.6289062 -3.4228516 -3.3964844 -3.4228516Q-4.1582031 -3.4228516 -4.5976562 -2.9042969Q-5.0371094 -2.3857422 -5.0371094 -1.5009766Q-5.0371094 -0.59863281 -4.5976562 -0.07421875Q-4.1582031 0.45019531 -3.4082031 0.45019531Q-2.9511719 0.45019531 -2.5585938 0.2421875Q-2.1660156 0.034179688 -1.9404297 -0.34667969Q-1.7148438 -0.72753906 -1.7148438 -1.2138672Z"/>
	</g>
	<clipPath id="cl_1fa">
		<rect width="53.080002" height="800"/>
	</clipPath>
	<g clip-path="url(#cl_1fa)">
		<path fill="#666" transform="translate(42.08 34.4)" d="M-15.765625 4.1005859L-15.765625 3.2041016L-13.662109 3.2041016L-13.662109 -3.1474609L-15.525391 -1.8173828L-15.525391 -2.8134766L-13.574219 -4.1552734L-12.601562 -4.1552734L-12.601562 3.2041016L-10.591797 3.2041016L-10.591797 4.1005859L-15.765625 4.1005859ZM-8.9101562 4.1005859L-8.9101562 2.8173828L-7.7675781 2.8173828L-7.7675781 4.1005859L-8.9101562 4.1005859ZM-0.46679688 -0.030273438Q-0.46679688 2.0380859 -1.1962891 3.1279297Q-1.9257812 4.2177734 -3.3496094 4.2177734Q-4.7734375 4.2177734 -5.4882812 3.1337891Q-6.203125 2.0498047 -6.203125 -0.030273438Q-6.203125 -2.1572266 -5.5087891 -3.2177734Q-4.8144531 -4.2783203 -3.3144531 -4.2783203Q-1.8554688 -4.2783203 -1.1611328 -3.2060547Q-0.46679688 -2.1337891 -0.46679688 -0.030273438ZM-1.5390625 -0.030273438Q-1.5390625 -1.8173828 -1.9521484 -2.6201172Q-2.3652344 -3.4228516 -3.3144531 -3.4228516Q-4.2871094 -3.4228516 -4.7119141 -2.6318359Q-5.1367188 -1.8408203 -5.1367188 -0.030273438Q-5.1367188 1.7275391 -4.7060547 2.5419922Q-4.2753906 3.3564453 -3.3378906 3.3564453Q-2.40625 3.3564453 -1.9726562 2.5244141Q-1.5390625 1.6923828 -1.5390625 -0.030273438Z"/>
	</g>
</svg>
