<?xml version="1.0" encoding="utf-8" ?>
<svg xmlns="http://www.w3.org/2000/svg" xmlns:xlink="http://www.w3.org/1999/xlink" width="1000" height="800">
	<rect fill="white" width="1000" height="800"/>
	<path fill="#666" transform="translate(526.54 778.8)" d="M-9.1318665 4.1005859L-9.1318665 -1.4072266Q-9.1318665 -2.3212891 -9.0791321 -3.1650391Q-9.3662415 -2.1162109 -9.5947571 -1.5244141L-11.72757 4.1005859L-12.512726 4.1005859L-14.674835 -1.5244141L-15.00296 -2.5205078L-15.19632 -3.1650391L-15.178741 -2.5146484L-15.155304 -1.4072266L-15.155304 4.1005859L-16.151398 4.1005859L-16.151398 -4.1552734L-14.680695 -4.1552734L-12.483429 1.5693359Q-12.366241 1.9150391 -12.257843 2.3105469Q-12.149445 2.7060547 -12.114288 2.8818359Q-12.067413 2.6474609 -11.917999 2.1699219Q-11.768585 1.6923828 -11.715851 1.5693359L-9.5596008 -4.1552734L-8.124054 -4.1552734L-8.124054 4.1005859L-9.1318665 4.1005859ZM-0.96975708 0.92480469Q-0.96975708 2.5888672 -1.702179 3.4033203Q-2.4346008 4.2177734 -3.8291321 4.2177734Q-5.217804 4.2177734 -5.9267883 3.3710938Q-6.6357727 2.5244141 -6.6357727 0.92480469Q-6.6357727 -2.3564453 -3.7939758 -2.3564453Q-2.3408508 -2.3564453 -1.655304 -1.5566406Q-0.96975708 -0.75683594 -0.96975708 0.92480469ZM-2.077179 0.92480469Q-2.077179 -0.38769531 -2.4668274 -0.98242188Q-2.8564758 -1.5771484 -3.7763977 -1.5771484Q-4.702179 -1.5771484 -5.1152649 -0.97070312Q-5.5283508 -0.36425781 -5.5283508 0.92480469Q-5.5283508 2.1787109 -5.1211243 2.8085938Q-4.7138977 3.4384766 -3.8408508 3.4384766Q-2.8916321 3.4384766 -2.4844055 2.8291016Q-2.077179 2.2197266 -2.077179 0.92480469ZM4.3681335 4.1005859L4.3681335 0.081054688Q4.3681335 -0.54589844 4.2450867 -0.89160156Q4.1220398 -1.2373047 3.8525085 -1.3896484Q3.5829773 -1.5419922 3.0614929 -1.5419922Q2.2997742 -1.5419922 1.860321 -1.0205078Q1.4208679 -0.49902344 1.4208679 0.42675781L1.4208679 4.1005859L0.36618042 4.1005859L0.36618042 -0.88574219Q0.36618042 -1.9931641 0.33102417 -2.2392578L1.3271179 -2.2392578Q1.3329773 -2.2099609 1.3388367 -2.0810547Q1.344696 -1.9521484 1.3534851 -1.7851562Q1.3622742 -1.6181641 1.3739929 -1.1552734L1.391571 -1.1552734Q1.7548523 -1.8115234 2.2323914 -2.0839844Q2.7099304 -2.3564453 3.4189148 -2.3564453Q4.4618835 -2.3564453 4.945282 -1.8378906Q5.4286804 -1.3193359 5.4286804 -0.12402344L5.4286804 4.1005859L4.3681335 4.1005859ZM9.454071 4.0537109Q8.9325867 4.1943359 8.3876648 4.1943359Q7.1220398 4.1943359 7.1220398 2.7587891L7.1220398 -1.4716797L6.3896179 -1.4716797L6.3896179 -2.2392578L7.1630554 -2.2392578L7.4736023 -3.6572266L8.1767273 -3.6572266L8.1767273 -2.2392578L9.3486023 -2.2392578L9.3486023 -1.4716797L8.1767273 -1.4716797L8.1767273 2.5302734Q8.1767273 2.9873047 8.3261414 3.171875Q8.4755554 3.3564453 8.844696 3.3564453Q9.0556335 3.3564453 9.454071 3.2744141L9.454071 4.0537109ZM11.399384 -1.1552734Q11.739227 -1.7763672 12.216766 -2.0664062Q12.694305 -2.3564453 13.426727 -2.3564453Q14.457977 -2.3564453 14.947235 -1.84375Q15.436493 -1.3310547 15.436493 -0.12402344L15.436493 4.1005859L14.375946 4.1005859L14.375946 0.081054688Q14.375946 -0.58691406 14.252899 -0.91210938Q14.129852 -1.2373047 13.848602 -1.3896484Q13.567352 -1.5419922 13.069305 -1.5419922Q12.325165 -1.5419922 11.876923 -1.0263672Q11.42868 -0.51074219 11.42868 0.36230469L11.42868 4.1005859L10.373993 4.1005859L10.373993 -4.5947266L11.42868 -4.5947266L11.42868 -2.3330078Q11.42868 -1.9755859 11.408173 -1.5947266Q11.387665 -1.2138672 11.381805 -1.1552734L11.399384 -1.1552734Z"/>
	<path fill="none" stroke="black" stroke-width="1" stroke-miterlimit="10" stroke-opacity="0.10196079" d="M54 759.5L1000 759.5"/>
	<path fill="none" stroke="black" stroke-width="1" stroke-miterlimit="10" stroke-opacity="0.10196079" d="M45.080002 759.5L53 759.5"/>
	<path fill="none" stroke="black" stroke-width="1" stroke-miterlimit="10" stroke-opacity="0.10196079" d="M54 687.5L1000 687.5"/>
	<path fill="none" stroke="black" stroke-width="1" stroke-miterlimit="10" stroke-opacity="0.10196079" d="M45.080002 687.5L53 687.5"/>
	<path fill="none" stroke="black" stroke-width="1" stroke-miterlimit="10" stroke-opacity="0.10196079" d="M54 614.5L1000 614.5"/>
	<path fill="none" stroke="black" stroke-width="1" stroke-miterlimit="10" stroke-opacity="0.10196079" d="M45.080002 614.5L53 614.5"/>
	<path fill="none" stroke="black" stroke-width="1" stroke-miterlimit="10" stroke-opacity="0.10196079" d="M54 542.5L1000 542.5"/>
	<path fill="none" stroke="black" stroke-width="1" stroke-miterlimit="10" stroke-opacity="0.10196079" d="M45.080002 542.5L53 542.5"/>
	<path fill="none" stroke="black" stroke-width="1" stroke-miterlimit="10" stroke-opacity="0.10196079" d="M54 469.5L1000 469.5"/>
	<path fill="none" stroke="black" stroke-width="1" stroke-miterlimit="10" stroke-opacity="0.10196079" d="M45.080002 469.5L53 469.5"/>
	<path fill="none" stroke="black" stroke-width="1" stroke-miterlimit="10" stroke-opacity="0.10196079" d="M54 397.5L1000 397.5"/>
	<path fill="none" stroke="black" stroke-width="1" stroke-miterlimit="10" stroke-opacity="0.10196079" d="M45.080002 397.5L53 397.5"/>
	<path fill="none" stroke="black" stroke-width="1" stroke-miterlimit="10" stroke-opacity="0.10196079" d="M54 324.5L1000 324.5"/>
	<path fill="none" stroke="black" stroke-width="1" stroke-miterlimit="10" stroke-opacity="0.10196079" d="M45.080002 324.5L53 324.5"/>
	<path fill="none" stroke="black" stroke-width="1" stroke-miterlimit="10" stroke-opacity="0.10196079" d="M54 251.5L1000 251.5"/>
	<path fill="none" stroke="black" stroke-width="1" stroke-miterlimit="10" stroke-opacity="0.10196079" d="M45.080002 251.5L53 251.5"/>
	<path fill="none" stroke="black" stroke-width="1" stroke-miterlimit="10" stroke-opacity="0.10196079" d="M54 179.5L1000 179.5"/>
	<path fill="none" stroke="black" stroke-width="1" stroke-miterlimit="10" stroke-opacity="0.10196079" d="M45.080002 179.5L53 179.5"/>
	<path fill="none" stroke="black" stroke-width="1" stroke-miterlimit="10" stroke-opacity="0.10196079" d="M54 106.5L1000 106.5"/>
	<path fill="none" stroke="black" stroke-width="1" stroke-miterlimit="10" stroke-opacity="0.10196079" d="M45.080002 106.5L53 106.5"/>
	<path fill="none" stroke="black" stroke-width="1" stroke-miterlimit="10" stroke-opacity="0.10196079" d="M54 34.5L1000 34.5"/>
	<path fill="none" stroke="black" stroke-width="1" stroke-miterlimit="10" stroke-opacity="0.10196079" d="M45.080002 34.5L53 34.5"/>
	<path fill="#666" transform="matrix(0 -1 1 0 11.2 397)" d="M-21.591797 -0.11230469Q-21.591797 1.1650391 -22.089844 2.1230469Q-22.587891 3.0810547 -23.501953 3.5908203Q-24.416016 4.1005859 -25.611328 4.1005859L-28.699219 4.1005859L-28.699219 -4.1552734L-25.96875 -4.1552734Q-23.871094 -4.1552734 -22.731445 -3.1035156Q-21.591797 -2.0517578 -21.591797 -0.11230469ZM-22.716797 -0.11230469Q-22.716797 -1.6474609 -23.557617 -2.453125Q-24.398438 -3.2587891 -25.992188 -3.2587891L-27.580078 -3.2587891L-27.580078 3.2041016L-25.740234 3.2041016Q-24.832031 3.2041016 -24.143555 2.8056641Q-23.455078 2.4072266 -23.085938 1.6572266Q-22.716797 0.90722656 -22.716797 -0.11230469ZM-14.847656 0.92480469Q-14.847656 2.5888672 -15.580078 3.4033203Q-16.3125 4.2177734 -17.707031 4.2177734Q-19.095703 4.2177734 -19.804688 3.3710938Q-20.513672 2.5244141 -20.513672 0.92480469Q-20.513672 -2.3564453 -17.671875 -2.3564453Q-16.21875 -2.3564453 -15.533203 -1.5566406Q-14.847656 -0.75683594 -14.847656 0.92480469ZM-15.955078 0.92480469Q-15.955078 -0.38769531 -16.344727 -0.98242188Q-16.734375 -1.5771484 -17.654297 -1.5771484Q-18.580078 -1.5771484 -18.993164 -0.97070312Q-19.40625 -0.36425781 -19.40625 0.92480469Q-19.40625 2.1787109 -18.999023 2.8085938Q-18.591797 3.4384766 -17.71875 3.4384766Q-16.769531 3.4384766 -16.362305 2.8291016Q-15.955078 2.2197266 -15.955078 0.92480469ZM-7.4648438 4.1005859L-8.6894531 4.1005859L-9.796875 -0.38183594L-10.007812 -1.3720703Q-10.060547 -1.1083984 -10.171875 -0.61328125Q-10.283203 -0.11816406 -11.367188 4.1005859L-12.585938 4.1005859L-14.361328 -2.2392578L-13.318359 -2.2392578L-12.246094 2.0673828Q-12.205078 2.2080078 -11.994141 3.2275391L-11.894531 2.7939453L-10.570312 -2.2392578L-9.4394531 -2.2392578L-8.3320312 2.1142578L-8.0625 3.2275391L-7.8808594 2.4130859L-6.6796875 -2.2392578L-5.6484375 -2.2392578L-7.4648438 4.1005859ZM-0.84375 4.1005859L-0.84375 0.081054688Q-0.84375 -0.54589844 -0.96679688 -0.89160156Q-1.0898438 -1.2373047 -1.359375 -1.3896484Q-1.6289062 -1.5419922 -2.1503906 -1.5419922Q-2.9121094 -1.5419922 -3.3515625 -1.0205078Q-3.7910156 -0.49902344 -3.7910156 0.42675781L-3.7910156 4.1005859L-4.8457031 4.1005859L-4.8457031 -0.88574219Q-4.8457031 -1.9931641 -4.8808594 -2.2392578L-3.8847656 -2.2392578Q-3.8789062 -2.2099609 -3.8730469 -2.0810547Q-3.8671875 -1.9521484 -3.8583984 -1.7851562Q-3.8496094 -1.6181641 -3.8378906 -1.1552734L-3.8203125 -1.1552734Q-3.4570312 -1.8115234 -2.9794922 -2.0839844Q-2.5019531 -2.3564453 -1.7929688 -2.3564453Q-0.75 -2.3564453 -0.26660156 -1.8378906Q0.21679688 -1.3193359 0.21679688 -0.12402344L0.21679688 4.1005859L-0.84375 4.1005859ZM1.8046875 4.1005859L1.8046875 -4.5947266L2.859375 -4.5947266L2.859375 4.1005859L1.8046875 4.1005859ZM9.8320312 0.92480469Q9.8320312 2.5888672 9.0996094 3.4033203Q8.3671875 4.2177734 6.9726562 4.2177734Q5.5839844 4.2177734 4.875 3.3710938Q4.1660156 2.5244141 4.1660156 0.92480469Q4.1660156 -2.3564453 7.0078125 -2.3564453Q8.4609375 -2.3564453 9.1464844 -1.5566406Q9.8320312 -0.75683594 9.8320312 0.92480469ZM8.7246094 0.92480469Q8.7246094 -0.38769531 8.3349609 -0.98242188Q7.9453125 -1.5771484 7.0253906 -1.5771484Q6.0996094 -1.5771484 5.6865234 -0.97070312Q5.2734375 -0.36425781 5.2734375 0.92480469Q5.2734375 2.1787109 5.6806641 2.8085938Q6.0878906 3.4384766 6.9609375 3.4384766Q7.9101562 3.4384766 8.3173828 2.8291016Q8.7246094 2.2197266 8.7246094 0.92480469ZM12.761719 4.2177734Q11.806641 4.2177734 11.326172 3.7138672Q10.845703 3.2099609 10.845703 2.3310547Q10.845703 1.3466797 11.493164 0.81933594Q12.140625 0.29199219 13.582031 0.25683594L15.005859 0.23339844L15.005859 -0.11230469Q15.005859 -0.88574219 14.677734 -1.2197266Q14.349609 -1.5537109 13.646484 -1.5537109Q12.9375 -1.5537109 12.615234 -1.3134766Q12.292969 -1.0732422 12.228516 -0.54589844L11.126953 -0.64550781Q11.396484 -2.3564453 13.669922 -2.3564453Q14.865234 -2.3564453 15.46875 -1.8085938Q16.072266 -1.2607422 16.072266 -0.22363281L16.072266 2.5068359Q16.072266 2.9755859 16.195312 3.2128906Q16.318359 3.4501953 16.664062 3.4501953Q16.816406 3.4501953 17.009766 3.4091797L17.009766 4.0654297Q16.611328 4.1591797 16.195312 4.1591797Q15.609375 4.1591797 15.342773 3.8515625Q15.076172 3.5439453 15.041016 2.8876953L15.005859 2.8876953Q14.601562 3.6142578 14.06543 3.9160156Q13.529297 4.2177734 12.761719 4.2177734ZM13.001953 3.4267578Q13.582031 3.4267578 14.033203 3.1630859Q14.484375 2.8994141 14.745117 2.4394531Q15.005859 1.9794922 15.005859 1.4931641L15.005859 0.97167969L13.851562 0.99511719Q13.107422 1.0068359 12.723633 1.1474609Q12.339844 1.2880859 12.134766 1.5810547Q11.929688 1.8740234 11.929688 2.3486328Q11.929688 2.8642578 12.208008 3.1455078Q12.486328 3.4267578 13.001953 3.4267578ZM21.820312 3.0810547Q21.527344 3.6904297 21.043945 3.9541016Q20.560547 4.2177734 19.845703 4.2177734Q18.644531 4.2177734 18.079102 3.4091797Q17.513672 2.6005859 17.513672 0.95996094Q17.513672 -2.3564453 19.845703 -2.3564453Q20.566406 -2.3564453 21.046875 -2.0927734Q21.527344 -1.8291016 21.820312 -1.2548828L21.832031 -1.2548828L21.820312 -1.9638672L21.820312 -4.5947266L22.875 -4.5947266L22.875 2.7939453Q22.875 3.7841797 22.910156 4.1005859L21.902344 4.1005859Q21.884766 4.0068359 21.864258 3.6669922Q21.84375 3.3271484 21.84375 3.0810547L21.820312 3.0810547ZM18.621094 0.92480469Q18.621094 2.2548828 18.972656 2.8291016Q19.324219 3.4033203 20.115234 3.4033203Q21.011719 3.4033203 21.416016 2.7822266Q21.820312 2.1611328 21.820312 0.85449219Q21.820312 -0.40527344 21.416016 -0.99121094Q21.011719 -1.5771484 20.126953 -1.5771484Q19.330078 -1.5771484 18.975586 -0.98828125Q18.621094 -0.39941406 18.621094 0.92480469ZM29.25 2.3486328Q29.25 3.2451172 28.573242 3.7314453Q27.896484 4.2177734 26.677734 4.2177734Q25.494141 4.2177734 24.852539 3.828125Q24.210938 3.4384766 24.017578 2.6123047L24.949219 2.4306641Q25.083984 2.9404297 25.505859 3.1777344Q25.927734 3.4150391 26.677734 3.4150391Q27.480469 3.4150391 27.852539 3.1689453Q28.224609 2.9228516 28.224609 2.4306641Q28.224609 2.0556641 27.966797 1.8212891Q27.708984 1.5869141 27.134766 1.4345703L26.378906 1.2353516Q25.470703 1.0009766 25.086914 0.77539062Q24.703125 0.54980469 24.486328 0.22753906Q24.269531 -0.094726562 24.269531 -0.56347656Q24.269531 -1.4306641 24.887695 -1.8847656Q25.505859 -2.3388672 26.689453 -2.3388672Q27.738281 -2.3388672 28.356445 -1.9697266Q28.974609 -1.6005859 29.138672 -0.78613281L28.189453 -0.66894531Q28.101562 -1.0908203 27.717773 -1.3164062Q27.333984 -1.5419922 26.689453 -1.5419922Q25.974609 -1.5419922 25.634766 -1.3251953Q25.294922 -1.1083984 25.294922 -0.66894531Q25.294922 -0.39941406 25.435547 -0.22363281Q25.576172 -0.047851562 25.851562 0.075195312Q26.126953 0.19824219 27.011719 0.41503906Q27.849609 0.62597656 28.21875 0.8046875Q28.587891 0.98339844 28.801758 1.2001953Q29.015625 1.4169922 29.132812 1.7011719Q29.25 1.9853516 29.25 2.3486328Z"/>
	<path fill="#666" transform="translate(500 17.2)" d="M-123.16992 2.2490234Q-123.16992 3.1689453 -123.92285 3.6933594Q-124.67578 4.2177734 -126.00586 4.2177734Q-127.3125 4.2177734 -128.00684 3.8046875Q-128.70117 3.3916016 -128.92969 2.5185547L-127.48242 2.3017578Q-127.35938 2.7529297 -127.05762 2.9404297Q-126.75586 3.1279297 -126.00586 3.1279297Q-125.31445 3.1279297 -124.99805 2.9521484Q-124.68164 2.7763672 -124.68164 2.4013672Q-124.68164 2.0966797 -124.93652 1.9179688Q-125.19141 1.7392578 -125.80078 1.6162109Q-127.19531 1.3408203 -127.68164 1.1035156Q-128.16797 0.86621094 -128.42285 0.48828125Q-128.67773 0.11035156 -128.67773 -0.44042969Q-128.67773 -1.3486328 -127.97754 -1.8554688Q-127.27734 -2.3623047 -125.99414 -2.3623047Q-124.86328 -2.3623047 -124.1748 -1.9228516Q-123.48633 -1.4833984 -123.31641 -0.65136719L-124.77539 -0.49902344Q-124.8457 -0.88574219 -125.12109 -1.0761719Q-125.39648 -1.2666016 -125.99414 -1.2666016Q-126.58008 -1.2666016 -126.87305 -1.1171875Q-127.16602 -0.96777344 -127.16602 -0.61621094Q-127.16602 -0.34082031 -126.94043 -0.1796875Q-126.71484 -0.018554688 -126.18164 0.086914062Q-125.4375 0.23925781 -124.86035 0.40039062Q-124.2832 0.56152344 -123.93457 0.78417969Q-123.58594 1.0068359 -123.37793 1.3554688Q-123.16992 1.7041016 -123.16992 2.2490234ZM-120.375 4.2177734Q-121.29492 4.2177734 -121.81055 3.7167969Q-122.32617 3.2158203 -122.32617 2.3076172Q-122.32617 1.3232422 -121.68457 0.80761719Q-121.04297 0.29199219 -119.82422 0.28027344L-118.45898 0.25683594L-118.45898 -0.065429688Q-118.45898 -0.68652344 -118.67578 -0.98828125Q-118.89258 -1.2900391 -119.38477 -1.2900391Q-119.8418 -1.2900391 -120.05566 -1.0820312Q-120.26953 -0.87402344 -120.32227 -0.39355469L-122.03906 -0.47558594Q-121.88086 -1.4013672 -121.19238 -1.8789062Q-120.50391 -2.3564453 -119.31445 -2.3564453Q-118.11328 -2.3564453 -117.46289 -1.7646484Q-116.8125 -1.1728516 -116.8125 -0.083007812L-116.8125 2.2255859Q-116.8125 2.7587891 -116.69238 2.9609375Q-116.57227 3.1630859 -116.29102 3.1630859Q-116.10352 3.1630859 -115.92773 3.1279297L-115.92773 4.0185547Q-116.07422 4.0537109 -116.19141 4.0830078Q-116.30859 4.1123047 -116.42578 4.1298828Q-116.54297 4.1474609 -116.6748 4.1591797Q-116.80664 4.1708984 -116.98242 4.1708984Q-117.60352 4.1708984 -117.89941 3.8662109Q-118.19531 3.5615234 -118.25391 2.9697266L-118.28906 2.9697266Q-118.98047 4.2177734 -120.375 4.2177734ZM-118.45898 1.1650391L-119.30273 1.1767578Q-119.87695 1.2001953 -120.11719 1.3027344Q-120.35742 1.4052734 -120.4834 1.6162109Q-120.60938 1.8271484 -120.60938 2.1787109Q-120.60938 2.6298828 -120.40137 2.8496094Q-120.19336 3.0693359 -119.84766 3.0693359Q-119.46094 3.0693359 -119.1416 2.8583984Q-118.82227 2.6474609 -118.64062 2.2753906Q-118.45898 1.9033203 -118.45898 1.4873047L-118.45898 1.1650391ZM-115.16602 -3.3818359L-115.16602 -4.5947266L-113.51953 -4.5947266L-113.51953 -3.3818359L-115.16602 -3.3818359ZM-115.16602 4.1005859L-115.16602 -2.2392578L-113.51953 -2.2392578L-113.51953 4.1005859L-115.16602 4.1005859ZM-111.83203 4.1005859L-111.83203 -4.5947266L-110.18555 -4.5947266L-110.18555 4.1005859L-111.83203 4.1005859ZM-102.49805 0.90136719Q-102.49805 2.4892578 -103.13379 3.3535156Q-103.76953 4.2177734 -104.92969 4.2177734Q-105.59766 4.2177734 -106.09277 3.9277344Q-106.58789 3.6376953 -106.85156 3.0927734L-106.88672 3.0927734Q-106.85156 3.2685547 -106.85156 4.1591797L-106.85156 6.5908203L-108.49805 6.5908203L-108.49805 -0.78027344Q-108.49805 -1.6767578 -108.54492 -2.2392578L-106.94531 -2.2392578Q-106.91602 -2.1337891 -106.89551 -1.8232422Q-106.875 -1.5126953 -106.875 -1.2080078L-106.85156 -1.2080078Q-106.29492 -2.3740234 -104.82422 -2.3740234Q-103.7168 -2.3740234 -103.10742 -1.5214844Q-102.49805 -0.66894531 -102.49805 0.90136719ZM-104.21484 0.90136719Q-104.21484 -1.2314453 -105.52148 -1.2314453Q-106.17773 -1.2314453 -106.52637 -0.65722656Q-106.875 -0.083007812 -106.875 0.94824219Q-106.875 1.9736328 -106.52637 2.5332031Q-106.17773 3.0927734 -105.5332 3.0927734Q-104.21484 3.0927734 -104.21484 0.90136719ZM-95.144531 0.92480469Q-95.144531 2.4658203 -96 3.3417969Q-96.855469 4.2177734 -98.367188 4.2177734Q-99.849609 4.2177734 -100.69336 3.3388672Q-101.53711 2.4599609 -101.53711 0.92480469Q-101.53711 -0.60449219 -100.69336 -1.4804688Q-99.849609 -2.3564453 -98.332031 -2.3564453Q-96.779297 -2.3564453 -95.961914 -1.5097656Q-95.144531 -0.66308594 -95.144531 0.92480469ZM-96.867188 0.92480469Q-96.867188 -0.20605469 -97.236328 -0.71582031Q-97.605469 -1.2255859 -98.308594 -1.2255859Q-99.808594 -1.2255859 -99.808594 0.92480469Q-99.808594 1.9853516 -99.442383 2.5390625Q-99.076172 3.0927734 -98.384766 3.0927734Q-96.867188 3.0927734 -96.867188 0.92480469ZM-93.837891 -3.3818359L-93.837891 -4.5947266L-92.191406 -4.5947266L-92.191406 -3.3818359L-93.837891 -3.3818359ZM-93.837891 4.1005859L-93.837891 -2.2392578L-92.191406 -2.2392578L-92.191406 4.1005859L-93.837891 4.1005859ZM-86.396484 4.1005859L-86.396484 0.54394531Q-86.396484 -1.1259766 -87.527344 -1.1259766Q-88.125 -1.1259766 -88.491211 -0.61328125Q-88.857422 -0.10058594 -88.857422 0.70214844L-88.857422 4.1005859L-90.503906 4.1005859L-90.503906 -0.82128906Q-90.503906 -1.3310547 -90.518555 -1.65625Q-90.533203 -1.9814453 -90.550781 -2.2392578L-88.980469 -2.2392578Q-88.962891 -2.1279297 -88.933594 -1.6445312Q-88.904297 -1.1611328 -88.904297 -0.97949219L-88.880859 -0.97949219Q-88.546875 -1.7060547 -88.042969 -2.0341797Q-87.539062 -2.3623047 -86.841797 -2.3623047Q-85.833984 -2.3623047 -85.294922 -1.7412109Q-84.755859 -1.1201172 -84.755859 0.075195312L-84.755859 4.1005859L-86.396484 4.1005859ZM-81.550781 4.2060547Q-82.277344 4.2060547 -82.669922 3.8105469Q-83.0625 3.4150391 -83.0625 2.6123047L-83.0625 -1.1259766L-83.865234 -1.1259766L-83.865234 -2.2392578L-82.980469 -2.2392578L-82.464844 -3.7275391L-81.433594 -3.7275391L-81.433594 -2.2392578L-80.232422 -2.2392578L-80.232422 -1.1259766L-81.433594 -1.1259766L-81.433594 2.1669922Q-81.433594 2.6298828 -81.257812 2.8496094Q-81.082031 3.0693359 -80.712891 3.0693359Q-80.519531 3.0693359 -80.162109 2.9873047L-80.162109 4.0068359Q-80.771484 4.2060547 -81.550781 4.2060547ZM-71.736328 4.1005859Q-71.759766 4.0126953 -71.791992 3.6582031Q-71.824219 3.3037109 -71.824219 3.0693359L-71.847656 3.0693359Q-72.380859 4.2177734 -73.875 4.2177734Q-74.982422 4.2177734 -75.585938 3.3535156Q-76.189453 2.4892578 -76.189453 0.93652344Q-76.189453 -0.63964844 -75.553711 -1.4980469Q-74.917969 -2.3564453 -73.751953 -2.3564453Q-73.078125 -2.3564453 -72.588867 -2.0751953Q-72.099609 -1.7939453 -71.835938 -1.2373047L-71.824219 -1.2373047L-71.835938 -2.2802734L-71.835938 -4.5947266L-70.189453 -4.5947266L-70.189453 2.7177734Q-70.189453 3.3037109 -70.142578 4.1005859L-71.736328 4.1005859ZM-71.8125 0.89550781Q-71.8125 -0.12988281 -72.155273 -0.68359375Q-72.498047 -1.2373047 -73.166016 -1.2373047Q-73.828125 -1.2373047 -74.150391 -0.70117188Q-74.472656 -0.16503906 -74.472656 0.93652344Q-74.472656 3.0927734 -73.177734 3.0927734Q-72.527344 3.0927734 -72.169922 2.5214844Q-71.8125 1.9501953 -71.8125 0.89550781ZM-62.490234 0.92480469Q-62.490234 2.4658203 -63.345703 3.3417969Q-64.201172 4.2177734 -65.712891 4.2177734Q-67.195312 4.2177734 -68.039062 3.3388672Q-68.882812 2.4599609 -68.882812 0.92480469Q-68.882812 -0.60449219 -68.039062 -1.4804688Q-67.195312 -2.3564453 -65.677734 -2.3564453Q-64.125 -2.3564453 -63.307617 -1.5097656Q-62.490234 -0.66308594 -62.490234 0.92480469ZM-64.212891 0.92480469Q-64.212891 -0.20605469 -64.582031 -0.71582031Q-64.951172 -1.2255859 -65.654297 -1.2255859Q-67.154297 -1.2255859 -67.154297 0.92480469Q-67.154297 1.9853516 -66.788086 2.5390625Q-66.421875 3.0927734 -65.730469 3.0927734Q-64.212891 3.0927734 -64.212891 0.92480469ZM-54.328125 4.1005859L-56.068359 4.1005859L-57.076172 0.23339844Q-57.146484 -0.030273438 -57.351562 -1.0673828L-57.65625 0.24511719L-58.675781 4.1005859L-60.416016 4.1005859L-62.056641 -2.2392578L-60.509766 -2.2392578L-59.466797 2.6064453L-59.384766 2.1728516L-59.238281 1.4873047L-58.242188 -2.2392578L-56.478516 -2.2392578L-55.505859 1.4873047Q-55.423828 1.7919922 -55.265625 2.6064453L-55.101562 1.8330078L-54.1875 -2.2392578L-52.664062 -2.2392578L-54.328125 4.1005859ZM-47.742188 4.1005859L-47.742188 0.54394531Q-47.742188 -1.1259766 -48.873047 -1.1259766Q-49.470703 -1.1259766 -49.836914 -0.61328125Q-50.203125 -0.10058594 -50.203125 0.70214844L-50.203125 4.1005859L-51.849609 4.1005859L-51.849609 -0.82128906Q-51.849609 -1.3310547 -51.864258 -1.65625Q-51.878906 -1.9814453 -51.896484 -2.2392578L-50.326172 -2.2392578Q-50.308594 -2.1279297 -50.279297 -1.6445312Q-50.25 -1.1611328 -50.25 -0.97949219L-50.226562 -0.97949219Q-49.892578 -1.7060547 -49.388672 -2.0341797Q-48.884766 -2.3623047 -48.1875 -2.3623047Q-47.179688 -2.3623047 -46.640625 -1.7412109Q-46.101562 -1.1201172 -46.101562 0.075195312L-46.101562 4.1005859L-47.742188 4.1005859ZM-44.519531 4.1005859L-44.519531 -4.5947266L-42.873047 -4.5947266L-42.873047 4.1005859L-44.519531 4.1005859ZM-35.162109 0.92480469Q-35.162109 2.4658203 -36.017578 3.3417969Q-36.873047 4.2177734 -38.384766 4.2177734Q-39.867188 4.2177734 -40.710938 3.3388672Q-41.554688 2.4599609 -41.554688 0.92480469Q-41.554688 -0.60449219 -40.710938 -1.4804688Q-39.867188 -2.3564453 -38.349609 -2.3564453Q-36.796875 -2.3564453 -35.979492 -1.5097656Q-35.162109 -0.66308594 -35.162109 0.92480469ZM-36.884766 0.92480469Q-36.884766 -0.20605469 -37.253906 -0.71582031Q-37.623047 -1.2255859 -38.326172 -1.2255859Q-39.826172 -1.2255859 -39.826172 0.92480469Q-39.826172 1.9853516 -39.459961 2.5390625Q-39.09375 3.0927734 -38.402344 3.0927734Q-36.884766 3.0927734 -36.884766 0.92480469ZM-32.390625 4.2177734Q-33.310547 4.2177734 -33.826172 3.7167969Q-34.341797 3.2158203 -34.341797 2.3076172Q-34.341797 1.3232422 -33.700195 0.80761719Q-33.058594 0.29199219 -31.839844 0.28027344L-30.474609 0.25683594L-30.474609 -0.065429688Q-30.474609 -0.68652344 -30.691406 -0.98828125Q-30.908203 -1.2900391 -31.400391 -1.2900391Q-31.857422 -1.2900391 -32.071289 -1.0820312Q-32.285156 -0.87402344 -32.337891 -0.39355469L-34.054688 -0.47558594Q-33.896484 -1.4013672 -33.208008 -1.8789062Q-32.519531 -2.3564453 -31.330078 -2.3564453Q-30.128906 -2.3564453 -29.478516 -1.7646484Q-28.828125 -1.1728516 -28.828125 -0.083007812L-28.828125 2.2255859Q-28.828125 2.7587891 -28.708008 2.9609375Q-28.587891 3.1630859 -28.306641 3.1630859Q-28.119141 3.1630859 -27.943359 3.1279297L-27.943359 4.0185547Q-28.089844 4.0537109 -28.207031 4.0830078Q-28.324219 4.1123047 -28.441406 4.1298828Q-28.558594 4.1474609 -28.69043 4.1591797Q-28.822266 4.1708984 -28.998047 4.1708984Q-29.619141 4.1708984 -29.915039 3.8662109Q-30.210938 3.5615234 -30.269531 2.9697266L-30.304688 2.9697266Q-30.996094 4.2177734 -32.390625 4.2177734ZM-30.474609 1.1650391L-31.318359 1.1767578Q-31.892578 1.2001953 -32.132812 1.3027344Q-32.373047 1.4052734 -32.499023 1.6162109Q-32.625 1.8271484 -32.625 2.1787109Q-32.625 2.6298828 -32.416992 2.8496094Q-32.208984 3.0693359 -31.863281 3.0693359Q-31.476562 3.0693359 -31.157227 2.8583984Q-30.837891 2.6474609 -30.65625 2.2753906Q-30.474609 1.9033203 -30.474609 1.4873047L-30.474609 1.1650391ZM-23.074219 4.1005859Q-23.097656 4.0126953 -23.129883 3.6582031Q-23.162109 3.3037109 -23.162109 3.0693359L-23.185547 3.0693359Q-23.71875 4.2177734 -25.212891 4.2177734Q-26.320312 4.2177734 -26.923828 3.3535156Q-27.527344 2.4892578 -27.527344 0.93652344Q-27.527344 -0.63964844 -26.891602 -1.4980469Q-26.255859 -2.3564453 -25.089844 -2.3564453Q-24.416016 -2.3564453 -23.926758 -2.0751953Q-23.4375 -1.7939453 -23.173828 -1.2373047L-23.162109 -1.2373047L-23.173828 -2.2802734L-23.173828 -4.5947266L-21.527344 -4.5947266L-21.527344 2.7177734Q-21.527344 3.3037109 -21.480469 4.1005859L-23.074219 4.1005859ZM-23.150391 0.89550781Q-23.150391 -0.12988281 -23.493164 -0.68359375Q-23.835938 -1.2373047 -24.503906 -1.2373047Q-25.166016 -1.2373047 -25.488281 -0.70117188Q-25.810547 -0.16503906 -25.810547 0.93652344Q-25.810547 3.0927734 -24.515625 3.0927734Q-23.865234 3.0927734 -23.507812 2.5214844Q-23.150391 1.9501953 -23.150391 0.89550781ZM-14.507812 2.2490234Q-14.507812 3.1689453 -15.260742 3.6933594Q-16.013672 4.2177734 -17.34375 4.2177734Q-18.650391 4.2177734 -19.344727 3.8046875Q-20.039062 3.3916016 -20.267578 2.5185547L-18.820312 2.3017578Q-18.697266 2.7529297 -18.395508 2.9404297Q-18.09375 3.1279297 -17.34375 3.1279297Q-16.652344 3.1279297 -16.335938 2.9521484Q-16.019531 2.7763672 -16.019531 2.4013672Q-16.019531 2.0966797 -16.274414 1.9179688Q-16.529297 1.7392578 -17.138672 1.6162109Q-18.533203 1.3408203 -19.019531 1.1035156Q-19.505859 0.86621094 -19.760742 0.48828125Q-20.015625 0.11035156 -20.015625 -0.44042969Q-20.015625 -1.3486328 -19.31543 -1.8554688Q-18.615234 -2.3623047 -17.332031 -2.3623047Q-16.201172 -2.3623047 -15.512695 -1.9228516Q-14.824219 -1.4833984 -14.654297 -0.65136719L-16.113281 -0.49902344Q-16.183594 -0.88574219 -16.458984 -1.0761719Q-16.734375 -1.2666016 -17.332031 -1.2666016Q-17.917969 -1.2666016 -18.210938 -1.1171875Q-18.503906 -0.96777344 -18.503906 -0.61621094Q-18.503906 -0.34082031 -18.27832 -0.1796875Q-18.052734 -0.018554688 -17.519531 0.086914062Q-16.775391 0.23925781 -16.198242 0.40039062Q-15.621094 0.56152344 -15.272461 0.78417969Q-14.923828 1.0068359 -14.71582 1.3554688Q-14.507812 1.7041016 -14.507812 2.2490234ZM-3.84375 0.90722656Q-3.84375 2.4775391 -4.4736328 3.3476562Q-5.1035156 4.2177734 -6.2753906 4.2177734Q-6.9492188 4.2177734 -7.4414062 3.9248047Q-7.9335938 3.6318359 -8.1972656 3.0810547L-8.2089844 3.0810547Q-8.2089844 3.2861328 -8.2353516 3.6435547Q-8.2617188 4.0009766 -8.2910156 4.1005859L-9.890625 4.1005859Q-9.84375 3.5556641 -9.84375 2.6533203L-9.84375 -4.5947266L-8.1972656 -4.5947266L-8.1972656 -2.1689453L-8.2207031 -1.1376953L-8.1972656 -1.1376953Q-7.640625 -2.3564453 -6.1699219 -2.3564453Q-5.0449219 -2.3564453 -4.4443359 -1.5039062Q-3.84375 -0.65136719 -3.84375 0.90722656ZM-5.5605469 0.90722656Q-5.5605469 -0.17089844 -5.8769531 -0.69238281Q-6.1933594 -1.2138672 -6.8554688 -1.2138672Q-7.5234375 -1.2138672 -7.8720703 -0.65429688Q-8.2207031 -0.094726562 -8.2207031 0.95996094Q-8.2207031 1.9677734 -7.8779297 2.5302734Q-7.5351562 3.0927734 -6.8671875 3.0927734Q-5.5605469 3.0927734 -5.5605469 0.90722656ZM-1.6933594 6.5908203Q-2.2851562 6.5908203 -2.7304688 6.5146484L-2.7304688 5.3427734Q-2.4199219 5.3896484 -2.1621094 5.3896484Q-1.8105469 5.3896484 -1.5791016 5.2783203Q-1.3476562 5.1669922 -1.1630859 4.9091797Q-0.97851562 4.6513672 -0.75 4.0361328L-3.2578125 -2.2392578L-1.5175781 -2.2392578L-0.52148438 0.73144531Q-0.28710938 1.3701172 0.0703125 2.6884766L0.21679688 2.1318359L0.59765625 0.75488281L1.5351562 -2.2392578L3.2578125 -2.2392578L0.75 4.4345703Q0.24609375 5.6533203 -0.29589844 6.1220703Q-0.83789062 6.5908203 -1.6933594 6.5908203ZM14.25 -1.5419922Q14.25 -0.74511719 13.886719 -0.11816406Q13.523438 0.50878906 12.84668 0.8515625Q12.169922 1.1943359 11.238281 1.1943359L9.1875 1.1943359L9.1875 4.1005859L7.4589844 4.1005859L7.4589844 -4.1552734L11.167969 -4.1552734Q12.650391 -4.1552734 13.450195 -3.4726562Q14.25 -2.7900391 14.25 -1.5419922ZM12.509766 -1.5126953Q12.509766 -2.8134766 10.974609 -2.8134766L9.1875 -2.8134766L9.1875 -0.13574219L11.021484 -0.13574219Q11.736328 -0.13574219 12.123047 -0.49023438Q12.509766 -0.84472656 12.509766 -1.5126953ZM16.318359 6.5908203Q15.726562 6.5908203 15.28125 6.5146484L15.28125 5.3427734Q15.591797 5.3896484 15.849609 5.3896484Q16.201172 5.3896484 16.432617 5.2783203Q16.664062 5.1669922 16.848633 4.9091797Q17.033203 4.6513672 17.261719 4.0361328L14.753906 -2.2392578L16.494141 -2.2392578L17.490234 0.73144531Q17.724609 1.3701172 18.082031 2.6884766L18.228516 2.1318359L18.609375 0.75488281L19.546875 -2.2392578L21.269531 -2.2392578L18.761719 4.4345703Q18.257812 5.6533203 17.71582 6.1220703Q17.173828 6.5908203 16.318359 6.5908203ZM23.794922 4.2060547Q23.068359 4.2060547 22.675781 3.8105469Q22.283203 3.4150391 22.283203 2.6123047L22.283203 -1.1259766L21.480469 -1.1259766L21.480469 -2.2392578L22.365234 -2.2392578L22.880859 -3.7275391L23.912109 -3.7275391L23.912109 -2.2392578L25.113281 -2.2392578L25.113281 -1.1259766L23.912109 -1.1259766L23.912109 2.1669922Q23.912109 2.6298828 24.087891 2.8496094Q24.263672 3.0693359 24.632812 3.0693359Q24.826172 3.0693359 25.183594 2.9873047L25.183594 4.0068359Q24.574219 4.2060547 23.794922 4.2060547ZM27.791016 -0.97363281Q28.125 -1.7001953 28.628906 -2.0283203Q29.132812 -2.3564453 29.830078 -2.3564453Q30.837891 -2.3564453 31.376953 -1.7353516Q31.916016 -1.1142578 31.916016 0.081054688L31.916016 4.1005859L30.275391 4.1005859L30.275391 0.54980469Q30.275391 -1.1201172 29.144531 -1.1201172Q28.546875 -1.1201172 28.180664 -0.60742188Q27.814453 -0.094726562 27.814453 0.70800781L27.814453 4.1005859L26.167969 4.1005859L26.167969 -4.5947266L27.814453 -4.5947266L27.814453 -2.2216797Q27.814453 -1.5830078 27.767578 -0.97363281L27.791016 -0.97363281ZM39.521484 0.92480469Q39.521484 2.4658203 38.666016 3.3417969Q37.810547 4.2177734 36.298828 4.2177734Q34.816406 4.2177734 33.972656 3.3388672Q33.128906 2.4599609 33.128906 0.92480469Q33.128906 -0.60449219 33.972656 -1.4804688Q34.816406 -2.3564453 36.333984 -2.3564453Q37.886719 -2.3564453 38.704102 -1.5097656Q39.521484 -0.66308594 39.521484 0.92480469ZM37.798828 0.92480469Q37.798828 -0.20605469 37.429688 -0.71582031Q37.060547 -1.2255859 36.357422 -1.2255859Q34.857422 -1.2255859 34.857422 0.92480469Q34.857422 1.9853516 35.223633 2.5390625Q35.589844 3.0927734 36.28125 3.0927734Q37.798828 3.0927734 37.798828 0.92480469ZM44.935547 4.1005859L44.935547 0.54394531Q44.935547 -1.1259766 43.804688 -1.1259766Q43.207031 -1.1259766 42.84082 -0.61328125Q42.474609 -0.10058594 42.474609 0.70214844L42.474609 4.1005859L40.828125 4.1005859L40.828125 -0.82128906Q40.828125 -1.3310547 40.813477 -1.65625Q40.798828 -1.9814453 40.78125 -2.2392578L42.351562 -2.2392578Q42.369141 -2.1279297 42.398438 -1.6445312Q42.427734 -1.1611328 42.427734 -0.97949219L42.451172 -0.97949219Q42.785156 -1.7060547 43.289062 -2.0341797Q43.792969 -2.3623047 44.490234 -2.3623047Q45.498047 -2.3623047 46.037109 -1.7412109Q46.576172 -1.1201172 46.576172 0.075195312L46.576172 4.1005859L44.935547 4.1005859ZM55.224609 4.1005859L55.224609 0.54394531Q55.224609 -1.1259766 54.263672 -1.1259766Q53.765625 -1.1259766 53.452148 -0.61621094Q53.138672 -0.10644531 53.138672 0.70214844L53.138672 4.1005859L51.492188 4.1005859L51.492188 -0.82128906Q51.492188 -1.3310547 51.477539 -1.65625Q51.462891 -1.9814453 51.445312 -2.2392578L53.015625 -2.2392578Q53.033203 -2.1279297 53.0625 -1.6445312Q53.091797 -1.1611328 53.091797 -0.97949219L53.115234 -0.97949219Q53.419922 -1.7060547 53.874023 -2.0341797Q54.328125 -2.3623047 54.960938 -2.3623047Q56.414062 -2.3623047 56.724609 -0.97949219L56.759766 -0.97949219Q57.082031 -1.7177734 57.533203 -2.0400391Q57.984375 -2.3623047 58.681641 -2.3623047Q59.607422 -2.3623047 60.09375 -1.7324219Q60.580078 -1.1025391 60.580078 0.075195312L60.580078 4.1005859L58.945312 4.1005859L58.945312 0.54394531Q58.945312 -1.1259766 57.984375 -1.1259766Q57.503906 -1.1259766 57.196289 -0.66015625Q56.888672 -0.19433594 56.859375 0.62597656L56.859375 4.1005859L55.224609 4.1005859ZM63.626953 4.2177734Q62.707031 4.2177734 62.191406 3.7167969Q61.675781 3.2158203 61.675781 2.3076172Q61.675781 1.3232422 62.317383 0.80761719Q62.958984 0.29199219 64.177734 0.28027344L65.542969 0.25683594L65.542969 -0.065429688Q65.542969 -0.68652344 65.326172 -0.98828125Q65.109375 -1.2900391 64.617188 -1.2900391Q64.160156 -1.2900391 63.946289 -1.0820312Q63.732422 -0.87402344 63.679688 -0.39355469L61.962891 -0.47558594Q62.121094 -1.4013672 62.80957 -1.8789062Q63.498047 -2.3564453 64.6875 -2.3564453Q65.888672 -2.3564453 66.539062 -1.7646484Q67.189453 -1.1728516 67.189453 -0.083007812L67.189453 2.2255859Q67.189453 2.7587891 67.30957 2.9609375Q67.429688 3.1630859 67.710938 3.1630859Q67.898438 3.1630859 68.074219 3.1279297L68.074219 4.0185547Q67.927734 4.0537109 67.810547 4.0830078Q67.693359 4.1123047 67.576172 4.1298828Q67.458984 4.1474609 67.327148 4.1591797Q67.195312 4.1708984 67.019531 4.1708984Q66.398438 4.1708984 66.102539 3.8662109Q65.806641 3.5615234 65.748047 2.9697266L65.712891 2.9697266Q65.021484 4.2177734 63.626953 4.2177734ZM65.542969 1.1650391L64.699219 1.1767578Q64.125 1.2001953 63.884766 1.3027344Q63.644531 1.4052734 63.518555 1.6162109Q63.392578 1.8271484 63.392578 2.1787109Q63.392578 2.6298828 63.600586 2.8496094Q63.808594 3.0693359 64.154297 3.0693359Q64.541016 3.0693359 64.860352 2.8583984Q65.179688 2.6474609 65.361328 2.2753906Q65.542969 1.9033203 65.542969 1.4873047L65.542969 1.1650391ZM68.841797 -3.3818359L68.841797 -4.5947266L70.488281 -4.5947266L70.488281 -3.3818359L68.841797 -3.3818359ZM68.806641 6.5908203Q68.220703 6.5908203 67.810547 6.5380859L67.810547 5.3779297L68.109375 5.4013672Q68.53125 5.4013672 68.686523 5.2167969Q68.841797 5.0322266 68.841797 4.4521484L68.841797 -2.2392578L70.488281 -2.2392578L70.488281 4.8505859Q70.488281 5.6884766 70.063477 6.1396484Q69.638672 6.5908203 68.806641 6.5908203ZM78.193359 0.92480469Q78.193359 2.4658203 77.337891 3.3417969Q76.482422 4.2177734 74.970703 4.2177734Q73.488281 4.2177734 72.644531 3.3388672Q71.800781 2.4599609 71.800781 0.92480469Q71.800781 -0.60449219 72.644531 -1.4804688Q73.488281 -2.3564453 75.005859 -2.3564453Q76.558594 -2.3564453 77.375977 -1.5097656Q78.193359 -0.66308594 78.193359 0.92480469ZM76.470703 0.92480469Q76.470703 -0.20605469 76.101562 -0.71582031Q75.732422 -1.2255859 75.029297 -1.2255859Q73.529297 -1.2255859 73.529297 0.92480469Q73.529297 1.9853516 73.895508 2.5390625Q74.261719 3.0927734 74.953125 3.0927734Q76.470703 3.0927734 76.470703 0.92480469ZM79.5 4.1005859L79.5 -0.75097656Q79.5 -1.2724609 79.485352 -1.6210938Q79.470703 -1.9697266 79.453125 -2.2392578L81.023438 -2.2392578Q81.041016 -2.1337891 81.070312 -1.5976562Q81.099609 -1.0615234 81.099609 -0.88574219L81.123047 -0.88574219Q81.363281 -1.5537109 81.550781 -1.8261719Q81.738281 -2.0986328 81.996094 -2.2304688Q82.253906 -2.3623047 82.640625 -2.3623047Q82.957031 -2.3623047 83.150391 -2.2744141L83.150391 -0.89746094Q82.751953 -0.98535156 82.447266 -0.98535156Q81.832031 -0.98535156 81.489258 -0.48730469Q81.146484 0.010742188 81.146484 0.98925781L81.146484 4.1005859L79.5 4.1005859ZM90.949219 4.1005859L88.980469 4.1005859L86.712891 -2.2392578L88.453125 -2.2392578L89.560547 1.3056641Q89.648438 1.5986328 89.976562 2.7705078Q90.035156 2.5302734 90.216797 1.9267578Q90.398438 1.3232422 91.564453 -2.2392578L93.287109 -2.2392578L90.949219 4.1005859ZM96.773438 4.2177734Q95.34375 4.2177734 94.576172 3.3710938Q93.808594 2.5244141 93.808594 0.90136719Q93.808594 -0.66894531 94.587891 -1.5126953Q95.367188 -2.3564453 96.796875 -2.3564453Q98.162109 -2.3564453 98.882812 -1.4511719Q99.603516 -0.54589844 99.603516 1.2001953L99.603516 1.2470703L95.537109 1.2470703Q95.537109 2.1728516 95.879883 2.6445312Q96.222656 3.1162109 96.855469 3.1162109Q97.728516 3.1162109 97.957031 2.3603516L99.509766 2.4951172Q98.835938 4.2177734 96.773438 4.2177734ZM96.773438 -1.3193359Q96.193359 -1.3193359 95.879883 -0.91503906Q95.566406 -0.51074219 95.548828 0.21582031L98.009766 0.21582031Q97.962891 -0.55175781 97.640625 -0.93554688Q97.318359 -1.3193359 96.773438 -1.3193359ZM100.85156 4.1005859L100.85156 -0.75097656Q100.85156 -1.2724609 100.83691 -1.6210938Q100.82227 -1.9697266 100.80469 -2.2392578L102.375 -2.2392578Q102.39258 -2.1337891 102.42188 -1.5976562Q102.45117 -1.0615234 102.45117 -0.88574219L102.47461 -0.88574219Q102.71484 -1.5537109 102.90234 -1.8261719Q103.08984 -2.0986328 103.34766 -2.2304688Q103.60547 -2.3623047 103.99219 -2.3623047Q104.30859 -2.3623047 104.50195 -2.2744141L104.50195 -0.89746094Q104.10352 -0.98535156 103.79883 -0.98535156Q103.18359 -0.98535156 102.84082 -0.48730469Q102.49805 0.010742188 102.49805 0.98925781L102.49805 4.1005859L100.85156 4.1005859ZM110.86523 2.2490234Q110.86523 3.1689453 110.1123 3.6933594Q109.35938 4.2177734 108.0293 4.2177734Q106.72266 4.2177734 106.02832 3.8046875Q105.33398 3.3916016 105.10547 2.5185547L106.55273 2.3017578Q106.67578 2.7529297 106.97754 2.9404297Q107.2793 3.1279297 108.0293 3.1279297Q108.7207 3.1279297 109.03711 2.9521484Q109.35352 2.7763672 109.35352 2.4013672Q109.35352 2.0966797 109.09863 1.9179688Q108.84375 1.7392578 108.23438 1.6162109Q106.83984 1.3408203 106.35352 1.1035156Q105.86719 0.86621094 105.6123 0.48828125Q105.35742 0.11035156 105.35742 -0.44042969Q105.35742 -1.3486328 106.05762 -1.8554688Q106.75781 -2.3623047 108.04102 -2.3623047Q109.17188 -2.3623047 109.86035 -1.9228516Q110.54883 -1.4833984 110.71875 -0.65136719L109.25977 -0.49902344Q109.18945 -0.88574219 108.91406 -1.0761719Q108.63867 -1.2666016 108.04102 -1.2666016Q107.45508 -1.2666016 107.16211 -1.1171875Q106.86914 -0.96777344 106.86914 -0.61621094Q106.86914 -0.34082031 107.09473 -0.1796875Q107.32031 -0.018554688 107.85352 0.086914062Q108.59766 0.23925781 109.1748 0.40039062Q109.75195 0.56152344 110.10059 0.78417969Q110.44922 1.0068359 110.65723 1.3554688Q110.86523 1.7041016 110.86523 2.2490234ZM112.19531 -3.3818359L112.19531 -4.5947266L113.8418 -4.5947266L113.8418 -3.3818359L112.19531 -3.3818359ZM112.19531 4.1005859L112.19531 -2.2392578L113.8418 -2.2392578L113.8418 4.1005859L112.19531 4.1005859ZM121.55273 0.92480469Q121.55273 2.4658203 120.69727 3.3417969Q119.8418 4.2177734 118.33008 4.2177734Q116.84766 4.2177734 116.00391 3.3388672Q115.16016 2.4599609 115.16016 0.92480469Q115.16016 -0.60449219 116.00391 -1.4804688Q116.84766 -2.3564453 118.36523 -2.3564453Q119.91797 -2.3564453 120.73535 -1.5097656Q121.55273 -0.66308594 121.55273 0.92480469ZM119.83008 0.92480469Q119.83008 -0.20605469 119.46094 -0.71582031Q119.0918 -1.2255859 118.38867 -1.2255859Q116.88867 -1.2255859 116.88867 0.92480469Q116.88867 1.9853516 117.25488 2.5390625Q117.62109 3.0927734 118.3125 3.0927734Q119.83008 3.0927734 119.83008 0.92480469ZM126.9668 4.1005859L126.9668 0.54394531Q126.9668 -1.1259766 125.83594 -1.1259766Q125.23828 -1.1259766 124.87207 -0.61328125Q124.50586 -0.10058594 124.50586 0.70214844L124.50586 4.1005859L122.85938 4.1005859L122.85938 -0.82128906Q122.85938 -1.3310547 122.84473 -1.65625Q122.83008 -1.9814453 122.8125 -2.2392578L124.38281 -2.2392578Q124.40039 -2.1279297 124.42969 -1.6445312Q124.45898 -1.1611328 124.45898 -0.97949219L124.48242 -0.97949219Q124.81641 -1.7060547 125.32031 -2.0341797Q125.82422 -2.3623047 126.52148 -2.3623047Q127.5293 -2.3623047 128.06836 -1.7412109Q128.60742 -1.1201172 128.60742 0.075195312L128.60742 4.1005859L126.9668 4.1005859Z"/>
	<path fill="none" stroke="black" stroke-width="1" stroke-miterlimit="10" stroke-opacity="0.10196079" d="M53 759.5L1001 759.5"/>
	<path fill="none" stroke="black" stroke-width="1" stroke-miterlimit="10" stroke-opacity="0.10196079" d="M53.5 34L53.5 760"/>
	<clipPath id="cl_1d5">
		<rect width="53.080002" height="800"/>
	</clipPath>
	<g clip-path="url(#cl_1d5)">
		<path fill="#666" transform="translate(42.08 759.6)" d="M-0.46679688 -0.030273438Q-0.46679688 2.0380859 -1.1962891 3.1279297Q-1.9257812 4.2177734 -3.3496094 4.2177734Q-4.7734375 4.2177734 -5.4882812 3.1337891Q-6.203125 2.0498047 -6.203125 -0.030273438Q-6.203125 -2.1572266 -5.5087891 -3.2177734Q-4.8144531 -4.2783203 -3.3144531 -4.2783203Q-1.8554688 -4.2783203 -1.1611328 -3.2060547Q-0.46679688 -2.1337891 -0.46679688 -0.030273438ZM-1.5390625 -0.030273438Q-1.5390625 -1.8173828 -1.9521484 -2.6201172Q-2.3652344 -3.4228516 -3.3144531 -3.4228516Q-4.2871094 -3.4228516 -4.7119141 -2.6318359Q-5.1367188 -1.8408203 -5.1367188 -0.030273438Q-5.1367188 1.7275391 -4.7060547 2.5419922Q-4.2753906 3.3564453 -3.3378906 3.3564453Q-2.40625 3.3564453 -1.9726562 2.5244141Q-1.5390625 1.6923828 -1.5390625 -0.030273438Z"/>
	</g>
	<clipPath id="cl_1d6">
		<rect width="53.080002" height="800"/>
	</clipPath>
	<g clip-path="url(#cl_1d6)">
		<path fill="#666" transform="translate(42.08 687.08)" d="M-10.474609 -0.030273438Q-10.474609 2.0380859 -11.204102 3.1279297Q-11.933594 4.2177734 -13.357422 4.2177734Q-14.78125 4.2177734 -15.496094 3.1337891Q-16.210938 2.0498047 -16.210938 -0.030273438Q-16.210938 -2.1572266 -15.516602 -3.2177734Q-14.822266 -4.2783203 -13.322266 -4.2783203Q-11.863281 -4.2783203 -11.168945 -3.2060547Q-10.474609 -2.1337891 -10.474609 -0.030273438ZM-11.546875 -0.030273438Q-11.546875 -1.8173828 -11.959961 -2.6201172Q-12.373047 -3.4228516 -13.322266 -3.4228516Q-14.294922 -3.4228516 -14.719727 -2.6318359Q-15.144531 -1.8408203 -15.144531 -0.030273438Q-15.144531 1.7275391 -14.713867 2.5419922Q-14.283203 3.3564453 -13.345703 3.3564453Q-12.414062 3.3564453 -11.980469 2.5244141Q-11.546875 1.6923828 -11.546875 -0.030273438ZM-8.9101562 4.1005859L-8.9101562 2.8173828L-7.7675781 2.8173828L-7.7675781 4.1005859L-8.9101562 4.1005859ZM-5.7578125 4.1005859L-5.7578125 3.2041016L-3.6542969 3.2041016L-3.6542969 -3.1474609L-5.5175781 -1.8173828L-5.5175781 -2.8134766L-3.5664062 -4.1552734L-2.59375 -4.1552734L-2.59375 3.2041016L-0.58398438 3.2041016L-0.58398438 4.1005859L-5.7578125 4.1005859Z"/>
	</g>
	<clipPath id="cl_1d7">
		<rect width="53.080002" height="800"/>
	</clipPath>
	<g clip-path="url(#cl_1d7)">
		<path fill="#666" transform="translate(42.08 614.56)" d="M-10.474609 -0.030273438Q-10.474609 2.0380859 -11.204102 3.1279297Q-11.933594 4.2177734 -13.357422 4.2177734Q-14.78125 4.2177734 -15.496094 3.1337891Q-16.210938 2.0498047 -16.210938 -0.030273438Q-16.210938 -2.1572266 -15.516602 -3.2177734Q-14.822266 -4.2783203 -13.322266 -4.2783203Q-11.863281 -4.2783203 -11.168945 -3.2060547Q-10.474609 -2.1337891 -10.474609 -0.030273438ZM-11.546875 -0.030273438Q-11.546875 -1.8173828 -11.959961 -2.6201172Q-12.373047 -3.4228516 -13.322266 -3.4228516Q-14.294922 -3.4228516 -14.719727 -2.6318359Q-15.144531 -1.8408203 -15.144531 -0.030273438Q-15.144531 1.7275391 -14.713867 2.5419922Q-14.283203 3.3564453 -13.345703 3.3564453Q-12.414062 3.3564453 -11.980469 2.5244141Q-11.546875 1.6923828 -11.546875 -0.030273438ZM-8.9101562 4.1005859L-8.9101562 2.8173828L-7.7675781 2.8173828L-7.7675781 4.1005859L-8.9101562 4.1005859ZM-6.0683594 4.1005859L-6.0683594 3.3564453Q-5.7695312 2.6708984 -5.3388672 2.1464844Q-4.9082031 1.6220703 -4.4335938 1.1972656Q-3.9589844 0.77246094 -3.4931641 0.40917969Q-3.0273438 0.045898438 -2.6523438 -0.31738281Q-2.2773438 -0.68066406 -2.0458984 -1.0791016Q-1.8144531 -1.4775391 -1.8144531 -1.9814453Q-1.8144531 -2.6611328 -2.2128906 -3.0361328Q-2.6113281 -3.4111328 -3.3203125 -3.4111328Q-3.9941406 -3.4111328 -4.4306641 -3.0449219Q-4.8671875 -2.6787109 -4.9433594 -2.0166016L-6.0214844 -2.1162109Q-5.9042969 -3.1064453 -5.1806641 -3.6923828Q-4.4570312 -4.2783203 -3.3203125 -4.2783203Q-2.0722656 -4.2783203 -1.4013672 -3.6894531Q-0.73046875 -3.1005859 -0.73046875 -2.0166016Q-0.73046875 -1.5361328 -0.95019531 -1.0615234Q-1.1699219 -0.58691406 -1.6035156 -0.11230469Q-2.0371094 0.36230469 -3.2617188 1.3583984Q-3.9355469 1.9091797 -4.3339844 2.3515625Q-4.7324219 2.7939453 -4.9082031 3.2041016L-0.6015625 3.2041016L-0.6015625 4.1005859L-6.0683594 4.1005859Z"/>
	</g>
	<clipPath id="cl_1d8">
		<rect width="53.080002" height="800"/>
	</clipPath>
	<g clip-path="url(#cl_1d8)">
		<path fill="#666" transform="translate(42.08 542.04)" d="M-10.474609 -0.030273438Q-10.474609 2.0380859 -11.204102 3.1279297Q-11.933594 4.2177734 -13.357422 4.2177734Q-14.78125 4.2177734 -15.496094 3.1337891Q-16.210938 2.0498047 -16.210938 -0.030273438Q-16.210938 -2.1572266 -15.516602 -3.2177734Q-14.822266 -4.2783203 -13.322266 -4.2783203Q-11.863281 -4.2783203 -11.168945 -3.2060547Q-10.474609 -2.1337891 -10.474609 -0.030273438ZM-11.546875 -0.030273438Q-11.546875 -1.8173828 -11.959961 -2.6201172Q-12.373047 -3.4228516 -13.322266 -3.4228516Q-14.294922 -3.4228516 -14.719727 -2.6318359Q-15.144531 -1.8408203 -15.144531 -0.030273438Q-15.144531 1.7275391 -14.713867 2.5419922Q-14.283203 3.3564453 -13.345703 3.3564453Q-12.414062 3.3564453 -11.980469 2.5244141Q-11.546875 1.6923828 -11.546875 -0.030273438ZM-8.9101562 4.1005859L-8.9101562 2.8173828L-7.7675781 2.8173828L-7.7675781 4.1005859L-8.9101562 4.1005859ZM-0.52539062 1.8212891Q-0.52539062 2.9638672 -1.2519531 3.5908203Q-1.9785156 4.2177734 -3.3261719 4.2177734Q-4.5800781 4.2177734 -5.3271484 3.6523438Q-6.0742188 3.0869141 -6.2148438 1.9794922L-5.125 1.8798828Q-4.9140625 3.3447266 -3.3261719 3.3447266Q-2.5292969 3.3447266 -2.0751953 2.9521484Q-1.6210938 2.5595703 -1.6210938 1.7861328Q-1.6210938 1.1123047 -2.1396484 0.734375Q-2.6582031 0.35644531 -3.6367188 0.35644531L-4.234375 0.35644531L-4.234375 -0.55761719L-3.6601562 -0.55761719Q-2.7929688 -0.55761719 -2.3154297 -0.93554688Q-1.8378906 -1.3134766 -1.8378906 -1.9814453Q-1.8378906 -2.6435547 -2.2275391 -3.0273438Q-2.6171875 -3.4111328 -3.3847656 -3.4111328Q-4.0820312 -3.4111328 -4.5126953 -3.0537109Q-4.9433594 -2.6962891 -5.0136719 -2.0458984L-6.0742188 -2.1279297Q-5.9570312 -3.1416016 -5.2333984 -3.7099609Q-4.5097656 -4.2783203 -3.3730469 -4.2783203Q-2.1308594 -4.2783203 -1.4423828 -3.7011719Q-0.75390625 -3.1240234 -0.75390625 -2.0927734Q-0.75390625 -1.3017578 -1.1962891 -0.80664062Q-1.6386719 -0.31152344 -2.4824219 -0.13574219L-2.4824219 -0.11230469Q-1.5566406 -0.012695312 -1.0410156 0.50878906Q-0.52539062 1.0302734 -0.52539062 1.8212891Z"/>
	</g>
	<clipPath id="cl_1d9">
		<rect width="53.080002" height="800"/>
	</clipPath>
	<g clip-path="url(#cl_1d9)">
		<path fill="#666" transform="translate(42.08 469.52)" d="M-10.474609 -0.030273438Q-10.474609 2.0380859 -11.204102 3.1279297Q-11.933594 4.2177734 -13.357422 4.2177734Q-14.78125 4.2177734 -15.496094 3.1337891Q-16.210938 2.0498047 -16.210938 -0.030273438Q-16.210938 -2.1572266 -15.516602 -3.2177734Q-14.822266 -4.2783203 -13.322266 -4.2783203Q-11.863281 -4.2783203 -11.168945 -3.2060547Q-10.474609 -2.1337891 -10.474609 -0.030273438ZM-11.546875 -0.030273438Q-11.546875 -1.8173828 -11.959961 -2.6201172Q-12.373047 -3.4228516 -13.322266 -3.4228516Q-14.294922 -3.4228516 -14.719727 -2.6318359Q-15.144531 -1.8408203 -15.144531 -0.030273438Q-15.144531 1.7275391 -14.713867 2.5419922Q-14.283203 3.3564453 -13.345703 3.3564453Q-12.414062 3.3564453 -11.980469 2.5244141Q-11.546875 1.6923828 -11.546875 -0.030273438ZM-8.9101562 4.1005859L-8.9101562 2.8173828L-7.7675781 2.8173828L-7.7675781 4.1005859L-8.9101562 4.1005859ZM-1.5097656 2.2314453L-1.5097656 4.1005859L-2.5058594 4.1005859L-2.5058594 2.2314453L-6.3964844 2.2314453L-6.3964844 1.4111328L-2.6171875 -4.1552734L-1.5097656 -4.1552734L-1.5097656 1.3994141L-0.34960938 1.3994141L-0.34960938 2.2314453L-1.5097656 2.2314453ZM-2.5058594 -2.9658203Q-2.5175781 -2.9306641 -2.6699219 -2.6552734Q-2.8222656 -2.3798828 -2.8984375 -2.2685547L-5.0136719 0.84863281L-5.3300781 1.2822266L-5.4238281 1.3994141L-2.5058594 1.3994141L-2.5058594 -2.9658203Z"/>
	</g>
	<clipPath id="cl_1da">
		<rect width="53.080002" height="800"/>
	</clipPath>
	<g clip-path="url(#cl_1da)">
		<path fill="#666" transform="translate(42.08 397)" d="M-10.474609 -0.030273438Q-10.474609 2.0380859 -11.204102 3.1279297Q-11.933594 4.2177734 -13.357422 4.2177734Q-14.78125 4.2177734 -15.496094 3.1337891Q-16.210938 2.0498047 -16.210938 -0.030273438Q-16.210938 -2.1572266 -15.516602 -3.2177734Q-14.822266 -4.2783203 -13.322266 -4.2783203Q-11.863281 -4.2783203 -11.168945 -3.2060547Q-10.474609 -2.1337891 -10.474609 -0.030273438ZM-11.546875 -0.030273438Q-11.546875 -1.8173828 -11.959961 -2.6201172Q-12.373047 -3.4228516 -13.322266 -3.4228516Q-14.294922 -3.4228516 -14.719727 -2.6318359Q-15.144531 -1.8408203 -15.144531 -0.030273438Q-15.144531 1.7275391 -14.713867 2.5419922Q-14.283203 3.3564453 -13.345703 3.3564453Q-12.414062 3.3564453 -11.980469 2.5244141Q-11.546875 1.6923828 -11.546875 -0.030273438ZM-8.9101562 4.1005859L-8.9101562 2.8173828L-7.7675781 2.8173828L-7.7675781 4.1005859L-8.9101562 4.1005859ZM-0.50195312 1.4111328Q-0.50195312 2.7177734 -1.2783203 3.4677734Q-2.0546875 4.2177734 -3.4316406 4.2177734Q-4.5859375 4.2177734 -5.2949219 3.7138672Q-6.0039062 3.2099609 -6.1914062 2.2548828L-5.125 2.1318359Q-4.7910156 3.3564453 -3.4082031 3.3564453Q-2.5585938 3.3564453 -2.078125 2.84375Q-1.5976562 2.3310547 -1.5976562 1.4345703Q-1.5976562 0.65527344 -2.0810547 0.17480469Q-2.5644531 -0.30566406 -3.3847656 -0.30566406Q-3.8125 -0.30566406 -4.1816406 -0.17089844Q-4.5507812 -0.036132812 -4.9199219 0.28613281L-5.9511719 0.28613281L-5.6757812 -4.1552734L-0.98242188 -4.1552734L-0.98242188 -3.2587891L-4.7148438 -3.2587891L-4.8730469 -0.63964844Q-4.1875 -1.1669922 -3.1679688 -1.1669922Q-1.9492188 -1.1669922 -1.2255859 -0.45214844Q-0.50195312 0.26269531 -0.50195312 1.4111328Z"/>
	</g>
	<clipPath id="cl_1db">
		<rect width="53.080002" height="800"/>
	</clipPath>
	<g clip-path="url(#cl_1db)">
		<path fill="#666" transform="translate(42.08 324.48)" d="M-10.474609 -0.030273438Q-10.474609 2.0380859 -11.204102 3.1279297Q-11.933594 4.2177734 -13.357422 4.2177734Q-14.78125 4.2177734 -15.496094 3.1337891Q-16.210938 2.0498047 -16.210938 -0.030273438Q-16.210938 -2.1572266 -15.516602 -3.2177734Q-14.822266 -4.2783203 -13.322266 -4.2783203Q-11.863281 -4.2783203 -11.168945 -3.2060547Q-10.474609 -2.1337891 -10.474609 -0.030273438ZM-11.546875 -0.030273438Q-11.546875 -1.8173828 -11.959961 -2.6201172Q-12.373047 -3.4228516 -13.322266 -3.4228516Q-14.294922 -3.4228516 -14.719727 -2.6318359Q-15.144531 -1.8408203 -15.144531 -0.030273438Q-15.144531 1.7275391 -14.713867 2.5419922Q-14.283203 3.3564453 -13.345703 3.3564453Q-12.414062 3.3564453 -11.980469 2.5244141Q-11.546875 1.6923828 -11.546875 -0.030273438ZM-8.9101562 4.1005859L-8.9101562 2.8173828L-7.7675781 2.8173828L-7.7675781 4.1005859L-8.9101562 4.1005859ZM-0.52539062 1.3994141Q-0.52539062 2.7060547 -1.234375 3.4619141Q-1.9433594 4.2177734 -3.1914062 4.2177734Q-4.5859375 4.2177734 -5.3242188 3.1806641Q-6.0625 2.1435547 -6.0625 0.16308594Q-6.0625 -1.9814453 -5.2949219 -3.1298828Q-4.5273438 -4.2783203 -3.109375 -4.2783203Q-1.2402344 -4.2783203 -0.75390625 -2.5966797L-1.7617188 -2.4150391Q-2.0722656 -3.4228516 -3.1210938 -3.4228516Q-4.0234375 -3.4228516 -4.5185547 -2.5820312Q-5.0136719 -1.7412109 -5.0136719 -0.14746094Q-4.7265625 -0.68066406 -4.2050781 -0.95898438Q-3.6835938 -1.2373047 -3.0097656 -1.2373047Q-1.8671875 -1.2373047 -1.1962891 -0.52246094Q-0.52539062 0.19238281 -0.52539062 1.3994141ZM-1.5976562 1.4462891Q-1.5976562 0.54980469 -2.0371094 0.063476562Q-2.4765625 -0.42285156 -3.2617188 -0.42285156Q-4 -0.42285156 -4.4541016 0.0078125Q-4.9082031 0.43847656 -4.9082031 1.1943359Q-4.9082031 2.1494141 -4.4365234 2.7587891Q-3.9648438 3.3681641 -3.2265625 3.3681641Q-2.4648438 3.3681641 -2.03125 2.8554688Q-1.5976562 2.3427734 -1.5976562 1.4462891Z"/>
	</g>
	<clipPath id="cl_1dc">
		<rect width="53.080002" height="800"/>
	</clipPath>
	<g clip-path="url(#cl_1dc)">
		<path fill="#666" transform="translate(42.08 251.96)" d="M-10.474609 -0.030273438Q-10.474609 2.0380859 -11.204102 3.1279297Q-11.933594 4.2177734 -13.357422 4.2177734Q-14.78125 4.2177734 -15.496094 3.1337891Q-16.210938 2.0498047 -16.210938 -0.030273438Q-16.210938 -2.1572266 -15.516602 -3.2177734Q-14.822266 -4.2783203 -13.322266 -4.2783203Q-11.863281 -4.2783203 -11.168945 -3.2060547Q-10.474609 -2.1337891 -10.474609 -0.030273438ZM-11.546875 -0.030273438Q-11.546875 -1.8173828 -11.959961 -2.6201172Q-12.373047 -3.4228516 -13.322266 -3.4228516Q-14.294922 -3.4228516 -14.719727 -2.6318359Q-15.144531 -1.8408203 -15.144531 -0.030273438Q-15.144531 1.7275391 -14.713867 2.5419922Q-14.283203 3.3564453 -13.345703 3.3564453Q-12.414062 3.3564453 -11.980469 2.5244141Q-11.546875 1.6923828 -11.546875 -0.030273438ZM-8.9101562 4.1005859L-8.9101562 2.8173828L-7.7675781 2.8173828L-7.7675781 4.1005859L-8.9101562 4.1005859ZM-0.6015625 -3.2998047Q-1.8671875 -1.3662109 -2.3886719 -0.27050781Q-2.9101562 0.82519531 -3.1708984 1.8916016Q-3.4316406 2.9580078 -3.4316406 4.1005859L-4.5332031 4.1005859Q-4.5332031 2.5185547 -3.8623047 0.76953125Q-3.1914062 -0.97949219 -1.6210938 -3.2587891L-6.0566406 -3.2587891L-6.0566406 -4.1552734L-0.6015625 -4.1552734L-0.6015625 -3.2998047Z"/>
	</g>
	<clipPath id="cl_1dd">
		<rect width="53.080002" height="800"/>
	</clipPath>
	<g clip-path="url(#cl_1dd)">
		<path fill="#666" transform="translate(42.08 179.44)" d="M-10.474609 -0.030273438Q-10.474609 2.0380859 -11.204102 3.1279297Q-11.933594 4.2177734 -13.357422 4.2177734Q-14.78125 4.2177734 -15.496094 3.1337891Q-16.210938 2.0498047 -16.210938 -0.030273438Q-16.210938 -2.1572266 -15.516602 -3.2177734Q-14.822266 -4.2783203 -13.322266 -4.2783203Q-11.863281 -4.2783203 -11.168945 -3.2060547Q-10.474609 -2.1337891 -10.474609 -0.030273438ZM-11.546875 -0.030273438Q-11.546875 -1.8173828 -11.959961 -2.6201172Q-12.373047 -3.4228516 -13.322266 -3.4228516Q-14.294922 -3.4228516 -14.719727 -2.6318359Q-15.144531 -1.8408203 -15.144531 -0.030273438Q-15.144531 1.7275391 -14.713867 2.5419922Q-14.283203 3.3564453 -13.345703 3.3564453Q-12.414062 3.3564453 -11.980469 2.5244141Q-11.546875 1.6923828 -11.546875 -0.030273438ZM-8.9101562 4.1005859L-8.9101562 2.8173828L-7.7675781 2.8173828L-7.7675781 4.1005859L-8.9101562 4.1005859ZM-0.51953125 1.7978516Q-0.51953125 2.9404297 -1.2460938 3.5791016Q-1.9726562 4.2177734 -3.3320312 4.2177734Q-4.65625 4.2177734 -5.4033203 3.5908203Q-6.1503906 2.9638672 -6.1503906 1.8095703Q-6.1503906 1.0009766 -5.6875 0.45019531Q-5.2246094 -0.10058594 -4.5039062 -0.21777344L-4.5039062 -0.24121094Q-5.1777344 -0.39941406 -5.5673828 -0.92675781Q-5.9570312 -1.4541016 -5.9570312 -2.1630859Q-5.9570312 -3.1064453 -5.2509766 -3.6923828Q-4.5449219 -4.2783203 -3.3554688 -4.2783203Q-2.1367188 -4.2783203 -1.4306641 -3.7041016Q-0.72460938 -3.1298828 -0.72460938 -2.1513672Q-0.72460938 -1.4423828 -1.1171875 -0.91503906Q-1.5097656 -0.38769531 -2.1894531 -0.25292969L-2.1894531 -0.22949219Q-1.3984375 -0.10058594 -0.95898438 0.44140625Q-0.51953125 0.98339844 -0.51953125 1.7978516ZM-1.8203125 -2.0927734Q-1.8203125 -3.4931641 -3.3554688 -3.4931641Q-4.0996094 -3.4931641 -4.4892578 -3.1416016Q-4.8789062 -2.7900391 -4.8789062 -2.0927734Q-4.8789062 -1.3837891 -4.4775391 -1.0117188Q-4.0761719 -0.63964844 -3.34375 -0.63964844Q-2.5996094 -0.63964844 -2.2099609 -0.98242188Q-1.8203125 -1.3251953 -1.8203125 -2.0927734ZM-1.6152344 1.6982422Q-1.6152344 0.93066406 -2.0722656 0.54101562Q-2.5292969 0.15136719 -3.3554688 0.15136719Q-4.1582031 0.15136719 -4.609375 0.5703125Q-5.0605469 0.98925781 -5.0605469 1.7216797Q-5.0605469 3.4267578 -3.3203125 3.4267578Q-2.4589844 3.4267578 -2.0371094 3.0136719Q-1.6152344 2.6005859 -1.6152344 1.6982422Z"/>
	</g>
	<clipPath id="cl_1de">
		<rect width="53.080002" height="800"/>
	</clipPath>
	<g clip-path="url(#cl_1de)">
		<path fill="#666" transform="translate(42.08 106.92)" d="M-10.474609 -0.030273438Q-10.474609 2.0380859 -11.204102 3.1279297Q-11.933594 4.2177734 -13.357422 4.2177734Q-14.78125 4.2177734 -15.496094 3.1337891Q-16.210938 2.0498047 -16.210938 -0.030273438Q-16.210938 -2.1572266 -15.516602 -3.2177734Q-14.822266 -4.2783203 -13.322266 -4.2783203Q-11.863281 -4.2783203 -11.168945 -3.2060547Q-10.474609 -2.1337891 -10.474609 -0.030273438ZM-11.546875 -0.030273438Q-11.546875 -1.8173828 -11.959961 -2.6201172Q-12.373047 -3.4228516 -13.322266 -3.4228516Q-14.294922 -3.4228516 -14.719727 -2.6318359Q-15.144531 -1.8408203 -15.144531 -0.030273438Q-15.144531 1.7275391 -14.713867 2.5419922Q-14.283203 3.3564453 -13.345703 3.3564453Q-12.414062 3.3564453 -11.980469 2.5244141Q-11.546875 1.6923828 -11.546875 -0.030273438ZM-8.9101562 4.1005859L-8.9101562 2.8173828L-7.7675781 2.8173828L-7.7675781 4.1005859L-8.9101562 4.1005859ZM-0.56640625 -0.19433594Q-0.56640625 1.9326172 -1.3427734 3.0751953Q-2.1191406 4.2177734 -3.5546875 4.2177734Q-4.5214844 4.2177734 -5.1044922 3.8105469Q-5.6875 3.4033203 -5.9394531 2.4951172L-4.9316406 2.3369141Q-4.6152344 3.3681641 -3.5371094 3.3681641Q-2.6289062 3.3681641 -2.1308594 2.5244141Q-1.6328125 1.6806641 -1.609375 0.11621094Q-1.84375 0.64355469 -2.4121094 0.96289062Q-2.9804688 1.2822266 -3.6601562 1.2822266Q-4.7734375 1.2822266 -5.4414062 0.52050781Q-6.109375 -0.24121094 -6.109375 -1.5009766Q-6.109375 -2.7958984 -5.3828125 -3.5371094Q-4.65625 -4.2783203 -3.3613281 -4.2783203Q-1.984375 -4.2783203 -1.2753906 -3.2587891Q-0.56640625 -2.2392578 -0.56640625 -0.19433594ZM-1.7148438 -1.2138672Q-1.7148438 -2.2099609 -2.171875 -2.8164062Q-2.6289062 -3.4228516 -3.3964844 -3.4228516Q-4.1582031 -3.4228516 -4.5976562 -2.9042969Q-5.0371094 -2.3857422 -5.0371094 -1.5009766Q-5.0371094 -0.59863281 -4.5976562 -0.07421875Q-4.1582031 0.45019531 -3.4082031 0.45019531Q-2.9511719 0.45019531 -2.5585938 0.2421875Q-2.1660156 0.034179688 -1.9404297 -0.34667969Q-1.7148438 -0.72753906 -1.7148438 -1.2138672Z"/>
	</g>
	<clipPath id="cl_1df">
		<rect width="53.080002" height="800"/>
	</clipPath>
	<g clip-path="url(#cl_1df)">
		<path fill="#666" transform="translate(42.08 34.4)" d="M-15.765625 4.1005859L-15.765625 3.2041016L-13.662109 3.2041016L-13.662109 -3.1474609L-15.525391 -1.8173828L-15.525391 -2.8134766L-13.574219 -4.1552734L-12.601562 -4.1552734L-12.601562 3.2041016L-10.591797 3.2041016L-10.591797 4.1005859L-15.765625 4.1005859ZM-8.9101562 4.1005859L-8.9101562 2.8173828L-7.7675781 2.8173828L-7.7675781 4.1005859L-8.9101562 4.1005859ZM-0.46679688 -0.030273438Q-0.46679688 2.0380859 -1.1962891 3.1279297Q-1.9257812 4.2177734 -3.3496094 4.2177734Q-4.7734375 4.2177734 -5.4882812 3.1337891Q-6.203125 2.0498047 -6.203125 -0.030273438Q-6.203125 -2.1572266 -5.5087891 -3.2177734Q-4.8144531 -4.2783203 -3.3144531 -4.2783203Q-1.8554688 -4.2783203 -1.1611328 -3.2060547Q-0.46679688 -2.1337891 -0.46679688 -0.030273438ZM-1.5390625 -0.030273438Q-1.5390625 -1.8173828 -1.9521484 -2.6201172Q-2.3652344 -3.4228516 -3.3144531 -3.4228516Q-4.2871094 -3.4228516 -4.7119141 -2.6318359Q-5.1367188 -1.8408203 -5.1367188 -0.030273438Q-5.1367188 1.7275391 -4.7060547 2.5419922Q-4.2753906 3.3564453 -3.3378906 3.3564453Q-2.40625 3.3564453 -1.9726562 2.5244141Q-1.5390625 1.6923828 -1.5390625 -0.030273438Z"/>
	</g>
</svg>
