<?xml version="1.0" encoding="utf-8" ?>
<svg xmlns="http://www.w3.org/2000/svg" xmlns:xlink="http://www.w3.org/1999/xlink" width="1000" height="800">
	<rect fill="white" width="1000" height="800"/>
	<path fill="#666" transform="translate(526.54 778.8)" d="M-9.1318665 4.1005859L-9.1318665 -1.4072266Q-9.1318665 -2.3212891 -9.0791321 -3.1650391Q-9.3662415 -2.1162109 -9.5947571 -1.5244141L-11.72757 4.1005859L-12.512726 4.1005859L-14.674835 -1.5244141L-15.00296 -2.5205078L-15.19632 -3.1650391L-15.178741 -2.5146484L-15.155304 -1.4072266L-15.155304 4.1005859L-16.151398 4.1005859L-16.151398 -4.1552734L-14.680695 -4.1552734L-12.483429 1.5693359Q-12.366241 1.9150391 -12.257843 2.3105469Q-12.149445 2.7060547 -12.114288 2.8818359Q-12.067413 2.6474609 -11.917999 2.1699219Q-11.768585 1.6923828 -11.715851 1.5693359L-9.5596008 -4.1552734L-8.124054 -4.1552734L-8.124054 4.1005859L-9.1318665 4.1005859ZM-0.96975708 0.92480469Q-0.96975708 2.5888672 -1.702179 3.4033203Q-2.4346008 4.2177734 -3.8291321 4.2177734Q-5.217804 4.2177734 -5.9267883 3.3710938Q-6.6357727 2.5244141 -6.6357727 0.92480469Q-6.6357727 -2.3564453 -3.7939758 -2.3564453Q-2.3408508 -2.3564453 -1.655304 -1.5566406Q-0.96975708 -0.75683594 -0.96975708 0.92480469ZM-2.077179 0.92480469Q-2.077179 -0.38769531 -2.4668274 -0.98242188Q-2.8564758 -1.5771484 -3.7763977 -1.5771484Q-4.702179 -1.5771484 -5.1152649 -0.97070312Q-5.5283508 -0.36425781 -5.5283508 0.92480469Q-5.5283508 2.1787109 -5.1211243 2.8085938Q-4.7138977 3.4384766 -3.8408508 3.4384766Q-2.8916321 3.4384766 -2.4844055 2.8291016Q-2.077179 2.2197266 -2.077179 0.92480469ZM4.3681335 4.1005859L4.3681335 0.081054688Q4.3681335 -0.54589844 4.2450867 -0.89160156Q4.1220398 -1.2373047 3.8525085 -1.3896484Q3.5829773 -1.5419922 3.0614929 -1.5419922Q2.2997742 -1.5419922 1.860321 -1.0205078Q1.4208679 -0.49902344 1.4208679 0.42675781L1.4208679 4.1005859L0.36618042 4.1005859L0.36618042 -0.88574219Q0.36618042 -1.9931641 0.33102417 -2.2392578L1.3271179 -2.2392578Q1.3329773 -2.2099609 1.3388367 -2.0810547Q1.344696 -1.9521484 1.3534851 -1.7851562Q1.3622742 -1.6181641 1.3739929 -1.1552734L1.391571 -1.1552734Q1.7548523 -1.8115234 2.2323914 -2.0839844Q2.7099304 -2.3564453 3.4189148 -2.3564453Q4.4618835 -2.3564453 4.945282 -1.8378906Q5.4286804 -1.3193359 5.4286804 -0.12402344L5.4286804 4.1005859L4.3681335 4.1005859ZM9.454071 4.0537109Q8.9325867 4.1943359 8.3876648 4.1943359Q7.1220398 4.1943359 7.1220398 2.7587891L7.1220398 -1.4716797L6.3896179 -1.4716797L6.3896179 -2.2392578L7.1630554 -2.2392578L7.4736023 -3.6572266L8.1767273 -3.6572266L8.1767273 -2.2392578L9.3486023 -2.2392578L9.3486023 -1.4716797L8.1767273 -1.4716797L8.1767273 2.5302734Q8.1767273 2.9873047 8.3261414 3.171875Q8.4755554 3.3564453 8.844696 3.3564453Q9.0556335 3.3564453 9.454071 3.2744141L9.454071 4.0537109ZM11.399384 -1.1552734Q11.739227 -1.7763672 12.216766 -2.0664062Q12.694305 -2.3564453 13.426727 -2.3564453Q14.457977 -2.3564453 14.947235 -1.84375Q15.436493 -1.3310547 15.436493 -0.12402344L15.436493 4.1005859L14.375946 4.1005859L14.375946 0.081054688Q14.375946 -0.58691406 14.252899 -0.91210938Q14.129852 -1.2373047 13.848602 -1.3896484Q13.567352 -1.5419922 13.069305 -1.5419922Q12.325165 -1.5419922 11.876923 -1.0263672Q11.42868 -0.51074219 11.42868 0.36230469L11.42868 4.1005859L10.373993 4.1005859L10.373993 -4.5947266L11.42868 -4.5947266L11.42868 -2.3330078Q11.42868 -1.9755859 11.408173 -1.5947266Q11.387665 -1.2138672 11.381805 -1.1552734L11.399384 -1.1552734Z"/>
	<path fill="none" stroke="black" stroke-width="1" stroke-miterlimit="10" stroke-opacity="0.10196079" d="M54 759.5L1000 759.5"/>
	<path fill="none" stroke="black" stroke-width="1" stroke-miterlimit="10" stroke-opacity="0.10196079" d="M45.080002 759.5L53 759.5"/>
	<path fill="none" stroke="black" stroke-width="1" stroke-miterlimit="10" stroke-opacity="0.10196079" d="M54 687.5L1000 687.5"/>
	<path fill="none" stroke="black" stroke-width="1" stroke-miterlimit="10" stroke-opacity="0.10196079" d="M45.080002 687.5L53 687.5"/>
	<path fill="none" stroke="black" stroke-width="1" stroke-miterlimit="10" stroke-opacity="0.10196079" d="M54 614.5L1000 614.5"/>
	<path fill="none" stroke="black" stroke-width="1" stroke-miterlimit="10" stroke-opacity="0.10196079" d="M45.080002 614.5L53 614.5"/>
	<path fill="none" stroke="black" stroke-width="1" stroke-miterlimit="10" stroke-opacity="0.10196079" d="M54 542.5L1000 542.5"/>
	<path fill="none" stroke="black" stroke-width="1" stroke-miterlimit="10" stroke-opacity="0.10196079" d="M45.080002 542.5L53 542.5"/>
	<path fill="none" stroke="black" stroke-width="1" stroke-miterlimit="10" stroke-opacity="0.10196079" d="M54 469.5L1000 469.5"/>
	<path fill="none" stroke="black" stroke-width="1" stroke-miterlimit="10" stroke-opacity="0.10196079" d="M45.080002 469.5L53 469.5"/>
	<path fill="none" stroke="black" stroke-width="1" stroke-miterlimit="10" stroke-opacity="0.10196079" d="M54 397.5L1000 397.5"/>
	<path fill="none" stroke="black" stroke-width="1" stroke-miterlimit="10" stroke-opacity="0.10196079" d="M45.080002 397.5L53 397.5"/>
	<path fill="none" stroke="black" stroke-width="1" stroke-miterlimit="10" stroke-opacity="0.10196079" d="M54 324.5L1000 324.5"/>
	<path fill="none" stroke="black" stroke-width="1" stroke-miterlimit="10" stroke-opacity="0.10196079" d="M45.080002 324.5L53 324.5"/>
	<path fill="none" stroke="black" stroke-width="1" stroke-miterlimit="10" stroke-opacity="0.10196079" d="M54 251.5L1000 251.5"/>
	<path fill="none" stroke="black" stroke-width="1" stroke-miterlimit="10" stroke-opacity="0.10196079" d="M45.080002 251.5L53 251.5"/>
	<path fill="none" stroke="black" stroke-width="1" stroke-miterlimit="10" stroke-opacity="0.10196079" d="M54 179.5L1000 179.5"/>
	<path fill="none" stroke="black" stroke-width="1" stroke-miterlimit="10" stroke-opacity="0.10196079" d="M45.080002 179.5L53 179.5"/>
	<path fill="none" stroke="black" stroke-width="1" stroke-miterlimit="10" stroke-opacity="0.10196079" d="M54 106.5L1000 106.5"/>
	<path fill="none" stroke="black" stroke-width="1" stroke-miterlimit="10" stroke-opacity="0.10196079" d="M45.080002 106.5L53 106.5"/>
	<path fill="none" stroke="black" stroke-width="1" stroke-miterlimit="10" stroke-opacity="0.10196079" d="M54 34.5L1000 34.5"/>
	<path fill="none" stroke="black" stroke-width="1" stroke-miterlimit="10" stroke-opacity="0.10196079" d="M45.080002 34.5L53 34.5"/>
	<path fill="#666" transform="matrix(0 -1 1 0 11.2 397)" d="M-21.591797 -0.11230469Q-21.591797 1.1650391 -22.089844 2.1230469Q-22.587891 3.0810547 -23.501953 3.5908203Q-24.416016 4.1005859 -25.611328 4.1005859L-28.699219 4.1005859L-28.699219 -4.1552734L-25.96875 -4.1552734Q-23.871094 -4.1552734 -22.731445 -3.1035156Q-21.591797 -2.0517578 -21.591797 -0.11230469ZM-22.716797 -0.11230469Q-22.716797 -1.6474609 -23.557617 -2.453125Q-24.398438 -3.2587891 -25.992188 -3.2587891L-27.580078 -3.2587891L-27.580078 3.2041016L-25.740234 3.2041016Q-24.832031 3.2041016 -24.143555 2.8056641Q-23.455078 2.4072266 -23.085938 1.6572266Q-22.716797 0.90722656 -22.716797 -0.11230469ZM-14.847656 0.92480469Q-14.847656 2.5888672 -15.580078 3.4033203Q-16.3125 4.2177734 -17.707031 4.2177734Q-19.095703 4.2177734 -19.804688 3.3710938Q-20.513672 2.5244141 -20.513672 0.92480469Q-20.513672 -2.3564453 -17.671875 -2.3564453Q-16.21875 -2.3564453 -15.533203 -1.5566406Q-14.847656 -0.75683594 -14.847656 0.92480469ZM-15.955078 0.92480469Q-15.955078 -0.38769531 -16.344727 -0.98242188Q-16.734375 -1.5771484 -17.654297 -1.5771484Q-18.580078 -1.5771484 -18.993164 -0.97070312Q-19.40625 -0.36425781 -19.40625 0.92480469Q-19.40625 2.1787109 -18.999023 2.8085938Q-18.591797 3.4384766 -17.71875 3.4384766Q-16.769531 3.4384766 -16.362305 2.8291016Q-15.955078 2.2197266 -15.955078 0.92480469ZM-7.4648438 4.1005859L-8.6894531 4.1005859L-9.796875 -0.38183594L-10.007812 -1.3720703Q-10.060547 -1.1083984 -10.171875 -0.61328125Q-10.283203 -0.11816406 -11.367188 4.1005859L-12.585938 4.1005859L-14.361328 -2.2392578L-13.318359 -2.2392578L-12.246094 2.0673828Q-12.205078 2.2080078 -11.994141 3.2275391L-11.894531 2.7939453L-10.570312 -2.2392578L-9.4394531 -2.2392578L-8.3320312 2.1142578L-8.0625 3.2275391L-7.8808594 2.4130859L-6.6796875 -2.2392578L-5.6484375 -2.2392578L-7.4648438 4.1005859ZM-0.84375 4.1005859L-0.84375 0.081054688Q-0.84375 -0.54589844 -0.96679688 -0.89160156Q-1.0898438 -1.2373047 -1.359375 -1.3896484Q-1.6289062 -1.5419922 -2.1503906 -1.5419922Q-2.9121094 -1.5419922 -3.3515625 -1.0205078Q-3.7910156 -0.49902344 -3.7910156 0.42675781L-3.7910156 4.1005859L-4.8457031 4.1005859L-4.8457031 -0.88574219Q-4.8457031 -1.9931641 -4.8808594 -2.2392578L-3.8847656 -2.2392578Q-3.8789062 -2.2099609 -3.8730469 -2.0810547Q-3.8671875 -1.9521484 -3.8583984 -1.7851562Q-3.8496094 -1.6181641 -3.8378906 -1.1552734L-3.8203125 -1.1552734Q-3.4570312 -1.8115234 -2.9794922 -2.0839844Q-2.5019531 -2.3564453 -1.7929688 -2.3564453Q-0.75 -2.3564453 -0.26660156 -1.8378906Q0.21679688 -1.3193359 0.21679688 -0.12402344L0.21679688 4.1005859L-0.84375 4.1005859ZM1.8046875 4.1005859L1.8046875 -4.5947266L2.859375 -4.5947266L2.859375 4.1005859L1.8046875 4.1005859ZM9.8320312 0.92480469Q9.8320312 2.5888672 9.0996094 3.4033203Q8.3671875 4.2177734 6.9726562 4.2177734Q5.5839844 4.2177734 4.875 3.3710938Q4.1660156 2.5244141 4.1660156 0.92480469Q4.1660156 -2.3564453 7.0078125 -2.3564453Q8.4609375 -2.3564453 9.1464844 -1.5566406Q9.8320312 -0.75683594 9.8320312 0.92480469ZM8.7246094 0.92480469Q8.7246094 -0.38769531 8.3349609 -0.98242188Q7.9453125 -1.5771484 7.0253906 -1.5771484Q6.0996094 -1.5771484 5.6865234 -0.97070312Q5.2734375 -0.36425781 5.2734375 0.92480469Q5.2734375 2.1787109 5.6806641 2.8085938Q6.0878906 3.4384766 6.9609375 3.4384766Q7.9101562 3.4384766 8.3173828 2.8291016Q8.7246094 2.2197266 8.7246094 0.92480469ZM12.761719 4.2177734Q11.806641 4.2177734 11.326172 3.7138672Q10.845703 3.2099609 10.845703 2.3310547Q10.845703 1.3466797 11.493164 0.81933594Q12.140625 0.29199219 13.582031 0.25683594L15.005859 0.23339844L15.005859 -0.11230469Q15.005859 -0.88574219 14.677734 -1.2197266Q14.349609 -1.5537109 13.646484 -1.5537109Q12.9375 -1.5537109 12.615234 -1.3134766Q12.292969 -1.0732422 12.228516 -0.54589844L11.126953 -0.64550781Q11.396484 -2.3564453 13.669922 -2.3564453Q14.865234 -2.3564453 15.46875 -1.8085938Q16.072266 -1.2607422 16.072266 -0.22363281L16.072266 2.5068359Q16.072266 2.9755859 16.195312 3.2128906Q16.318359 3.4501953 16.664062 3.4501953Q16.816406 3.4501953 17.009766 3.4091797L17.009766 4.0654297Q16.611328 4.1591797 16.195312 4.1591797Q15.609375 4.1591797 15.342773 3.8515625Q15.076172 3.5439453 15.041016 2.8876953L15.005859 2.8876953Q14.601562 3.6142578 14.06543 3.9160156Q13.529297 4.2177734 12.761719 4.2177734ZM13.001953 3.4267578Q13.582031 3.4267578 14.033203 3.1630859Q14.484375 2.8994141 14.745117 2.4394531Q15.005859 1.9794922 15.005859 1.4931641L15.005859 0.97167969L13.851562 0.99511719Q13.107422 1.0068359 12.723633 1.1474609Q12.339844 1.2880859 12.134766 1.5810547Q11.929688 1.8740234 11.929688 2.3486328Q11.929688 2.8642578 12.208008 3.1455078Q12.486328 3.4267578 13.001953 3.4267578ZM21.820312 3.0810547Q21.527344 3.6904297 21.043945 3.9541016Q20.560547 4.2177734 19.845703 4.2177734Q18.644531 4.2177734 18.079102 3.4091797Q17.513672 2.6005859 17.513672 0.95996094Q17.513672 -2.3564453 19.845703 -2.3564453Q20.566406 -2.3564453 21.046875 -2.0927734Q21.527344 -1.8291016 21.820312 -1.2548828L21.832031 -1.2548828L21.820312 -1.9638672L21.820312 -4.5947266L22.875 -4.5947266L22.875 2.7939453Q22.875 3.7841797 22.910156 4.1005859L21.902344 4.1005859Q21.884766 4.0068359 21.864258 3.6669922Q21.84375 3.3271484 21.84375 3.0810547L21.820312 3.0810547ZM18.621094 0.92480469Q18.621094 2.2548828 18.972656 2.8291016Q19.324219 3.4033203 20.115234 3.4033203Q21.011719 3.4033203 21.416016 2.7822266Q21.820312 2.1611328 21.820312 0.85449219Q21.820312 -0.40527344 21.416016 -0.99121094Q21.011719 -1.5771484 20.126953 -1.5771484Q19.330078 -1.5771484 18.975586 -0.98828125Q18.621094 -0.39941406 18.621094 0.92480469ZM29.25 2.3486328Q29.25 3.2451172 28.573242 3.7314453Q27.896484 4.2177734 26.677734 4.2177734Q25.494141 4.2177734 24.852539 3.828125Q24.210938 3.4384766 24.017578 2.6123047L24.949219 2.4306641Q25.083984 2.9404297 25.505859 3.1777344Q25.927734 3.4150391 26.677734 3.4150391Q27.480469 3.4150391 27.852539 3.1689453Q28.224609 2.9228516 28.224609 2.4306641Q28.224609 2.0556641 27.966797 1.8212891Q27.708984 1.5869141 27.134766 1.4345703L26.378906 1.2353516Q25.470703 1.0009766 25.086914 0.77539062Q24.703125 0.54980469 24.486328 0.22753906Q24.269531 -0.094726562 24.269531 -0.56347656Q24.269531 -1.4306641 24.887695 -1.8847656Q25.505859 -2.3388672 26.689453 -2.3388672Q27.738281 -2.3388672 28.356445 -1.9697266Q28.974609 -1.6005859 29.138672 -0.78613281L28.189453 -0.66894531Q28.101562 -1.0908203 27.717773 -1.3164062Q27.333984 -1.5419922 26.689453 -1.5419922Q25.974609 -1.5419922 25.634766 -1.3251953Q25.294922 -1.1083984 25.294922 -0.66894531Q25.294922 -0.39941406 25.435547 -0.22363281Q25.576172 -0.047851562 25.851562 0.075195312Q26.126953 0.19824219 27.011719 0.41503906Q27.849609 0.62597656 28.21875 0.8046875Q28.587891 0.98339844 28.801758 1.2001953Q29.015625 1.4169922 29.132812 1.7011719Q29.25 1.9853516 29.25 2.3486328Z"/>
	<path fill="#666" transform="translate(500 17.2)" d="M-123.49805 2.2490234Q-123.49805 3.1689453 -124.25098 3.6933594Q-125.00391 4.2177734 -126.33398 4.2177734Q-127.64062 4.2177734 -128.33496 3.8046875Q-129.0293 3.3916016 -129.25781 2.5185547L-127.81055 2.3017578Q-127.6875 2.7529297 -127.38574 2.9404297Q-127.08398 3.1279297 -126.33398 3.1279297Q-125.64258 3.1279297 -125.32617 2.9521484Q-125.00977 2.7763672 -125.00977 2.4013672Q-125.00977 2.0966797 -125.26465 1.9179688Q-125.51953 1.7392578 -126.12891 1.6162109Q-127.52344 1.3408203 -128.00977 1.1035156Q-128.49609 0.86621094 -128.75098 0.48828125Q-129.00586 0.11035156 -129.00586 -0.44042969Q-129.00586 -1.3486328 -128.30566 -1.8554688Q-127.60547 -2.3623047 -126.32227 -2.3623047Q-125.19141 -2.3623047 -124.50293 -1.9228516Q-123.81445 -1.4833984 -123.64453 -0.65136719L-125.10352 -0.49902344Q-125.17383 -0.88574219 -125.44922 -1.0761719Q-125.72461 -1.2666016 -126.32227 -1.2666016Q-126.9082 -1.2666016 -127.20117 -1.1171875Q-127.49414 -0.96777344 -127.49414 -0.61621094Q-127.49414 -0.34082031 -127.26855 -0.1796875Q-127.04297 -0.018554688 -126.50977 0.086914062Q-125.76562 0.23925781 -125.18848 0.40039062Q-124.61133 0.56152344 -124.2627 0.78417969Q-123.91406 1.0068359 -123.70605 1.3554688Q-123.49805 1.7041016 -123.49805 2.2490234ZM-120.70312 4.2177734Q-121.62305 4.2177734 -122.13867 3.7167969Q-122.6543 3.2158203 -122.6543 2.3076172Q-122.6543 1.3232422 -122.0127 0.80761719Q-121.37109 0.29199219 -120.15234 0.28027344L-118.78711 0.25683594L-118.78711 -0.065429688Q-118.78711 -0.68652344 -119.00391 -0.98828125Q-119.2207 -1.2900391 -119.71289 -1.2900391Q-120.16992 -1.2900391 -120.38379 -1.0820312Q-120.59766 -0.87402344 -120.65039 -0.39355469L-122.36719 -0.47558594Q-122.20898 -1.4013672 -121.52051 -1.8789062Q-120.83203 -2.3564453 -119.64258 -2.3564453Q-118.44141 -2.3564453 -117.79102 -1.7646484Q-117.14062 -1.1728516 -117.14062 -0.083007812L-117.14062 2.2255859Q-117.14062 2.7587891 -117.02051 2.9609375Q-116.90039 3.1630859 -116.61914 3.1630859Q-116.43164 3.1630859 -116.25586 3.1279297L-116.25586 4.0185547Q-116.40234 4.0537109 -116.51953 4.0830078Q-116.63672 4.1123047 -116.75391 4.1298828Q-116.87109 4.1474609 -117.00293 4.1591797Q-117.13477 4.1708984 -117.31055 4.1708984Q-117.93164 4.1708984 -118.22754 3.8662109Q-118.52344 3.5615234 -118.58203 2.9697266L-118.61719 2.9697266Q-119.30859 4.2177734 -120.70312 4.2177734ZM-118.78711 1.1650391L-119.63086 1.1767578Q-120.20508 1.2001953 -120.44531 1.3027344Q-120.68555 1.4052734 -120.81152 1.6162109Q-120.9375 1.8271484 -120.9375 2.1787109Q-120.9375 2.6298828 -120.72949 2.8496094Q-120.52148 3.0693359 -120.17578 3.0693359Q-119.78906 3.0693359 -119.46973 2.8583984Q-119.15039 2.6474609 -118.96875 2.2753906Q-118.78711 1.9033203 -118.78711 1.4873047L-118.78711 1.1650391ZM-115.49414 -3.3818359L-115.49414 -4.5947266L-113.84766 -4.5947266L-113.84766 -3.3818359L-115.49414 -3.3818359ZM-115.49414 4.1005859L-115.49414 -2.2392578L-113.84766 -2.2392578L-113.84766 4.1005859L-115.49414 4.1005859ZM-112.16016 4.1005859L-112.16016 -4.5947266L-110.51367 -4.5947266L-110.51367 4.1005859L-112.16016 4.1005859ZM-102.82617 0.90136719Q-102.82617 2.4892578 -103.46191 3.3535156Q-104.09766 4.2177734 -105.25781 4.2177734Q-105.92578 4.2177734 -106.4209 3.9277344Q-106.91602 3.6376953 -107.17969 3.0927734L-107.21484 3.0927734Q-107.17969 3.2685547 -107.17969 4.1591797L-107.17969 6.5908203L-108.82617 6.5908203L-108.82617 -0.78027344Q-108.82617 -1.6767578 -108.87305 -2.2392578L-107.27344 -2.2392578Q-107.24414 -2.1337891 -107.22363 -1.8232422Q-107.20312 -1.5126953 -107.20312 -1.2080078L-107.17969 -1.2080078Q-106.62305 -2.3740234 -105.15234 -2.3740234Q-104.04492 -2.3740234 -103.43555 -1.5214844Q-102.82617 -0.66894531 -102.82617 0.90136719ZM-104.54297 0.90136719Q-104.54297 -1.2314453 -105.84961 -1.2314453Q-106.50586 -1.2314453 -106.85449 -0.65722656Q-107.20312 -0.083007812 -107.20312 0.94824219Q-107.20312 1.9736328 -106.85449 2.5332031Q-106.50586 3.0927734 -105.86133 3.0927734Q-104.54297 3.0927734 -104.54297 0.90136719ZM-95.472656 0.92480469Q-95.472656 2.4658203 -96.328125 3.3417969Q-97.183594 4.2177734 -98.695312 4.2177734Q-100.17773 4.2177734 -101.02148 3.3388672Q-101.86523 2.4599609 -101.86523 0.92480469Q-101.86523 -0.60449219 -101.02148 -1.4804688Q-100.17773 -2.3564453 -98.660156 -2.3564453Q-97.107422 -2.3564453 -96.290039 -1.5097656Q-95.472656 -0.66308594 -95.472656 0.92480469ZM-97.195312 0.92480469Q-97.195312 -0.20605469 -97.564453 -0.71582031Q-97.933594 -1.2255859 -98.636719 -1.2255859Q-100.13672 -1.2255859 -100.13672 0.92480469Q-100.13672 1.9853516 -99.770508 2.5390625Q-99.404297 3.0927734 -98.712891 3.0927734Q-97.195312 3.0927734 -97.195312 0.92480469ZM-94.166016 -3.3818359L-94.166016 -4.5947266L-92.519531 -4.5947266L-92.519531 -3.3818359L-94.166016 -3.3818359ZM-94.166016 4.1005859L-94.166016 -2.2392578L-92.519531 -2.2392578L-92.519531 4.1005859L-94.166016 4.1005859ZM-86.724609 4.1005859L-86.724609 0.54394531Q-86.724609 -1.1259766 -87.855469 -1.1259766Q-88.453125 -1.1259766 -88.819336 -0.61328125Q-89.185547 -0.10058594 -89.185547 0.70214844L-89.185547 4.1005859L-90.832031 4.1005859L-90.832031 -0.82128906Q-90.832031 -1.3310547 -90.84668 -1.65625Q-90.861328 -1.9814453 -90.878906 -2.2392578L-89.308594 -2.2392578Q-89.291016 -2.1279297 -89.261719 -1.6445312Q-89.232422 -1.1611328 -89.232422 -0.97949219L-89.208984 -0.97949219Q-88.875 -1.7060547 -88.371094 -2.0341797Q-87.867188 -2.3623047 -87.169922 -2.3623047Q-86.162109 -2.3623047 -85.623047 -1.7412109Q-85.083984 -1.1201172 -85.083984 0.075195312L-85.083984 4.1005859L-86.724609 4.1005859ZM-81.878906 4.2060547Q-82.605469 4.2060547 -82.998047 3.8105469Q-83.390625 3.4150391 -83.390625 2.6123047L-83.390625 -1.1259766L-84.193359 -1.1259766L-84.193359 -2.2392578L-83.308594 -2.2392578L-82.792969 -3.7275391L-81.761719 -3.7275391L-81.761719 -2.2392578L-80.560547 -2.2392578L-80.560547 -1.1259766L-81.761719 -1.1259766L-81.761719 2.1669922Q-81.761719 2.6298828 -81.585938 2.8496094Q-81.410156 3.0693359 -81.041016 3.0693359Q-80.847656 3.0693359 -80.490234 2.9873047L-80.490234 4.0068359Q-81.099609 4.2060547 -81.878906 4.2060547ZM-72.064453 4.1005859Q-72.087891 4.0126953 -72.120117 3.6582031Q-72.152344 3.3037109 -72.152344 3.0693359L-72.175781 3.0693359Q-72.708984 4.2177734 -74.203125 4.2177734Q-75.310547 4.2177734 -75.914062 3.3535156Q-76.517578 2.4892578 -76.517578 0.93652344Q-76.517578 -0.63964844 -75.881836 -1.4980469Q-75.246094 -2.3564453 -74.080078 -2.3564453Q-73.40625 -2.3564453 -72.916992 -2.0751953Q-72.427734 -1.7939453 -72.164062 -1.2373047L-72.152344 -1.2373047L-72.164062 -2.2802734L-72.164062 -4.5947266L-70.517578 -4.5947266L-70.517578 2.7177734Q-70.517578 3.3037109 -70.470703 4.1005859L-72.064453 4.1005859ZM-72.140625 0.89550781Q-72.140625 -0.12988281 -72.483398 -0.68359375Q-72.826172 -1.2373047 -73.494141 -1.2373047Q-74.15625 -1.2373047 -74.478516 -0.70117188Q-74.800781 -0.16503906 -74.800781 0.93652344Q-74.800781 3.0927734 -73.505859 3.0927734Q-72.855469 3.0927734 -72.498047 2.5214844Q-72.140625 1.9501953 -72.140625 0.89550781ZM-62.818359 0.92480469Q-62.818359 2.4658203 -63.673828 3.3417969Q-64.529297 4.2177734 -66.041016 4.2177734Q-67.523438 4.2177734 -68.367188 3.3388672Q-69.210938 2.4599609 -69.210938 0.92480469Q-69.210938 -0.60449219 -68.367188 -1.4804688Q-67.523438 -2.3564453 -66.005859 -2.3564453Q-64.453125 -2.3564453 -63.635742 -1.5097656Q-62.818359 -0.66308594 -62.818359 0.92480469ZM-64.541016 0.92480469Q-64.541016 -0.20605469 -64.910156 -0.71582031Q-65.279297 -1.2255859 -65.982422 -1.2255859Q-67.482422 -1.2255859 -67.482422 0.92480469Q-67.482422 1.9853516 -67.116211 2.5390625Q-66.75 3.0927734 -66.058594 3.0927734Q-64.541016 3.0927734 -64.541016 0.92480469ZM-54.65625 4.1005859L-56.396484 4.1005859L-57.404297 0.23339844Q-57.474609 -0.030273438 -57.679688 -1.0673828L-57.984375 0.24511719L-59.003906 4.1005859L-60.744141 4.1005859L-62.384766 -2.2392578L-60.837891 -2.2392578L-59.794922 2.6064453L-59.712891 2.1728516L-59.566406 1.4873047L-58.570312 -2.2392578L-56.806641 -2.2392578L-55.833984 1.4873047Q-55.751953 1.7919922 -55.59375 2.6064453L-55.429688 1.8330078L-54.515625 -2.2392578L-52.992188 -2.2392578L-54.65625 4.1005859ZM-48.070312 4.1005859L-48.070312 0.54394531Q-48.070312 -1.1259766 -49.201172 -1.1259766Q-49.798828 -1.1259766 -50.165039 -0.61328125Q-50.53125 -0.10058594 -50.53125 0.70214844L-50.53125 4.1005859L-52.177734 4.1005859L-52.177734 -0.82128906Q-52.177734 -1.3310547 -52.192383 -1.65625Q-52.207031 -1.9814453 -52.224609 -2.2392578L-50.654297 -2.2392578Q-50.636719 -2.1279297 -50.607422 -1.6445312Q-50.578125 -1.1611328 -50.578125 -0.97949219L-50.554688 -0.97949219Q-50.220703 -1.7060547 -49.716797 -2.0341797Q-49.212891 -2.3623047 -48.515625 -2.3623047Q-47.507812 -2.3623047 -46.96875 -1.7412109Q-46.429688 -1.1201172 -46.429688 0.075195312L-46.429688 4.1005859L-48.070312 4.1005859ZM-44.847656 4.1005859L-44.847656 -4.5947266L-43.201172 -4.5947266L-43.201172 4.1005859L-44.847656 4.1005859ZM-35.490234 0.92480469Q-35.490234 2.4658203 -36.345703 3.3417969Q-37.201172 4.2177734 -38.712891 4.2177734Q-40.195312 4.2177734 -41.039062 3.3388672Q-41.882812 2.4599609 -41.882812 0.92480469Q-41.882812 -0.60449219 -41.039062 -1.4804688Q-40.195312 -2.3564453 -38.677734 -2.3564453Q-37.125 -2.3564453 -36.307617 -1.5097656Q-35.490234 -0.66308594 -35.490234 0.92480469ZM-37.212891 0.92480469Q-37.212891 -0.20605469 -37.582031 -0.71582031Q-37.951172 -1.2255859 -38.654297 -1.2255859Q-40.154297 -1.2255859 -40.154297 0.92480469Q-40.154297 1.9853516 -39.788086 2.5390625Q-39.421875 3.0927734 -38.730469 3.0927734Q-37.212891 3.0927734 -37.212891 0.92480469ZM-32.71875 4.2177734Q-33.638672 4.2177734 -34.154297 3.7167969Q-34.669922 3.2158203 -34.669922 2.3076172Q-34.669922 1.3232422 -34.02832 0.80761719Q-33.386719 0.29199219 -32.167969 0.28027344L-30.802734 0.25683594L-30.802734 -0.065429688Q-30.802734 -0.68652344 -31.019531 -0.98828125Q-31.236328 -1.2900391 -31.728516 -1.2900391Q-32.185547 -1.2900391 -32.399414 -1.0820312Q-32.613281 -0.87402344 -32.666016 -0.39355469L-34.382812 -0.47558594Q-34.224609 -1.4013672 -33.536133 -1.8789062Q-32.847656 -2.3564453 -31.658203 -2.3564453Q-30.457031 -2.3564453 -29.806641 -1.7646484Q-29.15625 -1.1728516 -29.15625 -0.083007812L-29.15625 2.2255859Q-29.15625 2.7587891 -29.036133 2.9609375Q-28.916016 3.1630859 -28.634766 3.1630859Q-28.447266 3.1630859 -28.271484 3.1279297L-28.271484 4.0185547Q-28.417969 4.0537109 -28.535156 4.0830078Q-28.652344 4.1123047 -28.769531 4.1298828Q-28.886719 4.1474609 -29.018555 4.1591797Q-29.150391 4.1708984 -29.326172 4.1708984Q-29.947266 4.1708984 -30.243164 3.8662109Q-30.539062 3.5615234 -30.597656 2.9697266L-30.632812 2.9697266Q-31.324219 4.2177734 -32.71875 4.2177734ZM-30.802734 1.1650391L-31.646484 1.1767578Q-32.220703 1.2001953 -32.460938 1.3027344Q-32.701172 1.4052734 -32.827148 1.6162109Q-32.953125 1.8271484 -32.953125 2.1787109Q-32.953125 2.6298828 -32.745117 2.8496094Q-32.537109 3.0693359 -32.191406 3.0693359Q-31.804688 3.0693359 -31.485352 2.8583984Q-31.166016 2.6474609 -30.984375 2.2753906Q-30.802734 1.9033203 -30.802734 1.4873047L-30.802734 1.1650391ZM-23.402344 4.1005859Q-23.425781 4.0126953 -23.458008 3.6582031Q-23.490234 3.3037109 -23.490234 3.0693359L-23.513672 3.0693359Q-24.046875 4.2177734 -25.541016 4.2177734Q-26.648438 4.2177734 -27.251953 3.3535156Q-27.855469 2.4892578 -27.855469 0.93652344Q-27.855469 -0.63964844 -27.219727 -1.4980469Q-26.583984 -2.3564453 -25.417969 -2.3564453Q-24.744141 -2.3564453 -24.254883 -2.0751953Q-23.765625 -1.7939453 -23.501953 -1.2373047L-23.490234 -1.2373047L-23.501953 -2.2802734L-23.501953 -4.5947266L-21.855469 -4.5947266L-21.855469 2.7177734Q-21.855469 3.3037109 -21.808594 4.1005859L-23.402344 4.1005859ZM-23.478516 0.89550781Q-23.478516 -0.12988281 -23.821289 -0.68359375Q-24.164062 -1.2373047 -24.832031 -1.2373047Q-25.494141 -1.2373047 -25.816406 -0.70117188Q-26.138672 -0.16503906 -26.138672 0.93652344Q-26.138672 3.0927734 -24.84375 3.0927734Q-24.193359 3.0927734 -23.835938 2.5214844Q-23.478516 1.9501953 -23.478516 0.89550781ZM-14.835938 2.2490234Q-14.835938 3.1689453 -15.588867 3.6933594Q-16.341797 4.2177734 -17.671875 4.2177734Q-18.978516 4.2177734 -19.672852 3.8046875Q-20.367188 3.3916016 -20.595703 2.5185547L-19.148438 2.3017578Q-19.025391 2.7529297 -18.723633 2.9404297Q-18.421875 3.1279297 -17.671875 3.1279297Q-16.980469 3.1279297 -16.664062 2.9521484Q-16.347656 2.7763672 -16.347656 2.4013672Q-16.347656 2.0966797 -16.602539 1.9179688Q-16.857422 1.7392578 -17.466797 1.6162109Q-18.861328 1.3408203 -19.347656 1.1035156Q-19.833984 0.86621094 -20.088867 0.48828125Q-20.34375 0.11035156 -20.34375 -0.44042969Q-20.34375 -1.3486328 -19.643555 -1.8554688Q-18.943359 -2.3623047 -17.660156 -2.3623047Q-16.529297 -2.3623047 -15.84082 -1.9228516Q-15.152344 -1.4833984 -14.982422 -0.65136719L-16.441406 -0.49902344Q-16.511719 -0.88574219 -16.787109 -1.0761719Q-17.0625 -1.2666016 -17.660156 -1.2666016Q-18.246094 -1.2666016 -18.539062 -1.1171875Q-18.832031 -0.96777344 -18.832031 -0.61621094Q-18.832031 -0.34082031 -18.606445 -0.1796875Q-18.380859 -0.018554688 -17.847656 0.086914062Q-17.103516 0.23925781 -16.526367 0.40039062Q-15.949219 0.56152344 -15.600586 0.78417969Q-15.251953 1.0068359 -15.043945 1.3554688Q-14.835938 1.7041016 -14.835938 2.2490234ZM-4.171875 0.90722656Q-4.171875 2.4775391 -4.8017578 3.3476562Q-5.4316406 4.2177734 -6.6035156 4.2177734Q-7.2773438 4.2177734 -7.7695312 3.9248047Q-8.2617188 3.6318359 -8.5253906 3.0810547L-8.5371094 3.0810547Q-8.5371094 3.2861328 -8.5634766 3.6435547Q-8.5898438 4.0009766 -8.6191406 4.1005859L-10.21875 4.1005859Q-10.171875 3.5556641 -10.171875 2.6533203L-10.171875 -4.5947266L-8.5253906 -4.5947266L-8.5253906 -2.1689453L-8.5488281 -1.1376953L-8.5253906 -1.1376953Q-7.96875 -2.3564453 -6.4980469 -2.3564453Q-5.3730469 -2.3564453 -4.7724609 -1.5039062Q-4.171875 -0.65136719 -4.171875 0.90722656ZM-5.8886719 0.90722656Q-5.8886719 -0.17089844 -6.2050781 -0.69238281Q-6.5214844 -1.2138672 -7.1835938 -1.2138672Q-7.8515625 -1.2138672 -8.2001953 -0.65429688Q-8.5488281 -0.094726562 -8.5488281 0.95996094Q-8.5488281 1.9677734 -8.2060547 2.5302734Q-7.8632812 3.0927734 -7.1953125 3.0927734Q-5.8886719 3.0927734 -5.8886719 0.90722656ZM-2.0214844 6.5908203Q-2.6132812 6.5908203 -3.0585938 6.5146484L-3.0585938 5.3427734Q-2.7480469 5.3896484 -2.4902344 5.3896484Q-2.1386719 5.3896484 -1.9072266 5.2783203Q-1.6757812 5.1669922 -1.4912109 4.9091797Q-1.3066406 4.6513672 -1.078125 4.0361328L-3.5859375 -2.2392578L-1.8457031 -2.2392578L-0.84960938 0.73144531Q-0.61523438 1.3701172 -0.2578125 2.6884766L-0.11132812 2.1318359L0.26953125 0.75488281L1.2070312 -2.2392578L2.9296875 -2.2392578L0.421875 4.4345703Q-0.08203125 5.6533203 -0.62402344 6.1220703Q-1.1660156 6.5908203 -2.0214844 6.5908203ZM13.921875 -1.5419922Q13.921875 -0.74511719 13.558594 -0.11816406Q13.195312 0.50878906 12.518555 0.8515625Q11.841797 1.1943359 10.910156 1.1943359L8.859375 1.1943359L8.859375 4.1005859L7.1308594 4.1005859L7.1308594 -4.1552734L10.839844 -4.1552734Q12.322266 -4.1552734 13.12207 -3.4726562Q13.921875 -2.7900391 13.921875 -1.5419922ZM12.181641 -1.5126953Q12.181641 -2.8134766 10.646484 -2.8134766L8.859375 -2.8134766L8.859375 -0.13574219L10.693359 -0.13574219Q11.408203 -0.13574219 11.794922 -0.49023438Q12.181641 -0.84472656 12.181641 -1.5126953ZM15.990234 6.5908203Q15.398438 6.5908203 14.953125 6.5146484L14.953125 5.3427734Q15.263672 5.3896484 15.521484 5.3896484Q15.873047 5.3896484 16.104492 5.2783203Q16.335938 5.1669922 16.520508 4.9091797Q16.705078 4.6513672 16.933594 4.0361328L14.425781 -2.2392578L16.166016 -2.2392578L17.162109 0.73144531Q17.396484 1.3701172 17.753906 2.6884766L17.900391 2.1318359L18.28125 0.75488281L19.21875 -2.2392578L20.941406 -2.2392578L18.433594 4.4345703Q17.929688 5.6533203 17.387695 6.1220703Q16.845703 6.5908203 15.990234 6.5908203ZM23.466797 4.2060547Q22.740234 4.2060547 22.347656 3.8105469Q21.955078 3.4150391 21.955078 2.6123047L21.955078 -1.1259766L21.152344 -1.1259766L21.152344 -2.2392578L22.037109 -2.2392578L22.552734 -3.7275391L23.583984 -3.7275391L23.583984 -2.2392578L24.785156 -2.2392578L24.785156 -1.1259766L23.583984 -1.1259766L23.583984 2.1669922Q23.583984 2.6298828 23.759766 2.8496094Q23.935547 3.0693359 24.304688 3.0693359Q24.498047 3.0693359 24.855469 2.9873047L24.855469 4.0068359Q24.246094 4.2060547 23.466797 4.2060547ZM27.462891 -0.97363281Q27.796875 -1.7001953 28.300781 -2.0283203Q28.804688 -2.3564453 29.501953 -2.3564453Q30.509766 -2.3564453 31.048828 -1.7353516Q31.587891 -1.1142578 31.587891 0.081054688L31.587891 4.1005859L29.947266 4.1005859L29.947266 0.54980469Q29.947266 -1.1201172 28.816406 -1.1201172Q28.21875 -1.1201172 27.852539 -0.60742188Q27.486328 -0.094726562 27.486328 0.70800781L27.486328 4.1005859L25.839844 4.1005859L25.839844 -4.5947266L27.486328 -4.5947266L27.486328 -2.2216797Q27.486328 -1.5830078 27.439453 -0.97363281L27.462891 -0.97363281ZM39.193359 0.92480469Q39.193359 2.4658203 38.337891 3.3417969Q37.482422 4.2177734 35.970703 4.2177734Q34.488281 4.2177734 33.644531 3.3388672Q32.800781 2.4599609 32.800781 0.92480469Q32.800781 -0.60449219 33.644531 -1.4804688Q34.488281 -2.3564453 36.005859 -2.3564453Q37.558594 -2.3564453 38.375977 -1.5097656Q39.193359 -0.66308594 39.193359 0.92480469ZM37.470703 0.92480469Q37.470703 -0.20605469 37.101562 -0.71582031Q36.732422 -1.2255859 36.029297 -1.2255859Q34.529297 -1.2255859 34.529297 0.92480469Q34.529297 1.9853516 34.895508 2.5390625Q35.261719 3.0927734 35.953125 3.0927734Q37.470703 3.0927734 37.470703 0.92480469ZM44.607422 4.1005859L44.607422 0.54394531Q44.607422 -1.1259766 43.476562 -1.1259766Q42.878906 -1.1259766 42.512695 -0.61328125Q42.146484 -0.10058594 42.146484 0.70214844L42.146484 4.1005859L40.5 4.1005859L40.5 -0.82128906Q40.5 -1.3310547 40.485352 -1.65625Q40.470703 -1.9814453 40.453125 -2.2392578L42.023438 -2.2392578Q42.041016 -2.1279297 42.070312 -1.6445312Q42.099609 -1.1611328 42.099609 -0.97949219L42.123047 -0.97949219Q42.457031 -1.7060547 42.960938 -2.0341797Q43.464844 -2.3623047 44.162109 -2.3623047Q45.169922 -2.3623047 45.708984 -1.7412109Q46.248047 -1.1201172 46.248047 0.075195312L46.248047 4.1005859L44.607422 4.1005859ZM54.896484 4.1005859L54.896484 0.54394531Q54.896484 -1.1259766 53.935547 -1.1259766Q53.4375 -1.1259766 53.124023 -0.61621094Q52.810547 -0.10644531 52.810547 0.70214844L52.810547 4.1005859L51.164062 4.1005859L51.164062 -0.82128906Q51.164062 -1.3310547 51.149414 -1.65625Q51.134766 -1.9814453 51.117188 -2.2392578L52.6875 -2.2392578Q52.705078 -2.1279297 52.734375 -1.6445312Q52.763672 -1.1611328 52.763672 -0.97949219L52.787109 -0.97949219Q53.091797 -1.7060547 53.545898 -2.0341797Q54 -2.3623047 54.632812 -2.3623047Q56.085938 -2.3623047 56.396484 -0.97949219L56.431641 -0.97949219Q56.753906 -1.7177734 57.205078 -2.0400391Q57.65625 -2.3623047 58.353516 -2.3623047Q59.279297 -2.3623047 59.765625 -1.7324219Q60.251953 -1.1025391 60.251953 0.075195312L60.251953 4.1005859L58.617188 4.1005859L58.617188 0.54394531Q58.617188 -1.1259766 57.65625 -1.1259766Q57.175781 -1.1259766 56.868164 -0.66015625Q56.560547 -0.19433594 56.53125 0.62597656L56.53125 4.1005859L54.896484 4.1005859ZM61.833984 -3.3818359L61.833984 -4.5947266L63.480469 -4.5947266L63.480469 -3.3818359L61.833984 -3.3818359ZM61.833984 4.1005859L61.833984 -2.2392578L63.480469 -2.2392578L63.480469 4.1005859L61.833984 4.1005859ZM69.275391 4.1005859L69.275391 0.54394531Q69.275391 -1.1259766 68.144531 -1.1259766Q67.546875 -1.1259766 67.180664 -0.61328125Q66.814453 -0.10058594 66.814453 0.70214844L66.814453 4.1005859L65.167969 4.1005859L65.167969 -0.82128906Q65.167969 -1.3310547 65.15332 -1.65625Q65.138672 -1.9814453 65.121094 -2.2392578L66.691406 -2.2392578Q66.708984 -2.1279297 66.738281 -1.6445312Q66.767578 -1.1611328 66.767578 -0.97949219L66.791016 -0.97949219Q67.125 -1.7060547 67.628906 -2.0341797Q68.132812 -2.3623047 68.830078 -2.3623047Q69.837891 -2.3623047 70.376953 -1.7412109Q70.916016 -1.1201172 70.916016 0.075195312L70.916016 4.1005859L69.275391 4.1005859ZM78.521484 0.92480469Q78.521484 2.4658203 77.666016 3.3417969Q76.810547 4.2177734 75.298828 4.2177734Q73.816406 4.2177734 72.972656 3.3388672Q72.128906 2.4599609 72.128906 0.92480469Q72.128906 -0.60449219 72.972656 -1.4804688Q73.816406 -2.3564453 75.333984 -2.3564453Q76.886719 -2.3564453 77.704102 -1.5097656Q78.521484 -0.66308594 78.521484 0.92480469ZM76.798828 0.92480469Q76.798828 -0.20605469 76.429688 -0.71582031Q76.060547 -1.2255859 75.357422 -1.2255859Q73.857422 -1.2255859 73.857422 0.92480469Q73.857422 1.9853516 74.223633 2.5390625Q74.589844 3.0927734 75.28125 3.0927734Q76.798828 3.0927734 76.798828 0.92480469ZM79.828125 4.1005859L79.828125 -0.75097656Q79.828125 -1.2724609 79.813477 -1.6210938Q79.798828 -1.9697266 79.78125 -2.2392578L81.351562 -2.2392578Q81.369141 -2.1337891 81.398438 -1.5976562Q81.427734 -1.0615234 81.427734 -0.88574219L81.451172 -0.88574219Q81.691406 -1.5537109 81.878906 -1.8261719Q82.066406 -2.0986328 82.324219 -2.2304688Q82.582031 -2.3623047 82.96875 -2.3623047Q83.285156 -2.3623047 83.478516 -2.2744141L83.478516 -0.89746094Q83.080078 -0.98535156 82.775391 -0.98535156Q82.160156 -0.98535156 81.817383 -0.48730469Q81.474609 0.010742188 81.474609 0.98925781L81.474609 4.1005859L79.828125 4.1005859ZM91.277344 4.1005859L89.308594 4.1005859L87.041016 -2.2392578L88.78125 -2.2392578L89.888672 1.3056641Q89.976562 1.5986328 90.304688 2.7705078Q90.363281 2.5302734 90.544922 1.9267578Q90.726562 1.3232422 91.892578 -2.2392578L93.615234 -2.2392578L91.277344 4.1005859ZM97.101562 4.2177734Q95.671875 4.2177734 94.904297 3.3710938Q94.136719 2.5244141 94.136719 0.90136719Q94.136719 -0.66894531 94.916016 -1.5126953Q95.695312 -2.3564453 97.125 -2.3564453Q98.490234 -2.3564453 99.210938 -1.4511719Q99.931641 -0.54589844 99.931641 1.2001953L99.931641 1.2470703L95.865234 1.2470703Q95.865234 2.1728516 96.208008 2.6445312Q96.550781 3.1162109 97.183594 3.1162109Q98.056641 3.1162109 98.285156 2.3603516L99.837891 2.4951172Q99.164062 4.2177734 97.101562 4.2177734ZM97.101562 -1.3193359Q96.521484 -1.3193359 96.208008 -0.91503906Q95.894531 -0.51074219 95.876953 0.21582031L98.337891 0.21582031Q98.291016 -0.55175781 97.96875 -0.93554688Q97.646484 -1.3193359 97.101562 -1.3193359ZM101.17969 4.1005859L101.17969 -0.75097656Q101.17969 -1.2724609 101.16504 -1.6210938Q101.15039 -1.9697266 101.13281 -2.2392578L102.70312 -2.2392578Q102.7207 -2.1337891 102.75 -1.5976562Q102.7793 -1.0615234 102.7793 -0.88574219L102.80273 -0.88574219Q103.04297 -1.5537109 103.23047 -1.8261719Q103.41797 -2.0986328 103.67578 -2.2304688Q103.93359 -2.3623047 104.32031 -2.3623047Q104.63672 -2.3623047 104.83008 -2.2744141L104.83008 -0.89746094Q104.43164 -0.98535156 104.12695 -0.98535156Q103.51172 -0.98535156 103.16895 -0.48730469Q102.82617 0.010742188 102.82617 0.98925781L102.82617 4.1005859L101.17969 4.1005859ZM111.19336 2.2490234Q111.19336 3.1689453 110.44043 3.6933594Q109.6875 4.2177734 108.35742 4.2177734Q107.05078 4.2177734 106.35645 3.8046875Q105.66211 3.3916016 105.43359 2.5185547L106.88086 2.3017578Q107.00391 2.7529297 107.30566 2.9404297Q107.60742 3.1279297 108.35742 3.1279297Q109.04883 3.1279297 109.36523 2.9521484Q109.68164 2.7763672 109.68164 2.4013672Q109.68164 2.0966797 109.42676 1.9179688Q109.17188 1.7392578 108.5625 1.6162109Q107.16797 1.3408203 106.68164 1.1035156Q106.19531 0.86621094 105.94043 0.48828125Q105.68555 0.11035156 105.68555 -0.44042969Q105.68555 -1.3486328 106.38574 -1.8554688Q107.08594 -2.3623047 108.36914 -2.3623047Q109.5 -2.3623047 110.18848 -1.9228516Q110.87695 -1.4833984 111.04688 -0.65136719L109.58789 -0.49902344Q109.51758 -0.88574219 109.24219 -1.0761719Q108.9668 -1.2666016 108.36914 -1.2666016Q107.7832 -1.2666016 107.49023 -1.1171875Q107.19727 -0.96777344 107.19727 -0.61621094Q107.19727 -0.34082031 107.42285 -0.1796875Q107.64844 -0.018554688 108.18164 0.086914062Q108.92578 0.23925781 109.50293 0.40039062Q110.08008 0.56152344 110.42871 0.78417969Q110.77734 1.0068359 110.98535 1.3554688Q111.19336 1.7041016 111.19336 2.2490234ZM112.52344 -3.3818359L112.52344 -4.5947266L114.16992 -4.5947266L114.16992 -3.3818359L112.52344 -3.3818359ZM112.52344 4.1005859L112.52344 -2.2392578L114.16992 -2.2392578L114.16992 4.1005859L112.52344 4.1005859ZM121.88086 0.92480469Q121.88086 2.4658203 121.02539 3.3417969Q120.16992 4.2177734 118.6582 4.2177734Q117.17578 4.2177734 116.33203 3.3388672Q115.48828 2.4599609 115.48828 0.92480469Q115.48828 -0.60449219 116.33203 -1.4804688Q117.17578 -2.3564453 118.69336 -2.3564453Q120.24609 -2.3564453 121.06348 -1.5097656Q121.88086 -0.66308594 121.88086 0.92480469ZM120.1582 0.92480469Q120.1582 -0.20605469 119.78906 -0.71582031Q119.41992 -1.2255859 118.7168 -1.2255859Q117.2168 -1.2255859 117.2168 0.92480469Q117.2168 1.9853516 117.58301 2.5390625Q117.94922 3.0927734 118.64062 3.0927734Q120.1582 3.0927734 120.1582 0.92480469ZM127.29492 4.1005859L127.29492 0.54394531Q127.29492 -1.1259766 126.16406 -1.1259766Q125.56641 -1.1259766 125.2002 -0.61328125Q124.83398 -0.10058594 124.83398 0.70214844L124.83398 4.1005859L123.1875 4.1005859L123.1875 -0.82128906Q123.1875 -1.3310547 123.17285 -1.65625Q123.1582 -1.9814453 123.14062 -2.2392578L124.71094 -2.2392578Q124.72852 -2.1279297 124.75781 -1.6445312Q124.78711 -1.1611328 124.78711 -0.97949219L124.81055 -0.97949219Q125.14453 -1.7060547 125.64844 -2.0341797Q126.15234 -2.3623047 126.84961 -2.3623047Q127.85742 -2.3623047 128.39648 -1.7412109Q128.93555 -1.1201172 128.93555 0.075195312L128.93555 4.1005859L127.29492 4.1005859Z"/>
	<path fill="none" stroke="black" stroke-width="1" stroke-miterlimit="10" stroke-opacity="0.10196079" d="M53 759.5L1001 759.5"/>
	<path fill="none" stroke="black" stroke-width="1" stroke-miterlimit="10" stroke-opacity="0.10196079" d="M53.5 34L53.5 760"/>
	<clipPath id="cl_1e6">
		<rect width="53.080002" height="800"/>
	</clipPath>
	<g clip-path="url(#cl_1e6)">
		<path fill="#666" transform="translate(42.08 759.6)" d="M-0.46679688 -0.030273438Q-0.46679688 2.0380859 -1.1962891 3.1279297Q-1.9257812 4.2177734 -3.3496094 4.2177734Q-4.7734375 4.2177734 -5.4882812 3.1337891Q-6.203125 2.0498047 -6.203125 -0.030273438Q-6.203125 -2.1572266 -5.5087891 -3.2177734Q-4.8144531 -4.2783203 -3.3144531 -4.2783203Q-1.8554688 -4.2783203 -1.1611328 -3.2060547Q-0.46679688 -2.1337891 -0.46679688 -0.030273438ZM-1.5390625 -0.030273438Q-1.5390625 -1.8173828 -1.9521484 -2.6201172Q-2.3652344 -3.4228516 -3.3144531 -3.4228516Q-4.2871094 -3.4228516 -4.7119141 -2.6318359Q-5.1367188 -1.8408203 -5.1367188 -0.030273438Q-5.1367188 1.7275391 -4.7060547 2.5419922Q-4.2753906 3.3564453 -3.3378906 3.3564453Q-2.40625 3.3564453 -1.9726562 2.5244141Q-1.5390625 1.6923828 -1.5390625 -0.030273438Z"/>
	</g>
	<clipPath id="cl_1e7">
		<rect width="53.080002" height="800"/>
	</clipPath>
	<g clip-path="url(#cl_1e7)">
		<path fill="#666" transform="translate(42.08 687.08)" d="M-10.474609 -0.030273438Q-10.474609 2.0380859 -11.204102 3.1279297Q-11.933594 4.2177734 -13.357422 4.2177734Q-14.78125 4.2177734 -15.496094 3.1337891Q-16.210938 2.0498047 -16.210938 -0.030273438Q-16.210938 -2.1572266 -15.516602 -3.2177734Q-14.822266 -4.2783203 -13.322266 -4.2783203Q-11.863281 -4.2783203 -11.168945 -3.2060547Q-10.474609 -2.1337891 -10.474609 -0.030273438ZM-11.546875 -0.030273438Q-11.546875 -1.8173828 -11.959961 -2.6201172Q-12.373047 -3.4228516 -13.322266 -3.4228516Q-14.294922 -3.4228516 -14.719727 -2.6318359Q-15.144531 -1.8408203 -15.144531 -0.030273438Q-15.144531 1.7275391 -14.713867 2.5419922Q-14.283203 3.3564453 -13.345703 3.3564453Q-12.414062 3.3564453 -11.980469 2.5244141Q-11.546875 1.6923828 -11.546875 -0.030273438ZM-8.9101562 4.1005859L-8.9101562 2.8173828L-7.7675781 2.8173828L-7.7675781 4.1005859L-8.9101562 4.1005859ZM-5.7578125 4.1005859L-5.7578125 3.2041016L-3.6542969 3.2041016L-3.6542969 -3.1474609L-5.5175781 -1.8173828L-5.5175781 -2.8134766L-3.5664062 -4.1552734L-2.59375 -4.1552734L-2.59375 3.2041016L-0.58398438 3.2041016L-0.58398438 4.1005859L-5.7578125 4.1005859Z"/>
	</g>
	<clipPath id="cl_1e8">
		<rect width="53.080002" height="800"/>
	</clipPath>
	<g clip-path="url(#cl_1e8)">
		<path fill="#666" transform="translate(42.08 614.56)" d="M-10.474609 -0.030273438Q-10.474609 2.0380859 -11.204102 3.1279297Q-11.933594 4.2177734 -13.357422 4.2177734Q-14.78125 4.2177734 -15.496094 3.1337891Q-16.210938 2.0498047 -16.210938 -0.030273438Q-16.210938 -2.1572266 -15.516602 -3.2177734Q-14.822266 -4.2783203 -13.322266 -4.2783203Q-11.863281 -4.2783203 -11.168945 -3.2060547Q-10.474609 -2.1337891 -10.474609 -0.030273438ZM-11.546875 -0.030273438Q-11.546875 -1.8173828 -11.959961 -2.6201172Q-12.373047 -3.4228516 -13.322266 -3.4228516Q-14.294922 -3.4228516 -14.719727 -2.6318359Q-15.144531 -1.8408203 -15.144531 -0.030273438Q-15.144531 1.7275391 -14.713867 2.5419922Q-14.283203 3.3564453 -13.345703 3.3564453Q-12.414062 3.3564453 -11.980469 2.5244141Q-11.546875 1.6923828 -11.546875 -0.030273438ZM-8.9101562 4.1005859L-8.9101562 2.8173828L-7.7675781 2.8173828L-7.7675781 4.1005859L-8.9101562 4.1005859ZM-6.0683594 4.1005859L-6.0683594 3.3564453Q-5.7695312 2.6708984 -5.3388672 2.1464844Q-4.9082031 1.6220703 -4.4335938 1.1972656Q-3.9589844 0.77246094 -3.4931641 0.40917969Q-3.0273438 0.045898438 -2.6523438 -0.31738281Q-2.2773438 -0.68066406 -2.0458984 -1.0791016Q-1.8144531 -1.4775391 -1.8144531 -1.9814453Q-1.8144531 -2.6611328 -2.2128906 -3.0361328Q-2.6113281 -3.4111328 -3.3203125 -3.4111328Q-3.9941406 -3.4111328 -4.4306641 -3.0449219Q-4.8671875 -2.6787109 -4.9433594 -2.0166016L-6.0214844 -2.1162109Q-5.9042969 -3.1064453 -5.1806641 -3.6923828Q-4.4570312 -4.2783203 -3.3203125 -4.2783203Q-2.0722656 -4.2783203 -1.4013672 -3.6894531Q-0.73046875 -3.1005859 -0.73046875 -2.0166016Q-0.73046875 -1.5361328 -0.95019531 -1.0615234Q-1.1699219 -0.58691406 -1.6035156 -0.11230469Q-2.0371094 0.36230469 -3.2617188 1.3583984Q-3.9355469 1.9091797 -4.3339844 2.3515625Q-4.7324219 2.7939453 -4.9082031 3.2041016L-0.6015625 3.2041016L-0.6015625 4.1005859L-6.0683594 4.1005859Z"/>
	</g>
	<clipPath id="cl_1e9">
		<rect width="53.080002" height="800"/>
	</clipPath>
	<g clip-path="url(#cl_1e9)">
		<path fill="#666" transform="translate(42.08 542.04)" d="M-10.474609 -0.030273438Q-10.474609 2.0380859 -11.204102 3.1279297Q-11.933594 4.2177734 -13.357422 4.2177734Q-14.78125 4.2177734 -15.496094 3.1337891Q-16.210938 2.0498047 -16.210938 -0.030273438Q-16.210938 -2.1572266 -15.516602 -3.2177734Q-14.822266 -4.2783203 -13.322266 -4.2783203Q-11.863281 -4.2783203 -11.168945 -3.2060547Q-10.474609 -2.1337891 -10.474609 -0.030273438ZM-11.546875 -0.030273438Q-11.546875 -1.8173828 -11.959961 -2.6201172Q-12.373047 -3.4228516 -13.322266 -3.4228516Q-14.294922 -3.4228516 -14.719727 -2.6318359Q-15.144531 -1.8408203 -15.144531 -0.030273438Q-15.144531 1.7275391 -14.713867 2.5419922Q-14.283203 3.3564453 -13.345703 3.3564453Q-12.414062 3.3564453 -11.980469 2.5244141Q-11.546875 1.6923828 -11.546875 -0.030273438ZM-8.9101562 4.1005859L-8.9101562 2.8173828L-7.7675781 2.8173828L-7.7675781 4.1005859L-8.9101562 4.1005859ZM-0.52539062 1.8212891Q-0.52539062 2.9638672 -1.2519531 3.5908203Q-1.9785156 4.2177734 -3.3261719 4.2177734Q-4.5800781 4.2177734 -5.3271484 3.6523438Q-6.0742188 3.0869141 -6.2148438 1.9794922L-5.125 1.8798828Q-4.9140625 3.3447266 -3.3261719 3.3447266Q-2.5292969 3.3447266 -2.0751953 2.9521484Q-1.6210938 2.5595703 -1.6210938 1.7861328Q-1.6210938 1.1123047 -2.1396484 0.734375Q-2.6582031 0.35644531 -3.6367188 0.35644531L-4.234375 0.35644531L-4.234375 -0.55761719L-3.6601562 -0.55761719Q-2.7929688 -0.55761719 -2.3154297 -0.93554688Q-1.8378906 -1.3134766 -1.8378906 -1.9814453Q-1.8378906 -2.6435547 -2.2275391 -3.0273438Q-2.6171875 -3.4111328 -3.3847656 -3.4111328Q-4.0820312 -3.4111328 -4.5126953 -3.0537109Q-4.9433594 -2.6962891 -5.0136719 -2.0458984L-6.0742188 -2.1279297Q-5.9570312 -3.1416016 -5.2333984 -3.7099609Q-4.5097656 -4.2783203 -3.3730469 -4.2783203Q-2.1308594 -4.2783203 -1.4423828 -3.7011719Q-0.75390625 -3.1240234 -0.75390625 -2.0927734Q-0.75390625 -1.3017578 -1.1962891 -0.80664062Q-1.6386719 -0.31152344 -2.4824219 -0.13574219L-2.4824219 -0.11230469Q-1.5566406 -0.012695312 -1.0410156 0.50878906Q-0.52539062 1.0302734 -0.52539062 1.8212891Z"/>
	</g>
	<clipPath id="cl_1ea">
		<rect width="53.080002" height="800"/>
	</clipPath>
	<g clip-path="url(#cl_1ea)">
		<path fill="#666" transform="translate(42.08 469.52)" d="M-10.474609 -0.030273438Q-10.474609 2.0380859 -11.204102 3.1279297Q-11.933594 4.2177734 -13.357422 4.2177734Q-14.78125 4.2177734 -15.496094 3.1337891Q-16.210938 2.0498047 -16.210938 -0.030273438Q-16.210938 -2.1572266 -15.516602 -3.2177734Q-14.822266 -4.2783203 -13.322266 -4.2783203Q-11.863281 -4.2783203 -11.168945 -3.2060547Q-10.474609 -2.1337891 -10.474609 -0.030273438ZM-11.546875 -0.030273438Q-11.546875 -1.8173828 -11.959961 -2.6201172Q-12.373047 -3.4228516 -13.322266 -3.4228516Q-14.294922 -3.4228516 -14.719727 -2.6318359Q-15.144531 -1.8408203 -15.144531 -0.030273438Q-15.144531 1.7275391 -14.713867 2.5419922Q-14.283203 3.3564453 -13.345703 3.3564453Q-12.414062 3.3564453 -11.980469 2.5244141Q-11.546875 1.6923828 -11.546875 -0.030273438ZM-8.9101562 4.1005859L-8.9101562 2.8173828L-7.7675781 2.8173828L-7.7675781 4.1005859L-8.9101562 4.1005859ZM-1.5097656 2.2314453L-1.5097656 4.1005859L-2.5058594 4.1005859L-2.5058594 2.2314453L-6.3964844 2.2314453L-6.3964844 1.4111328L-2.6171875 -4.1552734L-1.5097656 -4.1552734L-1.5097656 1.3994141L-0.34960938 1.3994141L-0.34960938 2.2314453L-1.5097656 2.2314453ZM-2.5058594 -2.9658203Q-2.5175781 -2.9306641 -2.6699219 -2.6552734Q-2.8222656 -2.3798828 -2.8984375 -2.2685547L-5.0136719 0.84863281L-5.3300781 1.2822266L-5.4238281 1.3994141L-2.5058594 1.3994141L-2.5058594 -2.9658203Z"/>
	</g>
	<clipPath id="cl_1eb">
		<rect width="53.080002" height="800"/>
	</clipPath>
	<g clip-path="url(#cl_1eb)">
		<path fill="#666" transform="translate(42.08 397)" d="M-10.474609 -0.030273438Q-10.474609 2.0380859 -11.204102 3.1279297Q-11.933594 4.2177734 -13.357422 4.2177734Q-14.78125 4.2177734 -15.496094 3.1337891Q-16.210938 2.0498047 -16.210938 -0.030273438Q-16.210938 -2.1572266 -15.516602 -3.2177734Q-14.822266 -4.2783203 -13.322266 -4.2783203Q-11.863281 -4.2783203 -11.168945 -3.2060547Q-10.474609 -2.1337891 -10.474609 -0.030273438ZM-11.546875 -0.030273438Q-11.546875 -1.8173828 -11.959961 -2.6201172Q-12.373047 -3.4228516 -13.322266 -3.4228516Q-14.294922 -3.4228516 -14.719727 -2.6318359Q-15.144531 -1.8408203 -15.144531 -0.030273438Q-15.144531 1.7275391 -14.713867 2.5419922Q-14.283203 3.3564453 -13.345703 3.3564453Q-12.414062 3.3564453 -11.980469 2.5244141Q-11.546875 1.6923828 -11.546875 -0.030273438ZM-8.9101562 4.1005859L-8.9101562 2.8173828L-7.7675781 2.8173828L-7.7675781 4.1005859L-8.9101562 4.1005859ZM-0.50195312 1.4111328Q-0.50195312 2.7177734 -1.2783203 3.4677734Q-2.0546875 4.2177734 -3.4316406 4.2177734Q-4.5859375 4.2177734 -5.2949219 3.7138672Q-6.0039062 3.2099609 -6.1914062 2.2548828L-5.125 2.1318359Q-4.7910156 3.3564453 -3.4082031 3.3564453Q-2.5585938 3.3564453 -2.078125 2.84375Q-1.5976562 2.3310547 -1.5976562 1.4345703Q-1.5976562 0.65527344 -2.0810547 0.17480469Q-2.5644531 -0.30566406 -3.3847656 -0.30566406Q-3.8125 -0.30566406 -4.1816406 -0.17089844Q-4.5507812 -0.036132812 -4.9199219 0.28613281L-5.9511719 0.28613281L-5.6757812 -4.1552734L-0.98242188 -4.1552734L-0.98242188 -3.2587891L-4.7148438 -3.2587891L-4.8730469 -0.63964844Q-4.1875 -1.1669922 -3.1679688 -1.1669922Q-1.9492188 -1.1669922 -1.2255859 -0.45214844Q-0.50195312 0.26269531 -0.50195312 1.4111328Z"/>
	</g>
	<clipPath id="cl_1ec">
		<rect width="53.080002" height="800"/>
	</clipPath>
	<g clip-path="url(#cl_1ec)">
		<path fill="#666" transform="translate(42.08 324.48)" d="M-10.474609 -0.030273438Q-10.474609 2.0380859 -11.204102 3.1279297Q-11.933594 4.2177734 -13.357422 4.2177734Q-14.78125 4.2177734 -15.496094 3.1337891Q-16.210938 2.0498047 -16.210938 -0.030273438Q-16.210938 -2.1572266 -15.516602 -3.2177734Q-14.822266 -4.2783203 -13.322266 -4.2783203Q-11.863281 -4.2783203 -11.168945 -3.2060547Q-10.474609 -2.1337891 -10.474609 -0.030273438ZM-11.546875 -0.030273438Q-11.546875 -1.8173828 -11.959961 -2.6201172Q-12.373047 -3.4228516 -13.322266 -3.4228516Q-14.294922 -3.4228516 -14.719727 -2.6318359Q-15.144531 -1.8408203 -15.144531 -0.030273438Q-15.144531 1.7275391 -14.713867 2.5419922Q-14.283203 3.3564453 -13.345703 3.3564453Q-12.414062 3.3564453 -11.980469 2.5244141Q-11.546875 1.6923828 -11.546875 -0.030273438ZM-8.9101562 4.1005859L-8.9101562 2.8173828L-7.7675781 2.8173828L-7.7675781 4.1005859L-8.9101562 4.1005859ZM-0.52539062 1.3994141Q-0.52539062 2.7060547 -1.234375 3.4619141Q-1.9433594 4.2177734 -3.1914062 4.2177734Q-4.5859375 4.2177734 -5.3242188 3.1806641Q-6.0625 2.1435547 -6.0625 0.16308594Q-6.0625 -1.9814453 -5.2949219 -3.1298828Q-4.5273438 -4.2783203 -3.109375 -4.2783203Q-1.2402344 -4.2783203 -0.75390625 -2.5966797L-1.7617188 -2.4150391Q-2.0722656 -3.4228516 -3.1210938 -3.4228516Q-4.0234375 -3.4228516 -4.5185547 -2.5820312Q-5.0136719 -1.7412109 -5.0136719 -0.14746094Q-4.7265625 -0.68066406 -4.2050781 -0.95898438Q-3.6835938 -1.2373047 -3.0097656 -1.2373047Q-1.8671875 -1.2373047 -1.1962891 -0.52246094Q-0.52539062 0.19238281 -0.52539062 1.3994141ZM-1.5976562 1.4462891Q-1.5976562 0.54980469 -2.0371094 0.063476562Q-2.4765625 -0.42285156 -3.2617188 -0.42285156Q-4 -0.42285156 -4.4541016 0.0078125Q-4.9082031 0.43847656 -4.9082031 1.1943359Q-4.9082031 2.1494141 -4.4365234 2.7587891Q-3.9648438 3.3681641 -3.2265625 3.3681641Q-2.4648438 3.3681641 -2.03125 2.8554688Q-1.5976562 2.3427734 -1.5976562 1.4462891Z"/>
	</g>
	<clipPath id="cl_1ed">
		<rect width="53.080002" height="800"/>
	</clipPath>
	<g clip-path="url(#cl_1ed)">
		<path fill="#666" transform="translate(42.08 251.96)" d="M-10.474609 -0.030273438Q-10.474609 2.0380859 -11.204102 3.1279297Q-11.933594 4.2177734 -13.357422 4.2177734Q-14.78125 4.2177734 -15.496094 3.1337891Q-16.210938 2.0498047 -16.210938 -0.030273438Q-16.210938 -2.1572266 -15.516602 -3.2177734Q-14.822266 -4.2783203 -13.322266 -4.2783203Q-11.863281 -4.2783203 -11.168945 -3.2060547Q-10.474609 -2.1337891 -10.474609 -0.030273438ZM-11.546875 -0.030273438Q-11.546875 -1.8173828 -11.959961 -2.6201172Q-12.373047 -3.4228516 -13.322266 -3.4228516Q-14.294922 -3.4228516 -14.719727 -2.6318359Q-15.144531 -1.8408203 -15.144531 -0.030273438Q-15.144531 1.7275391 -14.713867 2.5419922Q-14.283203 3.3564453 -13.345703 3.3564453Q-12.414062 3.3564453 -11.980469 2.5244141Q-11.546875 1.6923828 -11.546875 -0.030273438ZM-8.9101562 4.1005859L-8.9101562 2.8173828L-7.7675781 2.8173828L-7.7675781 4.1005859L-8.9101562 4.1005859ZM-0.6015625 -3.2998047Q-1.8671875 -1.3662109 -2.3886719 -0.27050781Q-2.9101562 0.82519531 -3.1708984 1.8916016Q-3.4316406 2.9580078 -3.4316406 4.1005859L-4.5332031 4.1005859Q-4.5332031 2.5185547 -3.8623047 0.76953125Q-3.1914062 -0.97949219 -1.6210938 -3.2587891L-6.0566406 -3.2587891L-6.0566406 -4.1552734L-0.6015625 -4.1552734L-0.6015625 -3.2998047Z"/>
	</g>
	<clipPath id="cl_1ee">
		<rect width="53.080002" height="800"/>
	</clipPath>
	<g clip-path="url(#cl_1ee)">
		<path fill="#666" transform="translate(42.08 179.44)" d="M-10.474609 -0.030273438Q-10.474609 2.0380859 -11.204102 3.1279297Q-11.933594 4.2177734 -13.357422 4.2177734Q-14.78125 4.2177734 -15.496094 3.1337891Q-16.210938 2.0498047 -16.210938 -0.030273438Q-16.210938 -2.1572266 -15.516602 -3.2177734Q-14.822266 -4.2783203 -13.322266 -4.2783203Q-11.863281 -4.2783203 -11.168945 -3.2060547Q-10.474609 -2.1337891 -10.474609 -0.030273438ZM-11.546875 -0.030273438Q-11.546875 -1.8173828 -11.959961 -2.6201172Q-12.373047 -3.4228516 -13.322266 -3.4228516Q-14.294922 -3.4228516 -14.719727 -2.6318359Q-15.144531 -1.8408203 -15.144531 -0.030273438Q-15.144531 1.7275391 -14.713867 2.5419922Q-14.283203 3.3564453 -13.345703 3.3564453Q-12.414062 3.3564453 -11.980469 2.5244141Q-11.546875 1.6923828 -11.546875 -0.030273438ZM-8.9101562 4.1005859L-8.9101562 2.8173828L-7.7675781 2.8173828L-7.7675781 4.1005859L-8.9101562 4.1005859ZM-0.51953125 1.7978516Q-0.51953125 2.9404297 -1.2460938 3.5791016Q-1.9726562 4.2177734 -3.3320312 4.2177734Q-4.65625 4.2177734 -5.4033203 3.5908203Q-6.1503906 2.9638672 -6.1503906 1.8095703Q-6.1503906 1.0009766 -5.6875 0.45019531Q-5.2246094 -0.10058594 -4.5039062 -0.21777344L-4.5039062 -0.24121094Q-5.1777344 -0.39941406 -5.5673828 -0.92675781Q-5.9570312 -1.4541016 -5.9570312 -2.1630859Q-5.9570312 -3.1064453 -5.2509766 -3.6923828Q-4.5449219 -4.2783203 -3.3554688 -4.2783203Q-2.1367188 -4.2783203 -1.4306641 -3.7041016Q-0.72460938 -3.1298828 -0.72460938 -2.1513672Q-0.72460938 -1.4423828 -1.1171875 -0.91503906Q-1.5097656 -0.38769531 -2.1894531 -0.25292969L-2.1894531 -0.22949219Q-1.3984375 -0.10058594 -0.95898438 0.44140625Q-0.51953125 0.98339844 -0.51953125 1.7978516ZM-1.8203125 -2.0927734Q-1.8203125 -3.4931641 -3.3554688 -3.4931641Q-4.0996094 -3.4931641 -4.4892578 -3.1416016Q-4.8789062 -2.7900391 -4.8789062 -2.0927734Q-4.8789062 -1.3837891 -4.4775391 -1.0117188Q-4.0761719 -0.63964844 -3.34375 -0.63964844Q-2.5996094 -0.63964844 -2.2099609 -0.98242188Q-1.8203125 -1.3251953 -1.8203125 -2.0927734ZM-1.6152344 1.6982422Q-1.6152344 0.93066406 -2.0722656 0.54101562Q-2.5292969 0.15136719 -3.3554688 0.15136719Q-4.1582031 0.15136719 -4.609375 0.5703125Q-5.0605469 0.98925781 -5.0605469 1.7216797Q-5.0605469 3.4267578 -3.3203125 3.4267578Q-2.4589844 3.4267578 -2.0371094 3.0136719Q-1.6152344 2.6005859 -1.6152344 1.6982422Z"/>
	</g>
	<clipPath id="cl_1ef">
		<rect width="53.080002" height="800"/>
	</clipPath>
	<g clip-path="url(#cl_1ef)">
		<path fill="#666" transform="translate(42.08 106.92)" d="M-10.474609 -0.030273438Q-10.474609 2.0380859 -11.204102 3.1279297Q-11.933594 4.2177734 -13.357422 4.2177734Q-14.78125 4.2177734 -15.496094 3.1337891Q-16.210938 2.0498047 -16.210938 -0.030273438Q-16.210938 -2.1572266 -15.516602 -3.2177734Q-14.822266 -4.2783203 -13.322266 -4.2783203Q-11.863281 -4.2783203 -11.168945 -3.2060547Q-10.474609 -2.1337891 -10.474609 -0.030273438ZM-11.546875 -0.030273438Q-11.546875 -1.8173828 -11.959961 -2.6201172Q-12.373047 -3.4228516 -13.322266 -3.4228516Q-14.294922 -3.4228516 -14.719727 -2.6318359Q-15.144531 -1.8408203 -15.144531 -0.030273438Q-15.144531 1.7275391 -14.713867 2.5419922Q-14.283203 3.3564453 -13.345703 3.3564453Q-12.414062 3.3564453 -11.980469 2.5244141Q-11.546875 1.6923828 -11.546875 -0.030273438ZM-8.9101562 4.1005859L-8.9101562 2.8173828L-7.7675781 2.8173828L-7.7675781 4.1005859L-8.9101562 4.1005859ZM-0.56640625 -0.19433594Q-0.56640625 1.9326172 -1.3427734 3.0751953Q-2.1191406 4.2177734 -3.5546875 4.2177734Q-4.5214844 4.2177734 -5.1044922 3.8105469Q-5.6875 3.4033203 -5.9394531 2.4951172L-4.9316406 2.3369141Q-4.6152344 3.3681641 -3.5371094 3.3681641Q-2.6289062 3.3681641 -2.1308594 2.5244141Q-1.6328125 1.6806641 -1.609375 0.11621094Q-1.84375 0.64355469 -2.4121094 0.96289062Q-2.9804688 1.2822266 -3.6601562 1.2822266Q-4.7734375 1.2822266 -5.4414062 0.52050781Q-6.109375 -0.24121094 -6.109375 -1.5009766Q-6.109375 -2.7958984 -5.3828125 -3.5371094Q-4.65625 -4.2783203 -3.3613281 -4.2783203Q-1.984375 -4.2783203 -1.2753906 -3.2587891Q-0.56640625 -2.2392578 -0.56640625 -0.19433594ZM-1.7148438 -1.2138672Q-1.7148438 -2.2099609 -2.171875 -2.8164062Q-2.6289062 -3.4228516 -3.3964844 -3.4228516Q-4.1582031 -3.4228516 -4.5976562 -2.9042969Q-5.0371094 -2.3857422 -5.0371094 -1.5009766Q-5.0371094 -0.59863281 -4.5976562 -0.07421875Q-4.1582031 0.45019531 -3.4082031 0.45019531Q-2.9511719 0.45019531 -2.5585938 0.2421875Q-2.1660156 0.034179688 -1.9404297 -0.34667969Q-1.7148438 -0.72753906 -1.7148438 -1.2138672Z"/>
	</g>
	<clipPath id="cl_1f0">
		<rect width="53.080002" height="800"/>
	</clipPath>
	<g clip-path="url(#cl_1f0)">
		<path fill="#666" transform="translate(42.08 34.4)" d="M-15.765625 4.1005859L-15.765625 3.2041016L-13.662109 3.2041016L-13.662109 -3.1474609L-15.525391 -1.8173828L-15.525391 -2.8134766L-13.574219 -4.1552734L-12.601562 -4.1552734L-12.601562 3.2041016L-10.591797 3.2041016L-10.591797 4.1005859L-15.765625 4.1005859ZM-8.9101562 4.1005859L-8.9101562 2.8173828L-7.7675781 2.8173828L-7.7675781 4.1005859L-8.9101562 4.1005859ZM-0.46679688 -0.030273438Q-0.46679688 2.0380859 -1.1962891 3.1279297Q-1.9257812 4.2177734 -3.3496094 4.2177734Q-4.7734375 4.2177734 -5.4882812 3.1337891Q-6.203125 2.0498047 -6.203125 -0.030273438Q-6.203125 -2.1572266 -5.5087891 -3.2177734Q-4.8144531 -4.2783203 -3.3144531 -4.2783203Q-1.8554688 -4.2783203 -1.1611328 -3.2060547Q-0.46679688 -2.1337891 -0.46679688 -0.030273438ZM-1.5390625 -0.030273438Q-1.5390625 -1.8173828 -1.9521484 -2.6201172Q-2.3652344 -3.4228516 -3.3144531 -3.4228516Q-4.2871094 -3.4228516 -4.7119141 -2.6318359Q-5.1367188 -1.8408203 -5.1367188 -0.030273438Q-5.1367188 1.7275391 -4.7060547 2.5419922Q-4.2753906 3.3564453 -3.3378906 3.3564453Q-2.40625 3.3564453 -1.9726562 2.5244141Q-1.5390625 1.6923828 -1.5390625 -0.030273438Z"/>
	</g>
</svg>
