<?xml version="1.0" encoding="utf-8" ?>
<svg xmlns="http://www.w3.org/2000/svg" xmlns:xlink="http://www.w3.org/1999/xlink" width="1000" height="800">
	<rect fill="white" width="1000" height="800"/>
	<path fill="#666" transform="translate(526.54 778.8)" d="M-9.1318665 4.1005859L-9.1318665 -1.4072266Q-9.1318665 -2.3212891 -9.0791321 -3.1650391Q-9.3662415 -2.1162109 -9.5947571 -1.5244141L-11.72757 4.1005859L-12.512726 4.1005859L-14.674835 -1.5244141L-15.00296 -2.5205078L-15.19632 -3.1650391L-15.178741 -2.5146484L-15.155304 -1.4072266L-15.155304 4.1005859L-16.151398 4.1005859L-16.151398 -4.1552734L-14.680695 -4.1552734L-12.483429 1.5693359Q-12.366241 1.9150391 -12.257843 2.3105469Q-12.149445 2.7060547 -12.114288 2.8818359Q-12.067413 2.6474609 -11.917999 2.1699219Q-11.768585 1.6923828 -11.715851 1.5693359L-9.5596008 -4.1552734L-8.124054 -4.1552734L-8.124054 4.1005859L-9.1318665 4.1005859ZM-0.96975708 0.92480469Q-0.96975708 2.5888672 -1.702179 3.4033203Q-2.4346008 4.2177734 -3.8291321 4.2177734Q-5.217804 4.2177734 -5.9267883 3.3710938Q-6.6357727 2.5244141 -6.6357727 0.92480469Q-6.6357727 -2.3564453 -3.7939758 -2.3564453Q-2.3408508 -2.3564453 -1.655304 -1.5566406Q-0.96975708 -0.75683594 -0.96975708 0.92480469ZM-2.077179 0.92480469Q-2.077179 -0.38769531 -2.4668274 -0.98242188Q-2.8564758 -1.5771484 -3.7763977 -1.5771484Q-4.702179 -1.5771484 -5.1152649 -0.97070312Q-5.5283508 -0.36425781 -5.5283508 0.92480469Q-5.5283508 2.1787109 -5.1211243 2.8085938Q-4.7138977 3.4384766 -3.8408508 3.4384766Q-2.8916321 3.4384766 -2.4844055 2.8291016Q-2.077179 2.2197266 -2.077179 0.92480469ZM4.3681335 4.1005859L4.3681335 0.081054688Q4.3681335 -0.54589844 4.2450867 -0.89160156Q4.1220398 -1.2373047 3.8525085 -1.3896484Q3.5829773 -1.5419922 3.0614929 -1.5419922Q2.2997742 -1.5419922 1.860321 -1.0205078Q1.4208679 -0.49902344 1.4208679 0.42675781L1.4208679 4.1005859L0.36618042 4.1005859L0.36618042 -0.88574219Q0.36618042 -1.9931641 0.33102417 -2.2392578L1.3271179 -2.2392578Q1.3329773 -2.2099609 1.3388367 -2.0810547Q1.344696 -1.9521484 1.3534851 -1.7851562Q1.3622742 -1.6181641 1.3739929 -1.1552734L1.391571 -1.1552734Q1.7548523 -1.8115234 2.2323914 -2.0839844Q2.7099304 -2.3564453 3.4189148 -2.3564453Q4.4618835 -2.3564453 4.945282 -1.8378906Q5.4286804 -1.3193359 5.4286804 -0.12402344L5.4286804 4.1005859L4.3681335 4.1005859ZM9.454071 4.0537109Q8.9325867 4.1943359 8.3876648 4.1943359Q7.1220398 4.1943359 7.1220398 2.7587891L7.1220398 -1.4716797L6.3896179 -1.4716797L6.3896179 -2.2392578L7.1630554 -2.2392578L7.4736023 -3.6572266L8.1767273 -3.6572266L8.1767273 -2.2392578L9.3486023 -2.2392578L9.3486023 -1.4716797L8.1767273 -1.4716797L8.1767273 2.5302734Q8.1767273 2.9873047 8.3261414 3.171875Q8.4755554 3.3564453 8.844696 3.3564453Q9.0556335 3.3564453 9.454071 3.2744141L9.454071 4.0537109ZM11.399384 -1.1552734Q11.739227 -1.7763672 12.216766 -2.0664062Q12.694305 -2.3564453 13.426727 -2.3564453Q14.457977 -2.3564453 14.947235 -1.84375Q15.436493 -1.3310547 15.436493 -0.12402344L15.436493 4.1005859L14.375946 4.1005859L14.375946 0.081054688Q14.375946 -0.58691406 14.252899 -0.91210938Q14.129852 -1.2373047 13.848602 -1.3896484Q13.567352 -1.5419922 13.069305 -1.5419922Q12.325165 -1.5419922 11.876923 -1.0263672Q11.42868 -0.51074219 11.42868 0.36230469L11.42868 4.1005859L10.373993 4.1005859L10.373993 -4.5947266L11.42868 -4.5947266L11.42868 -2.3330078Q11.42868 -1.9755859 11.408173 -1.5947266Q11.387665 -1.2138672 11.381805 -1.1552734L11.399384 -1.1552734Z"/>
	<path fill="none" stroke="black" stroke-width="1" stroke-miterlimit="10" stroke-opacity="0.10196079" d="M54 759.5L1000 759.5"/>
	<path fill="none" stroke="black" stroke-width="1" stroke-miterlimit="10" stroke-opacity="0.10196079" d="M45.080002 759.5L53 759.5"/>
	<path fill="none" stroke="black" stroke-width="1" stroke-miterlimit="10" stroke-opacity="0.10196079" d="M54 687.5L1000 687.5"/>
	<path fill="none" stroke="black" stroke-width="1" stroke-miterlimit="10" stroke-opacity="0.10196079" d="M45.080002 687.5L53 687.5"/>
	<path fill="none" stroke="black" stroke-width="1" stroke-miterlimit="10" stroke-opacity="0.10196079" d="M54 614.5L1000 614.5"/>
	<path fill="none" stroke="black" stroke-width="1" stroke-miterlimit="10" stroke-opacity="0.10196079" d="M45.080002 614.5L53 614.5"/>
	<path fill="none" stroke="black" stroke-width="1" stroke-miterlimit="10" stroke-opacity="0.10196079" d="M54 542.5L1000 542.5"/>
	<path fill="none" stroke="black" stroke-width="1" stroke-miterlimit="10" stroke-opacity="0.10196079" d="M45.080002 542.5L53 542.5"/>
	<path fill="none" stroke="black" stroke-width="1" stroke-miterlimit="10" stroke-opacity="0.10196079" d="M54 469.5L1000 469.5"/>
	<path fill="none" stroke="black" stroke-width="1" stroke-miterlimit="10" stroke-opacity="0.10196079" d="M45.080002 469.5L53 469.5"/>
	<path fill="none" stroke="black" stroke-width="1" stroke-miterlimit="10" stroke-opacity="0.10196079" d="M54 397.5L1000 397.5"/>
	<path fill="none" stroke="black" stroke-width="1" stroke-miterlimit="10" stroke-opacity="0.10196079" d="M45.080002 397.5L53 397.5"/>
	<path fill="none" stroke="black" stroke-width="1" stroke-miterlimit="10" stroke-opacity="0.10196079" d="M54 324.5L1000 324.5"/>
	<path fill="none" stroke="black" stroke-width="1" stroke-miterlimit="10" stroke-opacity="0.10196079" d="M45.080002 324.5L53 324.5"/>
	<path fill="none" stroke="black" stroke-width="1" stroke-miterlimit="10" stroke-opacity="0.10196079" d="M54 251.5L1000 251.5"/>
	<path fill="none" stroke="black" stroke-width="1" stroke-miterlimit="10" stroke-opacity="0.10196079" d="M45.080002 251.5L53 251.5"/>
	<path fill="none" stroke="black" stroke-width="1" stroke-miterlimit="10" stroke-opacity="0.10196079" d="M54 179.5L1000 179.5"/>
	<path fill="none" stroke="black" stroke-width="1" stroke-miterlimit="10" stroke-opacity="0.10196079" d="M45.080002 179.5L53 179.5"/>
	<path fill="none" stroke="black" stroke-width="1" stroke-miterlimit="10" stroke-opacity="0.10196079" d="M54 106.5L1000 106.5"/>
	<path fill="none" stroke="black" stroke-width="1" stroke-miterlimit="10" stroke-opacity="0.10196079" d="M45.080002 106.5L53 106.5"/>
	<path fill="none" stroke="black" stroke-width="1" stroke-miterlimit="10" stroke-opacity="0.10196079" d="M54 34.5L1000 34.5"/>
	<path fill="none" stroke="black" stroke-width="1" stroke-miterlimit="10" stroke-opacity="0.10196079" d="M45.080002 34.5L53 34.5"/>
	<path fill="#666" transform="matrix(0 -1 1 0 11.2 397)" d="M-21.591797 -0.11230469Q-21.591797 1.1650391 -22.089844 2.1230469Q-22.587891 3.0810547 -23.501953 3.5908203Q-24.416016 4.1005859 -25.611328 4.1005859L-28.699219 4.1005859L-28.699219 -4.1552734L-25.96875 -4.1552734Q-23.871094 -4.1552734 -22.731445 -3.1035156Q-21.591797 -2.0517578 -21.591797 -0.11230469ZM-22.716797 -0.11230469Q-22.716797 -1.6474609 -23.557617 -2.453125Q-24.398438 -3.2587891 -25.992188 -3.2587891L-27.580078 -3.2587891L-27.580078 3.2041016L-25.740234 3.2041016Q-24.832031 3.2041016 -24.143555 2.8056641Q-23.455078 2.4072266 -23.085938 1.6572266Q-22.716797 0.90722656 -22.716797 -0.11230469ZM-14.847656 0.92480469Q-14.847656 2.5888672 -15.580078 3.4033203Q-16.3125 4.2177734 -17.707031 4.2177734Q-19.095703 4.2177734 -19.804688 3.3710938Q-20.513672 2.5244141 -20.513672 0.92480469Q-20.513672 -2.3564453 -17.671875 -2.3564453Q-16.21875 -2.3564453 -15.533203 -1.5566406Q-14.847656 -0.75683594 -14.847656 0.92480469ZM-15.955078 0.92480469Q-15.955078 -0.38769531 -16.344727 -0.98242188Q-16.734375 -1.5771484 -17.654297 -1.5771484Q-18.580078 -1.5771484 -18.993164 -0.97070312Q-19.40625 -0.36425781 -19.40625 0.92480469Q-19.40625 2.1787109 -18.999023 2.8085938Q-18.591797 3.4384766 -17.71875 3.4384766Q-16.769531 3.4384766 -16.362305 2.8291016Q-15.955078 2.2197266 -15.955078 0.92480469ZM-7.4648438 4.1005859L-8.6894531 4.1005859L-9.796875 -0.38183594L-10.007812 -1.3720703Q-10.060547 -1.1083984 -10.171875 -0.61328125Q-10.283203 -0.11816406 -11.367188 4.1005859L-12.585938 4.1005859L-14.361328 -2.2392578L-13.318359 -2.2392578L-12.246094 2.0673828Q-12.205078 2.2080078 -11.994141 3.2275391L-11.894531 2.7939453L-10.570312 -2.2392578L-9.4394531 -2.2392578L-8.3320312 2.1142578L-8.0625 3.2275391L-7.8808594 2.4130859L-6.6796875 -2.2392578L-5.6484375 -2.2392578L-7.4648438 4.1005859ZM-0.84375 4.1005859L-0.84375 0.081054688Q-0.84375 -0.54589844 -0.96679688 -0.89160156Q-1.0898438 -1.2373047 -1.359375 -1.3896484Q-1.6289062 -1.5419922 -2.1503906 -1.5419922Q-2.9121094 -1.5419922 -3.3515625 -1.0205078Q-3.7910156 -0.49902344 -3.7910156 0.42675781L-3.7910156 4.1005859L-4.8457031 4.1005859L-4.8457031 -0.88574219Q-4.8457031 -1.9931641 -4.8808594 -2.2392578L-3.8847656 -2.2392578Q-3.8789062 -2.2099609 -3.8730469 -2.0810547Q-3.8671875 -1.9521484 -3.8583984 -1.7851562Q-3.8496094 -1.6181641 -3.8378906 -1.1552734L-3.8203125 -1.1552734Q-3.4570312 -1.8115234 -2.9794922 -2.0839844Q-2.5019531 -2.3564453 -1.7929688 -2.3564453Q-0.75 -2.3564453 -0.26660156 -1.8378906Q0.21679688 -1.3193359 0.21679688 -0.12402344L0.21679688 4.1005859L-0.84375 4.1005859ZM1.8046875 4.1005859L1.8046875 -4.5947266L2.859375 -4.5947266L2.859375 4.1005859L1.8046875 4.1005859ZM9.8320312 0.92480469Q9.8320312 2.5888672 9.0996094 3.4033203Q8.3671875 4.2177734 6.9726562 4.2177734Q5.5839844 4.2177734 4.875 3.3710938Q4.1660156 2.5244141 4.1660156 0.92480469Q4.1660156 -2.3564453 7.0078125 -2.3564453Q8.4609375 -2.3564453 9.1464844 -1.5566406Q9.8320312 -0.75683594 9.8320312 0.92480469ZM8.7246094 0.92480469Q8.7246094 -0.38769531 8.3349609 -0.98242188Q7.9453125 -1.5771484 7.0253906 -1.5771484Q6.0996094 -1.5771484 5.6865234 -0.97070312Q5.2734375 -0.36425781 5.2734375 0.92480469Q5.2734375 2.1787109 5.6806641 2.8085938Q6.0878906 3.4384766 6.9609375 3.4384766Q7.9101562 3.4384766 8.3173828 2.8291016Q8.7246094 2.2197266 8.7246094 0.92480469ZM12.761719 4.2177734Q11.806641 4.2177734 11.326172 3.7138672Q10.845703 3.2099609 10.845703 2.3310547Q10.845703 1.3466797 11.493164 0.81933594Q12.140625 0.29199219 13.582031 0.25683594L15.005859 0.23339844L15.005859 -0.11230469Q15.005859 -0.88574219 14.677734 -1.2197266Q14.349609 -1.5537109 13.646484 -1.5537109Q12.9375 -1.5537109 12.615234 -1.3134766Q12.292969 -1.0732422 12.228516 -0.54589844L11.126953 -0.64550781Q11.396484 -2.3564453 13.669922 -2.3564453Q14.865234 -2.3564453 15.46875 -1.8085938Q16.072266 -1.2607422 16.072266 -0.22363281L16.072266 2.5068359Q16.072266 2.9755859 16.195312 3.2128906Q16.318359 3.4501953 16.664062 3.4501953Q16.816406 3.4501953 17.009766 3.4091797L17.009766 4.0654297Q16.611328 4.1591797 16.195312 4.1591797Q15.609375 4.1591797 15.342773 3.8515625Q15.076172 3.5439453 15.041016 2.8876953L15.005859 2.8876953Q14.601562 3.6142578 14.06543 3.9160156Q13.529297 4.2177734 12.761719 4.2177734ZM13.001953 3.4267578Q13.582031 3.4267578 14.033203 3.1630859Q14.484375 2.8994141 14.745117 2.4394531Q15.005859 1.9794922 15.005859 1.4931641L15.005859 0.97167969L13.851562 0.99511719Q13.107422 1.0068359 12.723633 1.1474609Q12.339844 1.2880859 12.134766 1.5810547Q11.929688 1.8740234 11.929688 2.3486328Q11.929688 2.8642578 12.208008 3.1455078Q12.486328 3.4267578 13.001953 3.4267578ZM21.820312 3.0810547Q21.527344 3.6904297 21.043945 3.9541016Q20.560547 4.2177734 19.845703 4.2177734Q18.644531 4.2177734 18.079102 3.4091797Q17.513672 2.6005859 17.513672 0.95996094Q17.513672 -2.3564453 19.845703 -2.3564453Q20.566406 -2.3564453 21.046875 -2.0927734Q21.527344 -1.8291016 21.820312 -1.2548828L21.832031 -1.2548828L21.820312 -1.9638672L21.820312 -4.5947266L22.875 -4.5947266L22.875 2.7939453Q22.875 3.7841797 22.910156 4.1005859L21.902344 4.1005859Q21.884766 4.0068359 21.864258 3.6669922Q21.84375 3.3271484 21.84375 3.0810547L21.820312 3.0810547ZM18.621094 0.92480469Q18.621094 2.2548828 18.972656 2.8291016Q19.324219 3.4033203 20.115234 3.4033203Q21.011719 3.4033203 21.416016 2.7822266Q21.820312 2.1611328 21.820312 0.85449219Q21.820312 -0.40527344 21.416016 -0.99121094Q21.011719 -1.5771484 20.126953 -1.5771484Q19.330078 -1.5771484 18.975586 -0.98828125Q18.621094 -0.39941406 18.621094 0.92480469ZM29.25 2.3486328Q29.25 3.2451172 28.573242 3.7314453Q27.896484 4.2177734 26.677734 4.2177734Q25.494141 4.2177734 24.852539 3.828125Q24.210938 3.4384766 24.017578 2.6123047L24.949219 2.4306641Q25.083984 2.9404297 25.505859 3.1777344Q25.927734 3.4150391 26.677734 3.4150391Q27.480469 3.4150391 27.852539 3.1689453Q28.224609 2.9228516 28.224609 2.4306641Q28.224609 2.0556641 27.966797 1.8212891Q27.708984 1.5869141 27.134766 1.4345703L26.378906 1.2353516Q25.470703 1.0009766 25.086914 0.77539062Q24.703125 0.54980469 24.486328 0.22753906Q24.269531 -0.094726562 24.269531 -0.56347656Q24.269531 -1.4306641 24.887695 -1.8847656Q25.505859 -2.3388672 26.689453 -2.3388672Q27.738281 -2.3388672 28.356445 -1.9697266Q28.974609 -1.6005859 29.138672 -0.78613281L28.189453 -0.66894531Q28.101562 -1.0908203 27.717773 -1.3164062Q27.333984 -1.5419922 26.689453 -1.5419922Q25.974609 -1.5419922 25.634766 -1.3251953Q25.294922 -1.1083984 25.294922 -0.66894531Q25.294922 -0.39941406 25.435547 -0.22363281Q25.576172 -0.047851562 25.851562 0.075195312Q26.126953 0.19824219 27.011719 0.41503906Q27.849609 0.62597656 28.21875 0.8046875Q28.587891 0.98339844 28.801758 1.2001953Q29.015625 1.4169922 29.132812 1.7011719Q29.25 1.9853516 29.25 2.3486328Z"/>
	<path fill="#666" transform="translate(500 17.2)" d="M-70.491211 2.2490234Q-70.491211 3.1689453 -71.244141 3.6933594Q-71.99707 4.2177734 -73.327148 4.2177734Q-74.633789 4.2177734 -75.328125 3.8046875Q-76.022461 3.3916016 -76.250977 2.5185547L-74.803711 2.3017578Q-74.680664 2.7529297 -74.378906 2.9404297Q-74.077148 3.1279297 -73.327148 3.1279297Q-72.635742 3.1279297 -72.319336 2.9521484Q-72.00293 2.7763672 -72.00293 2.4013672Q-72.00293 2.0966797 -72.257812 1.9179688Q-72.512695 1.7392578 -73.12207 1.6162109Q-74.516602 1.3408203 -75.00293 1.1035156Q-75.489258 0.86621094 -75.744141 0.48828125Q-75.999023 0.11035156 -75.999023 -0.44042969Q-75.999023 -1.3486328 -75.298828 -1.8554688Q-74.598633 -2.3623047 -73.31543 -2.3623047Q-72.18457 -2.3623047 -71.496094 -1.9228516Q-70.807617 -1.4833984 -70.637695 -0.65136719L-72.09668 -0.49902344Q-72.166992 -0.88574219 -72.442383 -1.0761719Q-72.717773 -1.2666016 -73.31543 -1.2666016Q-73.901367 -1.2666016 -74.194336 -1.1171875Q-74.487305 -0.96777344 -74.487305 -0.61621094Q-74.487305 -0.34082031 -74.261719 -0.1796875Q-74.036133 -0.018554688 -73.50293 0.086914062Q-72.758789 0.23925781 -72.181641 0.40039062Q-71.604492 0.56152344 -71.255859 0.78417969Q-70.907227 1.0068359 -70.699219 1.3554688Q-70.491211 1.7041016 -70.491211 2.2490234ZM-67.696289 4.2177734Q-68.616211 4.2177734 -69.131836 3.7167969Q-69.647461 3.2158203 -69.647461 2.3076172Q-69.647461 1.3232422 -69.005859 0.80761719Q-68.364258 0.29199219 -67.145508 0.28027344L-65.780273 0.25683594L-65.780273 -0.065429688Q-65.780273 -0.68652344 -65.99707 -0.98828125Q-66.213867 -1.2900391 -66.706055 -1.2900391Q-67.163086 -1.2900391 -67.376953 -1.0820312Q-67.59082 -0.87402344 -67.643555 -0.39355469L-69.360352 -0.47558594Q-69.202148 -1.4013672 -68.513672 -1.8789062Q-67.825195 -2.3564453 -66.635742 -2.3564453Q-65.43457 -2.3564453 -64.78418 -1.7646484Q-64.133789 -1.1728516 -64.133789 -0.083007812L-64.133789 2.2255859Q-64.133789 2.7587891 -64.013672 2.9609375Q-63.893555 3.1630859 -63.612305 3.1630859Q-63.424805 3.1630859 -63.249023 3.1279297L-63.249023 4.0185547Q-63.395508 4.0537109 -63.512695 4.0830078Q-63.629883 4.1123047 -63.74707 4.1298828Q-63.864258 4.1474609 -63.996094 4.1591797Q-64.12793 4.1708984 -64.303711 4.1708984Q-64.924805 4.1708984 -65.220703 3.8662109Q-65.516602 3.5615234 -65.575195 2.9697266L-65.610352 2.9697266Q-66.301758 4.2177734 -67.696289 4.2177734ZM-65.780273 1.1650391L-66.624023 1.1767578Q-67.198242 1.2001953 -67.438477 1.3027344Q-67.678711 1.4052734 -67.804688 1.6162109Q-67.930664 1.8271484 -67.930664 2.1787109Q-67.930664 2.6298828 -67.722656 2.8496094Q-67.514648 3.0693359 -67.168945 3.0693359Q-66.782227 3.0693359 -66.462891 2.8583984Q-66.143555 2.6474609 -65.961914 2.2753906Q-65.780273 1.9033203 -65.780273 1.4873047L-65.780273 1.1650391ZM-62.487305 -3.3818359L-62.487305 -4.5947266L-60.84082 -4.5947266L-60.84082 -3.3818359L-62.487305 -3.3818359ZM-62.487305 4.1005859L-62.487305 -2.2392578L-60.84082 -2.2392578L-60.84082 4.1005859L-62.487305 4.1005859ZM-59.15332 4.1005859L-59.15332 -4.5947266L-57.506836 -4.5947266L-57.506836 4.1005859L-59.15332 4.1005859ZM-49.819336 0.90136719Q-49.819336 2.4892578 -50.455078 3.3535156Q-51.09082 4.2177734 -52.250977 4.2177734Q-52.918945 4.2177734 -53.414062 3.9277344Q-53.90918 3.6376953 -54.172852 3.0927734L-54.208008 3.0927734Q-54.172852 3.2685547 -54.172852 4.1591797L-54.172852 6.5908203L-55.819336 6.5908203L-55.819336 -0.78027344Q-55.819336 -1.6767578 -55.866211 -2.2392578L-54.266602 -2.2392578Q-54.237305 -2.1337891 -54.216797 -1.8232422Q-54.196289 -1.5126953 -54.196289 -1.2080078L-54.172852 -1.2080078Q-53.616211 -2.3740234 -52.145508 -2.3740234Q-51.038086 -2.3740234 -50.428711 -1.5214844Q-49.819336 -0.66894531 -49.819336 0.90136719ZM-51.536133 0.90136719Q-51.536133 -1.2314453 -52.842773 -1.2314453Q-53.499023 -1.2314453 -53.847656 -0.65722656Q-54.196289 -0.083007812 -54.196289 0.94824219Q-54.196289 1.9736328 -53.847656 2.5332031Q-53.499023 3.0927734 -52.854492 3.0927734Q-51.536133 3.0927734 -51.536133 0.90136719ZM-42.46582 0.92480469Q-42.46582 2.4658203 -43.321289 3.3417969Q-44.176758 4.2177734 -45.688477 4.2177734Q-47.170898 4.2177734 -48.014648 3.3388672Q-48.858398 2.4599609 -48.858398 0.92480469Q-48.858398 -0.60449219 -48.014648 -1.4804688Q-47.170898 -2.3564453 -45.65332 -2.3564453Q-44.100586 -2.3564453 -43.283203 -1.5097656Q-42.46582 -0.66308594 -42.46582 0.92480469ZM-44.188477 0.92480469Q-44.188477 -0.20605469 -44.557617 -0.71582031Q-44.926758 -1.2255859 -45.629883 -1.2255859Q-47.129883 -1.2255859 -47.129883 0.92480469Q-47.129883 1.9853516 -46.763672 2.5390625Q-46.397461 3.0927734 -45.706055 3.0927734Q-44.188477 3.0927734 -44.188477 0.92480469ZM-41.15918 -3.3818359L-41.15918 -4.5947266L-39.512695 -4.5947266L-39.512695 -3.3818359L-41.15918 -3.3818359ZM-41.15918 4.1005859L-41.15918 -2.2392578L-39.512695 -2.2392578L-39.512695 4.1005859L-41.15918 4.1005859ZM-33.717773 4.1005859L-33.717773 0.54394531Q-33.717773 -1.1259766 -34.848633 -1.1259766Q-35.446289 -1.1259766 -35.8125 -0.61328125Q-36.178711 -0.10058594 -36.178711 0.70214844L-36.178711 4.1005859L-37.825195 4.1005859L-37.825195 -0.82128906Q-37.825195 -1.3310547 -37.839844 -1.65625Q-37.854492 -1.9814453 -37.87207 -2.2392578L-36.301758 -2.2392578Q-36.28418 -2.1279297 -36.254883 -1.6445312Q-36.225586 -1.1611328 -36.225586 -0.97949219L-36.202148 -0.97949219Q-35.868164 -1.7060547 -35.364258 -2.0341797Q-34.860352 -2.3623047 -34.163086 -2.3623047Q-33.155273 -2.3623047 -32.616211 -1.7412109Q-32.077148 -1.1201172 -32.077148 0.075195312L-32.077148 4.1005859L-33.717773 4.1005859ZM-28.87207 4.2060547Q-29.598633 4.2060547 -29.991211 3.8105469Q-30.383789 3.4150391 -30.383789 2.6123047L-30.383789 -1.1259766L-31.186523 -1.1259766L-31.186523 -2.2392578L-30.301758 -2.2392578L-29.786133 -3.7275391L-28.754883 -3.7275391L-28.754883 -2.2392578L-27.553711 -2.2392578L-27.553711 -1.1259766L-28.754883 -1.1259766L-28.754883 2.1669922Q-28.754883 2.6298828 -28.579102 2.8496094Q-28.40332 3.0693359 -28.03418 3.0693359Q-27.84082 3.0693359 -27.483398 2.9873047L-27.483398 4.0068359Q-28.092773 4.2060547 -28.87207 4.2060547ZM-19.057617 4.1005859Q-19.081055 4.0126953 -19.113281 3.6582031Q-19.145508 3.3037109 -19.145508 3.0693359L-19.168945 3.0693359Q-19.702148 4.2177734 -21.196289 4.2177734Q-22.303711 4.2177734 -22.907227 3.3535156Q-23.510742 2.4892578 -23.510742 0.93652344Q-23.510742 -0.63964844 -22.875 -1.4980469Q-22.239258 -2.3564453 -21.073242 -2.3564453Q-20.399414 -2.3564453 -19.910156 -2.0751953Q-19.420898 -1.7939453 -19.157227 -1.2373047L-19.145508 -1.2373047L-19.157227 -2.2802734L-19.157227 -4.5947266L-17.510742 -4.5947266L-17.510742 2.7177734Q-17.510742 3.3037109 -17.463867 4.1005859L-19.057617 4.1005859ZM-19.133789 0.89550781Q-19.133789 -0.12988281 -19.476562 -0.68359375Q-19.819336 -1.2373047 -20.487305 -1.2373047Q-21.149414 -1.2373047 -21.47168 -0.70117188Q-21.793945 -0.16503906 -21.793945 0.93652344Q-21.793945 3.0927734 -20.499023 3.0927734Q-19.848633 3.0927734 -19.491211 2.5214844Q-19.133789 1.9501953 -19.133789 0.89550781ZM-9.8115234 0.92480469Q-9.8115234 2.4658203 -10.666992 3.3417969Q-11.522461 4.2177734 -13.03418 4.2177734Q-14.516602 4.2177734 -15.360352 3.3388672Q-16.204102 2.4599609 -16.204102 0.92480469Q-16.204102 -0.60449219 -15.360352 -1.4804688Q-14.516602 -2.3564453 -12.999023 -2.3564453Q-11.446289 -2.3564453 -10.628906 -1.5097656Q-9.8115234 -0.66308594 -9.8115234 0.92480469ZM-11.53418 0.92480469Q-11.53418 -0.20605469 -11.90332 -0.71582031Q-12.272461 -1.2255859 -12.975586 -1.2255859Q-14.475586 -1.2255859 -14.475586 0.92480469Q-14.475586 1.9853516 -14.109375 2.5390625Q-13.743164 3.0927734 -13.051758 3.0927734Q-11.53418 3.0927734 -11.53418 0.92480469ZM-1.6494141 4.1005859L-3.3896484 4.1005859L-4.3974609 0.23339844Q-4.4677734 -0.030273438 -4.6728516 -1.0673828L-4.9775391 0.24511719L-5.9970703 4.1005859L-7.7373047 4.1005859L-9.3779297 -2.2392578L-7.8310547 -2.2392578L-6.7880859 2.6064453L-6.7060547 2.1728516L-6.5595703 1.4873047L-5.5634766 -2.2392578L-3.7998047 -2.2392578L-2.8271484 1.4873047Q-2.7451172 1.7919922 -2.5869141 2.6064453L-2.4228516 1.8330078L-1.5087891 -2.2392578L0.014648438 -2.2392578L-1.6494141 4.1005859ZM4.9365234 4.1005859L4.9365234 0.54394531Q4.9365234 -1.1259766 3.8056641 -1.1259766Q3.2080078 -1.1259766 2.8417969 -0.61328125Q2.4755859 -0.10058594 2.4755859 0.70214844L2.4755859 4.1005859L0.82910156 4.1005859L0.82910156 -0.82128906Q0.82910156 -1.3310547 0.81445312 -1.65625Q0.79980469 -1.9814453 0.78222656 -2.2392578L2.3525391 -2.2392578Q2.3701172 -2.1279297 2.3994141 -1.6445312Q2.4287109 -1.1611328 2.4287109 -0.97949219L2.4521484 -0.97949219Q2.7861328 -1.7060547 3.2900391 -2.0341797Q3.7939453 -2.3623047 4.4912109 -2.3623047Q5.4990234 -2.3623047 6.0380859 -1.7412109Q6.5771484 -1.1201172 6.5771484 0.075195312L6.5771484 4.1005859L4.9365234 4.1005859ZM8.1591797 4.1005859L8.1591797 -4.5947266L9.8056641 -4.5947266L9.8056641 4.1005859L8.1591797 4.1005859ZM17.516602 0.92480469Q17.516602 2.4658203 16.661133 3.3417969Q15.805664 4.2177734 14.293945 4.2177734Q12.811523 4.2177734 11.967773 3.3388672Q11.124023 2.4599609 11.124023 0.92480469Q11.124023 -0.60449219 11.967773 -1.4804688Q12.811523 -2.3564453 14.329102 -2.3564453Q15.881836 -2.3564453 16.699219 -1.5097656Q17.516602 -0.66308594 17.516602 0.92480469ZM15.793945 0.92480469Q15.793945 -0.20605469 15.424805 -0.71582031Q15.055664 -1.2255859 14.352539 -1.2255859Q12.852539 -1.2255859 12.852539 0.92480469Q12.852539 1.9853516 13.21875 2.5390625Q13.584961 3.0927734 14.276367 3.0927734Q15.793945 3.0927734 15.793945 0.92480469ZM20.288086 4.2177734Q19.368164 4.2177734 18.852539 3.7167969Q18.336914 3.2158203 18.336914 2.3076172Q18.336914 1.3232422 18.978516 0.80761719Q19.620117 0.29199219 20.838867 0.28027344L22.204102 0.25683594L22.204102 -0.065429688Q22.204102 -0.68652344 21.987305 -0.98828125Q21.770508 -1.2900391 21.27832 -1.2900391Q20.821289 -1.2900391 20.607422 -1.0820312Q20.393555 -0.87402344 20.34082 -0.39355469L18.624023 -0.47558594Q18.782227 -1.4013672 19.470703 -1.8789062Q20.15918 -2.3564453 21.348633 -2.3564453Q22.549805 -2.3564453 23.200195 -1.7646484Q23.850586 -1.1728516 23.850586 -0.083007812L23.850586 2.2255859Q23.850586 2.7587891 23.970703 2.9609375Q24.09082 3.1630859 24.37207 3.1630859Q24.55957 3.1630859 24.735352 3.1279297L24.735352 4.0185547Q24.588867 4.0537109 24.47168 4.0830078Q24.354492 4.1123047 24.237305 4.1298828Q24.120117 4.1474609 23.988281 4.1591797Q23.856445 4.1708984 23.680664 4.1708984Q23.05957 4.1708984 22.763672 3.8662109Q22.467773 3.5615234 22.40918 2.9697266L22.374023 2.9697266Q21.682617 4.2177734 20.288086 4.2177734ZM22.204102 1.1650391L21.360352 1.1767578Q20.786133 1.2001953 20.545898 1.3027344Q20.305664 1.4052734 20.179688 1.6162109Q20.053711 1.8271484 20.053711 2.1787109Q20.053711 2.6298828 20.261719 2.8496094Q20.469727 3.0693359 20.81543 3.0693359Q21.202148 3.0693359 21.521484 2.8583984Q21.84082 2.6474609 22.022461 2.2753906Q22.204102 1.9033203 22.204102 1.4873047L22.204102 1.1650391ZM29.604492 4.1005859Q29.581055 4.0126953 29.548828 3.6582031Q29.516602 3.3037109 29.516602 3.0693359L29.493164 3.0693359Q28.959961 4.2177734 27.46582 4.2177734Q26.358398 4.2177734 25.754883 3.3535156Q25.151367 2.4892578 25.151367 0.93652344Q25.151367 -0.63964844 25.787109 -1.4980469Q26.422852 -2.3564453 27.588867 -2.3564453Q28.262695 -2.3564453 28.751953 -2.0751953Q29.241211 -1.7939453 29.504883 -1.2373047L29.516602 -1.2373047L29.504883 -2.2802734L29.504883 -4.5947266L31.151367 -4.5947266L31.151367 2.7177734Q31.151367 3.3037109 31.198242 4.1005859L29.604492 4.1005859ZM29.52832 0.89550781Q29.52832 -0.12988281 29.185547 -0.68359375Q28.842773 -1.2373047 28.174805 -1.2373047Q27.512695 -1.2373047 27.19043 -0.70117188Q26.868164 -0.16503906 26.868164 0.93652344Q26.868164 3.0927734 28.163086 3.0927734Q28.813477 3.0927734 29.170898 2.5214844Q29.52832 1.9501953 29.52832 0.89550781ZM38.170898 2.2490234Q38.170898 3.1689453 37.417969 3.6933594Q36.665039 4.2177734 35.334961 4.2177734Q34.02832 4.2177734 33.333984 3.8046875Q32.639648 3.3916016 32.411133 2.5185547L33.858398 2.3017578Q33.981445 2.7529297 34.283203 2.9404297Q34.584961 3.1279297 35.334961 3.1279297Q36.026367 3.1279297 36.342773 2.9521484Q36.65918 2.7763672 36.65918 2.4013672Q36.65918 2.0966797 36.404297 1.9179688Q36.149414 1.7392578 35.540039 1.6162109Q34.145508 1.3408203 33.65918 1.1035156Q33.172852 0.86621094 32.917969 0.48828125Q32.663086 0.11035156 32.663086 -0.44042969Q32.663086 -1.3486328 33.363281 -1.8554688Q34.063477 -2.3623047 35.34668 -2.3623047Q36.477539 -2.3623047 37.166016 -1.9228516Q37.854492 -1.4833984 38.024414 -0.65136719L36.56543 -0.49902344Q36.495117 -0.88574219 36.219727 -1.0761719Q35.944336 -1.2666016 35.34668 -1.2666016Q34.760742 -1.2666016 34.467773 -1.1171875Q34.174805 -0.96777344 34.174805 -0.61621094Q34.174805 -0.34082031 34.400391 -0.1796875Q34.625977 -0.018554688 35.15918 0.086914062Q35.90332 0.23925781 36.480469 0.40039062Q37.057617 0.56152344 37.40625 0.78417969Q37.754883 1.0068359 37.962891 1.3554688Q38.170898 1.7041016 38.170898 2.2490234ZM48.834961 0.90722656Q48.834961 2.4775391 48.205078 3.3476562Q47.575195 4.2177734 46.40332 4.2177734Q45.729492 4.2177734 45.237305 3.9248047Q44.745117 3.6318359 44.481445 3.0810547L44.469727 3.0810547Q44.469727 3.2861328 44.443359 3.6435547Q44.416992 4.0009766 44.387695 4.1005859L42.788086 4.1005859Q42.834961 3.5556641 42.834961 2.6533203L42.834961 -4.5947266L44.481445 -4.5947266L44.481445 -2.1689453L44.458008 -1.1376953L44.481445 -1.1376953Q45.038086 -2.3564453 46.508789 -2.3564453Q47.633789 -2.3564453 48.234375 -1.5039062Q48.834961 -0.65136719 48.834961 0.90722656ZM47.118164 0.90722656Q47.118164 -0.17089844 46.801758 -0.69238281Q46.485352 -1.2138672 45.823242 -1.2138672Q45.155273 -1.2138672 44.806641 -0.65429688Q44.458008 -0.094726562 44.458008 0.95996094Q44.458008 1.9677734 44.800781 2.5302734Q45.143555 3.0927734 45.811523 3.0927734Q47.118164 3.0927734 47.118164 0.90722656ZM50.985352 6.5908203Q50.393555 6.5908203 49.948242 6.5146484L49.948242 5.3427734Q50.258789 5.3896484 50.516602 5.3896484Q50.868164 5.3896484 51.099609 5.2783203Q51.331055 5.1669922 51.515625 4.9091797Q51.700195 4.6513672 51.928711 4.0361328L49.420898 -2.2392578L51.161133 -2.2392578L52.157227 0.73144531Q52.391602 1.3701172 52.749023 2.6884766L52.895508 2.1318359L53.276367 0.75488281L54.213867 -2.2392578L55.936523 -2.2392578L53.428711 4.4345703Q52.924805 5.6533203 52.382812 6.1220703Q51.84082 6.5908203 50.985352 6.5908203ZM68.165039 -0.065429688Q68.165039 1.2236328 67.655273 2.2021484Q67.145508 3.1806641 66.196289 3.6992188Q65.24707 4.2177734 63.981445 4.2177734Q62.036133 4.2177734 60.931641 3.0722656Q59.827148 1.9267578 59.827148 -0.065429688Q59.827148 -2.0517578 60.928711 -3.1650391Q62.030273 -4.2783203 63.993164 -4.2783203Q65.956055 -4.2783203 67.060547 -3.1533203Q68.165039 -2.0283203 68.165039 -0.065429688ZM66.401367 -0.065429688Q66.401367 -1.4013672 65.768555 -2.1601562Q65.135742 -2.9189453 63.993164 -2.9189453Q62.833008 -2.9189453 62.200195 -2.1660156Q61.567383 -1.4130859 61.567383 -0.065429688Q61.567383 1.2939453 62.214844 2.0761719Q62.862305 2.8583984 63.981445 2.8583984Q65.141602 2.8583984 65.771484 2.0966797Q66.401367 1.3349609 66.401367 -0.065429688ZM76.204102 1.7216797Q76.204102 2.9345703 75.304688 3.5761719Q74.405273 4.2177734 72.665039 4.2177734Q71.077148 4.2177734 70.174805 3.6552734Q69.272461 3.0927734 69.014648 1.9501953L70.68457 1.6748047Q70.854492 2.3310547 71.34668 2.6269531Q71.838867 2.9228516 72.711914 2.9228516Q74.522461 2.9228516 74.522461 1.8212891Q74.522461 1.4697266 74.314453 1.2412109Q74.106445 1.0126953 73.728516 0.86035156Q73.350586 0.70800781 72.27832 0.49121094Q71.352539 0.27441406 70.989258 0.14257812Q70.625977 0.010742188 70.333008 -0.16796875Q70.040039 -0.34667969 69.834961 -0.59863281Q69.629883 -0.85058594 69.515625 -1.1904297Q69.401367 -1.5302734 69.401367 -1.9697266Q69.401367 -3.0888672 70.242188 -3.6835938Q71.083008 -4.2783203 72.688477 -4.2783203Q74.223633 -4.2783203 74.994141 -3.7978516Q75.764648 -3.3173828 75.987305 -2.2099609L74.311523 -1.9814453Q74.182617 -2.5146484 73.787109 -2.7841797Q73.391602 -3.0537109 72.65332 -3.0537109Q71.083008 -3.0537109 71.083008 -2.0693359Q71.083008 -1.7470703 71.25 -1.5419922Q71.416992 -1.3369141 71.745117 -1.1933594Q72.073242 -1.0498047 73.075195 -0.83300781Q74.264648 -0.58105469 74.777344 -0.3671875Q75.290039 -0.15332031 75.588867 0.13085938Q75.887695 0.41503906 76.045898 0.81054688Q76.204102 1.2060547 76.204102 1.7216797Z"/>
	<path fill="none" stroke="black" stroke-width="1" stroke-miterlimit="10" stroke-opacity="0.10196079" d="M53 759.5L1001 759.5"/>
	<path fill="none" stroke="black" stroke-width="1" stroke-miterlimit="10" stroke-opacity="0.10196079" d="M53.5 34L53.5 760"/>
	<clipPath id="cl_201">
		<rect width="53.080002" height="800"/>
	</clipPath>
	<g clip-path="url(#cl_201)">
		<path fill="#666" transform="translate(42.08 759.6)" d="M-0.46679688 -0.030273438Q-0.46679688 2.0380859 -1.1962891 3.1279297Q-1.9257812 4.2177734 -3.3496094 4.2177734Q-4.7734375 4.2177734 -5.4882812 3.1337891Q-6.203125 2.0498047 -6.203125 -0.030273438Q-6.203125 -2.1572266 -5.5087891 -3.2177734Q-4.8144531 -4.2783203 -3.3144531 -4.2783203Q-1.8554688 -4.2783203 -1.1611328 -3.2060547Q-0.46679688 -2.1337891 -0.46679688 -0.030273438ZM-1.5390625 -0.030273438Q-1.5390625 -1.8173828 -1.9521484 -2.6201172Q-2.3652344 -3.4228516 -3.3144531 -3.4228516Q-4.2871094 -3.4228516 -4.7119141 -2.6318359Q-5.1367188 -1.8408203 -5.1367188 -0.030273438Q-5.1367188 1.7275391 -4.7060547 2.5419922Q-4.2753906 3.3564453 -3.3378906 3.3564453Q-2.40625 3.3564453 -1.9726562 2.5244141Q-1.5390625 1.6923828 -1.5390625 -0.030273438Z"/>
	</g>
	<clipPath id="cl_202">
		<rect width="53.080002" height="800"/>
	</clipPath>
	<g clip-path="url(#cl_202)">
		<path fill="#666" transform="translate(42.08 687.08)" d="M-10.474609 -0.030273438Q-10.474609 2.0380859 -11.204102 3.1279297Q-11.933594 4.2177734 -13.357422 4.2177734Q-14.78125 4.2177734 -15.496094 3.1337891Q-16.210938 2.0498047 -16.210938 -0.030273438Q-16.210938 -2.1572266 -15.516602 -3.2177734Q-14.822266 -4.2783203 -13.322266 -4.2783203Q-11.863281 -4.2783203 -11.168945 -3.2060547Q-10.474609 -2.1337891 -10.474609 -0.030273438ZM-11.546875 -0.030273438Q-11.546875 -1.8173828 -11.959961 -2.6201172Q-12.373047 -3.4228516 -13.322266 -3.4228516Q-14.294922 -3.4228516 -14.719727 -2.6318359Q-15.144531 -1.8408203 -15.144531 -0.030273438Q-15.144531 1.7275391 -14.713867 2.5419922Q-14.283203 3.3564453 -13.345703 3.3564453Q-12.414062 3.3564453 -11.980469 2.5244141Q-11.546875 1.6923828 -11.546875 -0.030273438ZM-8.9101562 4.1005859L-8.9101562 2.8173828L-7.7675781 2.8173828L-7.7675781 4.1005859L-8.9101562 4.1005859ZM-5.7578125 4.1005859L-5.7578125 3.2041016L-3.6542969 3.2041016L-3.6542969 -3.1474609L-5.5175781 -1.8173828L-5.5175781 -2.8134766L-3.5664062 -4.1552734L-2.59375 -4.1552734L-2.59375 3.2041016L-0.58398438 3.2041016L-0.58398438 4.1005859L-5.7578125 4.1005859Z"/>
	</g>
	<clipPath id="cl_203">
		<rect width="53.080002" height="800"/>
	</clipPath>
	<g clip-path="url(#cl_203)">
		<path fill="#666" transform="translate(42.08 614.56)" d="M-10.474609 -0.030273438Q-10.474609 2.0380859 -11.204102 3.1279297Q-11.933594 4.2177734 -13.357422 4.2177734Q-14.78125 4.2177734 -15.496094 3.1337891Q-16.210938 2.0498047 -16.210938 -0.030273438Q-16.210938 -2.1572266 -15.516602 -3.2177734Q-14.822266 -4.2783203 -13.322266 -4.2783203Q-11.863281 -4.2783203 -11.168945 -3.2060547Q-10.474609 -2.1337891 -10.474609 -0.030273438ZM-11.546875 -0.030273438Q-11.546875 -1.8173828 -11.959961 -2.6201172Q-12.373047 -3.4228516 -13.322266 -3.4228516Q-14.294922 -3.4228516 -14.719727 -2.6318359Q-15.144531 -1.8408203 -15.144531 -0.030273438Q-15.144531 1.7275391 -14.713867 2.5419922Q-14.283203 3.3564453 -13.345703 3.3564453Q-12.414062 3.3564453 -11.980469 2.5244141Q-11.546875 1.6923828 -11.546875 -0.030273438ZM-8.9101562 4.1005859L-8.9101562 2.8173828L-7.7675781 2.8173828L-7.7675781 4.1005859L-8.9101562 4.1005859ZM-6.0683594 4.1005859L-6.0683594 3.3564453Q-5.7695312 2.6708984 -5.3388672 2.1464844Q-4.9082031 1.6220703 -4.4335938 1.1972656Q-3.9589844 0.77246094 -3.4931641 0.40917969Q-3.0273438 0.045898438 -2.6523438 -0.31738281Q-2.2773438 -0.68066406 -2.0458984 -1.0791016Q-1.8144531 -1.4775391 -1.8144531 -1.9814453Q-1.8144531 -2.6611328 -2.2128906 -3.0361328Q-2.6113281 -3.4111328 -3.3203125 -3.4111328Q-3.9941406 -3.4111328 -4.4306641 -3.0449219Q-4.8671875 -2.6787109 -4.9433594 -2.0166016L-6.0214844 -2.1162109Q-5.9042969 -3.1064453 -5.1806641 -3.6923828Q-4.4570312 -4.2783203 -3.3203125 -4.2783203Q-2.0722656 -4.2783203 -1.4013672 -3.6894531Q-0.73046875 -3.1005859 -0.73046875 -2.0166016Q-0.73046875 -1.5361328 -0.95019531 -1.0615234Q-1.1699219 -0.58691406 -1.6035156 -0.11230469Q-2.0371094 0.36230469 -3.2617188 1.3583984Q-3.9355469 1.9091797 -4.3339844 2.3515625Q-4.7324219 2.7939453 -4.9082031 3.2041016L-0.6015625 3.2041016L-0.6015625 4.1005859L-6.0683594 4.1005859Z"/>
	</g>
	<clipPath id="cl_204">
		<rect width="53.080002" height="800"/>
	</clipPath>
	<g clip-path="url(#cl_204)">
		<path fill="#666" transform="translate(42.08 542.04)" d="M-10.474609 -0.030273438Q-10.474609 2.0380859 -11.204102 3.1279297Q-11.933594 4.2177734 -13.357422 4.2177734Q-14.78125 4.2177734 -15.496094 3.1337891Q-16.210938 2.0498047 -16.210938 -0.030273438Q-16.210938 -2.1572266 -15.516602 -3.2177734Q-14.822266 -4.2783203 -13.322266 -4.2783203Q-11.863281 -4.2783203 -11.168945 -3.2060547Q-10.474609 -2.1337891 -10.474609 -0.030273438ZM-11.546875 -0.030273438Q-11.546875 -1.8173828 -11.959961 -2.6201172Q-12.373047 -3.4228516 -13.322266 -3.4228516Q-14.294922 -3.4228516 -14.719727 -2.6318359Q-15.144531 -1.8408203 -15.144531 -0.030273438Q-15.144531 1.7275391 -14.713867 2.5419922Q-14.283203 3.3564453 -13.345703 3.3564453Q-12.414062 3.3564453 -11.980469 2.5244141Q-11.546875 1.6923828 -11.546875 -0.030273438ZM-8.9101562 4.1005859L-8.9101562 2.8173828L-7.7675781 2.8173828L-7.7675781 4.1005859L-8.9101562 4.1005859ZM-0.52539062 1.8212891Q-0.52539062 2.9638672 -1.2519531 3.5908203Q-1.9785156 4.2177734 -3.3261719 4.2177734Q-4.5800781 4.2177734 -5.3271484 3.6523438Q-6.0742188 3.0869141 -6.2148438 1.9794922L-5.125 1.8798828Q-4.9140625 3.3447266 -3.3261719 3.3447266Q-2.5292969 3.3447266 -2.0751953 2.9521484Q-1.6210938 2.5595703 -1.6210938 1.7861328Q-1.6210938 1.1123047 -2.1396484 0.734375Q-2.6582031 0.35644531 -3.6367188 0.35644531L-4.234375 0.35644531L-4.234375 -0.55761719L-3.6601562 -0.55761719Q-2.7929688 -0.55761719 -2.3154297 -0.93554688Q-1.8378906 -1.3134766 -1.8378906 -1.9814453Q-1.8378906 -2.6435547 -2.2275391 -3.0273438Q-2.6171875 -3.4111328 -3.3847656 -3.4111328Q-4.0820312 -3.4111328 -4.5126953 -3.0537109Q-4.9433594 -2.6962891 -5.0136719 -2.0458984L-6.0742188 -2.1279297Q-5.9570312 -3.1416016 -5.2333984 -3.7099609Q-4.5097656 -4.2783203 -3.3730469 -4.2783203Q-2.1308594 -4.2783203 -1.4423828 -3.7011719Q-0.75390625 -3.1240234 -0.75390625 -2.0927734Q-0.75390625 -1.3017578 -1.1962891 -0.80664062Q-1.6386719 -0.31152344 -2.4824219 -0.13574219L-2.4824219 -0.11230469Q-1.5566406 -0.012695312 -1.0410156 0.50878906Q-0.52539062 1.0302734 -0.52539062 1.8212891Z"/>
	</g>
	<clipPath id="cl_205">
		<rect width="53.080002" height="800"/>
	</clipPath>
	<g clip-path="url(#cl_205)">
		<path fill="#666" transform="translate(42.08 469.52)" d="M-10.474609 -0.030273438Q-10.474609 2.0380859 -11.204102 3.1279297Q-11.933594 4.2177734 -13.357422 4.2177734Q-14.78125 4.2177734 -15.496094 3.1337891Q-16.210938 2.0498047 -16.210938 -0.030273438Q-16.210938 -2.1572266 -15.516602 -3.2177734Q-14.822266 -4.2783203 -13.322266 -4.2783203Q-11.863281 -4.2783203 -11.168945 -3.2060547Q-10.474609 -2.1337891 -10.474609 -0.030273438ZM-11.546875 -0.030273438Q-11.546875 -1.8173828 -11.959961 -2.6201172Q-12.373047 -3.4228516 -13.322266 -3.4228516Q-14.294922 -3.4228516 -14.719727 -2.6318359Q-15.144531 -1.8408203 -15.144531 -0.030273438Q-15.144531 1.7275391 -14.713867 2.5419922Q-14.283203 3.3564453 -13.345703 3.3564453Q-12.414062 3.3564453 -11.980469 2.5244141Q-11.546875 1.6923828 -11.546875 -0.030273438ZM-8.9101562 4.1005859L-8.9101562 2.8173828L-7.7675781 2.8173828L-7.7675781 4.1005859L-8.9101562 4.1005859ZM-1.5097656 2.2314453L-1.5097656 4.1005859L-2.5058594 4.1005859L-2.5058594 2.2314453L-6.3964844 2.2314453L-6.3964844 1.4111328L-2.6171875 -4.1552734L-1.5097656 -4.1552734L-1.5097656 1.3994141L-0.34960938 1.3994141L-0.34960938 2.2314453L-1.5097656 2.2314453ZM-2.5058594 -2.9658203Q-2.5175781 -2.9306641 -2.6699219 -2.6552734Q-2.8222656 -2.3798828 -2.8984375 -2.2685547L-5.0136719 0.84863281L-5.3300781 1.2822266L-5.4238281 1.3994141L-2.5058594 1.3994141L-2.5058594 -2.9658203Z"/>
	</g>
	<clipPath id="cl_206">
		<rect width="53.080002" height="800"/>
	</clipPath>
	<g clip-path="url(#cl_206)">
		<path fill="#666" transform="translate(42.08 397)" d="M-10.474609 -0.030273438Q-10.474609 2.0380859 -11.204102 3.1279297Q-11.933594 4.2177734 -13.357422 4.2177734Q-14.78125 4.2177734 -15.496094 3.1337891Q-16.210938 2.0498047 -16.210938 -0.030273438Q-16.210938 -2.1572266 -15.516602 -3.2177734Q-14.822266 -4.2783203 -13.322266 -4.2783203Q-11.863281 -4.2783203 -11.168945 -3.2060547Q-10.474609 -2.1337891 -10.474609 -0.030273438ZM-11.546875 -0.030273438Q-11.546875 -1.8173828 -11.959961 -2.6201172Q-12.373047 -3.4228516 -13.322266 -3.4228516Q-14.294922 -3.4228516 -14.719727 -2.6318359Q-15.144531 -1.8408203 -15.144531 -0.030273438Q-15.144531 1.7275391 -14.713867 2.5419922Q-14.283203 3.3564453 -13.345703 3.3564453Q-12.414062 3.3564453 -11.980469 2.5244141Q-11.546875 1.6923828 -11.546875 -0.030273438ZM-8.9101562 4.1005859L-8.9101562 2.8173828L-7.7675781 2.8173828L-7.7675781 4.1005859L-8.9101562 4.1005859ZM-0.50195312 1.4111328Q-0.50195312 2.7177734 -1.2783203 3.4677734Q-2.0546875 4.2177734 -3.4316406 4.2177734Q-4.5859375 4.2177734 -5.2949219 3.7138672Q-6.0039062 3.2099609 -6.1914062 2.2548828L-5.125 2.1318359Q-4.7910156 3.3564453 -3.4082031 3.3564453Q-2.5585938 3.3564453 -2.078125 2.84375Q-1.5976562 2.3310547 -1.5976562 1.4345703Q-1.5976562 0.65527344 -2.0810547 0.17480469Q-2.5644531 -0.30566406 -3.3847656 -0.30566406Q-3.8125 -0.30566406 -4.1816406 -0.17089844Q-4.5507812 -0.036132812 -4.9199219 0.28613281L-5.9511719 0.28613281L-5.6757812 -4.1552734L-0.98242188 -4.1552734L-0.98242188 -3.2587891L-4.7148438 -3.2587891L-4.8730469 -0.63964844Q-4.1875 -1.1669922 -3.1679688 -1.1669922Q-1.9492188 -1.1669922 -1.2255859 -0.45214844Q-0.50195312 0.26269531 -0.50195312 1.4111328Z"/>
	</g>
	<clipPath id="cl_207">
		<rect width="53.080002" height="800"/>
	</clipPath>
	<g clip-path="url(#cl_207)">
		<path fill="#666" transform="translate(42.08 324.48)" d="M-10.474609 -0.030273438Q-10.474609 2.0380859 -11.204102 3.1279297Q-11.933594 4.2177734 -13.357422 4.2177734Q-14.78125 4.2177734 -15.496094 3.1337891Q-16.210938 2.0498047 -16.210938 -0.030273438Q-16.210938 -2.1572266 -15.516602 -3.2177734Q-14.822266 -4.2783203 -13.322266 -4.2783203Q-11.863281 -4.2783203 -11.168945 -3.2060547Q-10.474609 -2.1337891 -10.474609 -0.030273438ZM-11.546875 -0.030273438Q-11.546875 -1.8173828 -11.959961 -2.6201172Q-12.373047 -3.4228516 -13.322266 -3.4228516Q-14.294922 -3.4228516 -14.719727 -2.6318359Q-15.144531 -1.8408203 -15.144531 -0.030273438Q-15.144531 1.7275391 -14.713867 2.5419922Q-14.283203 3.3564453 -13.345703 3.3564453Q-12.414062 3.3564453 -11.980469 2.5244141Q-11.546875 1.6923828 -11.546875 -0.030273438ZM-8.9101562 4.1005859L-8.9101562 2.8173828L-7.7675781 2.8173828L-7.7675781 4.1005859L-8.9101562 4.1005859ZM-0.52539062 1.3994141Q-0.52539062 2.7060547 -1.234375 3.4619141Q-1.9433594 4.2177734 -3.1914062 4.2177734Q-4.5859375 4.2177734 -5.3242188 3.1806641Q-6.0625 2.1435547 -6.0625 0.16308594Q-6.0625 -1.9814453 -5.2949219 -3.1298828Q-4.5273438 -4.2783203 -3.109375 -4.2783203Q-1.2402344 -4.2783203 -0.75390625 -2.5966797L-1.7617188 -2.4150391Q-2.0722656 -3.4228516 -3.1210938 -3.4228516Q-4.0234375 -3.4228516 -4.5185547 -2.5820312Q-5.0136719 -1.7412109 -5.0136719 -0.14746094Q-4.7265625 -0.68066406 -4.2050781 -0.95898438Q-3.6835938 -1.2373047 -3.0097656 -1.2373047Q-1.8671875 -1.2373047 -1.1962891 -0.52246094Q-0.52539062 0.19238281 -0.52539062 1.3994141ZM-1.5976562 1.4462891Q-1.5976562 0.54980469 -2.0371094 0.063476562Q-2.4765625 -0.42285156 -3.2617188 -0.42285156Q-4 -0.42285156 -4.4541016 0.0078125Q-4.9082031 0.43847656 -4.9082031 1.1943359Q-4.9082031 2.1494141 -4.4365234 2.7587891Q-3.9648438 3.3681641 -3.2265625 3.3681641Q-2.4648438 3.3681641 -2.03125 2.8554688Q-1.5976562 2.3427734 -1.5976562 1.4462891Z"/>
	</g>
	<clipPath id="cl_208">
		<rect width="53.080002" height="800"/>
	</clipPath>
	<g clip-path="url(#cl_208)">
		<path fill="#666" transform="translate(42.08 251.96)" d="M-10.474609 -0.030273438Q-10.474609 2.0380859 -11.204102 3.1279297Q-11.933594 4.2177734 -13.357422 4.2177734Q-14.78125 4.2177734 -15.496094 3.1337891Q-16.210938 2.0498047 -16.210938 -0.030273438Q-16.210938 -2.1572266 -15.516602 -3.2177734Q-14.822266 -4.2783203 -13.322266 -4.2783203Q-11.863281 -4.2783203 -11.168945 -3.2060547Q-10.474609 -2.1337891 -10.474609 -0.030273438ZM-11.546875 -0.030273438Q-11.546875 -1.8173828 -11.959961 -2.6201172Q-12.373047 -3.4228516 -13.322266 -3.4228516Q-14.294922 -3.4228516 -14.719727 -2.6318359Q-15.144531 -1.8408203 -15.144531 -0.030273438Q-15.144531 1.7275391 -14.713867 2.5419922Q-14.283203 3.3564453 -13.345703 3.3564453Q-12.414062 3.3564453 -11.980469 2.5244141Q-11.546875 1.6923828 -11.546875 -0.030273438ZM-8.9101562 4.1005859L-8.9101562 2.8173828L-7.7675781 2.8173828L-7.7675781 4.1005859L-8.9101562 4.1005859ZM-0.6015625 -3.2998047Q-1.8671875 -1.3662109 -2.3886719 -0.27050781Q-2.9101562 0.82519531 -3.1708984 1.8916016Q-3.4316406 2.9580078 -3.4316406 4.1005859L-4.5332031 4.1005859Q-4.5332031 2.5185547 -3.8623047 0.76953125Q-3.1914062 -0.97949219 -1.6210938 -3.2587891L-6.0566406 -3.2587891L-6.0566406 -4.1552734L-0.6015625 -4.1552734L-0.6015625 -3.2998047Z"/>
	</g>
	<clipPath id="cl_209">
		<rect width="53.080002" height="800"/>
	</clipPath>
	<g clip-path="url(#cl_209)">
		<path fill="#666" transform="translate(42.08 179.44)" d="M-10.474609 -0.030273438Q-10.474609 2.0380859 -11.204102 3.1279297Q-11.933594 4.2177734 -13.357422 4.2177734Q-14.78125 4.2177734 -15.496094 3.1337891Q-16.210938 2.0498047 -16.210938 -0.030273438Q-16.210938 -2.1572266 -15.516602 -3.2177734Q-14.822266 -4.2783203 -13.322266 -4.2783203Q-11.863281 -4.2783203 -11.168945 -3.2060547Q-10.474609 -2.1337891 -10.474609 -0.030273438ZM-11.546875 -0.030273438Q-11.546875 -1.8173828 -11.959961 -2.6201172Q-12.373047 -3.4228516 -13.322266 -3.4228516Q-14.294922 -3.4228516 -14.719727 -2.6318359Q-15.144531 -1.8408203 -15.144531 -0.030273438Q-15.144531 1.7275391 -14.713867 2.5419922Q-14.283203 3.3564453 -13.345703 3.3564453Q-12.414062 3.3564453 -11.980469 2.5244141Q-11.546875 1.6923828 -11.546875 -0.030273438ZM-8.9101562 4.1005859L-8.9101562 2.8173828L-7.7675781 2.8173828L-7.7675781 4.1005859L-8.9101562 4.1005859ZM-0.51953125 1.7978516Q-0.51953125 2.9404297 -1.2460938 3.5791016Q-1.9726562 4.2177734 -3.3320312 4.2177734Q-4.65625 4.2177734 -5.4033203 3.5908203Q-6.1503906 2.9638672 -6.1503906 1.8095703Q-6.1503906 1.0009766 -5.6875 0.45019531Q-5.2246094 -0.10058594 -4.5039062 -0.21777344L-4.5039062 -0.24121094Q-5.1777344 -0.39941406 -5.5673828 -0.92675781Q-5.9570312 -1.4541016 -5.9570312 -2.1630859Q-5.9570312 -3.1064453 -5.2509766 -3.6923828Q-4.5449219 -4.2783203 -3.3554688 -4.2783203Q-2.1367188 -4.2783203 -1.4306641 -3.7041016Q-0.72460938 -3.1298828 -0.72460938 -2.1513672Q-0.72460938 -1.4423828 -1.1171875 -0.91503906Q-1.5097656 -0.38769531 -2.1894531 -0.25292969L-2.1894531 -0.22949219Q-1.3984375 -0.10058594 -0.95898438 0.44140625Q-0.51953125 0.98339844 -0.51953125 1.7978516ZM-1.8203125 -2.0927734Q-1.8203125 -3.4931641 -3.3554688 -3.4931641Q-4.0996094 -3.4931641 -4.4892578 -3.1416016Q-4.8789062 -2.7900391 -4.8789062 -2.0927734Q-4.8789062 -1.3837891 -4.4775391 -1.0117188Q-4.0761719 -0.63964844 -3.34375 -0.63964844Q-2.5996094 -0.63964844 -2.2099609 -0.98242188Q-1.8203125 -1.3251953 -1.8203125 -2.0927734ZM-1.6152344 1.6982422Q-1.6152344 0.93066406 -2.0722656 0.54101562Q-2.5292969 0.15136719 -3.3554688 0.15136719Q-4.1582031 0.15136719 -4.609375 0.5703125Q-5.0605469 0.98925781 -5.0605469 1.7216797Q-5.0605469 3.4267578 -3.3203125 3.4267578Q-2.4589844 3.4267578 -2.0371094 3.0136719Q-1.6152344 2.6005859 -1.6152344 1.6982422Z"/>
	</g>
	<clipPath id="cl_20a">
		<rect width="53.080002" height="800"/>
	</clipPath>
	<g clip-path="url(#cl_20a)">
		<path fill="#666" transform="translate(42.08 106.92)" d="M-10.474609 -0.030273438Q-10.474609 2.0380859 -11.204102 3.1279297Q-11.933594 4.2177734 -13.357422 4.2177734Q-14.78125 4.2177734 -15.496094 3.1337891Q-16.210938 2.0498047 -16.210938 -0.030273438Q-16.210938 -2.1572266 -15.516602 -3.2177734Q-14.822266 -4.2783203 -13.322266 -4.2783203Q-11.863281 -4.2783203 -11.168945 -3.2060547Q-10.474609 -2.1337891 -10.474609 -0.030273438ZM-11.546875 -0.030273438Q-11.546875 -1.8173828 -11.959961 -2.6201172Q-12.373047 -3.4228516 -13.322266 -3.4228516Q-14.294922 -3.4228516 -14.719727 -2.6318359Q-15.144531 -1.8408203 -15.144531 -0.030273438Q-15.144531 1.7275391 -14.713867 2.5419922Q-14.283203 3.3564453 -13.345703 3.3564453Q-12.414062 3.3564453 -11.980469 2.5244141Q-11.546875 1.6923828 -11.546875 -0.030273438ZM-8.9101562 4.1005859L-8.9101562 2.8173828L-7.7675781 2.8173828L-7.7675781 4.1005859L-8.9101562 4.1005859ZM-0.56640625 -0.19433594Q-0.56640625 1.9326172 -1.3427734 3.0751953Q-2.1191406 4.2177734 -3.5546875 4.2177734Q-4.5214844 4.2177734 -5.1044922 3.8105469Q-5.6875 3.4033203 -5.9394531 2.4951172L-4.9316406 2.3369141Q-4.6152344 3.3681641 -3.5371094 3.3681641Q-2.6289062 3.3681641 -2.1308594 2.5244141Q-1.6328125 1.6806641 -1.609375 0.11621094Q-1.84375 0.64355469 -2.4121094 0.96289062Q-2.9804688 1.2822266 -3.6601562 1.2822266Q-4.7734375 1.2822266 -5.4414062 0.52050781Q-6.109375 -0.24121094 -6.109375 -1.5009766Q-6.109375 -2.7958984 -5.3828125 -3.5371094Q-4.65625 -4.2783203 -3.3613281 -4.2783203Q-1.984375 -4.2783203 -1.2753906 -3.2587891Q-0.56640625 -2.2392578 -0.56640625 -0.19433594ZM-1.7148438 -1.2138672Q-1.7148438 -2.2099609 -2.171875 -2.8164062Q-2.6289062 -3.4228516 -3.3964844 -3.4228516Q-4.1582031 -3.4228516 -4.5976562 -2.9042969Q-5.0371094 -2.3857422 -5.0371094 -1.5009766Q-5.0371094 -0.59863281 -4.5976562 -0.07421875Q-4.1582031 0.45019531 -3.4082031 0.45019531Q-2.9511719 0.45019531 -2.5585938 0.2421875Q-2.1660156 0.034179688 -1.9404297 -0.34667969Q-1.7148438 -0.72753906 -1.7148438 -1.2138672Z"/>
	</g>
	<clipPath id="cl_20b">
		<rect width="53.080002" height="800"/>
	</clipPath>
	<g clip-path="url(#cl_20b)">
		<path fill="#666" transform="translate(42.08 34.4)" d="M-15.765625 4.1005859L-15.765625 3.2041016L-13.662109 3.2041016L-13.662109 -3.1474609L-15.525391 -1.8173828L-15.525391 -2.8134766L-13.574219 -4.1552734L-12.601562 -4.1552734L-12.601562 3.2041016L-10.591797 3.2041016L-10.591797 4.1005859L-15.765625 4.1005859ZM-8.9101562 4.1005859L-8.9101562 2.8173828L-7.7675781 2.8173828L-7.7675781 4.1005859L-8.9101562 4.1005859ZM-0.46679688 -0.030273438Q-0.46679688 2.0380859 -1.1962891 3.1279297Q-1.9257812 4.2177734 -3.3496094 4.2177734Q-4.7734375 4.2177734 -5.4882812 3.1337891Q-6.203125 2.0498047 -6.203125 -0.030273438Q-6.203125 -2.1572266 -5.5087891 -3.2177734Q-4.8144531 -4.2783203 -3.3144531 -4.2783203Q-1.8554688 -4.2783203 -1.1611328 -3.2060547Q-0.46679688 -2.1337891 -0.46679688 -0.030273438ZM-1.5390625 -0.030273438Q-1.5390625 -1.8173828 -1.9521484 -2.6201172Q-2.3652344 -3.4228516 -3.3144531 -3.4228516Q-4.2871094 -3.4228516 -4.7119141 -2.6318359Q-5.1367188 -1.8408203 -5.1367188 -0.030273438Q-5.1367188 1.7275391 -4.7060547 2.5419922Q-4.2753906 3.3564453 -3.3378906 3.3564453Q-2.40625 3.3564453 -1.9726562 2.5244141Q-1.5390625 1.6923828 -1.5390625 -0.030273438Z"/>
	</g>
</svg>
