<?xml version="1.0" encoding="utf-8" ?>
<svg xmlns="http://www.w3.org/2000/svg" xmlns:xlink="http://www.w3.org/1999/xlink" width="1000" height="800">
	<rect fill="white" width="1000" height="800"/>
	<path fill="#666" transform="translate(526.54 756.8)" d="M-9.1318665 4.1005859L-9.1318665 -1.4072266Q-9.1318665 -2.3212891 -9.0791321 -3.1650391Q-9.3662415 -2.1162109 -9.5947571 -1.5244141L-11.72757 4.1005859L-12.512726 4.1005859L-14.674835 -1.5244141L-15.00296 -2.5205078L-15.19632 -3.1650391L-15.178741 -2.5146484L-15.155304 -1.4072266L-15.155304 4.1005859L-16.151398 4.1005859L-16.151398 -4.1552734L-14.680695 -4.1552734L-12.483429 1.5693359Q-12.366241 1.9150391 -12.257843 2.3105469Q-12.149445 2.7060547 -12.114288 2.8818359Q-12.067413 2.6474609 -11.917999 2.1699219Q-11.768585 1.6923828 -11.715851 1.5693359L-9.5596008 -4.1552734L-8.124054 -4.1552734L-8.124054 4.1005859L-9.1318665 4.1005859ZM-0.96975708 0.92480469Q-0.96975708 2.5888672 -1.702179 3.4033203Q-2.4346008 4.2177734 -3.8291321 4.2177734Q-5.217804 4.2177734 -5.9267883 3.3710938Q-6.6357727 2.5244141 -6.6357727 0.92480469Q-6.6357727 -2.3564453 -3.7939758 -2.3564453Q-2.3408508 -2.3564453 -1.655304 -1.5566406Q-0.96975708 -0.75683594 -0.96975708 0.92480469ZM-2.077179 0.92480469Q-2.077179 -0.38769531 -2.4668274 -0.98242188Q-2.8564758 -1.5771484 -3.7763977 -1.5771484Q-4.702179 -1.5771484 -5.1152649 -0.97070312Q-5.5283508 -0.36425781 -5.5283508 0.92480469Q-5.5283508 2.1787109 -5.1211243 2.8085938Q-4.7138977 3.4384766 -3.8408508 3.4384766Q-2.8916321 3.4384766 -2.4844055 2.8291016Q-2.077179 2.2197266 -2.077179 0.92480469ZM4.3681335 4.1005859L4.3681335 0.081054688Q4.3681335 -0.54589844 4.2450867 -0.89160156Q4.1220398 -1.2373047 3.8525085 -1.3896484Q3.5829773 -1.5419922 3.0614929 -1.5419922Q2.2997742 -1.5419922 1.860321 -1.0205078Q1.4208679 -0.49902344 1.4208679 0.42675781L1.4208679 4.1005859L0.36618042 4.1005859L0.36618042 -0.88574219Q0.36618042 -1.9931641 0.33102417 -2.2392578L1.3271179 -2.2392578Q1.3329773 -2.2099609 1.3388367 -2.0810547Q1.344696 -1.9521484 1.3534851 -1.7851562Q1.3622742 -1.6181641 1.3739929 -1.1552734L1.391571 -1.1552734Q1.7548523 -1.8115234 2.2323914 -2.0839844Q2.7099304 -2.3564453 3.4189148 -2.3564453Q4.4618835 -2.3564453 4.945282 -1.8378906Q5.4286804 -1.3193359 5.4286804 -0.12402344L5.4286804 4.1005859L4.3681335 4.1005859ZM9.454071 4.0537109Q8.9325867 4.1943359 8.3876648 4.1943359Q7.1220398 4.1943359 7.1220398 2.7587891L7.1220398 -1.4716797L6.3896179 -1.4716797L6.3896179 -2.2392578L7.1630554 -2.2392578L7.4736023 -3.6572266L8.1767273 -3.6572266L8.1767273 -2.2392578L9.3486023 -2.2392578L9.3486023 -1.4716797L8.1767273 -1.4716797L8.1767273 2.5302734Q8.1767273 2.9873047 8.3261414 3.171875Q8.4755554 3.3564453 8.844696 3.3564453Q9.0556335 3.3564453 9.454071 3.2744141L9.454071 4.0537109ZM11.399384 -1.1552734Q11.739227 -1.7763672 12.216766 -2.0664062Q12.694305 -2.3564453 13.426727 -2.3564453Q14.457977 -2.3564453 14.947235 -1.84375Q15.436493 -1.3310547 15.436493 -0.12402344L15.436493 4.1005859L14.375946 4.1005859L14.375946 0.081054688Q14.375946 -0.58691406 14.252899 -0.91210938Q14.129852 -1.2373047 13.848602 -1.3896484Q13.567352 -1.5419922 13.069305 -1.5419922Q12.325165 -1.5419922 11.876923 -1.0263672Q11.42868 -0.51074219 11.42868 0.36230469L11.42868 4.1005859L10.373993 4.1005859L10.373993 -4.5947266L11.42868 -4.5947266L11.42868 -2.3330078Q11.42868 -1.9755859 11.408173 -1.5947266Q11.387665 -1.2138672 11.381805 -1.1552734L11.399384 -1.1552734Z"/>
	<path fill="none" stroke="black" stroke-width="1" stroke-miterlimit="10" stroke-opacity="0.10196079" d="M54 737.5L1000 737.5"/>
	<path fill="none" stroke="black" stroke-width="1" stroke-miterlimit="10" stroke-opacity="0.10196079" d="M45.080002 737.5L53 737.5"/>
	<path fill="none" stroke="black" stroke-width="1" stroke-miterlimit="10" stroke-opacity="0.10196079" d="M54 667.5L1000 667.5"/>
	<path fill="none" stroke="black" stroke-width="1" stroke-miterlimit="10" stroke-opacity="0.10196079" d="M45.080002 667.5L53 667.5"/>
	<path fill="none" stroke="black" stroke-width="1" stroke-miterlimit="10" stroke-opacity="0.10196079" d="M54 596.5L1000 596.5"/>
	<path fill="none" stroke="black" stroke-width="1" stroke-miterlimit="10" stroke-opacity="0.10196079" d="M45.080002 596.5L53 596.5"/>
	<path fill="none" stroke="black" stroke-width="1" stroke-miterlimit="10" stroke-opacity="0.10196079" d="M54 526.5L1000 526.5"/>
	<path fill="none" stroke="black" stroke-width="1" stroke-miterlimit="10" stroke-opacity="0.10196079" d="M45.080002 526.5L53 526.5"/>
	<path fill="none" stroke="black" stroke-width="1" stroke-miterlimit="10" stroke-opacity="0.10196079" d="M54 456.5L1000 456.5"/>
	<path fill="none" stroke="black" stroke-width="1" stroke-miterlimit="10" stroke-opacity="0.10196079" d="M45.080002 456.5L53 456.5"/>
	<path fill="none" stroke="black" stroke-width="1" stroke-miterlimit="10" stroke-opacity="0.10196079" d="M54 386.5L1000 386.5"/>
	<path fill="none" stroke="black" stroke-width="1" stroke-miterlimit="10" stroke-opacity="0.10196079" d="M45.080002 386.5L53 386.5"/>
	<path fill="none" stroke="black" stroke-width="1" stroke-miterlimit="10" stroke-opacity="0.10196079" d="M54 315.5L1000 315.5"/>
	<path fill="none" stroke="black" stroke-width="1" stroke-miterlimit="10" stroke-opacity="0.10196079" d="M45.080002 315.5L53 315.5"/>
	<path fill="none" stroke="black" stroke-width="1" stroke-miterlimit="10" stroke-opacity="0.10196079" d="M54 245.5L1000 245.5"/>
	<path fill="none" stroke="black" stroke-width="1" stroke-miterlimit="10" stroke-opacity="0.10196079" d="M45.080002 245.5L53 245.5"/>
	<path fill="none" stroke="black" stroke-width="1" stroke-miterlimit="10" stroke-opacity="0.10196079" d="M54 175.5L1000 175.5"/>
	<path fill="none" stroke="black" stroke-width="1" stroke-miterlimit="10" stroke-opacity="0.10196079" d="M45.080002 175.5L53 175.5"/>
	<path fill="none" stroke="black" stroke-width="1" stroke-miterlimit="10" stroke-opacity="0.10196079" d="M54 104.5L1000 104.5"/>
	<path fill="none" stroke="black" stroke-width="1" stroke-miterlimit="10" stroke-opacity="0.10196079" d="M45.080002 104.5L53 104.5"/>
	<path fill="none" stroke="black" stroke-width="1" stroke-miterlimit="10" stroke-opacity="0.10196079" d="M54 34.5L1000 34.5"/>
	<path fill="none" stroke="black" stroke-width="1" stroke-miterlimit="10" stroke-opacity="0.10196079" d="M45.080002 34.5L53 34.5"/>
	<path fill="#666" transform="matrix(0 -1 1 0 11.2 386)" d="M-21.591797 -0.11230469Q-21.591797 1.1650391 -22.089844 2.1230469Q-22.587891 3.0810547 -23.501953 3.5908203Q-24.416016 4.1005859 -25.611328 4.1005859L-28.699219 4.1005859L-28.699219 -4.1552734L-25.96875 -4.1552734Q-23.871094 -4.1552734 -22.731445 -3.1035156Q-21.591797 -2.0517578 -21.591797 -0.11230469ZM-22.716797 -0.11230469Q-22.716797 -1.6474609 -23.557617 -2.453125Q-24.398438 -3.2587891 -25.992188 -3.2587891L-27.580078 -3.2587891L-27.580078 3.2041016L-25.740234 3.2041016Q-24.832031 3.2041016 -24.143555 2.8056641Q-23.455078 2.4072266 -23.085938 1.6572266Q-22.716797 0.90722656 -22.716797 -0.11230469ZM-14.847656 0.92480469Q-14.847656 2.5888672 -15.580078 3.4033203Q-16.3125 4.2177734 -17.707031 4.2177734Q-19.095703 4.2177734 -19.804688 3.3710938Q-20.513672 2.5244141 -20.513672 0.92480469Q-20.513672 -2.3564453 -17.671875 -2.3564453Q-16.21875 -2.3564453 -15.533203 -1.5566406Q-14.847656 -0.75683594 -14.847656 0.92480469ZM-15.955078 0.92480469Q-15.955078 -0.38769531 -16.344727 -0.98242188Q-16.734375 -1.5771484 -17.654297 -1.5771484Q-18.580078 -1.5771484 -18.993164 -0.97070312Q-19.40625 -0.36425781 -19.40625 0.92480469Q-19.40625 2.1787109 -18.999023 2.8085938Q-18.591797 3.4384766 -17.71875 3.4384766Q-16.769531 3.4384766 -16.362305 2.8291016Q-15.955078 2.2197266 -15.955078 0.92480469ZM-7.4648438 4.1005859L-8.6894531 4.1005859L-9.796875 -0.38183594L-10.007812 -1.3720703Q-10.060547 -1.1083984 -10.171875 -0.61328125Q-10.283203 -0.11816406 -11.367188 4.1005859L-12.585938 4.1005859L-14.361328 -2.2392578L-13.318359 -2.2392578L-12.246094 2.0673828Q-12.205078 2.2080078 -11.994141 3.2275391L-11.894531 2.7939453L-10.570312 -2.2392578L-9.4394531 -2.2392578L-8.3320312 2.1142578L-8.0625 3.2275391L-7.8808594 2.4130859L-6.6796875 -2.2392578L-5.6484375 -2.2392578L-7.4648438 4.1005859ZM-0.84375 4.1005859L-0.84375 0.081054688Q-0.84375 -0.54589844 -0.96679688 -0.89160156Q-1.0898438 -1.2373047 -1.359375 -1.3896484Q-1.6289062 -1.5419922 -2.1503906 -1.5419922Q-2.9121094 -1.5419922 -3.3515625 -1.0205078Q-3.7910156 -0.49902344 -3.7910156 0.42675781L-3.7910156 4.1005859L-4.8457031 4.1005859L-4.8457031 -0.88574219Q-4.8457031 -1.9931641 -4.8808594 -2.2392578L-3.8847656 -2.2392578Q-3.8789062 -2.2099609 -3.8730469 -2.0810547Q-3.8671875 -1.9521484 -3.8583984 -1.7851562Q-3.8496094 -1.6181641 -3.8378906 -1.1552734L-3.8203125 -1.1552734Q-3.4570312 -1.8115234 -2.9794922 -2.0839844Q-2.5019531 -2.3564453 -1.7929688 -2.3564453Q-0.75 -2.3564453 -0.26660156 -1.8378906Q0.21679688 -1.3193359 0.21679688 -0.12402344L0.21679688 4.1005859L-0.84375 4.1005859ZM1.8046875 4.1005859L1.8046875 -4.5947266L2.859375 -4.5947266L2.859375 4.1005859L1.8046875 4.1005859ZM9.8320312 0.92480469Q9.8320312 2.5888672 9.0996094 3.4033203Q8.3671875 4.2177734 6.9726562 4.2177734Q5.5839844 4.2177734 4.875 3.3710938Q4.1660156 2.5244141 4.1660156 0.92480469Q4.1660156 -2.3564453 7.0078125 -2.3564453Q8.4609375 -2.3564453 9.1464844 -1.5566406Q9.8320312 -0.75683594 9.8320312 0.92480469ZM8.7246094 0.92480469Q8.7246094 -0.38769531 8.3349609 -0.98242188Q7.9453125 -1.5771484 7.0253906 -1.5771484Q6.0996094 -1.5771484 5.6865234 -0.97070312Q5.2734375 -0.36425781 5.2734375 0.92480469Q5.2734375 2.1787109 5.6806641 2.8085938Q6.0878906 3.4384766 6.9609375 3.4384766Q7.9101562 3.4384766 8.3173828 2.8291016Q8.7246094 2.2197266 8.7246094 0.92480469ZM12.761719 4.2177734Q11.806641 4.2177734 11.326172 3.7138672Q10.845703 3.2099609 10.845703 2.3310547Q10.845703 1.3466797 11.493164 0.81933594Q12.140625 0.29199219 13.582031 0.25683594L15.005859 0.23339844L15.005859 -0.11230469Q15.005859 -0.88574219 14.677734 -1.2197266Q14.349609 -1.5537109 13.646484 -1.5537109Q12.9375 -1.5537109 12.615234 -1.3134766Q12.292969 -1.0732422 12.228516 -0.54589844L11.126953 -0.64550781Q11.396484 -2.3564453 13.669922 -2.3564453Q14.865234 -2.3564453 15.46875 -1.8085938Q16.072266 -1.2607422 16.072266 -0.22363281L16.072266 2.5068359Q16.072266 2.9755859 16.195312 3.2128906Q16.318359 3.4501953 16.664062 3.4501953Q16.816406 3.4501953 17.009766 3.4091797L17.009766 4.0654297Q16.611328 4.1591797 16.195312 4.1591797Q15.609375 4.1591797 15.342773 3.8515625Q15.076172 3.5439453 15.041016 2.8876953L15.005859 2.8876953Q14.601562 3.6142578 14.06543 3.9160156Q13.529297 4.2177734 12.761719 4.2177734ZM13.001953 3.4267578Q13.582031 3.4267578 14.033203 3.1630859Q14.484375 2.8994141 14.745117 2.4394531Q15.005859 1.9794922 15.005859 1.4931641L15.005859 0.97167969L13.851562 0.99511719Q13.107422 1.0068359 12.723633 1.1474609Q12.339844 1.2880859 12.134766 1.5810547Q11.929688 1.8740234 11.929688 2.3486328Q11.929688 2.8642578 12.208008 3.1455078Q12.486328 3.4267578 13.001953 3.4267578ZM21.820312 3.0810547Q21.527344 3.6904297 21.043945 3.9541016Q20.560547 4.2177734 19.845703 4.2177734Q18.644531 4.2177734 18.079102 3.4091797Q17.513672 2.6005859 17.513672 0.95996094Q17.513672 -2.3564453 19.845703 -2.3564453Q20.566406 -2.3564453 21.046875 -2.0927734Q21.527344 -1.8291016 21.820312 -1.2548828L21.832031 -1.2548828L21.820312 -1.9638672L21.820312 -4.5947266L22.875 -4.5947266L22.875 2.7939453Q22.875 3.7841797 22.910156 4.1005859L21.902344 4.1005859Q21.884766 4.0068359 21.864258 3.6669922Q21.84375 3.3271484 21.84375 3.0810547L21.820312 3.0810547ZM18.621094 0.92480469Q18.621094 2.2548828 18.972656 2.8291016Q19.324219 3.4033203 20.115234 3.4033203Q21.011719 3.4033203 21.416016 2.7822266Q21.820312 2.1611328 21.820312 0.85449219Q21.820312 -0.40527344 21.416016 -0.99121094Q21.011719 -1.5771484 20.126953 -1.5771484Q19.330078 -1.5771484 18.975586 -0.98828125Q18.621094 -0.39941406 18.621094 0.92480469ZM29.25 2.3486328Q29.25 3.2451172 28.573242 3.7314453Q27.896484 4.2177734 26.677734 4.2177734Q25.494141 4.2177734 24.852539 3.828125Q24.210938 3.4384766 24.017578 2.6123047L24.949219 2.4306641Q25.083984 2.9404297 25.505859 3.1777344Q25.927734 3.4150391 26.677734 3.4150391Q27.480469 3.4150391 27.852539 3.1689453Q28.224609 2.9228516 28.224609 2.4306641Q28.224609 2.0556641 27.966797 1.8212891Q27.708984 1.5869141 27.134766 1.4345703L26.378906 1.2353516Q25.470703 1.0009766 25.086914 0.77539062Q24.703125 0.54980469 24.486328 0.22753906Q24.269531 -0.094726562 24.269531 -0.56347656Q24.269531 -1.4306641 24.887695 -1.8847656Q25.505859 -2.3388672 26.689453 -2.3388672Q27.738281 -2.3388672 28.356445 -1.9697266Q28.974609 -1.6005859 29.138672 -0.78613281L28.189453 -0.66894531Q28.101562 -1.0908203 27.717773 -1.3164062Q27.333984 -1.5419922 26.689453 -1.5419922Q25.974609 -1.5419922 25.634766 -1.3251953Q25.294922 -1.1083984 25.294922 -0.66894531Q25.294922 -0.39941406 25.435547 -0.22363281Q25.576172 -0.047851562 25.851562 0.075195312Q26.126953 0.19824219 27.011719 0.41503906Q27.849609 0.62597656 28.21875 0.8046875Q28.587891 0.98339844 28.801758 1.2001953Q29.015625 1.4169922 29.132812 1.7011719Q29.25 1.9853516 29.25 2.3486328Z"/>
	<clipPath id="cl_1c1">
		<rect y="768" width="1000" height="32"/>
	</clipPath>
	<g clip-path="url(#cl_1c1)">
		<path fill="#36A2EB" fill-opacity="0.2" d="M395.95001 778L435.95001 778L435.95001 790L395.95001 790L395.95001 778Z"/>
		<path fill="none" stroke="#36A2EB" stroke-width="3" stroke-miterlimit="10" d="M395.95001 778L435.95001 778L435.95001 790L395.95001 790L395.95001 778Z"/>
	</g>
	<clipPath id="cl_1c2">
		<rect y="768" width="1000" height="32"/>
	</clipPath>
	<g clip-path="url(#cl_1c2)">
		<path fill="#666" d="M447.51642 786.34863Q447.51642 787.24512 446.83966 787.73145Q446.1629 788.21777 444.94415 788.21777Q443.76056 788.21777 443.11896 787.82812Q442.47736 787.43848 442.284 786.6123L443.21564 786.43066Q443.3504 786.94043 443.77228 787.17773Q444.19415 787.41504 444.94415 787.41504Q445.74689 787.41504 446.11896 787.16895Q446.49103 786.92285 446.49103 786.43066Q446.49103 786.05566 446.23322 785.82129Q445.9754 785.58691 445.40118 785.43457L444.64532 785.23535Q443.73712 785.00098 443.35333 784.77539Q442.96954 784.5498 442.75275 784.22754Q442.53595 783.90527 442.53595 783.43652Q442.53595 782.56934 443.15411 782.11523Q443.77228 781.66113 444.95587 781.66113Q446.0047 781.66113 446.62286 782.03027Q447.24103 782.39941 447.40509 783.21387L446.45587 783.33105Q446.36798 782.90918 445.98419 782.68359Q445.6004 782.45801 444.95587 782.45801Q444.24103 782.45801 443.90118 782.6748Q443.56134 782.8916 443.56134 783.33105Q443.56134 783.60059 443.70197 783.77637Q443.84259 783.95215 444.11798 784.0752Q444.39337 784.19824 445.27814 784.41504Q446.11603 784.62598 446.48517 784.80469Q446.85431 784.9834 447.06818 785.2002Q447.28204 785.41699 447.39923 785.70117Q447.51642 785.98535 447.51642 786.34863ZM450.37579 788.21777Q449.42072 788.21777 448.94025 787.71387Q448.45978 787.20996 448.45978 786.33105Q448.45978 785.34668 449.10724 784.81934Q449.7547 784.29199 451.19611 784.25684L452.61993 784.2334L452.61993 783.8877Q452.61993 783.11426 452.29181 782.78027Q451.96368 782.44629 451.26056 782.44629Q450.55157 782.44629 450.22931 782.68652Q449.90704 782.92676 449.84259 783.4541L448.74103 783.35449Q449.01056 781.64355 451.284 781.64355Q452.47931 781.64355 453.08282 782.19141Q453.68634 782.73926 453.68634 783.77637L453.68634 786.50684Q453.68634 786.97559 453.80939 787.21289Q453.93243 787.4502 454.27814 787.4502Q454.43048 787.4502 454.62384 787.40918L454.62384 788.06543Q454.2254 788.15918 453.80939 788.15918Q453.22345 788.15918 452.95685 787.85156Q452.69025 787.54395 452.65509 786.8877L452.61993 786.8877Q452.21564 787.61426 451.6795 787.91602Q451.14337 788.21777 450.37579 788.21777ZM450.61603 787.42676Q451.19611 787.42676 451.64728 787.16309Q452.09845 786.89941 452.35919 786.43945Q452.61993 785.97949 452.61993 785.49316L452.61993 784.97168L451.46564 784.99512Q450.7215 785.00684 450.33771 785.14746Q449.95392 785.28809 449.74884 785.58105Q449.54376 785.87402 449.54376 786.34863Q449.54376 786.86426 449.82208 787.14551Q450.1004 787.42676 450.61603 787.42676ZM455.42657 780.41309L455.42657 779.40527L456.48126 779.40527L456.48126 780.41309L455.42657 780.41309ZM455.42657 788.10059L455.42657 781.76074L456.48126 781.76074L456.48126 788.10059L455.42657 788.10059ZM458.09845 788.10059L458.09845 779.40527L459.15314 779.40527L459.15314 788.10059L458.09845 788.10059ZM466.12579 784.90137Q466.12579 788.21777 463.79376 788.21777Q462.32892 788.21777 461.82501 787.11621L461.79572 787.11621Q461.81915 787.16309 461.81915 788.1123L461.81915 790.59082L460.76447 790.59082L460.76447 783.05566Q460.76447 782.07715 460.72931 781.76074L461.74884 781.76074Q461.7547 781.78418 461.76642 781.92773Q461.77814 782.07129 461.79279 782.37012Q461.80743 782.66895 461.80743 782.78027L461.83087 782.78027Q462.11212 782.19434 462.57501 781.92188Q463.0379 781.64941 463.79376 781.64941Q464.96564 781.64941 465.54572 782.43457Q466.12579 783.21973 466.12579 784.90137ZM465.01837 784.9248Q465.01837 783.60059 464.66095 783.03223Q464.30353 782.46387 463.52423 782.46387Q462.89728 782.46387 462.54279 782.72754Q462.18829 782.99121 462.00372 783.55078Q461.81915 784.11035 461.81915 785.00684Q461.81915 786.25488 462.21759 786.84668Q462.61603 787.43848 463.51251 787.43848Q464.29767 787.43848 464.65802 786.86133Q465.01837 786.28418 465.01837 784.9248ZM472.79962 784.9248Q472.79962 786.58887 472.0672 787.40332Q471.33478 788.21777 469.94025 788.21777Q468.55157 788.21777 467.84259 787.37109Q467.13361 786.52441 467.13361 784.9248Q467.13361 781.64355 469.9754 781.64355Q471.42853 781.64355 472.11407 782.44336Q472.79962 783.24316 472.79962 784.9248ZM471.6922 784.9248Q471.6922 783.6123 471.30255 783.01758Q470.9129 782.42285 469.99298 782.42285Q469.0672 782.42285 468.65411 783.0293Q468.24103 783.63574 468.24103 784.9248Q468.24103 786.17871 468.64825 786.80859Q469.05548 787.43848 469.92853 787.43848Q470.87775 787.43848 471.28497 786.8291Q471.6922 786.21973 471.6922 784.9248ZM474.10626 780.41309L474.10626 779.40527L475.16095 779.40527L475.16095 780.41309L474.10626 780.41309ZM474.10626 788.10059L474.10626 781.76074L475.16095 781.76074L475.16095 788.10059L474.10626 788.10059ZM480.80353 788.10059L480.80353 784.08105Q480.80353 783.4541 480.68048 783.1084Q480.55743 782.7627 480.2879 782.61035Q480.01837 782.45801 479.49689 782.45801Q478.73517 782.45801 478.29572 782.97949Q477.85626 783.50098 477.85626 784.42676L477.85626 788.10059L476.80157 788.10059L476.80157 783.11426Q476.80157 782.00684 476.76642 781.76074L477.76251 781.76074Q477.76837 781.79004 477.77423 781.91895Q477.78009 782.04785 477.78888 782.21484Q477.79767 782.38184 477.80939 782.84473L477.82697 782.84473Q478.19025 782.18848 478.66779 781.91602Q479.14532 781.64355 479.85431 781.64355Q480.89728 781.64355 481.38068 782.16211Q481.86407 782.68066 481.86407 783.87598L481.86407 788.10059L480.80353 788.10059ZM485.88947 788.05371Q485.36798 788.19434 484.82306 788.19434Q483.55743 788.19434 483.55743 786.75879L483.55743 782.52832L482.82501 782.52832L482.82501 781.76074L483.59845 781.76074L483.909 780.34277L484.61212 780.34277L484.61212 781.76074L485.784 781.76074L485.784 782.52832L484.61212 782.52832L484.61212 786.53027Q484.61212 786.9873 484.76154 787.17188Q484.91095 787.35645 485.28009 787.35645Q485.49103 787.35645 485.88947 787.27441L485.88947 788.05371ZM494.12189 787.08105Q493.82892 787.69043 493.34552 787.9541Q492.86212 788.21777 492.14728 788.21777Q490.94611 788.21777 490.38068 787.40918Q489.81525 786.60059 489.81525 784.95996Q489.81525 781.64355 492.14728 781.64355Q492.86798 781.64355 493.34845 781.90723Q493.82892 782.1709 494.12189 782.74512L494.13361 782.74512L494.12189 782.03613L494.12189 779.40527L495.17657 779.40527L495.17657 786.79395Q495.17657 787.78418 495.21173 788.10059L494.20392 788.10059Q494.18634 788.00684 494.16583 787.66699Q494.14532 787.32715 494.14532 787.08105L494.12189 787.08105ZM490.92267 784.9248Q490.92267 786.25488 491.27423 786.8291Q491.62579 787.40332 492.41681 787.40332Q493.31329 787.40332 493.71759 786.78223Q494.12189 786.16113 494.12189 784.85449Q494.12189 783.59473 493.71759 783.00879Q493.31329 782.42285 492.42853 782.42285Q491.63165 782.42285 491.27716 783.01172Q490.92267 783.60059 490.92267 784.9248ZM502.15509 784.9248Q502.15509 786.58887 501.42267 787.40332Q500.69025 788.21777 499.29572 788.21777Q497.90704 788.21777 497.19806 787.37109Q496.48907 786.52441 496.48907 784.9248Q496.48907 781.64355 499.33087 781.64355Q500.784 781.64355 501.46954 782.44336Q502.15509 783.24316 502.15509 784.9248ZM501.04767 784.9248Q501.04767 783.6123 500.65802 783.01758Q500.26837 782.42285 499.34845 782.42285Q498.42267 782.42285 498.00958 783.0293Q497.5965 783.63574 497.5965 784.9248Q497.5965 786.17871 498.00372 786.80859Q498.41095 787.43848 499.284 787.43848Q500.23322 787.43848 500.64044 786.8291Q501.04767 786.21973 501.04767 784.9248ZM509.5379 788.10059L508.31329 788.10059L507.20587 783.61816L506.99493 782.62793Q506.9422 782.8916 506.83087 783.38672Q506.71954 783.88184 505.63556 788.10059L504.41681 788.10059L502.64142 781.76074L503.68439 781.76074L504.75665 786.06738Q504.79767 786.20801 505.00861 787.22754L505.10822 786.79395L506.43243 781.76074L507.56329 781.76074L508.67072 786.11426L508.94025 787.22754L509.12189 786.41309L510.32306 781.76074L511.35431 781.76074L509.5379 788.10059ZM516.159 788.10059L516.159 784.08105Q516.159 783.4541 516.03595 783.1084Q515.9129 782.7627 515.64337 782.61035Q515.37384 782.45801 514.85236 782.45801Q514.09064 782.45801 513.65118 782.97949Q513.21173 783.50098 513.21173 784.42676L513.21173 788.10059L512.15704 788.10059L512.15704 783.11426Q512.15704 782.00684 512.12189 781.76074L513.11798 781.76074Q513.12384 781.79004 513.1297 781.91895Q513.13556 782.04785 513.14435 782.21484Q513.15314 782.38184 513.16486 782.84473L513.18243 782.84473Q513.54572 782.18848 514.02325 781.91602Q514.50079 781.64355 515.20978 781.64355Q516.25275 781.64355 516.73615 782.16211Q517.21954 782.68066 517.21954 783.87598L517.21954 788.10059L516.159 788.10059ZM518.80743 788.10059L518.80743 779.40527L519.86212 779.40527L519.86212 788.10059L518.80743 788.10059ZM526.83478 784.9248Q526.83478 786.58887 526.10236 787.40332Q525.36993 788.21777 523.9754 788.21777Q522.58673 788.21777 521.87775 787.37109Q521.16876 786.52441 521.16876 784.9248Q521.16876 781.64355 524.01056 781.64355Q525.46368 781.64355 526.14923 782.44336Q526.83478 783.24316 526.83478 784.9248ZM525.72736 784.9248Q525.72736 783.6123 525.33771 783.01758Q524.94806 782.42285 524.02814 782.42285Q523.10236 782.42285 522.68927 783.0293Q522.27618 783.63574 522.27618 784.9248Q522.27618 786.17871 522.68341 786.80859Q523.09064 787.43848 523.96368 787.43848Q524.9129 787.43848 525.32013 786.8291Q525.72736 786.21973 525.72736 784.9248ZM529.76447 788.21777Q528.80939 788.21777 528.32892 787.71387Q527.84845 787.20996 527.84845 786.33105Q527.84845 785.34668 528.49591 784.81934Q529.14337 784.29199 530.58478 784.25684L532.00861 784.2334L532.00861 783.8877Q532.00861 783.11426 531.68048 782.78027Q531.35236 782.44629 530.64923 782.44629Q529.94025 782.44629 529.61798 782.68652Q529.29572 782.92676 529.23126 783.4541L528.1297 783.35449Q528.39923 781.64355 530.67267 781.64355Q531.86798 781.64355 532.4715 782.19141Q533.07501 782.73926 533.07501 783.77637L533.07501 786.50684Q533.07501 786.97559 533.19806 787.21289Q533.32111 787.4502 533.66681 787.4502Q533.81915 787.4502 534.01251 787.40918L534.01251 788.06543Q533.61407 788.15918 533.19806 788.15918Q532.61212 788.15918 532.34552 787.85156Q532.07892 787.54395 532.04376 786.8877L532.00861 786.8877Q531.60431 787.61426 531.06818 787.91602Q530.53204 788.21777 529.76447 788.21777ZM530.0047 787.42676Q530.58478 787.42676 531.03595 787.16309Q531.48712 786.89941 531.74786 786.43945Q532.00861 785.97949 532.00861 785.49316L532.00861 784.97168L530.85431 784.99512Q530.11017 785.00684 529.72638 785.14746Q529.34259 785.28809 529.13751 785.58105Q528.93243 785.87402 528.93243 786.34863Q528.93243 786.86426 529.21075 787.14551Q529.48907 787.42676 530.0047 787.42676ZM538.82306 787.08105Q538.53009 787.69043 538.04669 787.9541Q537.56329 788.21777 536.84845 788.21777Q535.64728 788.21777 535.08185 787.40918Q534.51642 786.60059 534.51642 784.95996Q534.51642 781.64355 536.84845 781.64355Q537.56915 781.64355 538.04962 781.90723Q538.53009 782.1709 538.82306 782.74512L538.83478 782.74512L538.82306 782.03613L538.82306 779.40527L539.87775 779.40527L539.87775 786.79395Q539.87775 787.78418 539.9129 788.10059L538.90509 788.10059Q538.88751 788.00684 538.867 787.66699Q538.8465 787.32715 538.8465 787.08105L538.82306 787.08105ZM535.62384 784.9248Q535.62384 786.25488 535.9754 786.8291Q536.32697 787.40332 537.11798 787.40332Q538.01447 787.40332 538.41876 786.78223Q538.82306 786.16113 538.82306 784.85449Q538.82306 783.59473 538.41876 783.00879Q538.01447 782.42285 537.1297 782.42285Q536.33282 782.42285 535.97833 783.01172Q535.62384 783.60059 535.62384 784.9248ZM546.25275 786.34863Q546.25275 787.24512 545.57599 787.73145Q544.89923 788.21777 543.68048 788.21777Q542.49689 788.21777 541.85529 787.82812Q541.21368 787.43848 541.02032 786.6123L541.95197 786.43066Q542.08673 786.94043 542.50861 787.17773Q542.93048 787.41504 543.68048 787.41504Q544.48322 787.41504 544.85529 787.16895Q545.22736 786.92285 545.22736 786.43066Q545.22736 786.05566 544.96954 785.82129Q544.71173 785.58691 544.13751 785.43457L543.38165 785.23535Q542.47345 785.00098 542.08966 784.77539Q541.70587 784.5498 541.48907 784.22754Q541.27228 783.90527 541.27228 783.43652Q541.27228 782.56934 541.89044 782.11523Q542.50861 781.66113 543.6922 781.66113Q544.74103 781.66113 545.35919 782.03027Q545.97736 782.39941 546.14142 783.21387L545.1922 783.33105Q545.10431 782.90918 544.72052 782.68359Q544.33673 782.45801 543.6922 782.45801Q542.97736 782.45801 542.63751 782.6748Q542.29767 782.8916 542.29767 783.33105Q542.29767 783.60059 542.43829 783.77637Q542.57892 783.95215 542.85431 784.0752Q543.1297 784.19824 544.01447 784.41504Q544.85236 784.62598 545.2215 784.80469Q545.59064 784.9834 545.8045 785.2002Q546.01837 785.41699 546.13556 785.70117Q546.25275 785.98535 546.25275 786.34863ZM556.19025 784.90137Q556.19025 788.21777 553.85822 788.21777Q552.39337 788.21777 551.88947 787.11621L551.86017 787.11621Q551.88361 787.16309 551.88361 788.1123L551.88361 790.59082L550.82892 790.59082L550.82892 783.05566Q550.82892 782.07715 550.79376 781.76074L551.81329 781.76074Q551.81915 781.78418 551.83087 781.92773Q551.84259 782.07129 551.85724 782.37012Q551.87189 782.66895 551.87189 782.78027L551.89532 782.78027Q552.17657 782.19434 552.63947 781.92188Q553.10236 781.64941 553.85822 781.64941Q555.03009 781.64941 555.61017 782.43457Q556.19025 783.21973 556.19025 784.90137ZM555.08282 784.9248Q555.08282 783.60059 554.7254 783.03223Q554.36798 782.46387 553.58868 782.46387Q552.96173 782.46387 552.60724 782.72754Q552.25275 782.99121 552.06818 783.55078Q551.88361 784.11035 551.88361 785.00684Q551.88361 786.25488 552.28204 786.84668Q552.68048 787.43848 553.57697 787.43848Q554.36212 787.43848 554.72247 786.86133Q555.08282 786.28418 555.08282 784.9248ZM558.31134 785.15332Q558.31134 786.24316 558.76251 786.83496Q559.21368 787.42676 560.08087 787.42676Q560.76642 787.42676 561.1795 787.15137Q561.59259 786.87598 561.73907 786.4541L562.66486 786.71777Q562.0965 788.21777 560.08087 788.21777Q558.67462 788.21777 557.93927 787.37988Q557.20392 786.54199 557.20392 784.88965Q557.20392 783.31934 557.93927 782.48145Q558.67462 781.64355 560.03986 781.64355Q562.83478 781.64355 562.83478 785.0127L562.83478 785.15332L558.31134 785.15332ZM561.74493 784.34473Q561.65704 783.34277 561.23517 782.88281Q560.81329 782.42285 560.02228 782.42285Q559.2547 782.42285 558.80646 782.93555Q558.35822 783.44824 558.32306 784.34473L561.74493 784.34473ZM564.20001 788.10059L564.20001 783.2373Q564.20001 782.56934 564.16486 781.76074L565.16095 781.76074Q565.20782 782.83887 565.20782 783.05566L565.23126 783.05566Q565.48322 782.24121 565.81134 781.94238Q566.13947 781.64355 566.73712 781.64355Q566.94806 781.64355 567.16486 781.70215L567.16486 782.66895Q566.95392 782.61035 566.60236 782.61035Q565.94611 782.61035 565.6004 783.17578Q565.2547 783.74121 565.2547 784.7959L565.2547 788.10059L564.20001 788.10059ZM575.19806 788.10059L575.19806 784.08105Q575.19806 783.16113 574.94611 782.80957Q574.69415 782.45801 574.0379 782.45801Q573.36407 782.45801 572.9715 782.97363Q572.57892 783.48926 572.57892 784.42676L572.57892 788.10059L571.53009 788.10059L571.53009 783.11426Q571.53009 782.00684 571.49493 781.76074L572.49103 781.76074Q572.49689 781.79004 572.50275 781.91895Q572.50861 782.04785 572.5174 782.21484Q572.52618 782.38184 572.5379 782.84473L572.55548 782.84473Q572.89532 782.1709 573.33478 781.90723Q573.77423 781.64355 574.40704 781.64355Q575.12775 781.64355 575.54669 781.93066Q575.96564 782.21777 576.1297 782.84473L576.14728 782.84473Q576.4754 782.20605 576.94122 781.9248Q577.40704 781.64355 578.06915 781.64355Q579.03009 781.64355 579.46661 782.16504Q579.90314 782.68652 579.90314 783.87598L579.90314 788.10059L578.86017 788.10059L578.86017 784.08105Q578.86017 783.16113 578.60822 782.80957Q578.35626 782.45801 577.70001 782.45801Q577.00861 782.45801 576.62482 782.9707Q576.24103 783.4834 576.24103 784.42676L576.24103 788.10059L575.19806 788.10059ZM586.86407 784.9248Q586.86407 786.58887 586.13165 787.40332Q585.39923 788.21777 584.0047 788.21777Q582.61603 788.21777 581.90704 787.37109Q581.19806 786.52441 581.19806 784.9248Q581.19806 781.64355 584.03986 781.64355Q585.49298 781.64355 586.17853 782.44336Q586.86407 783.24316 586.86407 784.9248ZM585.75665 784.9248Q585.75665 783.6123 585.367 783.01758Q584.97736 782.42285 584.05743 782.42285Q583.13165 782.42285 582.71857 783.0293Q582.30548 783.63574 582.30548 784.9248Q582.30548 786.17871 582.71271 786.80859Q583.11993 787.43848 583.99298 787.43848Q584.9422 787.43848 585.34943 786.8291Q585.75665 786.21973 585.75665 784.9248ZM592.20197 788.10059L592.20197 784.08105Q592.20197 783.4541 592.07892 783.1084Q591.95587 782.7627 591.68634 782.61035Q591.41681 782.45801 590.89532 782.45801Q590.13361 782.45801 589.69415 782.97949Q589.2547 783.50098 589.2547 784.42676L589.2547 788.10059L588.20001 788.10059L588.20001 783.11426Q588.20001 782.00684 588.16486 781.76074L589.16095 781.76074Q589.16681 781.79004 589.17267 781.91895Q589.17853 782.04785 589.18732 782.21484Q589.19611 782.38184 589.20782 782.84473L589.2254 782.84473Q589.58868 782.18848 590.06622 781.91602Q590.54376 781.64355 591.25275 781.64355Q592.29572 781.64355 592.77911 782.16211Q593.26251 782.68066 593.26251 783.87598L593.26251 788.10059L592.20197 788.10059ZM597.2879 788.05371Q596.76642 788.19434 596.2215 788.19434Q594.95587 788.19434 594.95587 786.75879L594.95587 782.52832L594.22345 782.52832L594.22345 781.76074L594.99689 781.76074L595.30743 780.34277L596.01056 780.34277L596.01056 781.76074L597.18243 781.76074L597.18243 782.52832L596.01056 782.52832L596.01056 786.53027Q596.01056 786.9873 596.15997 787.17188Q596.30939 787.35645 596.67853 787.35645Q596.88947 787.35645 597.2879 787.27441L597.2879 788.05371ZM599.23322 782.84473Q599.57306 782.22363 600.0506 781.93359Q600.52814 781.64355 601.26056 781.64355Q602.29181 781.64355 602.78107 782.15625Q603.27032 782.66895 603.27032 783.87598L603.27032 788.10059L602.20978 788.10059L602.20978 784.08105Q602.20978 783.41309 602.08673 783.08789Q601.96368 782.7627 601.68243 782.61035Q601.40118 782.45801 600.90314 782.45801Q600.159 782.45801 599.71075 782.97363Q599.26251 783.48926 599.26251 784.3623L599.26251 788.10059L598.20782 788.10059L598.20782 779.40527L599.26251 779.40527L599.26251 781.66699Q599.26251 782.02441 599.242 782.40527Q599.2215 782.78613 599.21564 782.84473L599.23322 782.84473Z"/>
	</g>
	<path fill="#666" transform="translate(500 17.2)" d="M-72.498047 2.2490234Q-72.498047 3.1689453 -73.250977 3.6933594Q-74.003906 4.2177734 -75.333984 4.2177734Q-76.640625 4.2177734 -77.334961 3.8046875Q-78.029297 3.3916016 -78.257812 2.5185547L-76.810547 2.3017578Q-76.6875 2.7529297 -76.385742 2.9404297Q-76.083984 3.1279297 -75.333984 3.1279297Q-74.642578 3.1279297 -74.326172 2.9521484Q-74.009766 2.7763672 -74.009766 2.4013672Q-74.009766 2.0966797 -74.264648 1.9179688Q-74.519531 1.7392578 -75.128906 1.6162109Q-76.523438 1.3408203 -77.009766 1.1035156Q-77.496094 0.86621094 -77.750977 0.48828125Q-78.005859 0.11035156 -78.005859 -0.44042969Q-78.005859 -1.3486328 -77.305664 -1.8554688Q-76.605469 -2.3623047 -75.322266 -2.3623047Q-74.191406 -2.3623047 -73.50293 -1.9228516Q-72.814453 -1.4833984 -72.644531 -0.65136719L-74.103516 -0.49902344Q-74.173828 -0.88574219 -74.449219 -1.0761719Q-74.724609 -1.2666016 -75.322266 -1.2666016Q-75.908203 -1.2666016 -76.201172 -1.1171875Q-76.494141 -0.96777344 -76.494141 -0.61621094Q-76.494141 -0.34082031 -76.268555 -0.1796875Q-76.042969 -0.018554688 -75.509766 0.086914062Q-74.765625 0.23925781 -74.188477 0.40039062Q-73.611328 0.56152344 -73.262695 0.78417969Q-72.914062 1.0068359 -72.706055 1.3554688Q-72.498047 1.7041016 -72.498047 2.2490234ZM-69.703125 4.2177734Q-70.623047 4.2177734 -71.138672 3.7167969Q-71.654297 3.2158203 -71.654297 2.3076172Q-71.654297 1.3232422 -71.012695 0.80761719Q-70.371094 0.29199219 -69.152344 0.28027344L-67.787109 0.25683594L-67.787109 -0.065429688Q-67.787109 -0.68652344 -68.003906 -0.98828125Q-68.220703 -1.2900391 -68.712891 -1.2900391Q-69.169922 -1.2900391 -69.383789 -1.0820312Q-69.597656 -0.87402344 -69.650391 -0.39355469L-71.367188 -0.47558594Q-71.208984 -1.4013672 -70.520508 -1.8789062Q-69.832031 -2.3564453 -68.642578 -2.3564453Q-67.441406 -2.3564453 -66.791016 -1.7646484Q-66.140625 -1.1728516 -66.140625 -0.083007812L-66.140625 2.2255859Q-66.140625 2.7587891 -66.020508 2.9609375Q-65.900391 3.1630859 -65.619141 3.1630859Q-65.431641 3.1630859 -65.255859 3.1279297L-65.255859 4.0185547Q-65.402344 4.0537109 -65.519531 4.0830078Q-65.636719 4.1123047 -65.753906 4.1298828Q-65.871094 4.1474609 -66.00293 4.1591797Q-66.134766 4.1708984 -66.310547 4.1708984Q-66.931641 4.1708984 -67.227539 3.8662109Q-67.523438 3.5615234 -67.582031 2.9697266L-67.617188 2.9697266Q-68.308594 4.2177734 -69.703125 4.2177734ZM-67.787109 1.1650391L-68.630859 1.1767578Q-69.205078 1.2001953 -69.445312 1.3027344Q-69.685547 1.4052734 -69.811523 1.6162109Q-69.9375 1.8271484 -69.9375 2.1787109Q-69.9375 2.6298828 -69.729492 2.8496094Q-69.521484 3.0693359 -69.175781 3.0693359Q-68.789062 3.0693359 -68.469727 2.8583984Q-68.150391 2.6474609 -67.96875 2.2753906Q-67.787109 1.9033203 -67.787109 1.4873047L-67.787109 1.1650391ZM-64.494141 -3.3818359L-64.494141 -4.5947266L-62.847656 -4.5947266L-62.847656 -3.3818359L-64.494141 -3.3818359ZM-64.494141 4.1005859L-64.494141 -2.2392578L-62.847656 -2.2392578L-62.847656 4.1005859L-64.494141 4.1005859ZM-61.160156 4.1005859L-61.160156 -4.5947266L-59.513672 -4.5947266L-59.513672 4.1005859L-61.160156 4.1005859ZM-51.826172 0.90136719Q-51.826172 2.4892578 -52.461914 3.3535156Q-53.097656 4.2177734 -54.257812 4.2177734Q-54.925781 4.2177734 -55.420898 3.9277344Q-55.916016 3.6376953 -56.179688 3.0927734L-56.214844 3.0927734Q-56.179688 3.2685547 -56.179688 4.1591797L-56.179688 6.5908203L-57.826172 6.5908203L-57.826172 -0.78027344Q-57.826172 -1.6767578 -57.873047 -2.2392578L-56.273438 -2.2392578Q-56.244141 -2.1337891 -56.223633 -1.8232422Q-56.203125 -1.5126953 -56.203125 -1.2080078L-56.179688 -1.2080078Q-55.623047 -2.3740234 -54.152344 -2.3740234Q-53.044922 -2.3740234 -52.435547 -1.5214844Q-51.826172 -0.66894531 -51.826172 0.90136719ZM-53.542969 0.90136719Q-53.542969 -1.2314453 -54.849609 -1.2314453Q-55.505859 -1.2314453 -55.854492 -0.65722656Q-56.203125 -0.083007812 -56.203125 0.94824219Q-56.203125 1.9736328 -55.854492 2.5332031Q-55.505859 3.0927734 -54.861328 3.0927734Q-53.542969 3.0927734 -53.542969 0.90136719ZM-44.472656 0.92480469Q-44.472656 2.4658203 -45.328125 3.3417969Q-46.183594 4.2177734 -47.695312 4.2177734Q-49.177734 4.2177734 -50.021484 3.3388672Q-50.865234 2.4599609 -50.865234 0.92480469Q-50.865234 -0.60449219 -50.021484 -1.4804688Q-49.177734 -2.3564453 -47.660156 -2.3564453Q-46.107422 -2.3564453 -45.290039 -1.5097656Q-44.472656 -0.66308594 -44.472656 0.92480469ZM-46.195312 0.92480469Q-46.195312 -0.20605469 -46.564453 -0.71582031Q-46.933594 -1.2255859 -47.636719 -1.2255859Q-49.136719 -1.2255859 -49.136719 0.92480469Q-49.136719 1.9853516 -48.770508 2.5390625Q-48.404297 3.0927734 -47.712891 3.0927734Q-46.195312 3.0927734 -46.195312 0.92480469ZM-43.166016 -3.3818359L-43.166016 -4.5947266L-41.519531 -4.5947266L-41.519531 -3.3818359L-43.166016 -3.3818359ZM-43.166016 4.1005859L-43.166016 -2.2392578L-41.519531 -2.2392578L-41.519531 4.1005859L-43.166016 4.1005859ZM-35.724609 4.1005859L-35.724609 0.54394531Q-35.724609 -1.1259766 -36.855469 -1.1259766Q-37.453125 -1.1259766 -37.819336 -0.61328125Q-38.185547 -0.10058594 -38.185547 0.70214844L-38.185547 4.1005859L-39.832031 4.1005859L-39.832031 -0.82128906Q-39.832031 -1.3310547 -39.84668 -1.65625Q-39.861328 -1.9814453 -39.878906 -2.2392578L-38.308594 -2.2392578Q-38.291016 -2.1279297 -38.261719 -1.6445312Q-38.232422 -1.1611328 -38.232422 -0.97949219L-38.208984 -0.97949219Q-37.875 -1.7060547 -37.371094 -2.0341797Q-36.867188 -2.3623047 -36.169922 -2.3623047Q-35.162109 -2.3623047 -34.623047 -1.7412109Q-34.083984 -1.1201172 -34.083984 0.075195312L-34.083984 4.1005859L-35.724609 4.1005859ZM-30.878906 4.2060547Q-31.605469 4.2060547 -31.998047 3.8105469Q-32.390625 3.4150391 -32.390625 2.6123047L-32.390625 -1.1259766L-33.193359 -1.1259766L-33.193359 -2.2392578L-32.308594 -2.2392578L-31.792969 -3.7275391L-30.761719 -3.7275391L-30.761719 -2.2392578L-29.560547 -2.2392578L-29.560547 -1.1259766L-30.761719 -1.1259766L-30.761719 2.1669922Q-30.761719 2.6298828 -30.585938 2.8496094Q-30.410156 3.0693359 -30.041016 3.0693359Q-29.847656 3.0693359 -29.490234 2.9873047L-29.490234 4.0068359Q-30.099609 4.2060547 -30.878906 4.2060547ZM-19.148438 0.92480469Q-19.148438 2.4658203 -20.003906 3.3417969Q-20.859375 4.2177734 -22.371094 4.2177734Q-23.853516 4.2177734 -24.697266 3.3388672Q-25.541016 2.4599609 -25.541016 0.92480469Q-25.541016 -0.60449219 -24.697266 -1.4804688Q-23.853516 -2.3564453 -22.335938 -2.3564453Q-20.783203 -2.3564453 -19.96582 -1.5097656Q-19.148438 -0.66308594 -19.148438 0.92480469ZM-20.871094 0.92480469Q-20.871094 -0.20605469 -21.240234 -0.71582031Q-21.609375 -1.2255859 -22.3125 -1.2255859Q-23.8125 -1.2255859 -23.8125 0.92480469Q-23.8125 1.9853516 -23.446289 2.5390625Q-23.080078 3.0927734 -22.388672 3.0927734Q-20.871094 3.0927734 -20.871094 0.92480469ZM-14.396484 4.1005859L-16.365234 4.1005859L-18.632812 -2.2392578L-16.892578 -2.2392578L-15.785156 1.3056641Q-15.697266 1.5986328 -15.369141 2.7705078Q-15.310547 2.5302734 -15.128906 1.9267578Q-14.947266 1.3232422 -13.78125 -2.2392578L-12.058594 -2.2392578L-14.396484 4.1005859ZM-8.5722656 4.2177734Q-10.001953 4.2177734 -10.769531 3.3710938Q-11.537109 2.5244141 -11.537109 0.90136719Q-11.537109 -0.66894531 -10.757812 -1.5126953Q-9.9785156 -2.3564453 -8.5488281 -2.3564453Q-7.1835938 -2.3564453 -6.4628906 -1.4511719Q-5.7421875 -0.54589844 -5.7421875 1.2001953L-5.7421875 1.2470703L-9.8085938 1.2470703Q-9.8085938 2.1728516 -9.4658203 2.6445312Q-9.1230469 3.1162109 -8.4902344 3.1162109Q-7.6171875 3.1162109 -7.3886719 2.3603516L-5.8359375 2.4951172Q-6.5097656 4.2177734 -8.5722656 4.2177734ZM-8.5722656 -1.3193359Q-9.1523438 -1.3193359 -9.4658203 -0.91503906Q-9.7792969 -0.51074219 -9.796875 0.21582031L-7.3359375 0.21582031Q-7.3828125 -0.55175781 -7.7050781 -0.93554688Q-8.0273438 -1.3193359 -8.5722656 -1.3193359ZM-4.4941406 4.1005859L-4.4941406 -0.75097656Q-4.4941406 -1.2724609 -4.5087891 -1.6210938Q-4.5234375 -1.9697266 -4.5410156 -2.2392578L-2.9707031 -2.2392578Q-2.953125 -2.1337891 -2.9238281 -1.5976562Q-2.8945312 -1.0615234 -2.8945312 -0.88574219L-2.8710938 -0.88574219Q-2.6308594 -1.5537109 -2.4433594 -1.8261719Q-2.2558594 -2.0986328 -1.9980469 -2.2304688Q-1.7402344 -2.3623047 -1.3535156 -2.3623047Q-1.0371094 -2.3623047 -0.84375 -2.2744141L-0.84375 -0.89746094Q-1.2421875 -0.98535156 -1.546875 -0.98535156Q-2.1621094 -0.98535156 -2.5048828 -0.48730469Q-2.8476562 0.010742188 -2.8476562 0.98925781L-2.8476562 4.1005859L-4.4941406 4.1005859ZM1.640625 4.2177734Q0.72070312 4.2177734 0.20507812 3.7167969Q-0.31054688 3.2158203 -0.31054688 2.3076172Q-0.31054688 1.3232422 0.33105469 0.80761719Q0.97265625 0.29199219 2.1914062 0.28027344L3.5566406 0.25683594L3.5566406 -0.065429688Q3.5566406 -0.68652344 3.3398438 -0.98828125Q3.1230469 -1.2900391 2.6308594 -1.2900391Q2.1738281 -1.2900391 1.9599609 -1.0820312Q1.7460938 -0.87402344 1.6933594 -0.39355469L-0.0234375 -0.47558594Q0.13476562 -1.4013672 0.82324219 -1.8789062Q1.5117188 -2.3564453 2.7011719 -2.3564453Q3.9023438 -2.3564453 4.5527344 -1.7646484Q5.203125 -1.1728516 5.203125 -0.083007812L5.203125 2.2255859Q5.203125 2.7587891 5.3232422 2.9609375Q5.4433594 3.1630859 5.7246094 3.1630859Q5.9121094 3.1630859 6.0878906 3.1279297L6.0878906 4.0185547Q5.9414062 4.0537109 5.8242188 4.0830078Q5.7070312 4.1123047 5.5898438 4.1298828Q5.4726562 4.1474609 5.3408203 4.1591797Q5.2089844 4.1708984 5.0332031 4.1708984Q4.4121094 4.1708984 4.1162109 3.8662109Q3.8203125 3.5615234 3.7617188 2.9697266L3.7265625 2.9697266Q3.0351562 4.2177734 1.640625 4.2177734ZM3.5566406 1.1650391L2.7128906 1.1767578Q2.1386719 1.2001953 1.8984375 1.3027344Q1.6582031 1.4052734 1.5322266 1.6162109Q1.40625 1.8271484 1.40625 2.1787109Q1.40625 2.6298828 1.6142578 2.8496094Q1.8222656 3.0693359 2.1679688 3.0693359Q2.5546875 3.0693359 2.8740234 2.8583984Q3.1933594 2.6474609 3.375 2.2753906Q3.5566406 1.9033203 3.5566406 1.4873047L3.5566406 1.1650391ZM6.8496094 4.1005859L6.8496094 -4.5947266L8.4960938 -4.5947266L8.4960938 4.1005859L6.8496094 4.1005859ZM10.183594 4.1005859L10.183594 -4.5947266L11.830078 -4.5947266L11.830078 4.1005859L10.183594 4.1005859ZM20.958984 4.1005859Q20.935547 4.0126953 20.90332 3.6582031Q20.871094 3.3037109 20.871094 3.0693359L20.847656 3.0693359Q20.314453 4.2177734 18.820312 4.2177734Q17.712891 4.2177734 17.109375 3.3535156Q16.505859 2.4892578 16.505859 0.93652344Q16.505859 -0.63964844 17.141602 -1.4980469Q17.777344 -2.3564453 18.943359 -2.3564453Q19.617188 -2.3564453 20.106445 -2.0751953Q20.595703 -1.7939453 20.859375 -1.2373047L20.871094 -1.2373047L20.859375 -2.2802734L20.859375 -4.5947266L22.505859 -4.5947266L22.505859 2.7177734Q22.505859 3.3037109 22.552734 4.1005859L20.958984 4.1005859ZM20.882812 0.89550781Q20.882812 -0.12988281 20.540039 -0.68359375Q20.197266 -1.2373047 19.529297 -1.2373047Q18.867188 -1.2373047 18.544922 -0.70117188Q18.222656 -0.16503906 18.222656 0.93652344Q18.222656 3.0927734 19.517578 3.0927734Q20.167969 3.0927734 20.525391 2.5214844Q20.882812 1.9501953 20.882812 0.89550781ZM30.205078 0.92480469Q30.205078 2.4658203 29.349609 3.3417969Q28.494141 4.2177734 26.982422 4.2177734Q25.5 4.2177734 24.65625 3.3388672Q23.8125 2.4599609 23.8125 0.92480469Q23.8125 -0.60449219 24.65625 -1.4804688Q25.5 -2.3564453 27.017578 -2.3564453Q28.570312 -2.3564453 29.387695 -1.5097656Q30.205078 -0.66308594 30.205078 0.92480469ZM28.482422 0.92480469Q28.482422 -0.20605469 28.113281 -0.71582031Q27.744141 -1.2255859 27.041016 -1.2255859Q25.541016 -1.2255859 25.541016 0.92480469Q25.541016 1.9853516 25.907227 2.5390625Q26.273438 3.0927734 26.964844 3.0927734Q28.482422 3.0927734 28.482422 0.92480469ZM38.367188 4.1005859L36.626953 4.1005859L35.619141 0.23339844Q35.548828 -0.030273438 35.34375 -1.0673828L35.039062 0.24511719L34.019531 4.1005859L32.279297 4.1005859L30.638672 -2.2392578L32.185547 -2.2392578L33.228516 2.6064453L33.310547 2.1728516L33.457031 1.4873047L34.453125 -2.2392578L36.216797 -2.2392578L37.189453 1.4873047Q37.271484 1.7919922 37.429688 2.6064453L37.59375 1.8330078L38.507812 -2.2392578L40.03125 -2.2392578L38.367188 4.1005859ZM44.953125 4.1005859L44.953125 0.54394531Q44.953125 -1.1259766 43.822266 -1.1259766Q43.224609 -1.1259766 42.858398 -0.61328125Q42.492188 -0.10058594 42.492188 0.70214844L42.492188 4.1005859L40.845703 4.1005859L40.845703 -0.82128906Q40.845703 -1.3310547 40.831055 -1.65625Q40.816406 -1.9814453 40.798828 -2.2392578L42.369141 -2.2392578Q42.386719 -2.1279297 42.416016 -1.6445312Q42.445312 -1.1611328 42.445312 -0.97949219L42.46875 -0.97949219Q42.802734 -1.7060547 43.306641 -2.0341797Q43.810547 -2.3623047 44.507812 -2.3623047Q45.515625 -2.3623047 46.054688 -1.7412109Q46.59375 -1.1201172 46.59375 0.075195312L46.59375 4.1005859L44.953125 4.1005859ZM48.175781 4.1005859L48.175781 -4.5947266L49.822266 -4.5947266L49.822266 4.1005859L48.175781 4.1005859ZM57.533203 0.92480469Q57.533203 2.4658203 56.677734 3.3417969Q55.822266 4.2177734 54.310547 4.2177734Q52.828125 4.2177734 51.984375 3.3388672Q51.140625 2.4599609 51.140625 0.92480469Q51.140625 -0.60449219 51.984375 -1.4804688Q52.828125 -2.3564453 54.345703 -2.3564453Q55.898438 -2.3564453 56.71582 -1.5097656Q57.533203 -0.66308594 57.533203 0.92480469ZM55.810547 0.92480469Q55.810547 -0.20605469 55.441406 -0.71582031Q55.072266 -1.2255859 54.369141 -1.2255859Q52.869141 -1.2255859 52.869141 0.92480469Q52.869141 1.9853516 53.235352 2.5390625Q53.601562 3.0927734 54.292969 3.0927734Q55.810547 3.0927734 55.810547 0.92480469ZM60.304688 4.2177734Q59.384766 4.2177734 58.869141 3.7167969Q58.353516 3.2158203 58.353516 2.3076172Q58.353516 1.3232422 58.995117 0.80761719Q59.636719 0.29199219 60.855469 0.28027344L62.220703 0.25683594L62.220703 -0.065429688Q62.220703 -0.68652344 62.003906 -0.98828125Q61.787109 -1.2900391 61.294922 -1.2900391Q60.837891 -1.2900391 60.624023 -1.0820312Q60.410156 -0.87402344 60.357422 -0.39355469L58.640625 -0.47558594Q58.798828 -1.4013672 59.487305 -1.8789062Q60.175781 -2.3564453 61.365234 -2.3564453Q62.566406 -2.3564453 63.216797 -1.7646484Q63.867188 -1.1728516 63.867188 -0.083007812L63.867188 2.2255859Q63.867188 2.7587891 63.987305 2.9609375Q64.107422 3.1630859 64.388672 3.1630859Q64.576172 3.1630859 64.751953 3.1279297L64.751953 4.0185547Q64.605469 4.0537109 64.488281 4.0830078Q64.371094 4.1123047 64.253906 4.1298828Q64.136719 4.1474609 64.004883 4.1591797Q63.873047 4.1708984 63.697266 4.1708984Q63.076172 4.1708984 62.780273 3.8662109Q62.484375 3.5615234 62.425781 2.9697266L62.390625 2.9697266Q61.699219 4.2177734 60.304688 4.2177734ZM62.220703 1.1650391L61.376953 1.1767578Q60.802734 1.2001953 60.5625 1.3027344Q60.322266 1.4052734 60.196289 1.6162109Q60.070312 1.8271484 60.070312 2.1787109Q60.070312 2.6298828 60.27832 2.8496094Q60.486328 3.0693359 60.832031 3.0693359Q61.21875 3.0693359 61.538086 2.8583984Q61.857422 2.6474609 62.039062 2.2753906Q62.220703 1.9033203 62.220703 1.4873047L62.220703 1.1650391ZM69.621094 4.1005859Q69.597656 4.0126953 69.56543 3.6582031Q69.533203 3.3037109 69.533203 3.0693359L69.509766 3.0693359Q68.976562 4.2177734 67.482422 4.2177734Q66.375 4.2177734 65.771484 3.3535156Q65.167969 2.4892578 65.167969 0.93652344Q65.167969 -0.63964844 65.803711 -1.4980469Q66.439453 -2.3564453 67.605469 -2.3564453Q68.279297 -2.3564453 68.768555 -2.0751953Q69.257812 -1.7939453 69.521484 -1.2373047L69.533203 -1.2373047L69.521484 -2.2802734L69.521484 -4.5947266L71.167969 -4.5947266L71.167969 2.7177734Q71.167969 3.3037109 71.214844 4.1005859L69.621094 4.1005859ZM69.544922 0.89550781Q69.544922 -0.12988281 69.202148 -0.68359375Q68.859375 -1.2373047 68.191406 -1.2373047Q67.529297 -1.2373047 67.207031 -0.70117188Q66.884766 -0.16503906 66.884766 0.93652344Q66.884766 3.0927734 68.179688 3.0927734Q68.830078 3.0927734 69.1875 2.5214844Q69.544922 1.9501953 69.544922 0.89550781ZM78.1875 2.2490234Q78.1875 3.1689453 77.43457 3.6933594Q76.681641 4.2177734 75.351562 4.2177734Q74.044922 4.2177734 73.350586 3.8046875Q72.65625 3.3916016 72.427734 2.5185547L73.875 2.3017578Q73.998047 2.7529297 74.299805 2.9404297Q74.601562 3.1279297 75.351562 3.1279297Q76.042969 3.1279297 76.359375 2.9521484Q76.675781 2.7763672 76.675781 2.4013672Q76.675781 2.0966797 76.420898 1.9179688Q76.166016 1.7392578 75.556641 1.6162109Q74.162109 1.3408203 73.675781 1.1035156Q73.189453 0.86621094 72.93457 0.48828125Q72.679688 0.11035156 72.679688 -0.44042969Q72.679688 -1.3486328 73.379883 -1.8554688Q74.080078 -2.3623047 75.363281 -2.3623047Q76.494141 -2.3623047 77.182617 -1.9228516Q77.871094 -1.4833984 78.041016 -0.65136719L76.582031 -0.49902344Q76.511719 -0.88574219 76.236328 -1.0761719Q75.960938 -1.2666016 75.363281 -1.2666016Q74.777344 -1.2666016 74.484375 -1.1171875Q74.191406 -0.96777344 74.191406 -0.61621094Q74.191406 -0.34082031 74.416992 -0.1796875Q74.642578 -0.018554688 75.175781 0.086914062Q75.919922 0.23925781 76.49707 0.40039062Q77.074219 0.56152344 77.422852 0.78417969Q77.771484 1.0068359 77.979492 1.3554688Q78.1875 1.7041016 78.1875 2.2490234Z"/>
	<path fill="none" stroke="black" stroke-width="1" stroke-miterlimit="10" stroke-opacity="0.10196079" d="M53 737.5L1001 737.5"/>
	<path fill="none" stroke="black" stroke-width="1" stroke-miterlimit="10" stroke-opacity="0.10196079" d="M53.5 34L53.5 738"/>
	<clipPath id="cl_1c5">
		<rect width="53.080002" height="800"/>
	</clipPath>
	<g clip-path="url(#cl_1c5)">
		<path fill="#666" transform="translate(42.08 737.6)" d="M-0.46679688 -0.030273438Q-0.46679688 2.0380859 -1.1962891 3.1279297Q-1.9257812 4.2177734 -3.3496094 4.2177734Q-4.7734375 4.2177734 -5.4882812 3.1337891Q-6.203125 2.0498047 -6.203125 -0.030273438Q-6.203125 -2.1572266 -5.5087891 -3.2177734Q-4.8144531 -4.2783203 -3.3144531 -4.2783203Q-1.8554688 -4.2783203 -1.1611328 -3.2060547Q-0.46679688 -2.1337891 -0.46679688 -0.030273438ZM-1.5390625 -0.030273438Q-1.5390625 -1.8173828 -1.9521484 -2.6201172Q-2.3652344 -3.4228516 -3.3144531 -3.4228516Q-4.2871094 -3.4228516 -4.7119141 -2.6318359Q-5.1367188 -1.8408203 -5.1367188 -0.030273438Q-5.1367188 1.7275391 -4.7060547 2.5419922Q-4.2753906 3.3564453 -3.3378906 3.3564453Q-2.40625 3.3564453 -1.9726562 2.5244141Q-1.5390625 1.6923828 -1.5390625 -0.030273438Z"/>
	</g>
	<clipPath id="cl_1c6">
		<rect width="53.080002" height="800"/>
	</clipPath>
	<g clip-path="url(#cl_1c6)">
		<path fill="#666" transform="translate(42.08 667.28)" d="M-10.474609 -0.030273438Q-10.474609 2.0380859 -11.204102 3.1279297Q-11.933594 4.2177734 -13.357422 4.2177734Q-14.78125 4.2177734 -15.496094 3.1337891Q-16.210938 2.0498047 -16.210938 -0.030273438Q-16.210938 -2.1572266 -15.516602 -3.2177734Q-14.822266 -4.2783203 -13.322266 -4.2783203Q-11.863281 -4.2783203 -11.168945 -3.2060547Q-10.474609 -2.1337891 -10.474609 -0.030273438ZM-11.546875 -0.030273438Q-11.546875 -1.8173828 -11.959961 -2.6201172Q-12.373047 -3.4228516 -13.322266 -3.4228516Q-14.294922 -3.4228516 -14.719727 -2.6318359Q-15.144531 -1.8408203 -15.144531 -0.030273438Q-15.144531 1.7275391 -14.713867 2.5419922Q-14.283203 3.3564453 -13.345703 3.3564453Q-12.414062 3.3564453 -11.980469 2.5244141Q-11.546875 1.6923828 -11.546875 -0.030273438ZM-8.9101562 4.1005859L-8.9101562 2.8173828L-7.7675781 2.8173828L-7.7675781 4.1005859L-8.9101562 4.1005859ZM-5.7578125 4.1005859L-5.7578125 3.2041016L-3.6542969 3.2041016L-3.6542969 -3.1474609L-5.5175781 -1.8173828L-5.5175781 -2.8134766L-3.5664062 -4.1552734L-2.59375 -4.1552734L-2.59375 3.2041016L-0.58398438 3.2041016L-0.58398438 4.1005859L-5.7578125 4.1005859Z"/>
	</g>
	<clipPath id="cl_1c7">
		<rect width="53.080002" height="800"/>
	</clipPath>
	<g clip-path="url(#cl_1c7)">
		<path fill="#666" transform="translate(42.08 596.96)" d="M-10.474609 -0.030273438Q-10.474609 2.0380859 -11.204102 3.1279297Q-11.933594 4.2177734 -13.357422 4.2177734Q-14.78125 4.2177734 -15.496094 3.1337891Q-16.210938 2.0498047 -16.210938 -0.030273438Q-16.210938 -2.1572266 -15.516602 -3.2177734Q-14.822266 -4.2783203 -13.322266 -4.2783203Q-11.863281 -4.2783203 -11.168945 -3.2060547Q-10.474609 -2.1337891 -10.474609 -0.030273438ZM-11.546875 -0.030273438Q-11.546875 -1.8173828 -11.959961 -2.6201172Q-12.373047 -3.4228516 -13.322266 -3.4228516Q-14.294922 -3.4228516 -14.719727 -2.6318359Q-15.144531 -1.8408203 -15.144531 -0.030273438Q-15.144531 1.7275391 -14.713867 2.5419922Q-14.283203 3.3564453 -13.345703 3.3564453Q-12.414062 3.3564453 -11.980469 2.5244141Q-11.546875 1.6923828 -11.546875 -0.030273438ZM-8.9101562 4.1005859L-8.9101562 2.8173828L-7.7675781 2.8173828L-7.7675781 4.1005859L-8.9101562 4.1005859ZM-6.0683594 4.1005859L-6.0683594 3.3564453Q-5.7695312 2.6708984 -5.3388672 2.1464844Q-4.9082031 1.6220703 -4.4335938 1.1972656Q-3.9589844 0.77246094 -3.4931641 0.40917969Q-3.0273438 0.045898438 -2.6523438 -0.31738281Q-2.2773438 -0.68066406 -2.0458984 -1.0791016Q-1.8144531 -1.4775391 -1.8144531 -1.9814453Q-1.8144531 -2.6611328 -2.2128906 -3.0361328Q-2.6113281 -3.4111328 -3.3203125 -3.4111328Q-3.9941406 -3.4111328 -4.4306641 -3.0449219Q-4.8671875 -2.6787109 -4.9433594 -2.0166016L-6.0214844 -2.1162109Q-5.9042969 -3.1064453 -5.1806641 -3.6923828Q-4.4570312 -4.2783203 -3.3203125 -4.2783203Q-2.0722656 -4.2783203 -1.4013672 -3.6894531Q-0.73046875 -3.1005859 -0.73046875 -2.0166016Q-0.73046875 -1.5361328 -0.95019531 -1.0615234Q-1.1699219 -0.58691406 -1.6035156 -0.11230469Q-2.0371094 0.36230469 -3.2617188 1.3583984Q-3.9355469 1.9091797 -4.3339844 2.3515625Q-4.7324219 2.7939453 -4.9082031 3.2041016L-0.6015625 3.2041016L-0.6015625 4.1005859L-6.0683594 4.1005859Z"/>
	</g>
	<clipPath id="cl_1c8">
		<rect width="53.080002" height="800"/>
	</clipPath>
	<g clip-path="url(#cl_1c8)">
		<path fill="#666" transform="translate(42.08 526.64)" d="M-10.474609 -0.030273438Q-10.474609 2.0380859 -11.204102 3.1279297Q-11.933594 4.2177734 -13.357422 4.2177734Q-14.78125 4.2177734 -15.496094 3.1337891Q-16.210938 2.0498047 -16.210938 -0.030273438Q-16.210938 -2.1572266 -15.516602 -3.2177734Q-14.822266 -4.2783203 -13.322266 -4.2783203Q-11.863281 -4.2783203 -11.168945 -3.2060547Q-10.474609 -2.1337891 -10.474609 -0.030273438ZM-11.546875 -0.030273438Q-11.546875 -1.8173828 -11.959961 -2.6201172Q-12.373047 -3.4228516 -13.322266 -3.4228516Q-14.294922 -3.4228516 -14.719727 -2.6318359Q-15.144531 -1.8408203 -15.144531 -0.030273438Q-15.144531 1.7275391 -14.713867 2.5419922Q-14.283203 3.3564453 -13.345703 3.3564453Q-12.414062 3.3564453 -11.980469 2.5244141Q-11.546875 1.6923828 -11.546875 -0.030273438ZM-8.9101562 4.1005859L-8.9101562 2.8173828L-7.7675781 2.8173828L-7.7675781 4.1005859L-8.9101562 4.1005859ZM-0.52539062 1.8212891Q-0.52539062 2.9638672 -1.2519531 3.5908203Q-1.9785156 4.2177734 -3.3261719 4.2177734Q-4.5800781 4.2177734 -5.3271484 3.6523438Q-6.0742188 3.0869141 -6.2148438 1.9794922L-5.125 1.8798828Q-4.9140625 3.3447266 -3.3261719 3.3447266Q-2.5292969 3.3447266 -2.0751953 2.9521484Q-1.6210938 2.5595703 -1.6210938 1.7861328Q-1.6210938 1.1123047 -2.1396484 0.734375Q-2.6582031 0.35644531 -3.6367188 0.35644531L-4.234375 0.35644531L-4.234375 -0.55761719L-3.6601562 -0.55761719Q-2.7929688 -0.55761719 -2.3154297 -0.93554688Q-1.8378906 -1.3134766 -1.8378906 -1.9814453Q-1.8378906 -2.6435547 -2.2275391 -3.0273438Q-2.6171875 -3.4111328 -3.3847656 -3.4111328Q-4.0820312 -3.4111328 -4.5126953 -3.0537109Q-4.9433594 -2.6962891 -5.0136719 -2.0458984L-6.0742188 -2.1279297Q-5.9570312 -3.1416016 -5.2333984 -3.7099609Q-4.5097656 -4.2783203 -3.3730469 -4.2783203Q-2.1308594 -4.2783203 -1.4423828 -3.7011719Q-0.75390625 -3.1240234 -0.75390625 -2.0927734Q-0.75390625 -1.3017578 -1.1962891 -0.80664062Q-1.6386719 -0.31152344 -2.4824219 -0.13574219L-2.4824219 -0.11230469Q-1.5566406 -0.012695312 -1.0410156 0.50878906Q-0.52539062 1.0302734 -0.52539062 1.8212891Z"/>
	</g>
	<clipPath id="cl_1c9">
		<rect width="53.080002" height="800"/>
	</clipPath>
	<g clip-path="url(#cl_1c9)">
		<path fill="#666" transform="translate(42.08 456.32)" d="M-10.474609 -0.030273438Q-10.474609 2.0380859 -11.204102 3.1279297Q-11.933594 4.2177734 -13.357422 4.2177734Q-14.78125 4.2177734 -15.496094 3.1337891Q-16.210938 2.0498047 -16.210938 -0.030273438Q-16.210938 -2.1572266 -15.516602 -3.2177734Q-14.822266 -4.2783203 -13.322266 -4.2783203Q-11.863281 -4.2783203 -11.168945 -3.2060547Q-10.474609 -2.1337891 -10.474609 -0.030273438ZM-11.546875 -0.030273438Q-11.546875 -1.8173828 -11.959961 -2.6201172Q-12.373047 -3.4228516 -13.322266 -3.4228516Q-14.294922 -3.4228516 -14.719727 -2.6318359Q-15.144531 -1.8408203 -15.144531 -0.030273438Q-15.144531 1.7275391 -14.713867 2.5419922Q-14.283203 3.3564453 -13.345703 3.3564453Q-12.414062 3.3564453 -11.980469 2.5244141Q-11.546875 1.6923828 -11.546875 -0.030273438ZM-8.9101562 4.1005859L-8.9101562 2.8173828L-7.7675781 2.8173828L-7.7675781 4.1005859L-8.9101562 4.1005859ZM-1.5097656 2.2314453L-1.5097656 4.1005859L-2.5058594 4.1005859L-2.5058594 2.2314453L-6.3964844 2.2314453L-6.3964844 1.4111328L-2.6171875 -4.1552734L-1.5097656 -4.1552734L-1.5097656 1.3994141L-0.34960938 1.3994141L-0.34960938 2.2314453L-1.5097656 2.2314453ZM-2.5058594 -2.9658203Q-2.5175781 -2.9306641 -2.6699219 -2.6552734Q-2.8222656 -2.3798828 -2.8984375 -2.2685547L-5.0136719 0.84863281L-5.3300781 1.2822266L-5.4238281 1.3994141L-2.5058594 1.3994141L-2.5058594 -2.9658203Z"/>
	</g>
	<clipPath id="cl_1ca">
		<rect width="53.080002" height="800"/>
	</clipPath>
	<g clip-path="url(#cl_1ca)">
		<path fill="#666" transform="translate(42.08 386)" d="M-10.474609 -0.030273438Q-10.474609 2.0380859 -11.204102 3.1279297Q-11.933594 4.2177734 -13.357422 4.2177734Q-14.78125 4.2177734 -15.496094 3.1337891Q-16.210938 2.0498047 -16.210938 -0.030273438Q-16.210938 -2.1572266 -15.516602 -3.2177734Q-14.822266 -4.2783203 -13.322266 -4.2783203Q-11.863281 -4.2783203 -11.168945 -3.2060547Q-10.474609 -2.1337891 -10.474609 -0.030273438ZM-11.546875 -0.030273438Q-11.546875 -1.8173828 -11.959961 -2.6201172Q-12.373047 -3.4228516 -13.322266 -3.4228516Q-14.294922 -3.4228516 -14.719727 -2.6318359Q-15.144531 -1.8408203 -15.144531 -0.030273438Q-15.144531 1.7275391 -14.713867 2.5419922Q-14.283203 3.3564453 -13.345703 3.3564453Q-12.414062 3.3564453 -11.980469 2.5244141Q-11.546875 1.6923828 -11.546875 -0.030273438ZM-8.9101562 4.1005859L-8.9101562 2.8173828L-7.7675781 2.8173828L-7.7675781 4.1005859L-8.9101562 4.1005859ZM-0.50195312 1.4111328Q-0.50195312 2.7177734 -1.2783203 3.4677734Q-2.0546875 4.2177734 -3.4316406 4.2177734Q-4.5859375 4.2177734 -5.2949219 3.7138672Q-6.0039062 3.2099609 -6.1914062 2.2548828L-5.125 2.1318359Q-4.7910156 3.3564453 -3.4082031 3.3564453Q-2.5585938 3.3564453 -2.078125 2.84375Q-1.5976562 2.3310547 -1.5976562 1.4345703Q-1.5976562 0.65527344 -2.0810547 0.17480469Q-2.5644531 -0.30566406 -3.3847656 -0.30566406Q-3.8125 -0.30566406 -4.1816406 -0.17089844Q-4.5507812 -0.036132812 -4.9199219 0.28613281L-5.9511719 0.28613281L-5.6757812 -4.1552734L-0.98242188 -4.1552734L-0.98242188 -3.2587891L-4.7148438 -3.2587891L-4.8730469 -0.63964844Q-4.1875 -1.1669922 -3.1679688 -1.1669922Q-1.9492188 -1.1669922 -1.2255859 -0.45214844Q-0.50195312 0.26269531 -0.50195312 1.4111328Z"/>
	</g>
	<clipPath id="cl_1cb">
		<rect width="53.080002" height="800"/>
	</clipPath>
	<g clip-path="url(#cl_1cb)">
		<path fill="#666" transform="translate(42.08 315.68)" d="M-10.474609 -0.030273438Q-10.474609 2.0380859 -11.204102 3.1279297Q-11.933594 4.2177734 -13.357422 4.2177734Q-14.78125 4.2177734 -15.496094 3.1337891Q-16.210938 2.0498047 -16.210938 -0.030273438Q-16.210938 -2.1572266 -15.516602 -3.2177734Q-14.822266 -4.2783203 -13.322266 -4.2783203Q-11.863281 -4.2783203 -11.168945 -3.2060547Q-10.474609 -2.1337891 -10.474609 -0.030273438ZM-11.546875 -0.030273438Q-11.546875 -1.8173828 -11.959961 -2.6201172Q-12.373047 -3.4228516 -13.322266 -3.4228516Q-14.294922 -3.4228516 -14.719727 -2.6318359Q-15.144531 -1.8408203 -15.144531 -0.030273438Q-15.144531 1.7275391 -14.713867 2.5419922Q-14.283203 3.3564453 -13.345703 3.3564453Q-12.414062 3.3564453 -11.980469 2.5244141Q-11.546875 1.6923828 -11.546875 -0.030273438ZM-8.9101562 4.1005859L-8.9101562 2.8173828L-7.7675781 2.8173828L-7.7675781 4.1005859L-8.9101562 4.1005859ZM-0.52539062 1.3994141Q-0.52539062 2.7060547 -1.234375 3.4619141Q-1.9433594 4.2177734 -3.1914062 4.2177734Q-4.5859375 4.2177734 -5.3242188 3.1806641Q-6.0625 2.1435547 -6.0625 0.16308594Q-6.0625 -1.9814453 -5.2949219 -3.1298828Q-4.5273438 -4.2783203 -3.109375 -4.2783203Q-1.2402344 -4.2783203 -0.75390625 -2.5966797L-1.7617188 -2.4150391Q-2.0722656 -3.4228516 -3.1210938 -3.4228516Q-4.0234375 -3.4228516 -4.5185547 -2.5820312Q-5.0136719 -1.7412109 -5.0136719 -0.14746094Q-4.7265625 -0.68066406 -4.2050781 -0.95898438Q-3.6835938 -1.2373047 -3.0097656 -1.2373047Q-1.8671875 -1.2373047 -1.1962891 -0.52246094Q-0.52539062 0.19238281 -0.52539062 1.3994141ZM-1.5976562 1.4462891Q-1.5976562 0.54980469 -2.0371094 0.063476562Q-2.4765625 -0.42285156 -3.2617188 -0.42285156Q-4 -0.42285156 -4.4541016 0.0078125Q-4.9082031 0.43847656 -4.9082031 1.1943359Q-4.9082031 2.1494141 -4.4365234 2.7587891Q-3.9648438 3.3681641 -3.2265625 3.3681641Q-2.4648438 3.3681641 -2.03125 2.8554688Q-1.5976562 2.3427734 -1.5976562 1.4462891Z"/>
	</g>
	<clipPath id="cl_1cc">
		<rect width="53.080002" height="800"/>
	</clipPath>
	<g clip-path="url(#cl_1cc)">
		<path fill="#666" transform="translate(42.08 245.36)" d="M-10.474609 -0.030273438Q-10.474609 2.0380859 -11.204102 3.1279297Q-11.933594 4.2177734 -13.357422 4.2177734Q-14.78125 4.2177734 -15.496094 3.1337891Q-16.210938 2.0498047 -16.210938 -0.030273438Q-16.210938 -2.1572266 -15.516602 -3.2177734Q-14.822266 -4.2783203 -13.322266 -4.2783203Q-11.863281 -4.2783203 -11.168945 -3.2060547Q-10.474609 -2.1337891 -10.474609 -0.030273438ZM-11.546875 -0.030273438Q-11.546875 -1.8173828 -11.959961 -2.6201172Q-12.373047 -3.4228516 -13.322266 -3.4228516Q-14.294922 -3.4228516 -14.719727 -2.6318359Q-15.144531 -1.8408203 -15.144531 -0.030273438Q-15.144531 1.7275391 -14.713867 2.5419922Q-14.283203 3.3564453 -13.345703 3.3564453Q-12.414062 3.3564453 -11.980469 2.5244141Q-11.546875 1.6923828 -11.546875 -0.030273438ZM-8.9101562 4.1005859L-8.9101562 2.8173828L-7.7675781 2.8173828L-7.7675781 4.1005859L-8.9101562 4.1005859ZM-0.6015625 -3.2998047Q-1.8671875 -1.3662109 -2.3886719 -0.27050781Q-2.9101562 0.82519531 -3.1708984 1.8916016Q-3.4316406 2.9580078 -3.4316406 4.1005859L-4.5332031 4.1005859Q-4.5332031 2.5185547 -3.8623047 0.76953125Q-3.1914062 -0.97949219 -1.6210938 -3.2587891L-6.0566406 -3.2587891L-6.0566406 -4.1552734L-0.6015625 -4.1552734L-0.6015625 -3.2998047Z"/>
	</g>
	<clipPath id="cl_1cd">
		<rect width="53.080002" height="800"/>
	</clipPath>
	<g clip-path="url(#cl_1cd)">
		<path fill="#666" transform="translate(42.08 175.04)" d="M-10.474609 -0.030273438Q-10.474609 2.0380859 -11.204102 3.1279297Q-11.933594 4.2177734 -13.357422 4.2177734Q-14.78125 4.2177734 -15.496094 3.1337891Q-16.210938 2.0498047 -16.210938 -0.030273438Q-16.210938 -2.1572266 -15.516602 -3.2177734Q-14.822266 -4.2783203 -13.322266 -4.2783203Q-11.863281 -4.2783203 -11.168945 -3.2060547Q-10.474609 -2.1337891 -10.474609 -0.030273438ZM-11.546875 -0.030273438Q-11.546875 -1.8173828 -11.959961 -2.6201172Q-12.373047 -3.4228516 -13.322266 -3.4228516Q-14.294922 -3.4228516 -14.719727 -2.6318359Q-15.144531 -1.8408203 -15.144531 -0.030273438Q-15.144531 1.7275391 -14.713867 2.5419922Q-14.283203 3.3564453 -13.345703 3.3564453Q-12.414062 3.3564453 -11.980469 2.5244141Q-11.546875 1.6923828 -11.546875 -0.030273438ZM-8.9101562 4.1005859L-8.9101562 2.8173828L-7.7675781 2.8173828L-7.7675781 4.1005859L-8.9101562 4.1005859ZM-0.51953125 1.7978516Q-0.51953125 2.9404297 -1.2460938 3.5791016Q-1.9726562 4.2177734 -3.3320312 4.2177734Q-4.65625 4.2177734 -5.4033203 3.5908203Q-6.1503906 2.9638672 -6.1503906 1.8095703Q-6.1503906 1.0009766 -5.6875 0.45019531Q-5.2246094 -0.10058594 -4.5039062 -0.21777344L-4.5039062 -0.24121094Q-5.1777344 -0.39941406 -5.5673828 -0.92675781Q-5.9570312 -1.4541016 -5.9570312 -2.1630859Q-5.9570312 -3.1064453 -5.2509766 -3.6923828Q-4.5449219 -4.2783203 -3.3554688 -4.2783203Q-2.1367188 -4.2783203 -1.4306641 -3.7041016Q-0.72460938 -3.1298828 -0.72460938 -2.1513672Q-0.72460938 -1.4423828 -1.1171875 -0.91503906Q-1.5097656 -0.38769531 -2.1894531 -0.25292969L-2.1894531 -0.22949219Q-1.3984375 -0.10058594 -0.95898438 0.44140625Q-0.51953125 0.98339844 -0.51953125 1.7978516ZM-1.8203125 -2.0927734Q-1.8203125 -3.4931641 -3.3554688 -3.4931641Q-4.0996094 -3.4931641 -4.4892578 -3.1416016Q-4.8789062 -2.7900391 -4.8789062 -2.0927734Q-4.8789062 -1.3837891 -4.4775391 -1.0117188Q-4.0761719 -0.63964844 -3.34375 -0.63964844Q-2.5996094 -0.63964844 -2.2099609 -0.98242188Q-1.8203125 -1.3251953 -1.8203125 -2.0927734ZM-1.6152344 1.6982422Q-1.6152344 0.93066406 -2.0722656 0.54101562Q-2.5292969 0.15136719 -3.3554688 0.15136719Q-4.1582031 0.15136719 -4.609375 0.5703125Q-5.0605469 0.98925781 -5.0605469 1.7216797Q-5.0605469 3.4267578 -3.3203125 3.4267578Q-2.4589844 3.4267578 -2.0371094 3.0136719Q-1.6152344 2.6005859 -1.6152344 1.6982422Z"/>
	</g>
	<clipPath id="cl_1ce">
		<rect width="53.080002" height="800"/>
	</clipPath>
	<g clip-path="url(#cl_1ce)">
		<path fill="#666" transform="translate(42.08 104.72)" d="M-10.474609 -0.030273438Q-10.474609 2.0380859 -11.204102 3.1279297Q-11.933594 4.2177734 -13.357422 4.2177734Q-14.78125 4.2177734 -15.496094 3.1337891Q-16.210938 2.0498047 -16.210938 -0.030273438Q-16.210938 -2.1572266 -15.516602 -3.2177734Q-14.822266 -4.2783203 -13.322266 -4.2783203Q-11.863281 -4.2783203 -11.168945 -3.2060547Q-10.474609 -2.1337891 -10.474609 -0.030273438ZM-11.546875 -0.030273438Q-11.546875 -1.8173828 -11.959961 -2.6201172Q-12.373047 -3.4228516 -13.322266 -3.4228516Q-14.294922 -3.4228516 -14.719727 -2.6318359Q-15.144531 -1.8408203 -15.144531 -0.030273438Q-15.144531 1.7275391 -14.713867 2.5419922Q-14.283203 3.3564453 -13.345703 3.3564453Q-12.414062 3.3564453 -11.980469 2.5244141Q-11.546875 1.6923828 -11.546875 -0.030273438ZM-8.9101562 4.1005859L-8.9101562 2.8173828L-7.7675781 2.8173828L-7.7675781 4.1005859L-8.9101562 4.1005859ZM-0.56640625 -0.19433594Q-0.56640625 1.9326172 -1.3427734 3.0751953Q-2.1191406 4.2177734 -3.5546875 4.2177734Q-4.5214844 4.2177734 -5.1044922 3.8105469Q-5.6875 3.4033203 -5.9394531 2.4951172L-4.9316406 2.3369141Q-4.6152344 3.3681641 -3.5371094 3.3681641Q-2.6289062 3.3681641 -2.1308594 2.5244141Q-1.6328125 1.6806641 -1.609375 0.11621094Q-1.84375 0.64355469 -2.4121094 0.96289062Q-2.9804688 1.2822266 -3.6601562 1.2822266Q-4.7734375 1.2822266 -5.4414062 0.52050781Q-6.109375 -0.24121094 -6.109375 -1.5009766Q-6.109375 -2.7958984 -5.3828125 -3.5371094Q-4.65625 -4.2783203 -3.3613281 -4.2783203Q-1.984375 -4.2783203 -1.2753906 -3.2587891Q-0.56640625 -2.2392578 -0.56640625 -0.19433594ZM-1.7148438 -1.2138672Q-1.7148438 -2.2099609 -2.171875 -2.8164062Q-2.6289062 -3.4228516 -3.3964844 -3.4228516Q-4.1582031 -3.4228516 -4.5976562 -2.9042969Q-5.0371094 -2.3857422 -5.0371094 -1.5009766Q-5.0371094 -0.59863281 -4.5976562 -0.07421875Q-4.1582031 0.45019531 -3.4082031 0.45019531Q-2.9511719 0.45019531 -2.5585938 0.2421875Q-2.1660156 0.034179688 -1.9404297 -0.34667969Q-1.7148438 -0.72753906 -1.7148438 -1.2138672Z"/>
	</g>
	<clipPath id="cl_1cf">
		<rect width="53.080002" height="800"/>
	</clipPath>
	<g clip-path="url(#cl_1cf)">
		<path fill="#666" transform="translate(42.08 34.4)" d="M-15.765625 4.1005859L-15.765625 3.2041016L-13.662109 3.2041016L-13.662109 -3.1474609L-15.525391 -1.8173828L-15.525391 -2.8134766L-13.574219 -4.1552734L-12.601562 -4.1552734L-12.601562 3.2041016L-10.591797 3.2041016L-10.591797 4.1005859L-15.765625 4.1005859ZM-8.9101562 4.1005859L-8.9101562 2.8173828L-7.7675781 2.8173828L-7.7675781 4.1005859L-8.9101562 4.1005859ZM-0.46679688 -0.030273438Q-0.46679688 2.0380859 -1.1962891 3.1279297Q-1.9257812 4.2177734 -3.3496094 4.2177734Q-4.7734375 4.2177734 -5.4882812 3.1337891Q-6.203125 2.0498047 -6.203125 -0.030273438Q-6.203125 -2.1572266 -5.5087891 -3.2177734Q-4.8144531 -4.2783203 -3.3144531 -4.2783203Q-1.8554688 -4.2783203 -1.1611328 -3.2060547Q-0.46679688 -2.1337891 -0.46679688 -0.030273438ZM-1.5390625 -0.030273438Q-1.5390625 -1.8173828 -1.9521484 -2.6201172Q-2.3652344 -3.4228516 -3.3144531 -3.4228516Q-4.2871094 -3.4228516 -4.7119141 -2.6318359Q-5.1367188 -1.8408203 -5.1367188 -0.030273438Q-5.1367188 1.7275391 -4.7060547 2.5419922Q-4.2753906 3.3564453 -3.3378906 3.3564453Q-2.40625 3.3564453 -1.9726562 2.5244141Q-1.5390625 1.6923828 -1.5390625 -0.030273438Z"/>
	</g>
</svg>
